<svg xmlns="http://www.w3.org/2000/svg" viewBox="0 0 500 500"><g id="freepik--background-complete--inject-69"><path d="M392.73,413.14c-.2.59-33.76-14.5-28.42-44.37,1.81-14.8,5.56-32.5,14.63-48,13.43-15.14,41.49-52.56,55.22-55.72,16.7-2,26.72,56.77,14.06,76.33-9.69,20.1-52.9,28.13-59.64,36.6C377,395.65,392.14,413.2,392.73,413.14Z" style="fill:#ebebeb"></path><path d="M431,318.12c.63,2.37,2.48,2.68,4.08.62a9.83,9.83,0,0,0,1.51-8c-.75-2.37-2.53-2.57-4-.52A10.64,10.64,0,0,0,431,318.12Z" style="fill:#fff"></path><path d="M414.38,330.18c.38,2.35,2.31,2.78,4.24.89a9.33,9.33,0,0,0,2.48-7.72c-.53-2.35-2.35-2.66-4.14-.78A10.18,10.18,0,0,0,414.38,330.18Z" style="fill:#fff"></path><path d="M395.08,340.67c.1,2.33,2.14,2.91,4.46,1.21s3.92-5,3.66-7.35-2.16-2.77-4.32-1.08S395,338.34,395.08,340.67Z" style="fill:#fff"></path><path d="M98.1,349.08c.56-.14,5-17.48,6.8-39.56,1.22-14,7.2-31.12,12.85-51,7.34-21.38-7.38-60-36.25-55.12-13.64,2.42-26.91,20-32.09,38.36-5.73,18.49-3.35,37.72,1.52,46.75,10.59,18.33,38.71,23.16,41.35,31.69C97.88,336.89,98.33,348.93,98.1,349.08Z" style="fill:#ebebeb"></path><path d="M89.76,276.37c-.51,2.7.31,5.24,1.7,5.72s2.81-1.25,3.33-3.88-.07-5.21-1.47-5.75S90.27,273.68,89.76,276.37Z" style="fill:#fff"></path><path d="M78.4,265.89c-.6,2.84.2,5.55,1.64,6.08s3-1.28,3.62-4.06,0-5.54-1.42-6.13S79,263.06,78.4,265.89Z" style="fill:#fff"></path><path d="M66.45,254.91c-.63,3,.2,5.77,1.72,6.32S71.36,259.89,72,257s.06-5.79-1.51-6.38S67.08,252,66.45,254.91Z" style="fill:#fff"></path><path d="M202.58,164.31s-5.75-8.11-7.69-21.15c-1.18-8.06-1.55-22.36.45-32.78,2-11.73,19.76-24.9,27.49-22.27,7.56,2.56,5.61,24.34.73,33.24S203.37,133,201.45,144C199.7,153.74,202.57,164.31,202.58,164.31Z" style="fill:#ebebeb"></path><path d="M217.54,109.58c.22,1.66,1.15,2.22,2.08,1.25a6.59,6.59,0,0,0,1.33-4.75c-.21-1.66-1.15-2.22-2.1-1.26A6.51,6.51,0,0,0,217.54,109.58Z" style="fill:#fff"></path><path d="M209,114.69c.24,1.66,1.16,2.21,2.07,1.22a6.6,6.6,0,0,0,1.23-4.78c-.22-1.66-1.16-2.21-2.08-1.23A6.53,6.53,0,0,0,209,114.69Z" style="fill:#fff"></path><path d="M200.64,119.9c.25,1.66,1.17,2.2,2.06,1.21a6.68,6.68,0,0,0,1.16-4.81c-.25-1.66-1.18-2.2-2.08-1.21A6.61,6.61,0,0,0,200.64,119.9Z" style="fill:#fff"></path><path d="M252.14,332.23c-39.32,0-61.35-19.25-73-35.6-13.72-19.31-17.35-39.84-17.54-45.52a115.22,115.22,0,0,1,7.19-43.67c7.88-20.52,26-46.05,67.56-51.17,28.05-3.46,51.56,2.86,69.86,18.76,23.19,20.15,32.25,51.37,32.51,66.32s-2.58,89.18-84.1,90.86Zm-1.28-175.88a116.52,116.52,0,0,0-14.34.91c-41.08,5.06-59,30.28-66.75,50.54a113.89,113.89,0,0,0-7.13,43.25v0c.23,7,4.78,27.28,17.35,45,11.48,16.16,33.26,35.18,72.15,35.18l2.5,0c80.57-1.66,83.38-75.13,83.12-89.84s-9.22-45.65-32.16-65.58C290.72,162.86,272.36,156.35,250.86,156.35Z" style="fill:#ebebeb"></path><path d="M305.54,178.41s61.84,54.05,13.72,115.68S206.33,320.31,191.4,305.9c-15.33-14.81-56.49-65.29-4.62-119.33S297.31,170.71,305.54,178.41Z" style="fill:#ebebeb"></path><path d="M254.39,334.16c-36.44,0-58.5-17.21-70.6-31.68a95.9,95.9,0,0,1-17.74-31.85c-.2-.68-11.73-41.88,8.22-75.72,12-20.35,32.78-34,61.77-40.57,27.66-6.26,50.69-2.75,68.43,10.45,32.33,24.06,35.94,71.44,36.08,73.45,0,.41,1.61,43.4-24.52,71.74-14.73,16-35.34,24.1-61.28,24.18Zm6.81-181.83a113.32,113.32,0,0,0-24.94,3c-28.71,6.5-49.27,20-61.12,40.09-19.8,33.57-8.25,74.53-8.13,74.94h0a95.09,95.09,0,0,0,17.57,31.51c12,14.29,33.78,31.29,69.82,31.29h.34c25.13-.08,45.2-7.79,59.66-22.91,26.66-27.88,25.17-71.52,25.15-71.95-.13-2-3.71-48.92-35.67-72.7C292,156.76,277.71,152.33,261.2,152.33Z" style="fill:#ebebeb"></path><path d="M240.78,333.3c-11.39,0-23.21-1.81-34.22-6.8-20.54-9.3-34.84-27.95-42.49-55.42-8.68-31.16-6.53-57.14,6.37-77.23,19.05-29.67,56.28-37.65,67.23-39.39l.57-.09c.17-.1,40.16-3.28,70.63,16.13,21.93,14,32.65,35.82,31.86,64.95-1,35.08-12.36,56.27-21.76,67.88-10,12.38-20,16.79-20.46,17C297.81,320.64,270.84,333.3,240.78,333.3Zm-2.26-178a4.43,4.43,0,0,1-.69.13c-10.85,1.72-47.72,9.62-66.55,38.94-12.74,19.84-14.84,45.55-6.25,76.42,7.57,27.17,21.68,45.6,41.94,54.78,10.87,4.92,22.57,6.72,33.82,6.72,30,0,56.93-12.73,57.3-12.91h0c.1,0,10.07-4.32,20.12-16.75,9.29-11.47,20.56-32.45,21.5-67.22.68-24.9-7.21-44.49-23.43-58.23C286.42,151.89,239.62,155.19,238.52,155.32Z" style="fill:#ebebeb"></path><path d="M252,335a88.31,88.31,0,0,1-57.67-21.42c-17.88-15.13-27.9-34.74-28.26-43.09l1,0c.35,8.16,10.24,27.42,27.9,42.36,13.63,11.53,36.64,24.44,68.86,20.45,61.94-7.68,69.85-58.63,75.62-95.84l.33-2.08c2.94-18.91-9.57-44.11-30.42-61.28-15.11-12.44-47.13-30.91-91.81-14.72-38.26,13.86-50.13,42.61-53.34,64.29A118.92,118.92,0,0,0,166.4,268l-1,.27a120.06,120.06,0,0,1-2.26-44.68c3.24-22,15.25-51.09,54-65.12,45.15-16.36,77.51,2.31,92.79,14.89,21.11,17.38,33.76,43,30.76,62.2l-.32,2.09c-5.82,37.52-13.8,88.9-76.49,96.67A97.54,97.54,0,0,1,252,335Z" style="fill:#ebebeb"></path></g><g id="freepik--Floor--inject-69"><path d="M52.32,451.09c126.65-.61,268.71-.62,395.36,0-126.65.62-268.71.61-395.36,0Z" style="fill:#263238"></path></g><g id="freepik--Doodles--inject-69"><path d="M261.05,169.47c-8.83,3.17-19.87,3.62-27.62-2.45-6.43-5-8.79-13.61-7.73-21.49A28.11,28.11,0,0,1,230,134c2.78-4.29,6.48-7.88,10.09-11.46,6.82-6.75,14.54-14.91,14.28-25.22-.23-9.06-7.64-16.12-15.94-18.58a28.18,28.18,0,0,0-17.84.79c-.28-.43-.57-.84-.88-1.23-4.89-6.16-13.08-9-20.75-9a38.58,38.58,0,0,0-24.27,8.87,37.71,37.71,0,0,0-4.62,4.58c-.45.54.35,1.29.81.75A37.41,37.41,0,0,1,192.71,71c7.75-1.4,16.16-.3,22.57,4.53a18.92,18.92,0,0,1,4.25,4.41A28,28,0,0,0,214,83.07c-3.08,2.28-7.62,6.3-5.84,10.61a7.37,7.37,0,0,0,8.4,4c3.92-1,6.15-5.2,6.49-9a14.21,14.21,0,0,0-1.86-8.21,27.21,27.21,0,0,1,16.92-.69c8.26,2.4,15.47,9.57,15.18,18.6-.15,4.84-2.31,9.42-5,13.35s-6.34,7.45-9.81,10.89a66.09,66.09,0,0,0-9.54,11.05,28.79,28.79,0,0,0-4.18,11c-1.16,7.35.44,15.36,5.56,21,6.17,6.75,16,8.2,24.6,6.66a39.45,39.45,0,0,0,6.5-1.74C262.05,170.29,261.72,169.23,261.05,169.47Zm-39.56-85.4c1,3.7.43,8.11-2.44,10.87a6.13,6.13,0,0,1-4.93,1.78,6.58,6.58,0,0,1-4.21-2.21c-3.16-3.78,1.49-8.12,4.41-10.33a26.45,26.45,0,0,1,5.8-3.31A13.37,13.37,0,0,1,221.49,84.07Z" style="fill:#263238"></path><path d="M432.62,250.36c-10-3.15-19.34,4.08-26.12,10.52s-14.13,14.18-24.18,13.7a14.77,14.77,0,0,1-11.61-6c-2.6-3.8-3.06-8.57-2.77-13.06.63-9.77,5.63-20.1,1.62-29.73a19.54,19.54,0,0,0-9.49-9.65c-4.83-2.42-10.26-3.18-15.61-3.45-1.42-.07-2.85-.11-4.28-.13a.55.55,0,0,0,0,1.1c5.63.1,11.39.36,16.73,2.31,4.43,1.62,8.59,4.52,10.9,8.71,2.53,4.61,2.42,10.07,1.66,15.13-.74,4.9-2.1,9.7-2.55,14.65-.4,4.42-.15,9.11,1.92,13.13a15,15,0,0,0,10,7.62A20.26,20.26,0,0,0,392,273.7c4.38-2,8.08-5.18,11.56-8.45,3.64-3.4,7.09-7,11.24-9.83s8.91-5,13.94-4.68a14.91,14.91,0,0,1,3.64.68C433,251.64,433.3,250.58,432.62,250.36Z" style="fill:#263238"></path><path d="M91.27,216.33c-.94-1.81-2-4.58-.68-6.48a1.82,1.82,0,0,1,2.59-.42,4.53,4.53,0,0,1,1.61,2.36,10.63,10.63,0,0,1,0,6A12.62,12.62,0,0,1,94,220,15.39,15.39,0,0,1,91.27,216.33Zm27.32-.28a15.76,15.76,0,0,1-10.35,8.18,15,15,0,0,1-12.69-2.84c-.25-.19-.48-.41-.72-.62a14.79,14.79,0,0,0,1.06-2.8,12,12,0,0,0,0-6.44c-.56-1.77-2.05-3.8-4.14-3.56-2.55.3-3.06,3.36-2.7,5.43a14,14,0,0,0,3.27,6.4A16.72,16.72,0,0,0,93.46,221,14.4,14.4,0,0,1,87.08,227a17.36,17.36,0,0,1-12.91.27C64.38,223.76,59,213.5,57.36,203.79a43.1,43.1,0,0,1,4.06-26.54c.51-1,1.07-2,1.66-2.94.37-.6-.51-1.26-.88-.66A44.07,44.07,0,0,0,56,202.4c1.38,10.54,7,21.92,17.53,25.77A18.5,18.5,0,0,0,87.5,228a15.47,15.47,0,0,0,6.79-6.22,16.38,16.38,0,0,0,10.66,4,16.92,16.92,0,0,0,12.73-6.24,15.79,15.79,0,0,0,1.93-3C119.92,215.82,118.9,215.41,118.59,216.05Zm-55.17-44A102.65,102.65,0,0,0,53,179.68c-.5.42,0,1.3.55.88a101.62,101.62,0,0,1,9.37-6.89,46.36,46.36,0,0,0-1.43,10.75c0,.67,1,.64,1,0a44.18,44.18,0,0,1,1.72-11.76A.52.52,0,0,0,63.42,172.08Z" style="fill:#263238"></path><path d="M393,114.4c-1.87.83-4.7,1.71-6.51.26a1.81,1.81,0,0,1-.25-2.61,4.61,4.61,0,0,1,2.46-1.46,10.72,10.72,0,0,1,6,.37,14.41,14.41,0,0,1,2.16,1A15.15,15.15,0,0,1,393,114.4Zm1.49-27.27A15.72,15.72,0,0,1,402,98a15.05,15.05,0,0,1-3.65,12.48c-.21.24-.45.46-.67.68A15.25,15.25,0,0,0,395,109.9a12,12,0,0,0-6.42-.39c-1.81.43-3.93,1.79-3.82,3.9.13,2.56,3.15,3.27,5.23,3a14.09,14.09,0,0,0,6.61-2.85c.45-.34.87-.7,1.29-1.07a14.4,14.4,0,0,1,5.51,6.75,17.33,17.33,0,0,1-.58,12.89c-4.08,9.55-14.67,14.25-24.47,15.26a43,43,0,0,1-26.21-5.77c-1-.57-1.91-1.19-2.83-1.85-.57-.41-1.29.42-.72.84a44.12,44.12,0,0,0,28.29,8c10.61-.7,22.33-5.53,26.86-15.83a18.53,18.53,0,0,0,.7-13.91,15.57,15.57,0,0,0-5.77-7.18,16.39,16.39,0,0,0,4.68-10.38,16.93,16.93,0,0,0-5.4-13.1A16.06,16.06,0,0,0,395,86.13C394.38,85.78,393.91,86.78,394.52,87.13Zm-47.46,52.2A101.25,101.25,0,0,0,354,150.27c.38.53,1.29,0,.9-.5a101.06,101.06,0,0,1-6.26-9.8,45.36,45.36,0,0,0,10.63,2.13c.67.05.7-1,0-1a44.88,44.88,0,0,1-11.62-2.48A.52.52,0,0,0,347.06,139.33Z" style="fill:#263238"></path><path d="M364.84,319.83c-2-.23-4.93-.9-5.76-3.07a1.83,1.83,0,0,1,1.11-2.38,4.55,4.55,0,0,1,2.85,0,10.66,10.66,0,0,1,5,3.32,13.75,13.75,0,0,1,1.37,1.93A15,15,0,0,1,364.84,319.83Zm15-22.8a15.7,15.7,0,0,1,1,13.15,15,15,0,0,1-9.45,8.93c-.31.1-.62.17-.92.25a15,15,0,0,0-1.73-2.44,12,12,0,0,0-5.35-3.59c-1.78-.53-4.3-.43-5.26,1.44-1.18,2.28,1.06,4.42,3,5.28a14.13,14.13,0,0,0,7.14.86c.56-.06,1.11-.16,1.65-.27a14.23,14.23,0,0,1,1.35,8.6,17.36,17.36,0,0,1-7,10.85c-8.35,6.18-19.86,4.9-28.83.82a43.05,43.05,0,0,1-19.72-18.2c-.55-1-1.05-2-1.51-3-.29-.64-1.33-.28-1,.36a44,44,0,0,0,20.38,21.19c9.51,4.75,22.07,6.5,31.17-.11a18.48,18.48,0,0,0,7.62-11.65,15.47,15.47,0,0,0-1.35-9.11,16.34,16.34,0,0,0,9.27-6.61,16.91,16.91,0,0,0,1.95-14,16.11,16.11,0,0,0-1.44-3.3C380.44,295.8,379.53,296.42,379.88,297Zm-67.31,21.12a103.52,103.52,0,0,0,.45,12.94c.07.65,1.1.69,1,0a102.44,102.44,0,0,1-.47-11.62,45.85,45.85,0,0,0,8.11,7.19c.55.38,1.1-.49.56-.87a44.25,44.25,0,0,1-8.79-8A.52.52,0,0,0,312.57,318.15Z" style="fill:#263238"></path><path d="M266.85,183.48c-2.28.07-5.57-.2-6.83-2.46a2,2,0,0,1,.83-2.8,5.18,5.18,0,0,1,3.15-.47,11.9,11.9,0,0,1,6,2.88,14.87,14.87,0,0,1,1.82,1.9A16.58,16.58,0,0,1,266.85,183.48ZM279.8,156A17.52,17.52,0,0,1,283,170.3a16.73,16.73,0,0,1-9,11.34c-.31.16-.65.29-1,.43a16.4,16.4,0,0,0-2.29-2.42,13.38,13.38,0,0,0-6.47-3.1c-2-.31-4.8.21-5.57,2.43-.94,2.7,1.88,4.69,4.12,5.33a15.69,15.69,0,0,0,8-.18,18.24,18.24,0,0,0,1.77-.57,16,16,0,0,1,2.86,9.28,19.26,19.26,0,0,1-6,13.06c-8.21,8.14-21.1,8.56-31.63,5.5a48,48,0,0,1-24.64-16.93c-.76-1-1.47-2-2.14-3.09-.42-.66-1.51-.11-1.09.56a49,49,0,0,0,25.83,20.11c11.24,3.72,25.36,3.64,34.34-5.09a20.58,20.58,0,0,0,6.55-14.05,17.33,17.33,0,0,0-2.95-9.83,18.18,18.18,0,0,0,9.17-8.75,18.8,18.8,0,0,0-.09-15.78,17.8,17.8,0,0,0-2.11-3.41C280.22,154.52,279.32,155.34,279.8,156Zm-.78-2.33a44.66,44.66,0,0,1-.22,11.89c-.1.65.91.85,1,.19a45.19,45.19,0,0,0,.35-10.84,104.64,104.64,0,0,1,8.12,8.33c.44.5,1.12-.28.69-.77a104.08,104.08,0,0,0-9.09-9.22A.52.52,0,0,0,279,153.63Z" style="fill:#263238"></path><path d="M317.33,171.18c-2.87-10.06-10.12-18.08-14-27.7a45.18,45.18,0,0,1,18.89-55.83c1.11-.66,2.25-1.27,3.42-1.84.63-.3.27-1.35-.37-1a46.27,46.27,0,0,0-25,52.55A54.61,54.61,0,0,0,306.36,152c2.58,4.51,5.46,8.87,7.65,13.59A33.15,33.15,0,0,1,317.39,181a35.3,35.3,0,0,1-4.74,15.89c-5.31,9.3-14.45,15.84-24.27,19.72-1.21.48-2.43.91-3.65,1.32a.55.55,0,0,0,.36,1c9.86-3.25,19.24-8.85,25.62-17.18C317.29,193.2,320.34,181.76,317.33,171.18Z" style="fill:#263238"></path><path d="M156.56,265.15c-5,1.94-10.17,3.87-15.57,4.48a31,31,0,0,1-13-1.36,36.62,36.62,0,0,1-20.4-17.17,46,46,0,0,1-5.28-15.74c-.1-.7-1.21-.66-1.1,0,1.46,9.93,5.9,19.59,13.43,26.38a34.7,34.7,0,0,0,24.21,9.13c6.29-.26,12.27-2.47,18.08-4.71C157.55,265.94,157.23,264.89,156.56,265.15Z" style="fill:#37474f"></path><path d="M373.85,261.08c-.16,5.4-.35,10.89-1.88,16.1a31.08,31.08,0,0,1-6.29,11.51A36.58,36.58,0,0,1,342,300.87a45.76,45.76,0,0,1-16.56-1.2c-.68-.18-1.07.85-.39,1,9.73,2.49,20.36,2.11,29.53-2.21a34.67,34.67,0,0,0,17.77-18.81c2.19-5.9,2.46-12.27,2.63-18.49C375,260.48,373.87,260.37,373.85,261.08Z" style="fill:#37474f"></path><path d="M344.36,125.8a95.28,95.28,0,0,0-25.14-10.31,86.66,86.66,0,0,0-26.29-2.7c-8.39.54-16.73,2.82-23.55,7.89l-.24.18a59.82,59.82,0,0,0-11.53-2.32,75.42,75.42,0,0,0-21.89.7,76.59,76.59,0,0,0-38.7,19.1c-1.29,1.2-2.54,2.46-3.74,3.76-.6.65.36,1.65,1,1a74.2,74.2,0,0,1,34.92-21,75.62,75.62,0,0,1,20.4-2.7,63.67,63.67,0,0,1,18.23,2.51,29.85,29.85,0,0,0-6.68,7.83c-2,3.45-3.43,7.63-2.35,11.63a9.36,9.36,0,0,0,2.73,4.56,9.52,9.52,0,0,0,5.67,2.16,15.13,15.13,0,0,0,10.49-3.32,12.92,12.92,0,0,0,4.71-9.72,12.38,12.38,0,0,0-4.33-9.35,23.2,23.2,0,0,0-7.29-4.31A40.8,40.8,0,0,1,289,114.56a77.27,77.27,0,0,1,24.92,1.17A93.71,93.71,0,0,1,338.13,124q2.82,1.41,5.53,3A.69.69,0,0,0,344.36,125.8Zm-74.42-3.14a19.72,19.72,0,0,1,8.62,5.61,10.68,10.68,0,0,1,1.91,10,12.09,12.09,0,0,1-7.42,7.64c-3.46,1.28-8.27,1.54-11-1.33s-2.62-7.26-1.3-10.8a26.15,26.15,0,0,1,6.87-9.82c.57-.52,1.16-1,1.76-1.47Z" style="fill:#37474f"></path><path d="M283.62,82.5c-.87,3.73-3.14,7.37-7.1,8.25a6.07,6.07,0,0,1-5.37-1.21,7.15,7.15,0,0,1-2.24-4.9c-.26-4.1,2.39-7.84,5.12-10.64A30.84,30.84,0,0,1,282,68.26,22.49,22.49,0,0,1,283.62,82.5ZM315.73,62c-9.35-.11-19-.23-28,2.66a41.89,41.89,0,0,0-5.28,2.08c-6.7-13.68-23.34-19.24-37.92-19.53a64.93,64.93,0,0,0-26.5,5.09c-7.95,3.36-15.16,8.15-22.9,11.93-7.53,3.69-15.46,6-23.9,5.72a46.75,46.75,0,0,1-22.93-6.86,42.09,42.09,0,0,1-4.88-3.5c-.55-.44-1.33.33-.78.78a47.44,47.44,0,0,0,42.57,9c7.81-2.24,14.86-6.4,21.91-10.32a123.24,123.24,0,0,1,11.06-5.6,63.49,63.49,0,0,1,12.7-3.92,62.31,62.31,0,0,1,25.87.28c7.72,1.76,15.29,5.3,20.59,11.33a28.45,28.45,0,0,1,4.11,6.13c-5,2.56-9.51,6.23-12.13,11.16-1.76,3.3-2.32,7.5-.05,10.71,2.15,3,6.08,3.57,9.34,2.08,3.44-1.59,5.37-5.23,6.12-8.79a23.12,23.12,0,0,0-.63-11.47A28.55,28.55,0,0,0,283,67.75l.38-.2c8-3.72,16.88-4.42,25.55-4.48,2.28,0,4.56,0,6.84,0A.55.55,0,0,0,315.73,62ZM140.94,59.56a102.2,102.2,0,0,0,8.38,9.86c.45.47,1.29-.13.83-.61A102.59,102.59,0,0,1,142.57,60a45.66,45.66,0,0,0,10.83.62c.66-.05.55-1.08-.11-1a45,45,0,0,1-11.86-.83A.52.52,0,0,0,140.94,59.56Z" style="fill:#37474f"></path><path d="M396.51,236a22.41,22.41,0,0,1,4.51-5.74c2-1.76,4.41-3.41,7.09-3.72a5.82,5.82,0,0,1,6.1,3.69,8.75,8.75,0,0,1-.49,7.52c-3.47,6.79-13.31,12.22-20.85,9.65A31.47,31.47,0,0,1,396.51,236Zm48.55,63.5a48.43,48.43,0,0,1-31.22-7.68,47.66,47.66,0,0,1-19.1-25.59,45.55,45.55,0,0,1-2-17.71c7.25,2.29,16.25-2.21,20.62-8.13A11.81,11.81,0,0,0,416,233a8.49,8.49,0,0,0-2.84-6c-4.35-3.63-10.25-.07-13.58,3.24-4.53,4.49-6.87,10.55-7.69,16.84a11.07,11.07,0,0,1-3.54-2.53c-3.36-3.54-4.15-8.91-3.43-13.58.88-5.67,3.95-10.73,6.77-15.63,5.66-9.77,9.9-20.48,10-31.93a40,40,0,0,0-3-16.06,40.81,40.81,0,0,0-8.46-12.45c-7.42-7.6-17.09-12.69-26.94-16.42a111.91,111.91,0,0,0-36.08-7.16c-3-.1-6-.06-9,.08-.71,0-.71,1.14,0,1.1a111.29,111.29,0,0,1,38.16,4.79c10.91,3.36,21.82,8.27,30.43,15.9a42.37,42.37,0,0,1,9.91,12.59,38.14,38.14,0,0,1,3.88,16.79,54.22,54.22,0,0,1-2.94,17.39,89.25,89.25,0,0,1-7.75,16.24c-2.83,4.9-5.67,10.08-6.24,15.82-.47,4.71.58,9.9,4,13.4a12.3,12.3,0,0,0,4.11,2.82,44.48,44.48,0,0,0,.21,10.52,48.51,48.51,0,0,0,44.84,42,47.83,47.83,0,0,0,8.29-.11C445.76,300.56,445.77,299.45,445.06,299.53Zm1.87.05a101.07,101.07,0,0,0-12.37-3.83c-.64-.15-1,.81-.37,1a101.94,101.94,0,0,1,11.13,3.37,45.76,45.76,0,0,0-9.46,5.3c-.54.39.1,1.2.64.81A44.62,44.62,0,0,1,447,300.53.52.52,0,0,0,446.93,299.58Z" style="fill:#37474f"></path><path d="M408,355.85c-5.71,1.66-13.14.95-17-4-3.43-4.38-2.6-10.3-.05-14.87a20.51,20.51,0,0,1,5.28-6.18c2.52-2,5.32-3.55,7.89-5.44,2.37-1.74,4.68-3.81,5.88-6.55a10,10,0,0,0-.1-8.24c-2.91-6.44-10-8.62-16.53-9.28-7.54-.76-15.15-.56-22.71-1.2-6.88-.58-13.75-1.84-20-4.87-5.58-2.7-10.69-6.8-13.63-12.36A26.13,26.13,0,0,1,335.16,264a34.52,34.52,0,0,1,11.37-17.22,44.71,44.71,0,0,1,4.23-3.16c.59-.4-.07-1.27-.66-.88a39.27,39.27,0,0,0-14.19,15.94,29,29,0,0,0-2,19.16c3.35,13.11,16.45,20.05,28.86,22.29,7.57,1.36,15.28,1.39,22.94,1.71,7.1.3,15.94.27,21.09,6a10.12,10.12,0,0,1,2.8,8.31c-.52,3.15-2.74,5.56-5.15,7.48-2.58,2-5.45,3.67-8.1,5.6a22.45,22.45,0,0,0-5.72,6c-2.81,4.39-4.26,10.18-1.87,15.08,2.77,5.65,9.31,7.76,15.23,7.32a21.59,21.59,0,0,0,4.43-.81C409.11,356.67,408.69,355.65,408,355.85Z" style="fill:#263238"></path><path d="M352,242.12a102.42,102.42,0,0,0-12.8,1.93c-.64.14-.56,1.17.09,1a103.57,103.57,0,0,1,11.49-1.8,45.78,45.78,0,0,0-6.22,8.89c-.31.58.62,1,.93.45a45,45,0,0,1,6.94-9.65A.52.52,0,0,0,352,242.12Z" style="fill:#263238"></path><path d="M136.23,200.05c-3.75,5.46-10,8.21-16.54,8.4a30.14,30.14,0,0,1-18.78-6.25c-6-4.5-10.62-10.6-14.64-16.89q-1.51-2.37-3-4.8c-.37-.61.6-1.13,1-.52,3.9,6.5,8.06,13,13.59,18.22,5.13,4.86,11.42,8.34,18.54,9,6.5.62,13.33-1.18,17.72-6.25,4.67-5.39,5.68-13.22,4.3-20-1.6-7.9-6.14-14.85-10.87-21.24a230.9,230.9,0,0,0-16.66-20c-5.26-5.64-11-11-15.05-17.63-3.5-5.71-5.36-12.26-4.24-18.95,1-6.15,4.78-11.66,10.87-13.64,6.54-2.14,13.79.27,19.25,4a32.76,32.76,0,0,1,3.9,3.15c.51.49-.29,1.24-.8.76-4.93-4.67-11.94-8.22-18.89-7.53A14.31,14.31,0,0,0,97.22,94a16.66,16.66,0,0,0-4.25,8c-1.6,6.68.15,13.45,3.61,19.25,4,6.72,9.83,12.11,15.12,17.79a229.11,229.11,0,0,1,16.66,20c4.69,6.33,9.15,13.14,11,20.92C140.89,186.6,140.22,194.25,136.23,200.05Z" style="fill:#263238"></path><path d="M425.85,239.37a11.08,11.08,0,0,0-2.13-5.25,17.33,17.33,0,0,0-5.43-4.13,21.14,21.14,0,0,1-5.86-4.42,16,16,0,0,1-3.21-5.85c-3.06-10.29,5.46-19.34,12.51-25.55,6.89-6.06,14.78-12.42,16.41-22,1.48-8.74-2.29-17.69-8.14-24.07-6.8-7.42-16.47-11.51-25.93-14.33-10.68-3.19-21.81-4.88-32.18-9.08-8.5-3.43-16.6-8.82-21.46-16.78-10.78-17.66,2.18-38.66,17.37-48.74a39.92,39.92,0,0,1,6.59-3.57c.65-.28.29-1.32-.36-1-8.9,3.76-16.63,10.77-21.94,18.79-5,7.6-8.09,17-6.21,26.08,1.77,8.61,7.72,15.67,14.82,20.57,8.62,6,18.87,8.71,28.93,11.17,10.29,2.52,20.84,4.86,30.09,10.24,8.33,4.84,15.25,12.49,17.16,22.17a22.24,22.24,0,0,1-1.28,13.24c-2,4.47-5.31,8.14-8.84,11.44-7,6.54-15.65,12.52-18.5,22.2a16.81,16.81,0,0,0,1.41,13.11,17,17,0,0,0,4.26,5,68.1,68.1,0,0,0,5.83,3.6,10.45,10.45,0,0,1,4.47,5.21,12.5,12.5,0,0,1,.46,6.22c-.8,4.81-4,8.64-7.58,11.72-1.82,1.55-3.76,3-5.7,4.35-.58.41,0,1.33.61.91C419,255.56,427.22,249,425.85,239.37Z" style="fill:#37474f"></path><path d="M375.67,53.74a100.66,100.66,0,0,0-12.82,1.82c-.64.13-.57,1.17.08,1a101.37,101.37,0,0,1,11.51-1.7,45.75,45.75,0,0,0-6.3,8.83c-.31.59.61,1,.93.46a44.36,44.36,0,0,1,7-9.59A.52.52,0,0,0,375.67,53.74Z" style="fill:#37474f"></path><path d="M251.75,155.09a11,11,0,0,0-4.41,3.56,17.44,17.44,0,0,0-2.4,6.38,20.87,20.87,0,0,1-2.53,6.89,16,16,0,0,1-4.68,4.76c-9,5.9-20.1.35-28.07-4.61-7.79-4.85-16.16-10.56-25.81-9.35-8.79,1.1-16.27,7.3-20.7,14.74-5.14,8.65-6.26,19.09-6.24,29,0,11.15,1.63,22.29.6,33.43-.84,9.13-3.66,18.44-9.87,25.39-13.8,15.42-37.65,9.07-51.69-2.56a40.91,40.91,0,0,1-5.32-5.29c-.45-.54-1.34.1-.89.65,6.18,7.44,15.12,12.81,24.32,15.58,8.73,2.63,18.57,2.85,26.76-1.58,7.74-4.18,12.79-11.91,15.43-20.12,3.21-10,2.89-20.59,2.35-30.92-.56-10.58-1.36-21.36,1.11-31.77C162,179.86,167.27,171,176,166.4a22.33,22.33,0,0,1,13-2.6c4.85.58,9.33,2.74,13.51,5.17,8.28,4.82,16.51,11.37,26.59,11.31a16.73,16.73,0,0,0,15.67-10.65,65.14,65.14,0,0,0,1.76-6.62,10.49,10.49,0,0,1,3.7-5.78,12.41,12.41,0,0,1,5.83-2.23c4.83-.62,9.41,1.3,13.4,3.87,2,1.29,3.92,2.75,5.81,4.2.56.44,1.26-.42.7-.85C269.24,157,260.56,151,251.75,155.09Z" style="fill:#37474f"></path><path d="M88.49,256.71a104.08,104.08,0,0,0,5.45,11.74c.31.57,1.28.21,1-.37a102,102,0,0,1-5-10.53A45.56,45.56,0,0,0,100.22,261a.52.52,0,0,0,.18-1,44.67,44.67,0,0,1-11.21-4A.52.52,0,0,0,88.49,256.71Z" style="fill:#37474f"></path><path d="M220.51,265a13.08,13.08,0,0,1-14.1-.75c-5-3.57-5.82-10.08-4.42-15.71,3-11.95,15-20.61,14-33.72-.41-5.39-3.37-10-8.5-12-5.38-2.08-11.55-1.17-16.92.46a55.32,55.32,0,0,0-17.17,9c-5.45,4.12-10.5,8.91-16.73,11.88-5.7,2.72-12.35,3.67-18.12.63a21.39,21.39,0,0,1-10.08-12.4c-4-12.55,3.55-25.4,12.8-33.42a93.73,93.73,0,0,1,16.3-10.85c5.51-3,11.13-6,16.06-9.91a30.92,30.92,0,0,0,10.29-14c1.78-5.21,1.7-11-1.15-15.84-5.65-9.54-17.81-11.51-27.31-15.17-5-1.92-10.09-4.5-13.39-8.83A15.73,15.73,0,0,1,140,89.13a15.28,15.28,0,0,1,4.62-6.35c.55-.44-.23-1.22-.78-.77a17,17,0,0,0-6.06,14c.3,5.31,3.27,9.83,7.41,13,8.92,6.85,20.86,7.36,30.17,13.47,4.74,3.11,8.27,7.8,8.63,13.61.37,6-2.24,11.93-6,16.44-4.2,5-9.87,8.47-15.49,11.62s-11.48,6.2-16.81,10c-10.21,7.26-19.27,18-19.33,31.18,0,10.83,7.83,22,19.3,22.47,6.7.28,13-2.92,18.28-6.73,5.6-4,10.63-8.79,16.63-12.24,5.57-3.2,12-5.7,18.44-6.07,5.83-.34,12.09,1.43,14.7,7.14,2.49,5.44,1,11.89-1.5,17-2.91,5.85-7.22,10.93-9.78,17-2.31,5.47-3.37,12.22-.1,17.55a14.09,14.09,0,0,0,12.14,6.36,13,13,0,0,0,6.62-1.87C221.67,265.6,221.11,264.64,220.51,265Z" style="fill:#37474f"></path><path d="M271,336.38a13,13,0,0,1-8.3-11.42c-.4-6.17,4.16-10.87,9.42-13.32,11.16-5.21,25.44-1.35,35-10.37,3.94-3.71,5.66-8.93,4-14.16-1.77-5.5-6.37-9.71-11-12.86a55.42,55.42,0,0,0-17.82-7.65c-6.63-1.64-13.54-2.54-19.77-5.51-5.7-2.71-10.63-7.28-11.9-13.68a21.36,21.36,0,0,1,3.29-15.63c7.23-11,22-13.24,34-11.11a93.8,93.8,0,0,1,18.7,5.82c5.83,2.36,11.64,4.9,17.82,6.24a31,31,0,0,0,17.31-.8c5.17-1.9,9.64-5.62,11.58-10.88,3.85-10.39-2.28-21.07-5.41-30.76-1.65-5.07-2.87-10.67-1.58-16a15.7,15.7,0,0,1,10.6-11.24,15.34,15.34,0,0,1,7.84-.41c.69.14.8-.95.11-1.1a17,17,0,0,0-14.72,4.15c-3.94,3.57-5.58,8.72-5.44,13.94.29,11.25,7.42,20.84,8.54,31.93.57,5.63-.85,11.33-5.13,15.26s-10.68,5.78-16.58,5.66c-6.51-.12-12.79-2.33-18.78-4.71s-12-5-18.35-6.76c-12.06-3.36-26.13-3.62-36.39,4.62-8.45,6.79-12.16,20-5.3,29.15,4,5.38,10.45,8.24,16.74,10,6.66,1.81,13.52,2.72,20,5.21,6,2.31,12,5.7,16.33,10.5,3.93,4.31,6.49,10.29,3.71,15.91-2.66,5.36-8.58,8.3-14.17,9.55-6.38,1.43-13,1.28-19.34,3.1-5.71,1.65-11.61,5.08-13.69,11a14.12,14.12,0,0,0,2.7,13.44,13,13,0,0,0,5.63,4A.55.55,0,0,0,271,336.38Z" style="fill:#455a64"></path><path d="M181.24,319c-10.18,4.67-21.2,8.42-32.54,8.07-9-.29-18.16-3.54-24.66-9.91a27.27,27.27,0,0,1-7-11.37c-1.45-4.57-2.06-9.36-3.56-13.91A19.29,19.29,0,0,0,93.9,277.6c-9,.24-16.77,6.59-20.32,14.64-3.46,7.84-3.07,18.08,3.1,24.52a14.4,14.4,0,0,0,2.24,1.88,26.3,26.3,0,0,0-.75,11.86,25.44,25.44,0,0,0,16.55,19.32,24.83,24.83,0,0,0,6.25,1.35c.71.06.7-1,0-1.1A24.73,24.73,0,0,1,81,336a24.39,24.39,0,0,1-1.08-16.71c5.31,3.09,12.54,3.07,17.34-1,3.18-2.68,5.23-7.64,2.15-11.16a8.26,8.26,0,0,0-5.25-2.62,10.16,10.16,0,0,0-6.37,1.67c-3.9,2.43-6.67,6.57-8.27,10.81-.08.2-.14.4-.21.6a13.72,13.72,0,0,1-1.18-1c-6.32-5.9-6.92-15.93-3.69-23.54,3.32-7.83,10.74-14.14,19.49-14.36a19.48,19.48,0,0,1,11.73,3.47c3.68,2.61,5.8,6.59,7.09,10.83s2,8.87,3.34,13.2A28.6,28.6,0,0,0,122.29,317c5.69,6.12,13.82,9.76,22,10.86,10.33,1.39,20.82-1.11,30.41-4.85,2.39-.93,4.74-1.94,7.07-3C182.44,319.67,181.88,318.72,181.24,319Zm-97.05-8.14c2.68-3.32,7-6.46,11.44-4.94a6.12,6.12,0,0,1,4.06,4c.6,2.28-.57,4.71-2,6.4-4.25,4.86-12.08,5.13-17.43,1.88A23.37,23.37,0,0,1,84.19,310.88Z" style="fill:#37474f"></path><path d="M102.88,351.07a102.59,102.59,0,0,0-9.79-8.48c-.52-.39-1.25.33-.72.74a101,101,0,0,1,8.83,7.57,45.46,45.46,0,0,0-10.79,1c-.65.14-.39,1.14.26,1a44.43,44.43,0,0,1,11.84-1A.52.52,0,0,0,102.88,351.07Z" style="fill:#37474f"></path><path d="M267.65,305.71c-.88-11.17-.61-22.81,3.63-33.33,3.37-8.36,9.57-15.83,17.8-19.75a27.37,27.37,0,0,1,13.06-2.6c4.79.21,9.49,1.28,14.29,1.44A19.28,19.28,0,0,0,336.61,238c2.88-8.55-.41-18-6.74-24.12-6.18-5.95-15.92-9.11-24.09-5.53a14.14,14.14,0,0,0-2.54,1.45A26.3,26.3,0,0,0,292.36,205a25.41,25.41,0,0,0-23.83,8.88,24.23,24.23,0,0,0-3.42,5.41c-.3.64.73,1,1,.38a24.68,24.68,0,0,1,20.13-13.92,24.35,24.35,0,0,1,16.06,4.73c-4.73,3.92-7.19,10.72-5.05,16.62,1.42,3.91,5.37,7.54,9.74,5.86a8.29,8.29,0,0,0,4.27-4,10.2,10.2,0,0,0,.62-6.56c-.93-4.5-3.87-8.53-7.3-11.49l-.49-.4a13.3,13.3,0,0,1,1.31-.78c7.71-3.9,17.34-1,23.37,4.64,6.2,5.82,9.57,15,6.77,23.25a19.43,19.43,0,0,1-7.29,9.81c-3.73,2.56-8.2,3.18-12.62,2.94s-9-1.23-13.54-1.42a28.5,28.5,0,0,0-12.24,2.15c-7.71,3.23-13.92,9.61-17.79,16.94-4.86,9.22-6.13,19.92-5.92,30.22.05,2.56.2,5.12.4,7.67C266.62,306.61,267.71,306.41,267.65,305.71Zm41.06-88.32c2.19,3.66,3.66,8.77.7,12.44a6.09,6.09,0,0,1-5.13,2.44c-2.35-.22-4.24-2.15-5.31-4.12-3.1-5.67-.66-13.11,4.24-17A23.14,23.14,0,0,1,308.71,217.39Z" style="fill:#37474f"></path><path d="M264.55,221.1a102.36,102.36,0,0,0,11.32-6.27c.55-.35.12-1.29-.44-.93a100.79,100.79,0,0,1-10.15,5.68A45.16,45.16,0,0,0,268,209.09c.09-.66-.94-.76-1-.1a44.31,44.31,0,0,1-3.15,11.46A.52.52,0,0,0,264.55,221.1Z" style="fill:#37474f"></path></g><g id="freepik--speech-bubbles--inject-69"><path d="M301.72,222.92c19.26,12.67,39,27.13,59.58,39.82,6.82,4.21,13.85,7.64,20.74,11.51,13.61,7.24,27.94,17,40.14,15.7,17.9,1.23,12.4-62.55,2.43-85.73-6.86-22.6-27.65-61.82-51.47-72.44-26.05-12.14-48.2-5.12-59.69,5.05-11.56,11.14-7.19,19.4,4.34,37.07,9.32,14.52,19.11,29.34,25.55,45.2,1.44,3.91,5,12.7,1.4,14.14-11.52,4.57-30.1-5.13-43-10.32Z" style="fill:#90CAF9"></path><path d="M301.72,222.92c19.26,12.67,39,27.13,59.58,39.82,6.82,4.21,13.85,7.64,20.74,11.51,13.61,7.24,27.94,17,40.14,15.7,17.9,1.23,12.4-62.55,2.43-85.73-6.86-22.6-27.65-61.82-51.47-72.44-26.05-12.14-48.2-5.12-59.69,5.05-11.56,11.14-7.19,19.4,4.34,37.07,9.32,14.52,19.11,29.34,25.55,45.2,1.44,3.91,5,12.7,1.4,14.14-11.52,4.57-30.1-5.13-43-10.32Z" style="fill:#fff;opacity:0.6000000000000001"></path><path d="M359.86,173.18a13,13,0,0,1-8.55-7.35c-1.3-3.38.42-5.7,4-5.11a12.6,12.6,0,0,1,8.74,7.51C365.25,171.74,363.33,173.91,359.86,173.18Z" style="fill:#263238"></path><path d="M375.2,205.74a12.63,12.63,0,0,1-7.43-8.21c-.84-3.47,1.15-5.58,4.55-4.59a12.18,12.18,0,0,1,7.61,8.39C380.68,204.93,378.52,206.85,375.2,205.74Z" style="fill:#263238"></path><path d="M386.12,239.64a12.36,12.36,0,0,1-6.27-9c-.38-3.52,1.85-5.37,5.07-4s6.15,5.55,6.43,9.19S389.25,241.13,386.12,239.64Z" style="fill:#263238"></path><path d="M146.62,158.89c-.06-.37-25,5.42-45.15,9.06-12.39,1.39-28.67,6.28-34.44-1.24-3.14-4,1.92-20,14.13-35.74,11.89-15.84,30.93-31.35,48.41-37.51,17.57-6.71,33.78-3.75,43,1.76,9.43,5.58,11.9,13.7,6.47,18.86-5.62,5.16-20.13,12.26-31.85,20.43-11.88,7.86-21,16.81-19.49,18.49C133.47,159.66,146.67,158.71,146.62,158.89Z" style="fill:#fff"></path><path d="M146.62,158.89c-7.09.05-13.53-1.07-17.51-4.06-.74-.71-2.14-1.33-1.89-2.57,1.3-3.42,5.63-7,9.12-10.09,8.93-7.47,19.14-13.68,28.91-19.5,11.13-6.6,17.64-10.49,14.9-17.74-3.58-10.45-27.93-22.61-58.16-7.44-26.24,12.42-49.65,41.37-54.11,60-4.71,19.9,23.39,10.33,38.68,9.17,12.67-2.22,26.47-5.5,40.06-7.79Z" style="fill:#90CAF9"></path><path d="M146.62,158.89c-7.09.05-13.53-1.07-17.51-4.06-.74-.71-2.14-1.33-1.89-2.57,1.3-3.42,5.63-7,9.12-10.09,8.93-7.47,19.14-13.68,28.91-19.5,11.13-6.6,17.64-10.49,14.9-17.74-3.58-10.45-27.93-22.61-58.16-7.44-26.24,12.42-49.65,41.37-54.11,60-4.71,19.9,23.39,10.33,38.68,9.17,12.67-2.22,26.47-5.5,40.06-7.79Z" style="fill:#fff;opacity:0.2"></path><path d="M109.61,139.34c1.34.59.69,2.5-1.39,4.33s-4.83,3-6.21,2.46-.82-2.48,1.3-4.4S108.28,138.76,109.61,139.34Z" style="fill:#263238"></path><path d="M126.55,123.29c1.26.74.39,2.55-1.9,4.12s-5.15,2.34-6.45,1.69-.53-2.57,1.8-4.21S125.29,122.55,126.55,123.29Z" style="fill:#263238"></path><path d="M145.36,109.37c1.18.88.09,2.58-2.38,3.87s-5.43,1.71-6.66.91-.22-2.61,2.3-4S144.19,108.49,145.36,109.37Z" style="fill:#263238"></path><path d="M313.37,103.16c0-.07,13.7-.15,22.81-3.31,5.59-2,12.41-6.59,13.09-11.57,1.15-5.85-26.68-22.12-42.8-23.94-15.89-2.2-22.74,7.62-16.74,12.83,6.13,4.82,34.73,13.39,33.75,18.91C322.75,100.64,313.34,103.11,313.37,103.16Z" style="fill:#fff"></path><path d="M313.37,103.16c11.73-.59,22.85-2.22,29.14-7.16a16.93,16.93,0,0,0,5.08-5.32c1.27-2,1.21-4.27-1.7-7C339.05,76.06,311.2,62,298.15,64.91c-7.65,1.42-11.43,6.41-8.74,10.81,1.41,2.33,5.55,4,9.16,5.61,7.71,3.4,16.3,6.49,22.64,11.06,7.11,5.31-2.29,9-7.84,10.77Z" style="fill:#fff"></path><path d="M313.37,103.16c11-.89,23.65-1.56,31.93-9.83,3-3.19,4.16-6.12.41-9.4a34.56,34.56,0,0,0-5.9-4.85C329.45,72.26,309.45,62.49,297,65.5c-4.49.86-10.45,5.2-7.3,10.17,1.44,2,4,3.09,6.17,4.17,4.64,2.16,9.41,4,14.09,6.16,11.81,5.43,22.51,11.3,3.38,17.16Zm0,0c18.87-6.17,8-11.42-3.56-16.76-4.68-2.07-9.47-3.94-14.14-6.07-2.32-1.13-4.86-2.14-6.44-4.34-3.46-5.36,2.78-10.19,7.64-11.15,12.83-3.21,32.63,6.7,43.27,13.76a35,35,0,0,1,5.93,4.93c1.42,1.31,2.78,3.1,2.53,5.15-1.28,5.27-7.86,9.31-12.67,11-7.24,2.52-15,3.07-22.56,3.45Z" style="fill:#263238"></path><path d="M306.82,74.89a6,6,0,0,1-4.64-.42c-1.4-.77-1.61-1.85-.45-2.41a5.75,5.75,0,0,1,4.68.42C307.81,73.27,308,74.35,306.82,74.89Z" style="fill:#263238"></path><path d="M321.22,81.06a5.74,5.74,0,0,1-4.56-.65c-1.34-.83-1.49-1.92-.31-2.42a5.66,5.66,0,0,1,4.6.64C322.29,79.49,322.41,80.58,321.22,81.06Z" style="fill:#263238"></path><path d="M335.12,87.92a5.62,5.62,0,0,1-4.47-.87c-1.28-.9-1.37-2-.18-2.43a5.59,5.59,0,0,1,4.52.87C336.27,86.41,336.32,87.5,335.12,87.92Z" style="fill:#263238"></path></g><g id="freepik--Character--inject-69"><path d="M190.62,154.38s-16.44-8.95-31.05,0-21.56,31-19,49.56S127.7,234.69,126,248.45s7.51,20.13,10.59,27.35c3.52,8.27-10.59,37.63,25.32,44.44,44.91,8.52,62.09-18.7,57.51-41.21-2.25-11-8.54-18.85-8.42-27.77s6.51-16,3.17-27.34-7.75-9.77-9.58-27.53S206.52,157.4,190.62,154.38Z" style="fill:#263238"></path><path d="M162.68,154a55,55,0,0,0-21.23,25.18,49.94,49.94,0,0,0-3.81,16.11c-.46,7.24.66,14-2.07,21-4.38,11.25-13.13,20.63-12.71,33.16a30.69,30.69,0,0,0,5.4,16.35c3.88,5.66,9.41,10.13,12.65,16.19.14.25.53,0,.41-.22-2.71-5.39-7.1-9.5-10.75-14.33a31.24,31.24,0,0,1-6.64-19.69c.35-11.91,9-21.07,13-31.92,1.83-4.92,1.94-9.68,1.78-14.83a53.14,53.14,0,0,1,2.33-17.91c3.67-11.56,11.5-21.54,21.75-29C162.9,154,162.77,153.9,162.68,154Z" style="fill:#263238"></path><path d="M143.78,289.23a0,0,0,0,0,0,.08A0,0,0,1,0,143.78,289.23Z" style="fill:#263238"></path><path d="M219.29,275.84c-1.13-5.32-3.95-10.15-5.08-15.45-1.35-6.39.28-12.76,1.52-19,1.76-9,1.56-17.4-2.44-25.83-2.59-5.44-5.75-10.54-7.68-16.27A66.56,66.56,0,0,1,202.18,180c0-.14-.23-.14-.23,0a60.46,60.46,0,0,0,6,27.43c2.44,5,5.49,9.76,6.9,15.19,1.69,6.53,1,12.84-.13,19.38-.77,4.37-1.7,8.79-1.66,13.23,0,4.63,1.51,8.72,3.17,13a45.18,45.18,0,0,1-.2,33.77c-.07.19.27.32.36.13A43,43,0,0,0,219.29,275.84Z" style="fill:#263238"></path><path d="M124.84,246.86c.4-9.81,7.33-16.47,11.54-25,3.18-6.43,5.34-13.29,4.29-20.37,0-.12-.23-.09-.22,0,.54,10.25-3.83,19.54-9.58,28.12-3.83,5.7-7,11.19-7,18.05s2.69,12.4,6.58,18c2.77,4,5.5,7.67,6.67,12.36s.9,9.56.67,14.3c0,.25.4.24.42,0,.66-7.35.77-14.47-3-21.18C130.59,262.91,124.43,256.83,124.84,246.86Z" style="fill:#263238"></path><path d="M221,268.88a61.11,61.11,0,0,0-5.72-9.5c-3.81-5.51-4.44-10-3.18-16.54a.13.13,0,0,0-.25-.06c-1.82,5.39-2.26,9.88,1,14.84,4.53,6.94,9,13.26,9.9,21.53,1.65,14.69-6.77,28.39-20.42,35.83-.19.1,0,.37.18.27,11.45-5.56,19.48-15.61,21.15-27.48A34.62,34.62,0,0,0,221,268.88Z" style="fill:#263238"></path><path d="M171.55,227.46c23.76-8,72.26-12.85,95.63-10.25C283.06,219,285,228.1,283.92,234.08c-2.44,13.49-39.39,21.94-55.66,21.65a304.17,304.17,0,0,1-57-6.35C156.72,246.36,161.35,230.88,171.55,227.46Z" style="fill: rgb(255, 196, 192);"></path><path d="M232.86,215.67,213.18,263s-32-6.59-49.77-15.64c-13.59-6.9-10.73-15-1.16-18.32C194.17,218.07,232.86,215.67,232.86,215.67Z" style="fill:#90CAF9"></path><path d="M226.16,223.57l2,3.43-1.08,2.6-5.71-1.78L215,236.59l-1.24-10.7L206,223.4l7.07-3.45-.32-2.16,4-.53.44.25.24-.33c1.95-.24,3.76-.44,5.4-.62l.76,2.8,6.53-.52Zm-53.95,11.58,1.81-3-3.4.3-1.18-2.8-1.81,3-3-.73,1.79,2.59-2.26,2.2,3.59-.33,2,3.71.82-3.46,2.71,1ZM200,243.53l.08-2.08-1.68,1.11-1.4-1.12-.08,2.1-1.75.46,1.66.84-.55,1.77,1.76-1.18,2.08,1.36-.55-2,1.68-.25Zm-4.75,9.17-6.35,1.8-3.08-4.81-.9,5.79h-.41c3,1,6,1.83,8.89,2.62l-.14-.11Z" style="fill:#fff"></path><path d="M206.19,258.1c2.51-7.49,9.92-27.63,16.45-40.08,0-.08.34,0,.31.12-3.87,11.18-13.16,32.88-16.31,40.13C206.58,258.41,206.14,258.24,206.19,258.1Z" style="fill:#263238"></path><path d="M163.41,247.32c17.83,9,49.77,15.63,49.77,15.63l12.12-29.13-71.13,2.67C153.77,239.89,156.41,243.76,163.41,247.32Z" style="opacity:0.1"></path><path d="M199.19,310.66,206,339.2H100.13s18.13-79.36,36.53-101.84c12.45-15.21,24.52-15.22,35.05-5.72,2.67,2.41,28.86,35,32.91,49.94C208.16,294.8,199.19,310.66,199.19,310.66Z" style="fill: rgb(255, 196, 192);"></path><path d="M102,323.41l79.73-8,21.38,4.49-3.93-9.28s9-15.86,5.43-29.08c-4.05-15-30.25-47.52-32.9-49.94-10.55-9.51-22.62-9.49-35.05,5.72C123.9,252.94,107.48,298.5,102,323.41Z" style="fill:#90CAF9"></path><path d="M130.49,313.51l-8.87-2.76-6.35,8.77L114,308.82l-7.55-2.43a1.27,1.27,0,0,0,.06-.18l6.83-3.33-.77-5.23,4.93,2.79,4.29-5.93,2.1,7.78,6.54-.52-4,4.73Zm42.79-80.16c-.37-.44-.7-.81-1-1.09l-1.7.15-1.09-2.58a.79.79,0,0,0-.15-.12l-1.75,2.95-3-.73,1.79,2.59-2.26,2.2,3.59-.33,2,3.71.82-3.46,2.71,1-1.07-2.48Zm-10.16,71.53,1.56-1.39-2-.42-.17-1.79-1.57,1.4-1.55-.94.55,1.77-1.65.84,2.07.45.47,2.44,1.07-1.8,1.35,1Zm-32.47-25.33.08-2.08-1.67,1.11-1.41-1.12-.08,2.09-1.75.47,1.66.84-.55,1.77,1.77-1.18,2.07,1.36-.55-2,1.68-.26Zm61.52,5.92.08-2.08-1.67,1.11-1.41-1.12-.08,2.1-1.75.46,1.66.84-.55,1.77,1.77-1.18,2.07,1.36-.55-2,1.68-.26ZM146.89,249.6l3-5.83-6.25.94-2.49-5.07-3,5.86-5.61-1,3.61,4.61-3.95,4.31,6.61-1,4.1,6.65,1.13-6.5,5.13,1.53Zm42.5,4.77-.45.13-3.08-4.81-.9,5.79-5.85.06,5.24,4.15-2,7.53,5.52-3.61,2.39,4.79,1.73-4.71,3.12-.88C193.26,260,191.34,257.14,189.39,254.37Zm-30.09,24.4,4.37.9-1.77-3.93,2.86-2.57-4.4-.9L160,268.4l-2.35,3.22-3.55-1.79L156,274l-3.6,3.91,4.47-.45-.05,3.64Zm37.8,24.12,4.38.9-1.77-3.93,2.85-2.57-4.4-.9-.36-3.87-2.35,3.22L191.89,294l1.87,4.15L190.17,302l4.46-.46,0,3.64Z" style="fill:#fff"></path><path d="M163.23,305.14a114.18,114.18,0,0,1,16.62,1.38c2.72.47,5.41,1.06,8.09,1.71,1.34.32,2.68.6,4,.88a18.1,18.1,0,0,0,4.28.45.1.1,0,0,1,0,.2,29.31,29.31,0,0,1-4.08.25,28.79,28.79,0,0,1-3.93-.42c-2.77-.45-5.52-1-8.28-1.5-5.58-1-11.15-1.93-16.79-2.49C162.94,305.58,163,305.14,163.23,305.14Z" style="fill:#263238"></path><path d="M150,311.14a122.91,122.91,0,0,1,13.64-1.77c2.3-.15,4.58-.18,6.87-.14,1.1,0,2.2,0,3.29.11s2.41.27,3.61.31a.1.1,0,1,1,0,.19c-1.13,0-2.28.19-3.41.25l-3.43.19c-2.28.13-4.57.28-6.85.39-4.58.21-9.14.47-13.71.84C149.76,311.53,149.75,311.18,150,311.14Z" style="fill:#263238"></path><path d="M181.74,321.31c-2.13,1.45-2.64,4.41-2.27,6.79.12.59.4,1.09.86,1.14,1.16.08,1.22-1.87,1.12-2.76a3.79,3.79,0,0,0-.58-1.81,4.11,4.11,0,0,1,.54,4.82,1.44,1.44,0,0,1-2.23-.19,5,5,0,0,1-.53-3.09c.11-1.95,1.15-4.22,3.09-4.9Z" style="fill:#263238"></path><path d="M153.29,228c-.3,3,2.74,17.71,11.45,19.88,4.47,1.11,9-14.4,9-14.4l.55-1.08,7.6-15.11-18.09-19.08S153.37,227.17,153.29,228Z" style="fill: rgb(255, 196, 192);"></path><path d="M159.91,209a34,34,0,0,0,14.36,23.4l7.61-15.12-18.1-19.09S162,203.16,159.91,209Z" style="fill:#263238"></path><path d="M211.29,199.17c-5.61,29.17-23.71,29.1-30,27.89-5.71-1.11-25-5.59-22.44-35.17s17.89-36.2,31.07-34.37S216.89,170,211.29,199.17Z" style="fill: rgb(255, 196, 192);"></path><path d="M160.68,191.55c5.1,2.28,10.14-9.47,10.14-9.47s23.77,3,31.26-14.81c0,0,.32,12.91,10.55,21.81,0,0,5.33-20.42-9.48-29.19,0,0-17.67-13.24-33.6-.86S157.26,190,160.68,191.55Z" style="fill:#263238"></path><path d="M202.57,165.94A20.8,20.8,0,0,1,199,174a21.72,21.72,0,0,1-6.52,6.14,18.09,18.09,0,0,1-2,1.07l-1,.5c-.35.14-.71.27-1.06.39-.72.24-1.42.5-2.14.71s-1.46.31-2.19.45c-.37.06-.73.15-1.1.2l-1.11.08-2.22.16c-1.48,0-3-.14-4.42-.27,1.47-.17,2.93-.19,4.37-.38l2.15-.34,1.07-.17c.35-.08.7-.19,1-.29.7-.2,1.39-.39,2.08-.56s1.34-.52,2-.77l1-.39,1-.49a17.8,17.8,0,0,0,1.87-1,24.88,24.88,0,0,0,6.4-5.62,26.5,26.5,0,0,0,2.46-3.56A24.93,24.93,0,0,0,202.57,165.94Z" style="fill:#263238"></path><path d="M164.36,191.5s-3.71-10.68-8.39-9.61-3.65,15.34.6,18.45a5,5,0,0,0,7.21-.76Z" style="fill: rgb(255, 196, 192);"></path><path d="M156.37,186a.07.07,0,0,0-.06.12c2.95,2.3,3.82,5.88,4.14,9.43-.64-1.51-1.79-2.57-3.78-1.86-.1,0-.06.2,0,.21a3.09,3.09,0,0,1,3,2,15,15,0,0,1,.81,3.09c.07.34.66.34.64,0a.19.19,0,0,0,0-.08C162.42,194.57,160.81,187.69,156.37,186Z" style="fill:#263238"></path><path d="M157.41,199.43a1.28,1.28,0,1,0,2.55,0,1.28,1.28,0,0,0-2.55,0Z" style="fill:#455a64"></path><path d="M158.08,199.44a.61.61,0,1,0,.61-.59A.6.6,0,0,0,158.08,199.44Z" style="fill:#263238"></path><path d="M155.69,197.33a.9.9,0,1,0,.91-.89A.89.89,0,0,0,155.69,197.33Z" style="fill:#455a64"></path><path d="M209.92,193.38a19.85,19.85,0,0,0-1.57-1.34,3.39,3.39,0,0,0-1.86-1,1.08,1.08,0,0,0-1,.8,2.64,2.64,0,0,0,1.11,2.42,3.85,3.85,0,0,0,2.56,1.08A1.13,1.13,0,0,0,209.92,193.38Z" style="fill:#263238"></path><path d="M188.1,188.59a19.93,19.93,0,0,1,2-.42,3.41,3.41,0,0,1,2.14,0,1.06,1.06,0,0,1,.52,1.19,2.62,2.62,0,0,1-2.13,1.6,3.85,3.85,0,0,1-2.77-.27A1.13,1.13,0,0,1,188.1,188.59Z" style="fill:#263238"></path><path d="M182.59,211.09c.26.63.46,1.42,1.12,1.76a5.35,5.35,0,0,0,2.21.36.07.07,0,0,1,0,.13,2.71,2.71,0,0,1-2.8,0,2.16,2.16,0,0,1-.79-2.27C182.39,211,182.55,211,182.59,211.09Z" style="fill:#263238"></path><path d="M187.93,208.49a18.59,18.59,0,0,1,7.42,1.87c.23,0,.78,0,.87-.21v0c0-.07.91-4.15.91-4.15.47.4,2.93,2.35,3.08,1.56,1.23-6.53,2.6-13.78,2.45-20.53a.18.18,0,0,0-.36,0c-1.43,6.22-1.76,12.65-3.1,18.93a11.85,11.85,0,0,0-2.87-1.72c-.22,0-.74,4.45-1,5.1a11.39,11.39,0,0,0-7.58-1.22C186.77,208.23,186.62,208.45,187.93,208.49Z" style="fill:#263238"></path><path d="M190.75,212.12c1,0,3.69-3,2.27-3.75s-5.25-1.15-7.36.61c-1.86,1.54,3.1,1.76,3.7,2.32S190,212.1,190.75,212.12Z" style="fill:#263238"></path><path d="M189.36,211.31c.12.11.2.2.29.27.48-1.11.14-2.77-1.91-3.62a5.25,5.25,0,0,0-2.08,1C183.81,210.52,188.76,210.74,189.36,211.31Z" style="fill:#ff9abb"></path><path d="M191,195.09c0-.08-.17.07-.18.16-.26,2-.9,4.3-2.83,4.68-.06,0-.07.11,0,.11C190.27,200.09,191.09,197.05,191,195.09Z" style="fill:#263238"></path><path d="M187.15,193.58a5.5,5.5,0,0,0-.16,1.13,3.07,3.07,0,0,1-.6.68,1.55,1.55,0,0,1-1.64.34c-1.15-.47-1.29-1.85-1-3.07,0-.09.09-.12.12,0,.31.77.7,1.57,1.42,1.66s1.24-.44,1.83-.68h.05Z" style="fill:#263238"></path><path d="M190.72,197.29a3.14,3.14,0,0,1-.93,1.37,2.24,2.24,0,0,1-1.74.44,2,2,0,0,1-1.44-1.1,3.54,3.54,0,0,1-.33-1.6,6.25,6.25,0,0,1,.1-1,4.47,4.47,0,0,1,.77-1.88A6.77,6.77,0,0,0,187,195a8.3,8.3,0,0,0,.06,1.33c.13.9.51,1.7,1.2,1.78s1.34-.35,1.78-1.16a13.88,13.88,0,0,0,1-2.65A6.45,6.45,0,0,1,190.72,197.29Z" style="fill:#263238"></path><path d="M203,197.62c0-.07.13.13.11.21-.49,2-.73,4.33.94,5.39.05,0,0,.13,0,.1C201.86,202.54,202.2,199.42,203,197.62Z" style="fill:#263238"></path><path d="M207.13,197.61a6.05,6.05,0,0,1-.25,1.12,3.16,3.16,0,0,0,.3.85,1.57,1.57,0,0,0,1.41.91c1.24,0,1.87-1.25,2.06-2.49,0-.09,0-.14-.09-.09-.57.6-1.22,1.21-1.92,1s-1-.86-1.46-1.3c0,0,0,0,0,0Z" style="fill:#263238"></path><path d="M202.46,199.77a3.17,3.17,0,0,0,.36,1.61,2.25,2.25,0,0,0,1.46,1.05,2,2,0,0,0,1.75-.5,3.68,3.68,0,0,0,.89-1.37,7.85,7.85,0,0,0,.26-.95,4.44,4.44,0,0,0,0-2,6.67,6.67,0,0,1-.37,1.43,9.64,9.64,0,0,1-.55,1.22c-.44.79-1.08,1.4-1.75,1.22s-1.13-.82-1.24-1.73a14.22,14.22,0,0,1,0-2.84A6.42,6.42,0,0,0,202.46,199.77Z" style="fill:#263238"></path><path d="M412.05,449.53c4.19-1.4.47-13.49-4.19-17.22-1.48-1.19-7-4-13.87-7.31-15.17-7.29-37-17-37-17l-15.69-67.3-75.73.41s13.6,62.51,13.72,67.11c0,.28,0,.57,0,.85.65,20.87,1.68,38,3.4,39C287.32,451,407.84,450.94,412.05,449.53Z" style="fill: rgb(255, 196, 192);"></path><path d="M412.05,449.52c-4.2,1.42-124.73,1.44-129.32-1.47C281,447,280,429.9,279.33,409c0-.28,0-.56,0-.85,0-1-.71-4.84-1.76-10.2h77.14L357,408s21.8,9.76,37,17.05c6.89,3.33,12.38,6.13,13.87,7.3C412.52,436,416.24,448.13,412.05,449.52Z" style="fill:#ebebeb"></path><path d="M369,450.45c-36.53.08-83.42-.61-86.25-2.4C281,447,280,429.9,279.33,409c0-.28,0-.56,0-.85-.12-4.59-13.72-67.11-13.72-67.11l63.19-.34Z" style="opacity:0.1"></path><path d="M413.41,450.2c-4.29,1.44-127,1.3-131.67-1.67-1.79-1.1-2.81-19-3.43-40.63,0-.23,0-.45,0-.68l79.17-.79,0,1.34s46.95,21.07,51.74,24.88S417.7,448.78,413.41,450.2Z" style="fill:#90CAF9"></path><path d="M412,445.44c-20.69-.53-104.17-.72-124.66.32-.17,0-.17.13,0,.13,20.49,1,104,.49,124.66-.11C412.46,445.77,412.47,445.45,412,445.44Z" style="fill:#263238"></path><path d="M366.28,406.66c-8.13-1.52-18.09-.29-24.32,5.51-.24.22.08.56.35.48a114.72,114.72,0,0,1,23.94-5A.52.52,0,0,0,366.28,406.66Z" style="fill:#263238"></path><path d="M372.16,410.21c-8.14-1.53-18.1-.29-24.33,5.5-.24.23.08.57.35.49a114.08,114.08,0,0,1,23.94-5A.52.52,0,0,0,372.16,410.21Z" style="fill:#263238"></path><path d="M378,413.76c-8.14-1.53-18.1-.29-24.32,5.5-.25.23.08.57.34.48A114.19,114.19,0,0,1,378,414.79.52.52,0,0,0,378,413.76Z" style="fill:#263238"></path><path d="M376.89,388.92c-3.19-4.41-9.15-2.43-12.55.42A43.38,43.38,0,0,0,351.78,408a.21.21,0,0,0,.19.29,1,1,0,0,0,1.28,1c6.72-2.48,14.22-4.3,20-8.77C376.59,397.9,379.91,393.09,376.89,388.92Zm-14.22,14.52c-3.28,1.3-6.6,2.43-9.83,3.85a128.79,128.79,0,0,1,7.58-10.72,46.38,46.38,0,0,1,4.32-4.66c2.42-2.2,12-6.88,10.57,2C374.51,398.89,366.58,401.89,362.67,403.44Z" style="fill:#263238"></path><path d="M331.09,405.82c6.71,2.87,14.42,2.73,21.55,3.43.74.08,1.11-.7,1-1.3a.22.22,0,0,0,.11-.34,43.48,43.48,0,0,0-16.86-14.85c-4-1.9-10.28-2.3-12.25,2.78C322.75,400.34,327.18,404.15,331.09,405.82ZM327.42,400c-3.65-8.27,6.81-6.17,9.71-4.65a45.38,45.38,0,0,1,5.36,3.41,130.77,130.77,0,0,1,10,8.45c-3.48-.56-7-.81-10.48-1.24C337.87,405.47,329.44,404.58,327.42,400Z" style="fill:#263238"></path><path d="M392.83,424.57a21,21,0,0,0-15.68,6.35c-3.27,3.55-6.06,8.54-5.9,14,0,.16.3.16.32,0,1.52-10.24,10.87-19.22,21.26-20A.17.17,0,0,0,392.83,424.57Z" style="fill:#263238"></path><path d="M294.07,428.53c-8.88,0-8.89,13.8,0,13.8S303,428.53,294.07,428.53Z" style="fill:#fff"></path><path d="M415.08,448.13a2.65,2.65,0,0,1-1.67,2.07c-4.28,1.44-127,1.3-131.66-1.67-1.8-1.11-2.83-19-3.43-40.63,0-.22,0-.45,0-.68l75.52-.75Z" style="opacity:0.1"></path><path d="M119.05,339.16s-14.18,48.06-6.63,71.11c5.67,17.32,24.75,29.35,39.48,36.71,9.12,4.56,66.23,7.17,81.24-5.07,20.94-17.07,54-109.55,54-112.23,0-10.39-31.73-29.93-31.73-29.93s-.18,27.92,2,39.78c2.45,13.17,16.15,53.9,16.15,53.9l81.31-.32s-14.55-89.54-39.25-143.64c-5.37-11.76-22.06-17.9-35.91-17.46a40.65,40.65,0,0,0-28.57,13.27C231.64,266.52,190,337.64,190,337.64Z" style="fill:#37474f"></path><path d="M269.27,379.25c-1.81-7.3-7.11-23.23-11.56-45.5-1.71-8.55-3-19.49-4.33-29.93-.64-5-1.6-19.16-2.52-24.35a.2.2,0,1,0-.39,0c.07,5.18,1.09,16.51,1.46,21.06.17,2,.35,3.93.53,5.89-.16-.43-3.9-9.62-5.1-13.68a.19.19,0,1,0-.37.12c1.71,6.28,5,16.92,5.85,17.92.54,5.77,1.49,16.78,2.59,22.47,3,15.52,10.55,41.9,13.17,46.63C268.85,380.36,269.4,379.78,269.27,379.25Z" style="fill:#263238"></path><path d="M310.7,378.37c-10.89-.12-23.54-.35-32.65-1-.2,0-.24-.33,0-.33,9.06-.28,21.67-.49,32.53-.36s21.75.68,32.64,1.06c.28,0,.33.44,0,.44C332.39,378.24,321.55,378.48,310.7,378.37Z" style="fill:#263238"></path><path d="M190,337.64A98.05,98.05,0,0,1,180.29,354a58.17,58.17,0,0,1-12.35,8.35c2.89-2.88,6.34-5.69,9.44-8.32a11.9,11.9,0,0,0,2.6-2.93c3.2-4.54,6.39-9.15,10.05-13.44Z" style="fill:#263238"></path><path d="M171,355.42a22.68,22.68,0,0,1,9.14-2.89,22.57,22.57,0,0,1-9.14,2.89Z" style="fill:#263238"></path><path d="M130.17,342.31c-.87,7-1.61,14.08-2.08,21.14-.21,4.39-.63,8.85.1,13.2,1.65,5.08,11.35,6.49,16,7.23a64.42,64.42,0,0,0,15.82.17c1.73-.28,3.47-.22,4.67-1.67,11.51-13.38,20.4-28.89,30.25-43.51,15.53-23.69,30.3-47.94,47.47-70.51a64.08,64.08,0,0,1,5.27-6c1.33-1.32,3.07-2.74,5.06-1.62a19.29,19.29,0,0,1,6,5.38c1,1.44,2.39,2.91,2.75,4.7,1.74,19.38,1,39,4.18,58.24,3,13.82,6.79,27.5,10.5,41.15q-2.93-10.2-5.73-20.46c-2.67-10.26-5.9-20.51-6.67-31.14-1-10.59-1.45-21.21-2-31.82-.36-5.46-.3-11-1.14-16.43-1.92-3.52-4.71-7-8.25-8.92a2.35,2.35,0,0,0-2.21-.09c-2.84,1.87-5,4.92-7.17,7.55-19.76,26.39-40.56,60.83-59.11,88.19-3.94,5.88-7.91,11.76-12.09,17.49a75.72,75.72,0,0,1-6.73,8.27,4.16,4.16,0,0,1-2.39,1.41c-9,1.65-26.5,1-33.54-5.14-1.4-1.26-1.62-3.24-1.67-5a94.3,94.3,0,0,1,.33-10.63c.55-7.06,1.37-14.1,2.32-21.12Z" style="fill:#263238"></path><path d="M346.93,393.14l-73.32.29s-1.94-5.78-4.5-13.69c-10.38,25.37-25.49,53.62-36,62.18-15,12.22-72.11,9.62-81.23,5.06-14.73-7.36-33.81-19.4-39.48-36.72-7.54-23,6.63-71.1,6.63-71.1l71-1.52s41.61-71.12,61.15-92.35A40.57,40.57,0,0,1,279.75,232a49.17,49.17,0,0,1,15,1.93Z" style="opacity:0.1"></path><path d="M393.14,449.53c4.19-1.4.47-13.49-4.19-17.22-1.48-1.19-7-4-13.87-7.31-15.17-7.29-37-17-37-17l-15.69-67.3-75.73.41s13.6,62.51,13.72,67.11c0,.28,0,.57,0,.85.65,20.87,1.68,38,3.4,39C268.41,451,388.93,450.94,393.14,449.53Z" style="fill: rgb(255, 196, 192);"></path><path d="M393.14,449.52c-4.22,1.42-124.73,1.44-129.32-1.47-1.72-1.07-2.76-18.15-3.4-39,0-.28,0-.56,0-.85,0-1-.73-4.91-1.79-10.34h77.13L338.09,408s21.82,9.76,37,17.05c6.9,3.33,12.39,6.13,13.87,7.3C393.61,436,397.33,448.13,393.14,449.52Z" style="fill:#ebebeb"></path><path d="M394.5,450.2c-4.29,1.44-127,1.3-131.67-1.67-1.79-1.1-2.82-19-3.43-40.63,0-.23,0-.45,0-.68l79.17-.79,0,1.34s47,21.07,51.73,24.88S398.79,448.78,394.5,450.2Z" style="fill:#90CAF9"></path><path d="M393.11,445.44c-20.68-.53-104.16-.72-124.65.32-.17,0-.17.13,0,.13,20.49,1,104,.49,124.66-.11C393.55,445.77,393.55,445.45,393.11,445.44Z" style="fill:#263238"></path><path d="M347.37,406.66c-8.14-1.52-18.09-.29-24.32,5.51-.24.22.08.56.34.48a114.94,114.94,0,0,1,23.95-5A.52.52,0,0,0,347.37,406.66Z" style="fill:#263238"></path><path d="M353.24,410.21c-8.14-1.53-18.09-.29-24.32,5.5-.24.23.08.57.35.49a114.08,114.08,0,0,1,23.94-5A.52.52,0,0,0,353.24,410.21Z" style="fill:#263238"></path><path d="M359.12,413.76c-8.14-1.53-18.1-.29-24.33,5.5-.24.23.08.57.35.48a114.06,114.06,0,0,1,23.94-4.95A.52.52,0,0,0,359.12,413.76Z" style="fill:#263238"></path><path d="M358,388.92c-3.2-4.41-9.15-2.43-12.56.42A43.45,43.45,0,0,0,332.87,408a.21.21,0,0,0,.19.29c0,.62.57,1.28,1.27,1,6.73-2.48,14.22-4.3,20-8.77C357.68,397.9,361,393.09,358,388.92Zm-14.22,14.52c-3.28,1.3-6.6,2.43-9.83,3.85a131.07,131.07,0,0,1,7.57-10.72,48.85,48.85,0,0,1,4.32-4.66c2.43-2.2,12-6.88,10.58,2C355.6,398.89,347.66,401.89,343.76,403.44Z" style="fill:#263238"></path><path d="M312.18,405.82c6.7,2.87,14.42,2.73,21.55,3.43.74.08,1.11-.7,1-1.3a.23.23,0,0,0,.11-.34A43.5,43.5,0,0,0,318,392.76c-4-1.9-10.27-2.3-12.25,2.78C303.84,400.34,308.26,404.15,312.18,405.82ZM308.51,400c-3.66-8.27,6.81-6.17,9.71-4.65a47.08,47.08,0,0,1,5.36,3.41c3.58,2.55,6.74,5.57,10,8.45-3.49-.56-7-.81-10.49-1.24C319,405.47,310.52,404.58,308.51,400Z" style="fill:#263238"></path><path d="M374.4,424.57a21,21,0,0,0-15.68,6.35c-3.27,3.55-6.06,8.54-5.9,14,0,.16.3.16.32,0,1.52-10.24,10.87-19.22,21.26-20A.17.17,0,0,0,374.4,424.57Z" style="fill:#263238"></path><path d="M275.64,428.53c-8.88,0-8.89,13.8,0,13.8S284.53,428.53,275.64,428.53Z" style="fill:#fff"></path><path d="M100.13,339.16S86,387.22,93.5,410.27C99.17,427.59,118.26,439.62,133,447c9.12,4.56,66.24,7.17,81.24-5.07,20.95-17.07,54-109.55,54-112.23,0-10.39-31.73-29.93-31.73-29.93s-.17,27.92,2,39.78c2.45,13.17,16.15,53.9,16.15,53.9l82.14-.32s-15.39-89.54-40.09-143.64c-5.36-11.76-22.05-17.9-35.91-17.46a40.64,40.64,0,0,0-28.56,13.27c-19.55,21.24-61.16,92.36-61.16,92.36Z" style="fill:#37474f"></path><path d="M250.28,379.77c-1.81-7.31-7-23.75-11.49-46-1.7-8.55-3-19.49-4.33-29.93-.64-5-1.6-19.16-2.51-24.35a.2.2,0,0,0-.4,0c.07,5.18,1.09,16.51,1.47,21.06.16,2,.35,3.93.52,5.89-.16-.43-3.89-9.62-5.09-13.68-.07-.25-.44-.13-.38.12,1.71,6.28,5,16.92,5.86,17.92.53,5.77,1.48,16.78,2.58,22.47,3,15.52,10.55,41.9,13.17,46.63C249.94,380.36,250.41,380.3,250.28,379.77Z" style="fill:#263238"></path><path d="M291.79,378.37c-10.89-.12-23.54-.35-32.65-1-.21,0-.24-.33,0-.33,9.07-.28,21.68-.49,32.53-.36s21.76.68,32.65,1.06c.27,0,.32.44,0,.44C313.48,378.24,302.64,378.48,291.79,378.37Z" style="fill:#263238"></path><path d="M171.11,337.64A96.71,96.71,0,0,1,161.37,354,57.86,57.86,0,0,1,149,362.33c2.88-2.88,6.33-5.69,9.44-8.32a12.11,12.11,0,0,0,2.6-2.93c3.19-4.54,6.38-9.15,10-13.44Z" style="fill:#263238"></path><path d="M152.1,355.42a22.77,22.77,0,0,1,9.15-2.89,22.62,22.62,0,0,1-9.15,2.89Z" style="fill:#263238"></path><path d="M111.52,372.49c1.91-.66,10.08-2.33,12.07-3.11a45.84,45.84,0,0,0,10.62-5.8c3.32-2.49,5.37-5.8,7.12-9.5.93-2,5.39-12.63,5.66-12.67a.28.28,0,0,1,.28.14c.36.68-1,4.64-1.45,5.95-.71,2.29-1.41,4.58-2.21,6.84-1.51,4.26-3.64,8.13-7.21,11a36.75,36.75,0,0,1-11.82,6.15,37.82,37.82,0,0,1-6.72,1.54,17.78,17.78,0,0,1-6.38.12C111.12,373,111.25,372.58,111.52,372.49Z" style="fill:#263238"></path><path d="M111.26,342.31c-.87,7-1.62,14.08-2.08,21.14-.21,4.39-.63,8.85.1,13.2,1.64,5.08,11.34,6.49,16,7.23a64.43,64.43,0,0,0,15.82.17c1.73-.28,3.47-.22,4.68-1.67,11.51-13.38,20.4-28.89,30.25-43.51,15.53-23.69,30.3-47.94,47.46-70.51a65.66,65.66,0,0,1,5.28-6c1.33-1.32,3.07-2.74,5.06-1.62a19.15,19.15,0,0,1,6,5.38c1.05,1.44,2.4,2.91,2.75,4.7,1.74,19.38,1,39,4.18,58.24,3,13.82,6.8,27.5,10.51,41.15q-2.94-10.2-5.73-20.46c-2.67-10.26-5.9-20.51-6.67-31.14-1-10.59-1.46-21.21-2-31.82-.36-5.46-.3-11-1.14-16.43-1.93-3.52-4.71-7-8.26-8.92a2.35,2.35,0,0,0-2.21-.09c-2.83,1.87-5,4.92-7.16,7.55-19.77,26.39-40.56,60.83-59.11,88.19-3.95,5.88-7.92,11.76-12.09,17.49a75.72,75.72,0,0,1-6.73,8.27,4.16,4.16,0,0,1-2.39,1.41c-9,1.65-26.5,1-33.54-5.14-1.41-1.26-1.62-3.24-1.68-5a96.72,96.72,0,0,1,.34-10.63c.55-7.06,1.37-14.1,2.32-21.12Z" style="fill:#263238"></path><path d="M151,338.39a7.94,7.94,0,0,0-1.06,3,.58.58,0,0,0,.4.66c.27.05.49-.18.54-.5a6.94,6.94,0,0,1,.52-1.79l.08-.16s.1-.22,0-.07a1.51,1.51,0,0,1,.11-.22l.12-.21a.69.69,0,0,0-.07-.82.43.43,0,0,0-.67.09Z" style="fill:#c7c7c7"></path><path d="M149.53,343.91a8,8,0,0,0-1.06,3,.58.58,0,0,0,.4.66c.26.05.49-.18.54-.49a7,7,0,0,1,.52-1.8l.08-.16s.1-.21,0-.07l.11-.22.12-.21a.71.71,0,0,0-.07-.82.43.43,0,0,0-.67.09Z" style="fill:#c7c7c7"></path><path d="M147.61,348.79a6.7,6.7,0,0,0-1.83,2.4.68.68,0,0,0,.2.79.44.44,0,0,0,.64-.25,6.22,6.22,0,0,1,1-1.47l.11-.12.05-.05.17-.16.16-.15a.66.66,0,0,0,.16-.8.43.43,0,0,0-.65-.19Z" style="fill:#c7c7c7"></path><path d="M144.32,353.07a5.85,5.85,0,0,0-2.25,1.77.69.69,0,0,0,0,.83.42.42,0,0,0,.67,0A5,5,0,0,1,144,354.5l.13-.08s.18-.11.06,0l.19-.1.19-.09a.64.64,0,0,0,.32-.73c-.09-.29-.34-.49-.6-.39Z" style="fill:#c7c7c7"></path><path d="M140.35,356.07a5.26,5.26,0,0,0-2.44,1.31.69.69,0,0,0-.07.83.42.42,0,0,0,.66.08,4.66,4.66,0,0,1,1.38-.87l.14-.05s.19-.07.06,0l.21-.06.2-.06a.58.58,0,0,0,.4-.66c0-.3-.28-.55-.54-.49Z" style="fill:#c7c7c7"></path><path d="M136,358.21a5.14,5.14,0,0,0-2.52,1.08.68.68,0,0,0-.12.81.43.43,0,0,0,.66.15,4.31,4.31,0,0,1,1.43-.73l.14,0s.2-.05.06,0l.21,0,.2,0a.57.57,0,0,0,.44-.63c0-.31-.24-.57-.5-.54Z" style="fill:#c7c7c7"></path><path d="M131.59,360a5,5,0,0,0-2.57.92.69.69,0,0,0-.15.81.44.44,0,0,0,.65.19,4.25,4.25,0,0,1,1.46-.65l.15,0h.06l.21,0,.2,0a.56.56,0,0,0,.47-.6c0-.31-.22-.59-.48-.57Z" style="fill:#c7c7c7"></path><path d="M127.12,361.62a5.06,5.06,0,0,0-2.56.93.67.67,0,0,0-.15.8.43.43,0,0,0,.65.19,4.43,4.43,0,0,1,1.46-.64l.14,0s.2,0,.07,0l.21,0,.2,0a.55.55,0,0,0,.47-.59c0-.31-.22-.59-.49-.58Z" style="fill:#c7c7c7"></path><path d="M122.36,363.29a5,5,0,0,0-2.56.92.68.68,0,0,0-.15.81.42.42,0,0,0,.65.19,4.31,4.31,0,0,1,1.45-.65l.15,0s.2,0,.06,0l.22,0,.2,0a.54.54,0,0,0,.46-.59c0-.31-.21-.59-.48-.58Z" style="fill:#c7c7c7"></path><path d="M117.79,365.31A5.63,5.63,0,0,0,115.5,367a.69.69,0,0,0,0,.83.42.42,0,0,0,.67,0,4.84,4.84,0,0,1,1.28-1.07l.14-.08s.18-.1.05,0l.2-.09.19-.08a.63.63,0,0,0,.34-.72c-.08-.3-.33-.51-.59-.41Z" style="fill:#c7c7c7"></path><path d="M113.78,368.86a6.4,6.4,0,0,0-2,2.2.67.67,0,0,0,.14.81.42.42,0,0,0,.65-.17,6.09,6.09,0,0,1,1.09-1.37l.12-.11,0,0L114,370l.18-.13a.68.68,0,0,0,.21-.78.45.45,0,0,0-.64-.27Z" style="fill:#c7c7c7"></path><path d="M110.39,373a7.21,7.21,0,0,0-1.64,2.61.66.66,0,0,0,.26.76.46.46,0,0,0,.62-.32,6.41,6.41,0,0,1,.87-1.58,1.13,1.13,0,0,0,.1-.13l.05-.06.15-.18.16-.16a.69.69,0,0,0,.09-.82.42.42,0,0,0-.66-.12Z" style="fill:#c7c7c7"></path><path d="M107.73,378a7.68,7.68,0,0,0-1.39,2.82.63.63,0,0,0,.33.72.48.48,0,0,0,.59-.4,6.4,6.4,0,0,1,.72-1.7,1,1,0,0,1,.08-.14s.13-.2,0-.07c.05-.06.09-.13.14-.2l.14-.18a.72.72,0,0,0,0-.83.42.42,0,0,0-.67,0Z" style="fill:#c7c7c7"></path><path d="M105.32,383a7.4,7.4,0,0,0-1.51,2.71.63.63,0,0,0,.29.75.47.47,0,0,0,.6-.36,6.93,6.93,0,0,1,.8-1.64l.1-.14s.13-.18,0-.06l.15-.19a1.15,1.15,0,0,1,.14-.17.69.69,0,0,0,.06-.83.42.42,0,0,0-.67-.07Z" style="fill:#c7c7c7"></path><path d="M102.69,388a6.53,6.53,0,0,0-1.88,2.34.68.68,0,0,0,.19.8.44.44,0,0,0,.64-.23,6.15,6.15,0,0,1,1-1.44l.11-.12s.16-.15,0-.05l.17-.15.17-.14a.68.68,0,0,0,.18-.8.44.44,0,0,0-.65-.21Z" style="fill:#c7c7c7"></path><path d="M99.26,391.79a5.27,5.27,0,0,0-2.44,1.34.69.69,0,0,0-.07.83.43.43,0,0,0,.67.08,4.68,4.68,0,0,1,1.37-.89l.14-.06.06,0,.21-.07.2-.05a.59.59,0,0,0,.4-.67c0-.3-.28-.54-.54-.49Z" style="fill:#c7c7c7"></path><path d="M95.11,394a4.8,4.8,0,0,0-2.64-.51.57.57,0,0,0-.42.65.52.52,0,0,0,.53.51,4.09,4.09,0,0,1,1.54.18l.14,0s.19.07.06,0l.21.08.19.09a.44.44,0,0,0,.62-.3.65.65,0,0,0-.23-.77Z" style="fill:#c7c7c7"></path><path d="M90.81,392.71a7,7,0,0,0-1.76-2.47.43.43,0,0,0-.66.17.7.7,0,0,0,.14.81,5.86,5.86,0,0,1,1.09,1.35l.09.15s.11.21,0,.07l.12.22c0,.07.07.14.1.22a.44.44,0,0,0,.63.27.68.68,0,0,0,.22-.79Z" style="fill:#c7c7c7"></path><path d="M88.19,388a8.46,8.46,0,0,0-.8-3.14.43.43,0,0,0-.66-.17.67.67,0,0,0-.14.8,6.91,6.91,0,0,1,.55,1.79,1.16,1.16,0,0,1,0,.18s0,.24,0,.07l0,.26a2.29,2.29,0,0,1,0,.25c0,.31.23.59.49.57a.57.57,0,0,0,.46-.61Z" style="fill:#c7c7c7"></path><path d="M86.85,382.36a8.88,8.88,0,0,0,0-3.29.48.48,0,0,0-.58-.41.61.61,0,0,0-.33.72,8,8,0,0,1,.09,1.9c0,.06,0,.13,0,.19s0,.24,0,.07a2,2,0,0,1,0,.26,1.87,1.87,0,0,1,0,.25.62.62,0,0,0,.33.72.48.48,0,0,0,.59-.41Z" style="fill:#c7c7c7"></path><path d="M86.84,376.52a8.34,8.34,0,0,0,.52-3.23.52.52,0,0,0-.5-.54.57.57,0,0,0-.44.63,7.17,7.17,0,0,1-.21,1.89c0,.06,0,.12,0,.18s-.07.23,0,.07c0,.08-.05.17-.08.25A2.09,2.09,0,0,1,86,376a.67.67,0,0,0,.22.78.43.43,0,0,0,.63-.26Z" style="fill:#c7c7c7"></path><path d="M87.84,370.65a8.55,8.55,0,0,0,.69-3.18.54.54,0,0,0-.48-.58c-.27,0-.46.27-.47.59a7.54,7.54,0,0,1-.31,1.87,1.09,1.09,0,0,1,0,.17s-.08.23,0,.07l-.09.24-.09.23a.68.68,0,0,0,.17.8.44.44,0,0,0,.65-.21Z" style="fill:#c7c7c7"></path><path d="M89,364.9a8.27,8.27,0,0,0,1.4-2.89.58.58,0,0,0-.32-.7.52.52,0,0,0-.59.44,7.41,7.41,0,0,1-.74,1.74l-.09.15s-.12.2,0,.06c0,.07-.1.14-.14.21l-.14.19a.71.71,0,0,0,0,.83.43.43,0,0,0,.68,0Z" style="fill:#c7c7c7"></path><path d="M91.12,360a8.4,8.4,0,0,0,2.26-2.34.48.48,0,1,0-.8-.5,7.38,7.38,0,0,1-1.25,1.43l-.14.12s-.18.15,0,.05a1.56,1.56,0,0,0-.2.16l-.2.14a.69.69,0,0,0-.28.77.44.44,0,0,0,.66.17Z" style="fill:#c7c7c7"></path><path d="M95,355.62a8.5,8.5,0,0,0,1.83-2.74.49.49,0,0,0-.25-.67.61.61,0,0,0-.67.41,7.66,7.66,0,0,1-1,1.64l-.12.14s-.15.19,0,.06l-.18.2-.16.18a.63.63,0,0,0-.13.79.46.46,0,0,0,.7,0Z" style="fill:#c7c7c7"></path><path d="M98.37,349.81l-.11-.07a1.79,1.79,0,0,0-2.35.85l-.28.46a1.79,1.79,0,0,0,.35,2.48l.11.06a1.78,1.78,0,0,0,2.35-.85l.28-.45A1.79,1.79,0,0,0,98.37,349.81Zm-.44,2.5a1.06,1.06,0,0,1-1.4.51l-.07,0a1.07,1.07,0,0,1-.21-1.48l.17-.28a1.07,1.07,0,0,1,1.41-.5l.06,0A1.06,1.06,0,0,1,98.1,352Z" style="fill:#dbdbdb"></path><path d="M98.05,350.18l-.09-.05a1.39,1.39,0,0,0-1.83.66l-.22.36a1.4,1.4,0,0,0,.27,1.93l.09.05a1.39,1.39,0,0,0,1.83-.66l.22-.36A1.4,1.4,0,0,0,98.05,350.18Zm-.12,2.13a1.06,1.06,0,0,1-1.4.51l-.07,0a1.07,1.07,0,0,1-.21-1.48l.17-.28a1.07,1.07,0,0,1,1.41-.5l.06,0A1.06,1.06,0,0,1,98.1,352Z" style="fill:#c7c7c7;opacity:0.4"></path><path d="M95.3,354.46l-.1-.09a1.68,1.68,0,0,0-2.38.53l-.32.42a1.91,1.91,0,0,0,0,2.57l.1.08a1.68,1.68,0,0,0,2.38-.52l.32-.42A1.9,1.9,0,0,0,95.3,354.46Zm-.72,2.48a1,1,0,0,1-1.43.31l-.05-.05a1.15,1.15,0,0,1,0-1.54l.2-.25a1,1,0,0,1,1.42-.31l.06,0a1.14,1.14,0,0,1,0,1.53Z" style="fill:#dbdbdb"></path><path d="M94.94,354.79l-.07-.06a1.32,1.32,0,0,0-1.86.4l-.25.33a1.5,1.5,0,0,0,0,2l.08.06a1.3,1.3,0,0,0,1.85-.41l.25-.33A1.48,1.48,0,0,0,94.94,354.79Zm-.36,2.15a1,1,0,0,1-1.43.31l-.05-.05a1.15,1.15,0,0,1,0-1.54l.2-.25a1,1,0,0,1,1.42-.31l.06,0a1.14,1.14,0,0,1,0,1.53Z" style="fill:#c7c7c7;opacity:0.4"></path><path d="M91.4,358.72l-.12-.06a1.51,1.51,0,0,0-2.15.91l-.21.48a2.06,2.06,0,0,0,.61,2.58l.11.07a1.54,1.54,0,0,0,2.16-.91l.21-.48A2.08,2.08,0,0,0,91.4,358.72Zm-.14,2.62a.92.92,0,0,1-1.29.55l-.07,0a1.25,1.25,0,0,1-.36-1.55l.13-.28a.9.9,0,0,1,1.28-.55l.07,0a1.24,1.24,0,0,1,.37,1.54Z" style="fill:#dbdbdb"></path><path d="M91.13,359.12l-.09-.06a1.2,1.2,0,0,0-1.68.72l-.16.37a1.61,1.61,0,0,0,.47,2l.09.06a1.19,1.19,0,0,0,1.68-.72l.17-.37A1.61,1.61,0,0,0,91.13,359.12Zm.13,2.22a.92.92,0,0,1-1.29.55l-.07,0a1.25,1.25,0,0,1-.36-1.55l.13-.28a.9.9,0,0,1,1.28-.55l.07,0a1.24,1.24,0,0,1,.37,1.54Z" style="fill:#c7c7c7;opacity:0.4"></path><path d="M88.92,363.78l-.13,0a1.53,1.53,0,0,0-2,1.23l-.14.5a2.08,2.08,0,0,0,1,2.46l.12.05a1.52,1.52,0,0,0,2-1.23l.14-.5A2.07,2.07,0,0,0,88.92,363.78Zm.26,2.61a.93.93,0,0,1-1.2.73l-.07,0a1.23,1.23,0,0,1-.59-1.47l.08-.3a.92.92,0,0,1,1.19-.74l.07,0a1.24,1.24,0,0,1,.6,1.47Z" style="fill:#dbdbdb"></path><path d="M88.71,364.21l-.09,0a1.19,1.19,0,0,0-1.56,1l-.11.39a1.63,1.63,0,0,0,.78,1.92l.1,0a1.2,1.2,0,0,0,1.55-1l.11-.4A1.62,1.62,0,0,0,88.71,364.21Zm.47,2.18a.93.93,0,0,1-1.2.73l-.07,0a1.23,1.23,0,0,1-.59-1.47l.08-.3a.92.92,0,0,1,1.19-.74l.07,0a1.24,1.24,0,0,1,.6,1.47Z" style="fill:#c7c7c7;opacity:0.4"></path><path d="M87.66,369.6l-.12,0a1.63,1.63,0,0,0-1.84,1.55l-.08.53a2,2,0,0,0,1.26,2.27l.12,0a1.64,1.64,0,0,0,1.84-1.56l.08-.52A2,2,0,0,0,87.66,369.6Zm.55,2.54a1,1,0,0,1-1.1.92H87a1.18,1.18,0,0,1-.75-1.36l0-.31a1,1,0,0,1,1.1-.93l.07,0a1.16,1.16,0,0,1,.76,1.35Z" style="fill:#dbdbdb"></path><path d="M87.51,370.06l-.1,0A1.27,1.27,0,0,0,86,371.25l-.07.41a1.53,1.53,0,0,0,1,1.76l.1,0a1.28,1.28,0,0,0,1.44-1.21l.06-.41A1.53,1.53,0,0,0,87.51,370.06Zm.7,2.08a1,1,0,0,1-1.1.92H87a1.18,1.18,0,0,1-.75-1.36l0-.31a1,1,0,0,1,1.1-.93l.07,0a1.16,1.16,0,0,1,.76,1.35Z" style="fill:#c7c7c7;opacity:0.4"></path><path d="M86.79,375.42l-.13,0A1.64,1.64,0,0,0,84.82,377l-.08.52A2,2,0,0,0,86,379.74l.13,0A1.62,1.62,0,0,0,88,378.22l.08-.53A2,2,0,0,0,86.79,375.42Zm.54,2.54a1,1,0,0,1-1.1.93l-.07,0a1.18,1.18,0,0,1-.76-1.35l0-.32a1,1,0,0,1,1.1-.93l.08,0a1.18,1.18,0,0,1,.75,1.36Z" style="fill:#dbdbdb"></path><path d="M86.63,375.88l-.1,0a1.27,1.27,0,0,0-1.43,1.21l-.06.41a1.52,1.52,0,0,0,1,1.77l.1,0a1.27,1.27,0,0,0,1.43-1.21l.06-.41A1.52,1.52,0,0,0,86.63,375.88Zm.7,2.08a1,1,0,0,1-1.1.93l-.07,0a1.18,1.18,0,0,1-.76-1.35l0-.32a1,1,0,0,1,1.1-.93l.08,0a1.18,1.18,0,0,1,.75,1.36Z" style="fill:#c7c7c7;opacity:0.4"></path><path d="M86.31,381.42l-.13,0A2,2,0,0,0,85,383.78l.09.52A1.61,1.61,0,0,0,87,385.78l.13,0a2,2,0,0,0,1.19-2.32l-.09-.52A1.61,1.61,0,0,0,86.31,381.42Zm1.31,2.07a1.19,1.19,0,0,1-.72,1.39l-.07,0a1,1,0,0,1-1.12-.88l-.06-.31a1.19,1.19,0,0,1,.71-1.39l.08,0a1,1,0,0,1,1.12.88Z" style="fill:#dbdbdb"></path><path d="M86.31,381.92l-.1,0a1.55,1.55,0,0,0-.93,1.81l.07.41a1.26,1.26,0,0,0,1.47,1.15l.1,0a1.55,1.55,0,0,0,.93-1.81l-.07-.41A1.26,1.26,0,0,0,86.31,381.92Zm1.31,1.57a1.19,1.19,0,0,1-.72,1.39l-.07,0a1,1,0,0,1-1.12-.88l-.06-.31a1.19,1.19,0,0,1,.71-1.39l.08,0a1,1,0,0,1,1.12.88Z" style="fill:#c7c7c7;opacity:0.4"></path><path d="M87.36,387.37l-.11.08a2.21,2.21,0,0,0-.57,2.66l.22.46a1.43,1.43,0,0,0,2.16.7l.11-.08a2.22,2.22,0,0,0,.56-2.66l-.22-.47A1.42,1.42,0,0,0,87.36,387.37Zm1.76,1.47a1.32,1.32,0,0,1-.34,1.59l-.07.05a.84.84,0,0,1-1.28-.42l-.13-.27a1.31,1.31,0,0,1,.33-1.59l.07-.05a.85.85,0,0,1,1.29.42Z" style="fill:#dbdbdb"></path><path d="M87.48,387.84l-.08.06A1.73,1.73,0,0,0,87,390l.17.36a1.11,1.11,0,0,0,1.68.54l.09-.06a1.74,1.74,0,0,0,.44-2.08l-.18-.36A1.11,1.11,0,0,0,87.48,387.84Zm1.64,1a1.32,1.32,0,0,1-.34,1.59l-.07.05a.84.84,0,0,1-1.28-.42l-.13-.27a1.31,1.31,0,0,1,.33-1.59l.07-.05a.85.85,0,0,1,1.29.42Z" style="fill:#c7c7c7;opacity:0.4"></path><path d="M89.66,392.53l-.06.14a2.19,2.19,0,0,0,.7,2.62l.38.24a1.45,1.45,0,0,0,2.12-.86l.06-.14a2.18,2.18,0,0,0-.69-2.61l-.39-.25A1.45,1.45,0,0,0,89.66,392.53Zm2.13.06a1.31,1.31,0,0,1,.41,1.57l0,.08a.86.86,0,0,1-1.26.51l-.24-.14a1.3,1.3,0,0,1-.41-1.56l0-.09a.87.87,0,0,1,1.27-.51Z" style="fill:#dbdbdb"></path><path d="M90,392.84l0,.11a1.7,1.7,0,0,0,.54,2l.3.19a1.12,1.12,0,0,0,1.65-.67l0-.11a1.7,1.7,0,0,0-.54-2l-.3-.18A1.13,1.13,0,0,0,90,392.84Zm1.81-.25a1.31,1.31,0,0,1,.41,1.57l0,.08a.86.86,0,0,1-1.26.51l-.24-.14a1.3,1.3,0,0,1-.41-1.56l0-.09a.87.87,0,0,1,1.27-.51Z" style="fill:#c7c7c7;opacity:0.4"></path><path d="M94.26,394.47l0,.16a1.64,1.64,0,0,0,1.82,1.58l.43-.09a2,2,0,0,0,1.28-2.25l0-.16A1.64,1.64,0,0,0,96,392.13l-.43.09A2,2,0,0,0,94.26,394.47ZM96,393a1,1,0,0,1,1.09.95V394a1.16,1.16,0,0,1-.77,1.34l-.25.06a1,1,0,0,1-1.09-.95v-.09a1.16,1.16,0,0,1,.76-1.34Z" style="fill:#dbdbdb"></path><path d="M94.66,394.49l0,.12c.12.83.75,1.38,1.42,1.23l.33-.07a1.51,1.51,0,0,0,1-1.75v-.12A1.27,1.27,0,0,0,96,392.67l-.34.07A1.52,1.52,0,0,0,94.66,394.49ZM96,393a1,1,0,0,1,1.09.95V394a1.16,1.16,0,0,1-.77,1.34l-.25.06a1,1,0,0,1-1.09-.95v-.09a1.16,1.16,0,0,1,.76-1.34Z" style="fill:#c7c7c7;opacity:0.4"></path><path d="M98.91,393l.09.11a1.38,1.38,0,0,0,2.23,0l.31-.38a2.25,2.25,0,0,0,0-2.74l-.09-.12a1.38,1.38,0,0,0-2.23,0l-.31.38A2.3,2.3,0,0,0,98.91,393Zm.72-2.48a.82.82,0,0,1,1.33,0l.05.07a1.35,1.35,0,0,1,0,1.64l-.18.23a.82.82,0,0,1-1.33,0l-.06-.07a1.37,1.37,0,0,1,0-1.64Z" style="fill:#dbdbdb"></path><path d="M99.25,392.75l.07.08a1.07,1.07,0,0,0,1.74,0l.24-.3a1.77,1.77,0,0,0,0-2.14l-.07-.09a1.08,1.08,0,0,0-1.74,0l-.24.29A1.79,1.79,0,0,0,99.25,392.75Zm.38-2.21a.82.82,0,0,1,1.33,0l.05.07a1.35,1.35,0,0,1,0,1.64l-.18.23a.82.82,0,0,1-1.33,0l-.06-.07a1.37,1.37,0,0,1,0-1.64Z" style="fill:#c7c7c7;opacity:0.4"></path><path d="M102.45,389l.1.09a1.4,1.4,0,0,0,2.19-.52l.25-.44a2.24,2.24,0,0,0-.42-2.7l-.11-.09a1.4,1.4,0,0,0-2.19.52l-.24.44A2.24,2.24,0,0,0,102.45,389Zm.32-2.6a.83.83,0,0,1,1.31-.3l.06.05a1.32,1.32,0,0,1,.25,1.61l-.14.27a.83.83,0,0,1-1.31.3l-.06-.05a1.32,1.32,0,0,1-.25-1.61Z" style="fill:#dbdbdb"></path><path d="M102.74,388.62l.08.07a1.1,1.1,0,0,0,1.71-.4l.19-.34a1.74,1.74,0,0,0-.33-2.11l-.08-.07a1.09,1.09,0,0,0-1.7.4l-.19.35A1.73,1.73,0,0,0,102.74,388.62Zm0-2.25a.83.83,0,0,1,1.31-.3l.06.05a1.32,1.32,0,0,1,.25,1.61l-.14.27a.83.83,0,0,1-1.31.3l-.06-.05a1.32,1.32,0,0,1-.25-1.61Z" style="fill:#c7c7c7;opacity:0.4"></path><path d="M105.22,384.17l.11.08a1.41,1.41,0,0,0,2.16-.65l.23-.46a2.21,2.21,0,0,0-.53-2.67l-.11-.08a1.41,1.41,0,0,0-2.16.65l-.23.45A2.24,2.24,0,0,0,105.22,384.17Zm.22-2.62a.85.85,0,0,1,1.29-.39l.07,0a1.34,1.34,0,0,1,.31,1.6l-.13.27a.85.85,0,0,1-1.3.39l-.06-.05a1.31,1.31,0,0,1-.32-1.59Z" style="fill:#dbdbdb"></path><path d="M105.5,383.8l.08.07a1.11,1.11,0,0,0,1.69-.51l.18-.35a1.74,1.74,0,0,0-.41-2.09l-.09-.06a1.1,1.1,0,0,0-1.69.5l-.17.36A1.71,1.71,0,0,0,105.5,383.8Zm-.06-2.25a.85.85,0,0,1,1.29-.39l.07,0a1.34,1.34,0,0,1,.31,1.6l-.13.27a.85.85,0,0,1-1.3.39l-.06-.05a1.31,1.31,0,0,1-.32-1.59Z" style="fill:#c7c7c7;opacity:0.4"></path><path d="M107.43,378.9l.11.1a1.39,1.39,0,0,0,2.19-.47l.25-.43a2.25,2.25,0,0,0-.37-2.72l-.11-.09a1.4,1.4,0,0,0-2.2.47l-.25.43A2.25,2.25,0,0,0,107.43,378.9Zm.36-2.58a.84.84,0,0,1,1.32-.28l.06,0a1.35,1.35,0,0,1,.22,1.62l-.15.26a.83.83,0,0,1-1.31.28l-.06-.05a1.34,1.34,0,0,1-.23-1.62Z" style="fill:#dbdbdb"></path><path d="M107.73,378.57l.08.07a1.09,1.09,0,0,0,1.71-.36l.2-.34a1.76,1.76,0,0,0-.3-2.12l-.08-.07a1.09,1.09,0,0,0-1.71.36l-.2.34A1.76,1.76,0,0,0,107.73,378.57Zm.06-2.25a.84.84,0,0,1,1.32-.28l.06,0a1.35,1.35,0,0,1,.22,1.62l-.15.26a.83.83,0,0,1-1.31.28l-.06-.05a1.34,1.34,0,0,1-.23-1.62Z" style="fill:#c7c7c7;opacity:0.4"></path><path d="M109.94,374l.09.12a1.38,1.38,0,0,0,2.23,0l.31-.37a2.27,2.27,0,0,0,0-2.75l-.09-.12a1.37,1.37,0,0,0-2.22-.05l-.32.37A2.3,2.3,0,0,0,109.94,374Zm.75-2.46a.82.82,0,0,1,1.33,0l.06.06a1.38,1.38,0,0,1,0,1.65l-.19.22a.82.82,0,0,1-1.33,0l0-.07a1.36,1.36,0,0,1,0-1.64Z" style="fill:#dbdbdb"></path><path d="M110.28,373.72l.07.09a1.08,1.08,0,0,0,1.74,0l.24-.29a1.77,1.77,0,0,0,0-2.14l-.07-.09a1.08,1.08,0,0,0-1.74,0l-.24.29A1.77,1.77,0,0,0,110.28,373.72Zm.41-2.2a.82.82,0,0,1,1.33,0l.06.06a1.38,1.38,0,0,1,0,1.65l-.19.22a.82.82,0,0,1-1.33,0l0-.07a1.36,1.36,0,0,1,0-1.64Z" style="fill:#c7c7c7;opacity:0.4"></path><path d="M113.27,369.71l.07.13a1.4,1.4,0,0,0,2.19.5l.36-.31a2.23,2.23,0,0,0,.4-2.7l-.07-.13a1.4,1.4,0,0,0-2.19-.5l-.36.31A2.23,2.23,0,0,0,113.27,369.71Zm1.06-2.28a.84.84,0,0,1,1.31.3l0,.08a1.32,1.32,0,0,1-.24,1.61l-.21.19a.84.84,0,0,1-1.31-.3l0-.08a1.34,1.34,0,0,1,.24-1.62Z" style="fill:#dbdbdb"></path><path d="M113.64,369.52l.06.1a1.09,1.09,0,0,0,1.71.39l.27-.24a1.76,1.76,0,0,0,.32-2.11l-.06-.1a1.09,1.09,0,0,0-1.71-.39l-.28.24A1.77,1.77,0,0,0,113.64,369.52Zm.69-2.09a.84.84,0,0,1,1.31.3l0,.08a1.32,1.32,0,0,1-.24,1.61l-.21.19a.84.84,0,0,1-1.31-.3l0-.08a1.34,1.34,0,0,1,.24-1.62Z" style="fill:#c7c7c7;opacity:0.4"></path><path d="M117.09,366.06l0,.15a1.49,1.49,0,0,0,2,1.07l.41-.2a2.13,2.13,0,0,0,.87-2.53l0-.15a1.5,1.5,0,0,0-2.06-1.07l-.4.2A2.14,2.14,0,0,0,117.09,366.06Zm1.44-1.93a.89.89,0,0,1,1.23.64l0,.09a1.28,1.28,0,0,1-.52,1.51l-.24.12a.9.9,0,0,1-1.23-.64l0-.09a1.27,1.27,0,0,1,.52-1.51Z" style="fill:#dbdbdb"></path><path d="M117.49,366l0,.11a1.16,1.16,0,0,0,1.6.84l.31-.16a1.66,1.66,0,0,0,.68-2l0-.12a1.16,1.16,0,0,0-1.6-.83l-.31.15A1.67,1.67,0,0,0,117.49,366Zm1-1.85a.89.89,0,0,1,1.23.64l0,.09a1.28,1.28,0,0,1-.52,1.51l-.24.12a.9.9,0,0,1-1.23-.64l0-.09a1.27,1.27,0,0,1,.52-1.51Z" style="fill:#c7c7c7;opacity:0.4"></path><path d="M121.72,363.65l0,.16a1.63,1.63,0,0,0,1.83,1.56l.43-.09a2,2,0,0,0,1.27-2.26l0-.16a1.62,1.62,0,0,0-1.83-1.56l-.43.09A2,2,0,0,0,121.72,363.65Zm1.72-1.53a1,1,0,0,1,1.1.93v.1a1.16,1.16,0,0,1-.75,1.35l-.26.05a1,1,0,0,1-1.09-.93l0-.09a1.17,1.17,0,0,1,.76-1.35Z" style="fill:#dbdbdb"></path><path d="M122.12,363.67l0,.12a1.28,1.28,0,0,0,1.43,1.22l.33-.07a1.53,1.53,0,0,0,1-1.77l0-.12a1.28,1.28,0,0,0-1.43-1.22l-.33.08A1.52,1.52,0,0,0,122.12,363.67Zm1.32-1.55a1,1,0,0,1,1.1.93v.1a1.16,1.16,0,0,1-.75,1.35l-.26.05a1,1,0,0,1-1.09-.93l0-.09a1.17,1.17,0,0,1,.76-1.35Z" style="fill:#c7c7c7;opacity:0.4"></path><path d="M126.36,362.26l0,.16a1.64,1.64,0,0,0,1.83,1.57l.43-.1a2,2,0,0,0,1.27-2.26l0-.16a1.62,1.62,0,0,0-1.83-1.56l-.43.09A2,2,0,0,0,126.36,362.26Zm1.72-1.53a1,1,0,0,1,1.1.93v.1a1.17,1.17,0,0,1-.76,1.35l-.25.05a1,1,0,0,1-1.1-.93v-.09a1.17,1.17,0,0,1,.76-1.35Z" style="fill:#dbdbdb"></path><path d="M126.76,362.28l0,.12a1.28,1.28,0,0,0,1.43,1.22l.33-.07a1.53,1.53,0,0,0,1-1.77l0-.12a1.28,1.28,0,0,0-1.43-1.22l-.33.08A1.52,1.52,0,0,0,126.76,362.28Zm1.32-1.55a1,1,0,0,1,1.1.93v.1a1.17,1.17,0,0,1-.76,1.35l-.25.05a1,1,0,0,1-1.1-.93v-.09a1.17,1.17,0,0,1,.76-1.35Z" style="fill:#c7c7c7;opacity:0.4"></path><path d="M130.79,360.64l0,.16a1.56,1.56,0,0,0,2,1.33l.42-.14a2,2,0,0,0,1.08-2.4l0-.16a1.57,1.57,0,0,0-2-1.34l-.42.15A2,2,0,0,0,130.79,360.64Zm1.6-1.73a.93.93,0,0,1,1.16.8l0,.09a1.21,1.21,0,0,1-.65,1.43l-.25.09a.93.93,0,0,1-1.16-.8l0-.09a1.21,1.21,0,0,1,.65-1.43Z" style="fill:#dbdbdb"></path><path d="M131.19,360.61l0,.12a1.21,1.21,0,0,0,1.51,1l.33-.11a1.6,1.6,0,0,0,.85-1.87l0-.12a1.23,1.23,0,0,0-1.52-1.05l-.32.12A1.57,1.57,0,0,0,131.19,360.61Zm1.2-1.7a.93.93,0,0,1,1.16.8l0,.09a1.21,1.21,0,0,1-.65,1.43l-.25.09a.93.93,0,0,1-1.16-.8l0-.09a1.21,1.21,0,0,1,.65-1.43Z" style="fill:#c7c7c7;opacity:0.4"></path><path d="M135.28,359.06l0,.14a1.51,1.51,0,0,0,2,1.13l.4-.19a2.1,2.1,0,0,0,.92-2.5l-.05-.15a1.5,1.5,0,0,0-2-1.13l-.41.19A2.11,2.11,0,0,0,135.28,359.06Zm1.47-1.9a.9.9,0,0,1,1.22.67l0,.09a1.26,1.26,0,0,1-.54,1.5l-.25.11a.89.89,0,0,1-1.21-.67l0-.09a1.26,1.26,0,0,1,.55-1.5Z" style="fill:#dbdbdb"></path><path d="M135.68,359l0,.12a1.18,1.18,0,0,0,1.59.88l.31-.15a1.64,1.64,0,0,0,.72-2l0-.11a1.17,1.17,0,0,0-1.58-.88l-.32.15A1.64,1.64,0,0,0,135.68,359Zm1.07-1.82a.9.9,0,0,1,1.22.67l0,.09a1.26,1.26,0,0,1-.54,1.5l-.25.11a.89.89,0,0,1-1.21-.67l0-.09a1.26,1.26,0,0,1,.55-1.5Z" style="fill:#c7c7c7;opacity:0.4"></path><path d="M139.72,357l.07.13a1.41,1.41,0,0,0,2.18.57l.37-.29a2.24,2.24,0,0,0,.46-2.69l-.07-.13a1.4,1.4,0,0,0-2.18-.57l-.36.29A2.24,2.24,0,0,0,139.72,357Zm1.12-2.24a.84.84,0,0,1,1.3.34l0,.08a1.34,1.34,0,0,1-.28,1.61l-.21.17a.85.85,0,0,1-1.31-.34l0-.08a1.34,1.34,0,0,1,.28-1.61Z" style="fill:#dbdbdb"></path><path d="M140.1,356.79l.06.1a1.09,1.09,0,0,0,1.69.45l.29-.23a1.74,1.74,0,0,0,.36-2.1l-.06-.1a1.09,1.09,0,0,0-1.69-.44l-.29.22A1.75,1.75,0,0,0,140.1,356.79Zm.74-2.06a.84.84,0,0,1,1.3.34l0,.08a1.34,1.34,0,0,1-.28,1.61l-.21.17a.85.85,0,0,1-1.31-.34l0-.08a1.34,1.34,0,0,1,.28-1.61Z" style="fill:#c7c7c7;opacity:0.4"></path><path d="M144.05,354.18l.09.11a1.38,1.38,0,0,0,2.23-.12l.29-.4a2.26,2.26,0,0,0-.09-2.74l-.1-.11a1.38,1.38,0,0,0-2.23.12l-.29.39A2.27,2.27,0,0,0,144.05,354.18Zm.62-2.51a.81.81,0,0,1,1.33-.07l.06.06a1.37,1.37,0,0,1,.06,1.64l-.18.24a.83.83,0,0,1-1.33.07l-.06-.07a1.35,1.35,0,0,1-.05-1.64Z" style="fill:#dbdbdb"></path><path d="M144.37,353.89l.08.08a1.06,1.06,0,0,0,1.73-.09l.23-.31a1.77,1.77,0,0,0-.07-2.14l-.07-.08a1.07,1.07,0,0,0-1.74.09l-.23.31A1.79,1.79,0,0,0,144.37,353.89Zm.3-2.22a.81.81,0,0,1,1.33-.07l.06.06a1.37,1.37,0,0,1,.06,1.64l-.18.24a.83.83,0,0,1-1.33.07l-.06-.07a1.35,1.35,0,0,1-.05-1.64Z" style="fill:#c7c7c7;opacity:0.4"></path><path d="M147.48,350l.11.08a1.42,1.42,0,0,0,2.16-.67L150,349a2.2,2.2,0,0,0-.54-2.66l-.11-.08a1.41,1.41,0,0,0-2.16.67l-.23.45A2.22,2.22,0,0,0,147.48,350Zm.2-2.61A.85.85,0,0,1,149,347l.07.05a1.32,1.32,0,0,1,.32,1.59l-.13.27a.85.85,0,0,1-1.29.4l-.07-.05a1.31,1.31,0,0,1-.32-1.59Z" style="fill:#dbdbdb"></path><path d="M147.75,349.67l.09.06a1.1,1.1,0,0,0,1.68-.52l.18-.36a1.72,1.72,0,0,0-.43-2.08l-.08-.06a1.11,1.11,0,0,0-1.69.52l-.17.36A1.73,1.73,0,0,0,147.75,349.67Zm-.07-2.25A.85.85,0,0,1,149,347l.07.05a1.32,1.32,0,0,1,.32,1.59l-.13.27a.85.85,0,0,1-1.29.4l-.07-.05a1.31,1.31,0,0,1-.32-1.59Z" style="fill:#c7c7c7;opacity:0.4"></path><path d="M149.7,345.1l.13,0a1.59,1.59,0,0,0,1.92-1.4l.1-.52a2,2,0,0,0-1.13-2.37l-.13,0a1.57,1.57,0,0,0-1.91,1.4l-.11.52A2,2,0,0,0,149.7,345.1Zm-.41-2.58a1,1,0,0,1,1.15-.84l.08,0a1.19,1.19,0,0,1,.67,1.41l-.06.31a1,1,0,0,1-1.15.84l-.07,0a1.19,1.19,0,0,1-.68-1.41Z" style="fill:#dbdbdb"></path><path d="M149.88,344.65l.1,0a1.23,1.23,0,0,0,1.5-1.09l.08-.41a1.57,1.57,0,0,0-.88-1.84l-.1,0a1.23,1.23,0,0,0-1.5,1.09l-.08.41A1.57,1.57,0,0,0,149.88,344.65Zm-.59-2.13a1,1,0,0,1,1.15-.84l.08,0a1.19,1.19,0,0,1,.67,1.41l-.06.31a1,1,0,0,1-1.15.84l-.07,0a1.19,1.19,0,0,1-.68-1.41Z" style="fill:#c7c7c7;opacity:0.4"></path><path d="M96.1,352.18a9.48,9.48,0,0,0-2,3,.53.53,0,0,0,.28.73.66.66,0,0,0,.72-.45,8.47,8.47,0,0,1,1.06-1.77l.12-.16,0-.06.19-.21.18-.2a.69.69,0,0,0,.14-.85.5.5,0,0,0-.76,0Z" style="fill:#dbdbdb"></path><path d="M94.9,355.74a.56.56,0,0,1-.5.14.53.53,0,0,1-.28-.73,9.48,9.48,0,0,1,2-3,.55.55,0,0,1,.46-.17l0,0a9.45,9.45,0,0,0-2,3,.52.52,0,0,0,.27.72Z" style="fill:#c7c7c7;opacity:0.4"></path><path d="M92.81,356.74a9.16,9.16,0,0,0-2.44,2.52.59.59,0,0,0,.11.81.58.58,0,0,0,.76-.27,7.9,7.9,0,0,1,1.35-1.54l.15-.13.06-.05a1.84,1.84,0,0,1,.22-.17,1.13,1.13,0,0,1,.21-.15.76.76,0,0,0,.3-.84.47.47,0,0,0-.72-.18Z" style="fill:#dbdbdb"></path><path d="M91,360.06a.47.47,0,0,1-.5,0,.58.58,0,0,1-.11-.8,9.06,9.06,0,0,1,2.44-2.53.48.48,0,0,1,.47-.06l0,0a9,9,0,0,0-2.44,2.52.59.59,0,0,0,.1.81Z" style="fill:#c7c7c7;opacity:0.4"></path><path d="M89.56,361.3A8.78,8.78,0,0,0,88,364.43a.61.61,0,0,0,.35.75c.27.08.55-.15.64-.48a7.51,7.51,0,0,1,.79-1.87,1.4,1.4,0,0,1,.1-.16s.13-.22,0-.07l.15-.23.15-.21a.74.74,0,0,0,0-.89.45.45,0,0,0-.72,0Z" style="fill:#dbdbdb"></path><path d="M88.86,365a.48.48,0,0,1-.47.15.61.61,0,0,1-.35-.75,8.78,8.78,0,0,1,1.52-3.13.44.44,0,0,1,.42-.19l0,0a9,9,0,0,0-1.52,3.13.63.63,0,0,0,.36.75Z" style="fill:#c7c7c7;opacity:0.4"></path><path d="M87.57,367a9.07,9.07,0,0,0-.75,3.44.53.53,0,1,0,1,0,8.28,8.28,0,0,1,.33-2l.06-.18s.08-.25,0-.08a2,2,0,0,1,.1-.26l.09-.24a.73.73,0,0,0-.18-.87.47.47,0,0,0-.7.23Z" style="fill:#dbdbdb"></path><path d="M87.76,370.8a.52.52,0,0,1-.42.28.6.6,0,0,1-.52-.63,9.07,9.07,0,0,1,.75-3.44.48.48,0,0,1,.37-.3l0,0a9.3,9.3,0,0,0-.74,3.44.59.59,0,0,0,.52.63Z" style="fill:#c7c7c7;opacity:0.4"></path><path d="M86.38,372.91a9.35,9.35,0,0,0-.56,3.5.57.57,0,0,0,.55.58.61.61,0,0,0,.47-.68,7.89,7.89,0,0,1,.23-2c0-.07,0-.13,0-.19s.07-.26,0-.08l.09-.27a2.41,2.41,0,0,1,.08-.25.71.71,0,0,0-.23-.85.49.49,0,0,0-.69.28Z" style="fill:#dbdbdb"></path><path d="M86.77,376.68a.5.5,0,0,1-.4.31.57.57,0,0,1-.55-.58,9.35,9.35,0,0,1,.56-3.5.53.53,0,0,1,.36-.33v0a9.34,9.34,0,0,0-.57,3.49.58.58,0,0,0,.55.59Z" style="fill:#c7c7c7;opacity:0.4"></path><path d="M85.83,378.93a9.47,9.47,0,0,0,0,3.56.51.51,0,0,0,.63.44.67.67,0,0,0,.35-.78,8.26,8.26,0,0,1-.1-2.06c0-.06,0-.13,0-.19s0-.27,0-.09l0-.28c0-.09,0-.18,0-.26a.69.69,0,0,0-.36-.78.51.51,0,0,0-.63.44Z" style="fill:#dbdbdb"></path><path d="M86.8,382.53a.56.56,0,0,1-.34.4.51.51,0,0,1-.63-.44,9.47,9.47,0,0,1,0-3.56.56.56,0,0,1,.29-.41v0a9.47,9.47,0,0,0,0,3.56.52.52,0,0,0,.63.44Z" style="fill:#c7c7c7;opacity:0.4"></path><path d="M86.38,385.07a9,9,0,0,0,.86,3.39.46.46,0,0,0,.71.19.74.74,0,0,0,.16-.87,7.13,7.13,0,0,1-.6-1.93,1.42,1.42,0,0,1,0-.2s0-.26,0-.08a2.66,2.66,0,0,1,0-.28l0-.27c0-.33-.25-.64-.53-.61a.6.6,0,0,0-.49.66Z" style="fill:#dbdbdb"></path><path d="M88.18,388.14a.65.65,0,0,1-.23.51.46.46,0,0,1-.71-.19,9,9,0,0,1-.86-3.39.66.66,0,0,1,.18-.5v0a9,9,0,0,0,.87,3.4.46.46,0,0,0,.7.18Z" style="fill:#c7c7c7;opacity:0.4"></path><path d="M88.21,391a7.37,7.37,0,0,0,1.9,2.67.46.46,0,0,0,.71-.18.72.72,0,0,0-.15-.87,6.45,6.45,0,0,1-1.18-1.47L89.4,391l0-.07-.12-.24a2.4,2.4,0,0,1-.11-.23.49.49,0,0,0-.69-.3.72.72,0,0,0-.23.85Z" style="fill:#dbdbdb"></path><path d="M90.86,392.88a.7.7,0,0,1,0,.58.46.46,0,0,1-.71.18,7.37,7.37,0,0,1-1.9-2.67.7.7,0,0,1,0-.55v0a7.62,7.62,0,0,0,1.9,2.68.47.47,0,0,0,.71-.19A.09.09,0,0,0,90.86,392.88Z" style="fill:#c7c7c7;opacity:0.4"></path><path d="M92.2,394.73a5.28,5.28,0,0,0,2.85.56.62.62,0,0,0,.45-.7.56.56,0,0,0-.56-.56,4.36,4.36,0,0,1-1.67-.2l-.16-.05-.06,0a1.45,1.45,0,0,1-.22-.09l-.21-.09a.48.48,0,0,0-.67.31.71.71,0,0,0,.25.84Z" style="fill:#dbdbdb"></path><path d="M95.23,394.1a.64.64,0,0,1,.27.49.62.62,0,0,1-.45.7,5.28,5.28,0,0,1-2.85-.56.58.58,0,0,1-.28-.42h0a5.19,5.19,0,0,0,2.85.56.62.62,0,0,0,.45-.7A.22.22,0,0,0,95.23,394.1Z" style="fill:#c7c7c7;opacity:0.4"></path><path d="M97.13,394.34a5.76,5.76,0,0,0,2.64-1.45.75.75,0,0,0,.07-.89.46.46,0,0,0-.72-.09,5.27,5.27,0,0,1-1.49,1l-.15.06-.07,0-.22.07-.21.06a.63.63,0,0,0-.43.72c0,.33.3.59.58.53Z" style="fill:#dbdbdb"></path><path d="M99.4,391.78a.45.45,0,0,1,.44.22.75.75,0,0,1-.07.89,5.76,5.76,0,0,1-2.64,1.45.44.44,0,0,1-.42-.17h0a5.71,5.71,0,0,0,2.64-1.45.75.75,0,0,0,.07-.89Z" style="fill:#c7c7c7;opacity:0.4"></path><path d="M101.46,391.29a7.08,7.08,0,0,0,2-2.53.72.72,0,0,0-.2-.86.47.47,0,0,0-.69.24,6.45,6.45,0,0,1-1.1,1.56l-.13.12s-.17.17-.05.06l-.19.17-.18.15a.73.73,0,0,0-.19.86.47.47,0,0,0,.7.23Z" style="fill:#dbdbdb"></path><path d="M102.82,387.89a.41.41,0,0,1,.47,0,.72.72,0,0,1,.2.86,7.08,7.08,0,0,1-2,2.53.4.4,0,0,1-.44,0l0,0a7.19,7.19,0,0,0,2-2.53.72.72,0,0,0-.2-.86Z" style="fill:#c7c7c7;opacity:0.4"></path><path d="M104.59,386.53a8,8,0,0,0,1.63-2.93.69.69,0,0,0-.31-.81.5.5,0,0,0-.65.39,6.94,6.94,0,0,1-.87,1.77l-.1.15-.05.07a1.56,1.56,0,0,1-.16.2l-.15.19a.75.75,0,0,0-.07.89.46.46,0,0,0,.73.08Z" style="fill:#dbdbdb"></path><path d="M105.44,382.89a.43.43,0,0,1,.47-.1.69.69,0,0,1,.31.81,8,8,0,0,1-1.63,2.93.44.44,0,0,1-.43.13v0a7.87,7.87,0,0,0,1.64-2.93.68.68,0,0,0-.31-.8Z" style="fill:#c7c7c7;opacity:0.4"></path><path d="M107.16,381.54a8.3,8.3,0,0,0,1.5-3.05.68.68,0,0,0-.36-.78c-.27-.1-.55.11-.63.44a7.21,7.21,0,0,1-.78,1.83l-.09.16s-.14.21,0,.06a1.07,1.07,0,0,1-.15.22,1.43,1.43,0,0,1-.14.2.74.74,0,0,0,0,.89.45.45,0,0,0,.72,0Z" style="fill:#dbdbdb"></path><path d="M107.84,377.84a.42.42,0,0,1,.46-.13.68.68,0,0,1,.36.78,8.3,8.3,0,0,1-1.5,3.05.43.43,0,0,1-.42.16l0,0a8.13,8.13,0,0,0,1.49-3.05.67.67,0,0,0-.35-.78Z" style="fill:#c7c7c7;opacity:0.4"></path><path d="M109.49,376.47a7.57,7.57,0,0,0,1.77-2.82.69.69,0,0,0-.28-.82c-.26-.14-.55,0-.67.34a6.61,6.61,0,0,1-.94,1.71.76.76,0,0,1-.11.14s-.15.19-.05.06l-.16.2-.17.17a.77.77,0,0,0-.11.89.46.46,0,0,0,.72.13Z" style="fill:#dbdbdb"></path><path d="M110.51,372.89a.43.43,0,0,1,.47-.06.69.69,0,0,1,.28.82,7.57,7.57,0,0,1-1.77,2.82.42.42,0,0,1-.43.1l0,0a7.87,7.87,0,0,0,1.77-2.81.72.72,0,0,0-.28-.83Z" style="fill:#c7c7c7;opacity:0.4"></path><path d="M112.4,372.09a6.87,6.87,0,0,0,2.14-2.38.74.74,0,0,0-.15-.87.47.47,0,0,0-.71.19,6.26,6.26,0,0,1-1.17,1.47l-.13.12-.06.05-.19.16-.19.13a.72.72,0,0,0-.23.85.48.48,0,0,0,.69.28Z" style="fill:#dbdbdb"></path><path d="M113.91,368.79a.45.45,0,0,1,.48,0,.74.74,0,0,1,.15.87,6.87,6.87,0,0,1-2.14,2.38.41.41,0,0,1-.45,0l0,0a6.92,6.92,0,0,0,2.14-2.37.75.75,0,0,0-.15-.88Z" style="fill:#c7c7c7;opacity:0.4"></path><path d="M115.92,368.14a6.13,6.13,0,0,0,2.49-1.81.78.78,0,0,0,0-.9.45.45,0,0,0-.72,0,5.51,5.51,0,0,1-1.39,1.16l-.14.09s-.2.1-.07,0l-.21.11-.21.08a.69.69,0,0,0-.36.78c.09.32.36.54.63.44Z" style="fill:#dbdbdb"></path><path d="M117.93,365.27a.45.45,0,0,1,.46.16.78.78,0,0,1,0,.9,6.13,6.13,0,0,1-2.49,1.81.41.41,0,0,1-.43-.1h0a6,6,0,0,0,2.48-1.81.77.77,0,0,0,0-.9Z" style="fill:#c7c7c7;opacity:0.4"></path><path d="M120,365.46a5.34,5.34,0,0,0,2.77-1,.73.73,0,0,0,.17-.87.47.47,0,0,0-.71-.2,4.82,4.82,0,0,1-1.57.7l-.16,0s-.22.05-.07,0l-.23,0-.22,0a.59.59,0,0,0-.5.64c0,.34.23.64.52.62Z" style="fill:#dbdbdb"></path><path d="M122.51,363.3a.51.51,0,0,1,.41.29.74.74,0,0,1-.17.87,5.34,5.34,0,0,1-2.77,1,.44.44,0,0,1-.4-.23h0a5.4,5.4,0,0,0,2.77-1,.74.74,0,0,0,.17-.87Z" style="fill:#c7c7c7;opacity:0.4"></path><path d="M124.74,363.8a5.43,5.43,0,0,0,2.77-1,.74.74,0,0,0,.17-.87.47.47,0,0,0-.71-.21,4.62,4.62,0,0,1-1.57.7l-.16,0h-.07l-.23,0-.21,0a.6.6,0,0,0-.51.64c0,.34.24.64.52.63Z" style="fill:#dbdbdb"></path><path d="M127.27,361.63a.49.49,0,0,1,.41.3.74.74,0,0,1-.17.87,5.43,5.43,0,0,1-2.77,1,.48.48,0,0,1-.4-.24h0a5.37,5.37,0,0,0,2.77-1,.73.73,0,0,0,.16-.87Z" style="fill:#c7c7c7;opacity:0.4"></path><path d="M129.2,362.17a5.4,5.4,0,0,0,2.77-1,.72.72,0,0,0,.17-.87.47.47,0,0,0-.71-.21,4.62,4.62,0,0,1-1.57.7l-.16,0s-.21,0-.06,0l-.23,0-.22,0a.61.61,0,0,0-.51.65c0,.33.24.63.52.62Z" style="fill:#dbdbdb"></path><path d="M131.73,360a.46.46,0,0,1,.41.29.74.74,0,0,1-.17.87,5.4,5.4,0,0,1-2.77,1,.47.47,0,0,1-.4-.23h0a5.46,5.46,0,0,0,2.77-1,.72.72,0,0,0,.16-.87A.16.16,0,0,0,131.73,360Z" style="fill:#c7c7c7;opacity:0.4"></path><path d="M133.68,360.53a5.61,5.61,0,0,0,2.73-1.17.75.75,0,0,0,.13-.88.47.47,0,0,0-.72-.17,4.72,4.72,0,0,1-1.54.8l-.16.05s-.21,0-.06,0l-.23.05-.22,0a.62.62,0,0,0-.48.68c0,.33.26.62.55.59Z" style="fill:#dbdbdb"></path><path d="M136.11,358.21a.49.49,0,0,1,.43.27.75.75,0,0,1-.13.88,5.61,5.61,0,0,1-2.73,1.17.47.47,0,0,1-.41-.21h0a5.54,5.54,0,0,0,2.73-1.17.75.75,0,0,0,.13-.88Z" style="fill:#c7c7c7;opacity:0.4"></path><path d="M138.21,358.59a5.69,5.69,0,0,0,2.65-1.42.75.75,0,0,0,.07-.89.45.45,0,0,0-.72-.09,5.07,5.07,0,0,1-1.49.94l-.15.06s-.21.07-.07,0l-.22.07-.21,0a.64.64,0,0,0-.44.72c.05.33.3.59.58.53Z" style="fill:#dbdbdb"></path><path d="M140.5,356.05a.47.47,0,0,1,.43.23.75.75,0,0,1-.07.89,5.69,5.69,0,0,1-2.65,1.42.41.41,0,0,1-.42-.16h0a5.7,5.7,0,0,0,2.64-1.42.75.75,0,0,0,.08-.89Z" style="fill:#c7c7c7;opacity:0.4"></path><path d="M142.53,356a6.27,6.27,0,0,0,2.43-1.92.75.75,0,0,0,0-.89.45.45,0,0,0-.72.05,5.72,5.72,0,0,1-1.35,1.21l-.15.09s-.19.11-.06,0l-.21.11-.2.1a.66.66,0,0,0-.34.79c.09.32.36.53.64.42Z" style="fill:#dbdbdb"></path><path d="M144.46,353a.44.44,0,0,1,.46.14.75.75,0,0,1,0,.89,6.27,6.27,0,0,1-2.43,1.92.42.42,0,0,1-.44-.09h0a6.27,6.27,0,0,0,2.44-1.91.75.75,0,0,0,0-.89Z" style="fill:#c7c7c7;opacity:0.4"></path><path d="M146.45,352.15a7.31,7.31,0,0,0,2-2.6.73.73,0,0,0-.22-.85.47.47,0,0,0-.69.26,6.49,6.49,0,0,1-1.07,1.6l-.12.13-.05.05-.18.18-.18.15a.73.73,0,0,0-.17.87.46.46,0,0,0,.7.21Z" style="fill:#dbdbdb"></path><path d="M147.74,348.7a.42.42,0,0,1,.47,0,.73.73,0,0,1,.22.85,7.31,7.31,0,0,1-2,2.6.39.39,0,0,1-.44.05h0a7.31,7.31,0,0,0,2-2.6.74.74,0,0,0-.22-.86Z" style="fill:#c7c7c7;opacity:0.4"></path><path d="M149.36,347.56a8.8,8.8,0,0,0,1.15-3.27.63.63,0,0,0-.44-.71c-.28-.05-.53.2-.58.54a7.85,7.85,0,0,1-.57,1.94c0,.06,0,.12-.07.17s-.12.23,0,.08l-.12.24a2.53,2.53,0,0,1-.13.22.75.75,0,0,0,.08.89.46.46,0,0,0,.72-.1Z" style="fill:#dbdbdb"></path><path d="M149.63,343.78a.44.44,0,0,1,.44-.2.63.63,0,0,1,.44.71,8.8,8.8,0,0,1-1.15,3.27.46.46,0,0,1-.4.23l0,0a8.61,8.61,0,0,0,1.14-3.27.62.62,0,0,0-.43-.71Z" style="fill:#c7c7c7;opacity:0.4"></path><path d="M150.82,342a8.8,8.8,0,0,0,1.15-3.27.62.62,0,0,0-.44-.71.55.55,0,0,0-.58.53,7,7,0,0,1-.57,2s0,.11-.07.17-.11.23,0,.07l-.12.24a1.59,1.59,0,0,1-.13.22.76.76,0,0,0,.08.89.45.45,0,0,0,.72-.09Z" style="fill:#dbdbdb"></path><path d="M151.09,338.26a.45.45,0,0,1,.44-.2.62.62,0,0,1,.44.71,8.62,8.62,0,0,1-1.15,3.27.46.46,0,0,1-.4.23l0,0a8.67,8.67,0,0,0,1.14-3.27.64.64,0,0,0-.43-.72Z" style="fill:#c7c7c7;opacity:0.4"></path><path d="M283.85,229.91c-.61,11.8-8.79,22.36-43,54.38-4.73,4.43-41.09-14.65-38.87-21.22,2.68-7.92,29.64-33.69,31.67-35.15C250.8,215.62,284.26,221.9,283.85,229.91Z" style="fill: rgb(255, 196, 192);"></path><path d="M205.3,257.9s-11.86,15.73-15.53,25.92c-4.93,13.64-3.56,27.45-2.63,33.2,1.92,12,14.88,39.71,23.51,37.36,7.81-2.11-6.86-29.76-6.86-29.76S214.1,355.28,223,351s-9.93-35.4-9.93-35.4,11.3,31.25,19.82,25.38c6.43-4.44-9.06-33.58-9.06-33.58s9.9,26.8,16.71,22.52c7.53-4.73-5.08-32.53-5.08-32.53,15.49-13.8,17.22-26.7,17.36-36C252.9,259.11,205.3,257.9,205.3,257.9Z" style="fill: rgb(255, 196, 192);"></path><path d="M199.54,314.25c1.08,3.64,2.15,7.34,3.55,10.88s2.93,7,4.65,10.41c4.23,8.32,8.18,12.86,8,12.55-5.05-7.26-10.26-19.84-11.66-23.38s-3-7-4.38-10.52C199.64,314.1,199.51,314.16,199.54,314.25Z" style="fill:#263238"></path><path d="M212.21,309c1.59,4.59,3,9.21,4.77,13.74s3.86,8.62,5.94,13c.16.34.29.14.14-.2-1.9-4.45-3.32-8.71-5.17-13.18s-3.89-8.87-5.57-13.39C212.29,308.84,212.19,308.89,212.21,309Z" style="fill:#263238"></path><path d="M222.28,302.46c2.05,7.14,5.43,13.9,8.9,20.45.17.32.31,0,.15-.29-3.09-6.74-5.56-12-8.81-20.23C222.47,302.26,222.23,302.31,222.28,302.46Z" style="fill:#263238"></path><path d="M259.3,220.64a48.48,48.48,0,0,0-21.91,4.57c-7.78,3.73-24.48,22.42-28.69,28-.07.1,0,.26.11.17,6.58-6.37,19.57-21.39,29.61-27,3.83-2.16,13-5,20.89-5.54A.1.1,0,0,0,259.3,220.64Z" style="fill:#263238"></path><path d="M136.76,251.85c-2.53,23.15-2.3,69.58,9.16,84.63,11,14.42,28.52-24.3,28.86-26.69,2.28-16.21-5.07-38-18.29-64.47C144.41,221.19,138.88,232.52,136.76,251.85Z" style="fill: rgb(255, 196, 192);"></path><path d="M132,307l42.75-23.14s-9.3-29.53-19.55-45.48c-7.83-12.17-15.24-8.69-17.41.66C130.58,270.25,132,307,132,307Z" style="fill:#90CAF9"></path><path d="M146.89,249.6l2.26,4.48L144,252.55l-1.13,6.5-4.1-6.65-3.61.54c.18-1.15.36-2.29.56-3.44l.39-.42-.26-.33c.21-1.18.42-2.37.65-3.55l1.61.3,3-5.86,2.49,5.07,6.25-.94Zm12.41,29.17,4.37.9-1.77-3.93,2.86-2.57-4.4-.9L160,268.4l-2.35,3.22-3.55-1.79L156,274l-3.6,3.91,4.47-.45-.05,3.64Z" style="fill:#fff"></path><path d="M169.54,277.75c-6.84,3.09-25.13,12-36.26,19.38-.07.05.07.32.14.29,10.18-4.73,29.78-15.59,36.32-19.27C169.87,278.08,169.67,277.69,169.54,277.75Z" style="fill:#263238"></path><path d="M175.27,283.7c-1.18-3.78-4.3-12-5.76-15.7-.19-1.11-.39-2.23-.65-3.33a22.42,22.42,0,0,0-1.37-4.15.05.05,0,0,0-.1,0c.17.68.41,1.35.59,2s.35,1.37.53,2.05.35,1.41.5,2.12c-1.44-3.61-3-7.18-4.67-10.68a.09.09,0,0,0-.16.06c1.21,4,2.59,7.88,4.1,11.74s4.44,12.14,6.16,15.8c-.58.36-1.15.71-1.7,1.12a.16.16,0,0,0,.14.28c.74-.26,1.44-.58,2.16-.89A.39.39,0,0,0,175.27,283.7Z" style="fill:#263238"></path><path d="M131.11,308.55c-.15-1.06.33-26.75.86-31.29-.1-1.13-.21-2.26-.24-3.39a21.92,21.92,0,0,1,.23-4.36.06.06,0,1,1,.11,0c0,.7.26,4.69.31,5.41a94,94,0,0,1,1.27-11.31c0-.1.18-.1.17,0-.9,12.47-1.84,40.12-1.77,43.32.59-.26,4-2.2,4.7-2.48.16-.07.1.36-.05.47C135.56,305.75,131.14,308.77,131.11,308.55Z" style="fill:#263238"></path><path d="M147.35,337.45c-4.84-12.33,8.26-49.58,32.06-90.07,3.68-6.27,45,11,42.43,18.34-3.28,9.22-25.23,49.9-26.63,52.32C183.4,338.53,150.64,345.82,147.35,337.45Z" style="fill: rgb(255, 196, 192);"></path><path d="M191.72,227.85c-2.07,2.26-3.28,1.19-2.87-4.25s6.62-26.62-.95-28.16S172,223.9,172,233s3.24,23.83,3.24,23.83C178.05,251.32,186.1,238.59,191.72,227.85Z" style="fill: rgb(255, 196, 192);"></path><path d="M217.87,272.83c9.47-16.27,17.35-35.07,15.39-54.63a9.71,9.71,0,0,0-2.52-5.85c-.72-8.78-5.09-11.08-5.09-11.08-3.17-8-8-9.71-8-9.71s-1.45-7-6.4-6.32c-4.8.63-6.38,12.51-9.78,21.44-7.79,20.47-23.43,44.48-26.26,50.16Z" style="fill: rgb(255, 196, 192);"></path><path d="M209.57,231c2.17-6.07,4.46-12,5.8-18.31,1.47-6.94,1.72-13.87,2.14-20.92a.17.17,0,0,1,.34,0c1.25,12.88-2,27.88-8,39.34C209.7,231.34,209.46,231.26,209.57,231Z" style="fill:#263238"></path><path d="M221.24,237.45c1.79-6,4.86-16.63,4.2-36.18,0-.06.11-.08.12,0a66.82,66.82,0,0,1-4,36.28C221.39,237.9,221.13,237.85,221.24,237.45Z" style="fill:#263238"></path><path d="M227.58,240.82c2.65-10.35,3-17.22,3.11-28.43,0-.06.11-.08.12,0,1.21,12.76.21,17.52-2.89,28.58C227.82,241.34,227.48,241.23,227.58,240.82Z" style="fill:#263238"></path><path d="M148.41,316.85a231.86,231.86,0,0,1,26-61.63l0,.32a136.28,136.28,0,0,1-2.83-19c-.59-6.43,1-12.82,2.65-19,.85-3.09,1.82-6.14,3-9.14,1.82-4.43,3.6-9.23,7.37-12.44a4.21,4.21,0,0,1,6.66,1.55,15.79,15.79,0,0,1,1,7.26A95.22,95.22,0,0,1,190,219c-.37,1.85-1.74,8.78.21,9.52a11.07,11.07,0,0,0,2-2.67,141.06,141.06,0,0,0,8.44-17.08c2.37-5,5.16-26.1,12.84-23.33-7.67-2.65-10.09,18.52-12.37,23.5a137.8,137.8,0,0,1-8.32,17.27,9.29,9.29,0,0,1-2.31,3c-3.39.47-1.7-8.46-1.32-10.36,1.12-6.08,2.8-12.6,1.88-18.77-.39-3.14-3.1-5.67-6-3.36-3.55,3.06-5.28,7.77-7,12-1.11,3-2.08,6-2.93,9.05-1.62,6.13-3.27,12.34-2.69,18.67a136.47,136.47,0,0,0,2.76,18.84l0,.17-.09.15a243,243,0,0,0-26.74,61.18Z" style="fill:#263238"></path><path d="M136.75,304.47c1,8.72,4.3,30,12.36,34.37,5.71,2.52,12.4,1.32,18.22-.31a49,49,0,0,0,23.33-14.85c5.79-7.4,10-15.9,14.46-24.15,5.8-11.15,11.16-22.53,16.37-34a87.79,87.79,0,0,0,11.73-35.73,69.2,69.2,0,0,0,0-12.63,69.43,69.43,0,0,1,.22,12.65,86.06,86.06,0,0,1-11.27,36Q214.57,283.15,206,300c-4.43,8.33-8.71,16.88-14.59,24.32a49.91,49.91,0,0,1-23.81,15c-6,1.61-12.82,2.76-18.75.07-8.41-4.65-11.19-25.91-12.07-34.94Z" style="fill:#263238"></path></g></svg>