<svg xmlns="http://www.w3.org/2000/svg" viewBox="0 0 500 500"><g id="freepik--background-complete--inject-4"><path d="M400.09,63a166.32,166.32,0,0,1-24.69-10,12.37,12.37,0,0,0,2.43,12.42c3,3.3,7.74,5.51,12.05,4.41,4.75-1.2,7.45-3.39,10.21-6.88" style="fill:#e0e0e0"></path><path d="M439.91,47.49A166.88,166.88,0,0,1,418,62.56a12.33,12.33,0,0,0,11.69,4.84c4.39-.65,8.87-3.41,10.34-7.6,1.62-4.63,1.29-8.09-.09-12.31" style="fill:#e0e0e0"></path><path d="M392.21,97.62c-.63-.09-1.15-.91-1.39-2.45a14.44,14.44,0,0,1,.77-6.36,21.25,21.25,0,0,1,5.16-8.29,20.6,20.6,0,0,1,4.82-3.64,19.3,19.3,0,0,1,6.34-2.21,20,20,0,0,1,12.52,2.15,20.41,20.41,0,0,1,7.35,6.55,14.1,14.1,0,0,1,2.45,6c.17,1.54-.13,2.48-.72,2.72-1.26.53-3.25-1.76-6.61-4.13a23.76,23.76,0,0,0-6.07-3.17,15.46,15.46,0,0,0-7.4-.76,13.73,13.73,0,0,0-3.64,1.13A17.21,17.21,0,0,0,402.52,87a26.49,26.49,0,0,0-5,4.83C394.91,95.1,393.57,97.8,392.21,97.62Z" style="fill:#e0e0e0"></path><path d="M90.92,63.91a122.77,122.77,0,0,1-12.68-15,9.12,9.12,0,0,0-2.7,8.94c.8,3.18,3.16,6.27,6.34,7a12.81,12.81,0,0,0,9-1" style="fill:#e0e0e0"></path><path d="M122.27,67.52a124.33,124.33,0,0,1-19.52,2.27,9.09,9.09,0,0,0,6,7.19c3.1,1.09,7,.83,9.37-1.4a12.76,12.76,0,0,0,4.19-8.06" style="fill:#e0e0e0"></path><path d="M73.84,83.8c-.38-.28-.44-1-.06-2.08a10.57,10.57,0,0,1,2.7-3.89A15.54,15.54,0,0,1,82.7,74.2a15.3,15.3,0,0,1,4.4-.72,14.44,14.44,0,0,1,4.91.74A14.78,14.78,0,0,1,99.44,80,15,15,0,0,1,102,86.76a10.35,10.35,0,0,1-.46,4.73c-.42,1.07-.93,1.58-1.41,1.53-1-.09-1.51-2.27-2.89-5a17.61,17.61,0,0,0-2.87-4.17,11.33,11.33,0,0,0-4.57-3A10.28,10.28,0,0,0,87,80.32a12.44,12.44,0,0,0-2.8.12,19.23,19.23,0,0,0-4.92,1.44C76.47,83.08,74.66,84.38,73.84,83.8Z" style="fill:#e0e0e0"></path><path d="M35.59,147.28a177.94,177.94,0,0,1,26.32,11A13.23,13.23,0,0,0,59.49,145c-3.14-3.59-8.22-6-12.85-4.92-5.12,1.23-8,3.53-11,7.23" style="fill:#ebebeb"></path><path d="M88.43,160.39a178.34,178.34,0,0,1,25.45-12.92,13.24,13.24,0,0,0-11.75-6.8c-4.76.07-9.91,2.37-12.06,6.62-2.38,4.69-2.52,8.42-1.64,13.1" style="fill:#ebebeb"></path><path d="M96.39,169.38c.68.19,1.11,1.21,1.13,3a16.87,16.87,0,0,1-1.92,7.11,24.34,24.34,0,0,1-7.15,8.62,23.75,23.75,0,0,1-6,3.4,22.46,22.46,0,0,1-7.54,1.56A23,23,0,0,1,61,188.72a23.5,23.5,0,0,1-7.4-8.53,16.73,16.73,0,0,1-2-7.13c0-1.79.47-2.8,1.15-3,1.46-.39,3.32,2.56,6.81,5.85a27.09,27.09,0,0,0,6.49,4.66,17.73,17.73,0,0,0,8.5,2,16.25,16.25,0,0,0,4.42-.75,20.65,20.65,0,0,0,4.09-1.75,29.82,29.82,0,0,0,6.47-4.87C93,171.91,94.93,169,96.39,169.38Z" style="fill:#ebebeb"></path><path d="M396.46,147.86a102.58,102.58,0,0,1,16.3,1.65,7.6,7.6,0,0,0-3.57-6.93c-2.32-1.44-5.52-1.92-7.88-.54a10.7,10.7,0,0,0-4.85,5.82" style="fill:#ebebeb"></path><path d="M427.67,146.2a102.32,102.32,0,0,1,11.81-11.37,7.59,7.59,0,0,0-7.59-1.76c-2.61.84-5.05,3-5.52,5.66a10.72,10.72,0,0,0,1.3,7.47" style="fill:#ebebeb"></path><path d="M433.55,149.8c.4,0,.81.47,1.12,1.45a9.7,9.7,0,0,1,.14,4.22,14.06,14.06,0,0,1-2.48,5.93,13.47,13.47,0,0,1-2.74,2.88,12.63,12.63,0,0,1-3.88,2.12,13.19,13.19,0,0,1-8.35-.05,13.46,13.46,0,0,1-5.5-3.44,9.56,9.56,0,0,1-2.27-3.59c-.29-1-.21-1.61.13-1.82.74-.47,2.26.84,4.72,2.06a15.55,15.55,0,0,0,4.35,1.47,10.17,10.17,0,0,0,5-.3,9.52,9.52,0,0,0,2.3-1.15,11.5,11.5,0,0,0,1.95-1.65,16.75,16.75,0,0,0,2.74-3.76C432.13,151.75,432.68,149.82,433.55,149.8Z" style="fill:#ebebeb"></path><path d="M37.31,290.66s-10.47,2.88-1.41,25.47,15.73,34,15.73,34,1.5,5.19-2.79,5.59-13.45-1.92-15.79,3.07c-2.44,5.18,1,10.58,8.48,15.72s23.47,17,24.92,18.1,2.7,3.53-.18,4.27-24,1-23.23,11S67,428.77,69.5,430s3,2.41,2.69,3.82-7.44.84-13.43,1.17-12.89,1.76-12,7.49,14,18.8,48.27,25.3l16,2,10-12.81c19.71-28.71,19.85-47.24,16.45-52s-9.29-.87-13.78,3.12-9.13,9.4-10.36,8.63-1.69-1.95-.77-4.6,9.7-26.74,3.18-34.36-21.7,7-24.26,8.53-3.39-1.16-3.13-2.9S91.66,362,93.35,353s.33-15.17-5-17.14c-5.18-1.89-10,6.21-13.37,8.95s-5.91-2-5.91-2-3.29-12.78-12.76-35.19-19.15-16.91-19.15-16.91" style="fill:#ebebeb"></path><path d="M111.59,473.63c-6.9-16.49-18.65-46-28.88-71.3s-19.5-48.16-26.3-64.68l-8.09-19.56c-.94-2.3-1.68-4.09-2.19-5.32-.24-.6-.42-1.06-.56-1.39s-.17-.48-.17-.48.08.15.22.46l.6,1.37c.53,1.22,1.3,3,2.28,5.28,2,4.59,4.79,11.26,8.24,19.5C63.63,354,73,376.86,83.18,402.15S105.11,457,111.92,473.5" style="fill:#e0e0e0"></path><path d="M45.73,362.51a5.51,5.51,0,0,1,1.09.42c.69.29,1.68.74,2.9,1.32,2.43,1.14,5.74,2.82,9.36,4.73s6.8,3.61,9.26,4.93l2.82,1.47a5.69,5.69,0,0,1,1,.58,5.39,5.39,0,0,1-1.1-.4c-.69-.3-1.68-.75-2.89-1.34-2.41-1.17-5.71-2.89-9.33-4.8l-9.29-4.86-2.82-1.46A4.88,4.88,0,0,1,45.73,362.51Z" style="fill:#e0e0e0"></path><path d="M73.37,375c-.13-.06,3-7,7-15.6S87.75,344,87.88,344s-3,7-7,15.61S73.49,375.09,73.37,375Z" style="fill:#e0e0e0"></path><path d="M87.31,414.57a6.22,6.22,0,0,1,.75-.93c.57-.66,1.29-1.47,2.14-2.44,1.81-2.06,4.29-4.92,6.91-8.17s4.91-6.26,6.55-8.46l1.93-2.61a5.28,5.28,0,0,1,.76-.92,5.61,5.61,0,0,1-.6,1c-.41.64-1,1.57-1.81,2.7-1.56,2.25-3.8,5.32-6.44,8.57s-5.16,6.09-7,8.09c-.94,1-1.71,1.79-2.26,2.33A5.38,5.38,0,0,1,87.31,414.57Z" style="fill:#e0e0e0"></path><path d="M59.82,408.75a4.27,4.27,0,0,1,1.1.12l3,.5c2.49.45,5.93,1.1,9.72,1.86s7.22,1.46,9.69,2l2.93.67a3.88,3.88,0,0,1,1.06.31,4.93,4.93,0,0,1-1.1-.12l-3-.51c-2.49-.45-5.93-1.1-9.72-1.85s-7.22-1.46-9.69-2l-2.93-.66A5.32,5.32,0,0,1,59.82,408.75Z" style="fill:#e0e0e0"></path><path d="M67.7,445.22a6.62,6.62,0,0,1,1.41.16l3.79.63c3.2.56,7.61,1.37,12.48,2.28s9.27,1.78,12.45,2.43l3.76.79a7.56,7.56,0,0,1,1.37.35,6.51,6.51,0,0,1-1.4-.16l-3.8-.64c-3.2-.55-7.61-1.36-12.48-2.27S76,447,72.83,446.36l-3.76-.79A7.89,7.89,0,0,1,67.7,445.22Z" style="fill:#e0e0e0"></path><path d="M102.16,451.47a8.11,8.11,0,0,1,.91-1.21l2.61-3.19c2.2-2.69,5.22-6.42,8.43-10.64s6-8.09,8.07-10.92l2.39-3.35a8.55,8.55,0,0,1,.93-1.2,8.66,8.66,0,0,1-.77,1.31c-.52.82-1.29,2-2.26,3.44-2,2.88-4.73,6.81-8,11s-6.29,7.92-8.56,10.56c-1.14,1.32-2.07,2.37-2.73,3.09A9.57,9.57,0,0,1,102.16,451.47Z" style="fill:#e0e0e0"></path><path d="M380.33,474.84C355,462.69,345,434.07,341.61,407.44c-.58-4.44-1.82-9-.36-13.25s5.95-7.67,10.21-6.46c3.53,1,5.59,4.59,7.94,7.45a26.28,26.28,0,0,0,12,8.21c3.05,1,6.68,1.32,9.21-.67,3.47-2.72,3.06-8.07,2.31-12.46q-2.09-12.28-4.18-24.56c-.74-4.39-1.49-8.88-.81-13.27S381,343.66,385,341.8s9.55-.29,11.14,3.87c.66,1.73.6,3.65,1,5.46s1.6,3.68,3.42,3.91,3.4-1.31,4.5-2.81c3.81-5.18,5.95-11.41,7.9-17.56s3.79-12.44,7.12-18,8.39-10.28,14.63-11.67,13.58,1.4,16.18,7.32,0,12.82-3.09,18.48a99.2,99.2,0,0,1-17.25,22.82c-1.22,1.22-2.55,2.52-2.81,4.24-.48,3.09,2.78,5.54,5.83,6,3.45.56,6.95-.36,10.45-.52s7.45.75,9.28,3.77c2.54,4.2-.45,9.53-3.64,13.22a85.25,85.25,0,0,1-22.53,18.43c-3,1.72-6.28,3.31-8.52,6s-3.16,6.91-1.08,9.75,6.29,3.17,9.58,2,6-3.52,9-5.27c5.67-3.27,13.54-4.13,18.27.46,3.1,3,4.11,7.76,3.49,12.06s-2.65,8.25-4.88,12c-7.83,12.94-18.73,24.12-32,31.27s-26,10.6-40.76,7.78" style="fill:#ebebeb"></path><path d="M384.45,457.12a398.74,398.74,0,0,1,8.7-45c1-3.94,1.94-7.84,2.89-11.67s1.9-7.63,3.06-11.29A198.69,198.69,0,0,1,407,368.56c2.81-6.44,5.71-12.45,8.47-18.05s5.45-10.76,8.1-15.36a157.85,157.85,0,0,1,14.08-20.79c1.84-2.31,3.34-4.06,4.36-5.23l1.18-1.33a3.86,3.86,0,0,1,.42-.43,3.19,3.19,0,0,1-.35.49l-1.12,1.38c-1,1.2-2.44,3-4.24,5.33A166.47,166.47,0,0,0,424,335.44c-2.61,4.61-5.25,9.78-8,15.38s-5.61,11.62-8.4,18.06a203.78,203.78,0,0,0-7.77,20.56c-1.14,3.64-2.08,7.4-3,11.24L394,412.35a408.4,408.4,0,0,0-8.75,44.87" style="fill:#e0e0e0"></path><path d="M399.32,389.12a9,9,0,0,1-.73-1.8c-.43-1.18-1-2.9-1.67-5-1.33-4.28-3-10.24-4.77-16.83s-3.52-12.52-4.92-16.76c-.69-2.12-1.27-3.84-1.68-5a8.21,8.21,0,0,1-.56-1.87,9.5,9.5,0,0,1,.85,1.76c.51,1.14,1.17,2.83,1.94,4.94,1.54,4.21,3.37,10.13,5.16,16.73l4.54,16.89,1.41,5.1A8.42,8.42,0,0,1,399.32,389.12Z" style="fill:#e0e0e0"></path><path d="M454.12,369.31a12.14,12.14,0,0,1-2.21.64c-1.43.37-3.5.88-6,1.61-5.08,1.4-12,3.59-19.61,6.34s-14.31,5.56-19.13,7.72c-2.42,1.07-4.35,2-5.69,2.6a11.07,11.07,0,0,1-2.12.9,13,13,0,0,1,2-1.19c1.3-.71,3.2-1.71,5.59-2.84,4.77-2.31,11.5-5.19,19.09-8A202.56,202.56,0,0,1,445.72,371c2.57-.65,4.67-1.09,6.12-1.36A11.79,11.79,0,0,1,454.12,369.31Z" style="fill:#e0e0e0"></path><path d="M385,456s-.2-.2-.5-.63l-1.3-1.88c-1.13-1.65-2.69-4.07-4.58-7.08-3.79-6-8.76-14.53-14.11-24s-10.24-18-13.9-24.08l-4.35-7.21-1.17-2a3.52,3.52,0,0,1-.37-.72,2.7,2.7,0,0,1,.5.63l1.31,1.88c1.12,1.65,2.68,4.07,4.57,7.08,3.79,6,8.76,14.53,14.12,24s10.24,18,13.89,24.07l4.35,7.21,1.18,2A3.1,3.1,0,0,1,385,456Z" style="fill:#e0e0e0"></path><path d="M456.13,419.47a3.77,3.77,0,0,1-.69.43L453.38,421l-7.62,3.92c-6.43,3.31-15.26,8-25,13.17s-18.64,9.79-25.14,13c-3.25,1.6-5.89,2.86-7.74,3.69l-2.12.95a2.92,2.92,0,0,1-.77.28,3.19,3.19,0,0,1,.69-.43l2.07-1.09,7.61-3.92c6.43-3.31,15.26-8,25-13.18s18.63-9.79,25.13-13c3.25-1.59,5.89-2.85,7.74-3.69l2.13-.94A2.81,2.81,0,0,1,456.13,419.47Z" style="fill:#e0e0e0"></path></g><g id="freepik--character-2--inject-4"><path d="M255.45,143.5l112.64-4.86c.53,35-1.08,65.12,12.27,94.29,3.39,7.42,7.7,14.44,10.3,22.17s3.29,16.57-.51,23.79L367,273.6l-.21-7.11a10.38,10.38,0,0,1-5.84,7.29c-3.75,1.79-8.09,1.77-12.25,1.64a349.17,349.17,0,0,1-71.5-9.72c-3.11-.76-17.57,1.31-17.57,1.31C249.31,231.52,249.39,180,255.45,143.5Z" style="fill:#263238"></path><path d="M257,136.73c4.1-17.4,8.29-35.51,22.71-46.07,12.84-9.42,27.2-11.69,43.08-10.51,7.82.59,16.55,4.49,23.24,8.57,9.18,5.6,12.79,16.46,17,26.36,8.4,19.83,6.39,46.25,0,53.41L280,209c-14.2-8-23.76-11.82-27.06-27.78C250.7,170.3,254.48,147.54,257,136.73Z" style="fill:#263238"></path><path d="M281,106.85l51.87-13.49c16.63-1.88,27.84,18.54,29,35.23,1.29,18.55,2.14,41.25,0,55.11-4.23,27.87-25.55,31.56-25.55,31.56s-.06.41-.16,8.68l.15,18.62-54.12-8.91-9.94-116.81A9.79,9.79,0,0,1,281,106.85Z" style="fill:#ffbe9d"></path><path d="M358,149.78c-.44.47-3.16-1.51-7-1.48s-6.64,2-7.06,1.51c-.21-.2.24-1.05,1.46-1.95a9.74,9.74,0,0,1,5.65-1.78,9.37,9.37,0,0,1,5.57,1.75C357.85,148.73,358.26,149.57,358,149.78Z" style="fill:#263238"></path><path d="M321.22,149.78c-.44.47-3.16-1.51-7-1.47s-6.64,2-7.06,1.5c-.21-.2.23-1.05,1.46-1.95a9.74,9.74,0,0,1,5.65-1.78,9.43,9.43,0,0,1,5.58,1.75C321,148.73,321.44,149.57,321.22,149.78Z" style="fill:#263238"></path><path d="M333.38,169.81c0-.22,2.36-.65,6.23-1.17,1-.11,1.91-.31,2.07-1s-.19-1.76-.67-2.9l-3-7.45C334,146.7,331,138,331.4,137.81s4.11,8.31,8.21,18.92c1,2.61,1.93,5.11,2.83,7.49.38,1.11,1,2.38.53,3.85a2.49,2.49,0,0,1-1.6,1.45,6.84,6.84,0,0,1-1.67.24C335.81,170,333.39,170,333.38,169.81Z" style="fill:#263238"></path><path d="M336.34,215.26A70.88,70.88,0,0,1,299,205.57s9.35,19.41,37.2,16.62Z" style="fill:#eb996e"></path><path d="M321.63,135.5c-.24,1.08-4.11,1.11-8.5,2.25s-7.84,2.85-8.56,2c-.33-.41.17-1.47,1.49-2.67a15.3,15.3,0,0,1,13-3.24C320.79,134.28,321.72,135,321.63,135.5Z" style="fill:#263238"></path><path d="M356.53,135.54c-1,.6-3.53-1.16-6.9-2.28s-6.44-1.44-6.82-2.52c-.15-.51.56-1.2,2.07-1.59A11.59,11.59,0,0,1,355.93,133C356.86,134.26,357,135.24,356.53,135.54Z" style="fill:#263238"></path><path d="M333.39,90.14a61.87,61.87,0,0,1-5.44,33,22.86,22.86,0,0,1-5.35,7.74,10.12,10.12,0,0,1-8.75,2.53,37.64,37.64,0,0,0,8.26-21.37c-3.54,7.81-7.17,15.76-13,22.08S295,145,286.44,144l.73-5.71c-1.35,4.06-3.51,8.05-7.06,10.45s-8.72,2.76-11.95-.05c3.26-13.86-4.84-29.21.88-42.24,4-9,13.58-14.22,23.06-16.93a78.57,78.57,0,0,1,41.09-.5" style="fill:#263238"></path><path d="M332.22,90.34c0,.2.07.4.11.6l-.09,0C332.23,90.77,332.23,90.55,332.22,90.34Z" style="fill:#263238"></path><path d="M332.33,90.94l1.71-.65c5.32-2.56,8.85-5.54,16.81,1.9,4.31,4,8.1,10,10.77,16.06,2.38,5.41,4.95,11.28,5.7,17.14a73.91,73.91,0,0,1,0,21.37c-4.63-3.26-6.9-8.93-8.26-14.42s-2.1-11.25-4.72-16.26c.68,4.68,1.35,9.46.46,14.11a5.88,5.88,0,0,1-1.63,3.45,2.46,2.46,0,0,1-3.45-.09c1.87-5.34,1.69-11.23.43-16.74s-3.56-10.73-5.87-15.9a83.32,83.32,0,0,1-1.85,28.28,7.25,7.25,0,0,1-1.69,3.65c-1.47,1.41-3.79,1.4-5.79,1s-4.08-1-6-.43A80,80,0,0,0,332.33,90.94Z" style="fill:#263238"></path><path d="M366.38,165a1.5,1.5,0,0,1,0,.31l0,.92c0,.81-.13,2-.13,3.53a105.54,105.54,0,0,0,.48,13c.25,2.73.69,5.7,1.24,8.87s1.33,6.53,2.38,10a98.6,98.6,0,0,0,9.18,21.62c4.19,7.23,9,13.63,12.59,20a60.38,60.38,0,0,1,4.44,9.32,42.09,42.09,0,0,1,2.19,8.73,28.88,28.88,0,0,1-1,12.92l-.34,1-.38.88a12,12,0,0,1-.63,1.36c-.19.33-.33.6-.44.8s-.16.28-.17.27a1.23,1.23,0,0,1,.12-.29l.39-.83a11.16,11.16,0,0,0,.59-1.37l.35-.88.32-1a29.32,29.32,0,0,0,.77-12.81,41.44,41.44,0,0,0-2.22-8.63,61.52,61.52,0,0,0-4.45-9.23c-3.59-6.3-8.42-12.68-12.63-20a97.75,97.75,0,0,1-9.19-21.74c-1-3.49-1.73-6.88-2.35-10.05s-.95-6.17-1.18-8.91a98.4,98.4,0,0,1-.31-13c0-1.54.17-2.73.22-3.53,0-.38.06-.68.08-.92A1.8,1.8,0,0,1,366.38,165Z" style="fill:#263238"></path><path d="M320.39,178.53c.89-1.76,1.67-4.24,3.58-4.46,2.74-.32,6.13,1.88,8.13,4.27a3.9,3.9,0,0,1,.65,3c-.21.59-1.05,3-1.36,3.5-1.78,3-2.35,2.76-4.38,3.42s-4.49-1.85-6-3.76A5.77,5.77,0,0,1,320.39,178.53Z" style="fill:#eb996e"></path><path d="M329.2,188.18c0,.09-.39.3-1.22.43a7.46,7.46,0,0,1-3.5-.47,8.17,8.17,0,0,1-4.1-3.36,8.37,8.37,0,0,1-.86-6.47,8.19,8.19,0,0,1,1.53-3.1,7.17,7.17,0,0,1,1.2-1.2,3,3,0,0,1,1.74-.66,3.88,3.88,0,0,1,1.6.38l1.21.54c.76.35,1.47.71,2.1,1.06,2.53,1.39,3.9,2.53,3.8,2.7s-1.69-.61-4.28-1.71c-.65-.27-1.36-.56-2.13-.86a7.55,7.55,0,0,0-2.25-.67c-.54,0-1.23.63-1.78,1.36A7,7,0,0,0,321,178.7a7.29,7.29,0,0,0,.59,5.35,7.6,7.6,0,0,0,3.3,3.08C327.35,188.31,329.19,187.91,329.2,188.18Z" style="fill:#263238"></path><path d="M265.21,290.28c-.4-28.91,14.34-58,14.34-58l56.78,10.33s57,61.77,61.38,69.39c6.48,11.29,4.63,17.66,4.24,23.94s-15.32,34.57-15.71,38.89,10.26,76.08,6.33,98.08l-124-1,18.81-72.22C283.13,375.4,265.59,318.27,265.21,290.28Z" style="fill:#FF81AE"></path><g style="opacity:0.30000000000000004"><path d="M317.37,389.35c2.29-6.26,15.46-2.87,15.8-9.52l32.72,43.94c3.38,4.35,6.84,8.72,11.19,12.1s7.27,6.59,15.34,6.73l.15,2.86c-12.4,3.4-25.89-1.49-34.75-10.82-9.38,3.64-20.37,3.31-29.19-1.54s-15.11-14.3-15.49-24.35C312.89,402.09,315.07,395.6,317.37,389.35Z"></path></g><path d="M277.22,275.67c3.42-30.15,28.66-45.38,52.26-26.31,5.07,4.09,12.23,15.12,15.68,20C360.48,291,402.87,375.2,402.87,375.2s17.63,6.86,17.63,15.11-4,40.87-15,48.73-28.3,2.24-41.36-9.68c-2-1.79-7.83-8.64-14.47-19.1-9.24-14.58-20.84-35.74-33.22-56.22-20-33.08-39.79-65.4-39.41-75.68C277,277.48,277.11,276.58,277.22,275.67Z" style="fill:#FF81AE"></path><path d="M402,327.07s19.67,15.37,19.71,34.55c0,19.92-5.43,21.31-5.43,21.31a52.91,52.91,0,0,0-16.46-8l-13.14-26.18Z" style="fill:#FF81AE"></path><path d="M318.3,410.17c-8.1-3.14-3.63-12.32-3.63-12.32-6.22.42-6.73-5.85-6.73-5.85,6-1.31,12.31-9.83,12.31-9.83s11.34-.15,12.24-.45L355,418.32l-9.72,11.81s-1.8,1.91-6.21,2.8-7.63-5.13-7.63-5.13c-7.65-.42-7.19-8.28-7.19-8.28s-6.66-.22-5.93-9.35Z" style="fill:#ffbe9d"></path><path d="M314.59,397.84a13.6,13.6,0,0,1,2.5-1.66c1.6-1,3.89-2.13,6.27-3.61s4.27-3.24,5.94-4.16a6.88,6.88,0,0,1,2.08-.8,2.17,2.17,0,0,1,.81-.08,16.69,16.69,0,0,0-2.71,1.19c-1.54,1-3.39,2.8-5.84,4.29s-4.73,2.62-6.37,3.49A22,22,0,0,1,314.59,397.84Z" style="fill:#eb996e"></path><path d="M323.7,419.61c0-.08,1-.16,2.65-.44a31.51,31.51,0,0,0,6.16-1.77,30.74,30.74,0,0,0,5.65-3.06c1.36-.93,2.15-1.59,2.2-1.53a9.12,9.12,0,0,1-2,1.83,24.66,24.66,0,0,1-5.67,3.24,24.93,24.93,0,0,1-6.31,1.65A9.58,9.58,0,0,1,323.7,419.61Z" style="fill:#eb996e"></path><path d="M341.4,422.48a4.38,4.38,0,0,1-1,1.56,11.53,11.53,0,0,1-7.71,4,4.51,4.51,0,0,1-1.83-.09,14.55,14.55,0,0,0,10.51-5.5Z" style="fill:#eb996e"></path><path d="M318.35,410.26c-.06-.15,3-1.18,6.41-3.13s5.86-4,6-3.9a7,7,0,0,1-1.52,1.47,29.55,29.55,0,0,1-8.82,5A7,7,0,0,1,318.35,410.26Z" style="fill:#eb996e"></path><path d="M284.43,298.42s.1.13.27.41l.74,1.22,2.81,4.74,10.24,17.45C307.1,337,319,357.4,332.11,379.92l9.56,16.45c3.07,5.33,6.08,10.44,9.09,15.21a123.68,123.68,0,0,0,9.31,13,52.21,52.21,0,0,0,10,9.59,45.43,45.43,0,0,0,18.32,8,31.11,31.11,0,0,0,3.14.39c.92,0,1.69.06,2.32.06l1.43-.07h.49l-.49.06-1.43.13c-.62,0-1.41,0-2.33,0s-2-.14-3.16-.35a45.11,45.11,0,0,1-18.51-7.91,52.49,52.49,0,0,1-10.15-9.61,122.41,122.41,0,0,1-9.38-13c-3-4.78-6.05-9.89-9.13-15.21l-9.57-16.45-33.49-57.76c-4.25-7.39-7.7-13.37-10.1-17.53l-2.72-4.78-.7-1.25Z" style="fill:#263238"></path><path d="M401.22,375.67a10.4,10.4,0,0,1,2.7.33,25,25,0,0,1,6.22,2.1,21.5,21.5,0,0,1,5.36,3.8,10,10,0,0,1,1.75,2.08c-.13.15-2.77-3.17-7.34-5.42S401.17,375.87,401.22,375.67Z" style="fill:#263238"></path><path d="M344.38,279.52s.07.07.17.24l.45.73,1.69,2.83c1.47,2.5,3.57,6.05,6.16,10.43,5.2,8.81,12.43,20.95,20.57,34.27s15.66,25.29,21.14,33.94L401,372.19l1.75,2.79.45.73a2.93,2.93,0,0,1,.14.26s-.07-.07-.19-.23l-.48-.7-1.84-2.74c-1.58-2.38-3.85-5.85-6.62-10.14-5.56-8.6-13.12-20.54-21.27-33.87s-15.33-25.49-20.45-34.35c-2.56-4.43-4.62-8-6-10.52-.68-1.23-1.21-2.19-1.6-2.88l-.4-.76Z" style="fill:#263238"></path><path d="M282.21,270.89a2.92,2.92,0,0,1,.1-.54c.1-.34.19-.85.42-1.49a27.69,27.69,0,0,1,2.27-5.24,30.25,30.25,0,0,1,5.14-6.74,29.08,29.08,0,0,1,18.57-8.48,30.2,30.2,0,0,1,8.45.54,27.48,27.48,0,0,1,5.45,1.71c.63.25,1.08.52,1.4.67a1.9,1.9,0,0,1,.47.28s-.7-.27-1.94-.76a29.9,29.9,0,0,0-32.07,6.38,31.1,31.1,0,0,0-7.55,11.7A20.82,20.82,0,0,1,282.21,270.89Z" style="fill:#263238"></path><path d="M391.55,358.18a16,16,0,0,1,1.05-1.68c.7-1.06,1.69-2.61,2.83-4.58a74.78,74.78,0,0,0,3.62-7.11,36.55,36.55,0,0,0,2.85-9.28,36.15,36.15,0,0,0-1.27-17.46,29.9,29.9,0,0,0-2.2-4.88l-.77-1.25a2.31,2.31,0,0,1-.24-.46s.13.13.33.4l.85,1.2A25.42,25.42,0,0,1,401,318a35.17,35.17,0,0,1,1.44,17.67,36.39,36.39,0,0,1-2.92,9.39,65.59,65.59,0,0,1-3.75,7.09c-1.18,2-2.22,3.48-3,4.52-.37.52-.67.91-.88,1.17A2,2,0,0,1,391.55,358.18Z" style="fill:#263238"></path><g style="opacity:0.30000000000000004"><path d="M402.81,327.75l.47.75a34.86,34.86,0,0,1-8.59,33.68l-3-4.46A54,54,0,0,0,402.81,327.75Z"></path></g><path d="M343.62,279.32a2.38,2.38,0,0,1-.57.24l-1.68.58c-1.47.48-3.57,1.22-6.15,2.19s-5.61,2.21-8.93,3.7-6.9,3.27-10.59,5.29-7.08,4.13-10.13,6.13-5.7,3.91-7.9,5.57-3.94,3-5.13,4l-1.39,1.11a3.22,3.22,0,0,1-.5.36,2.36,2.36,0,0,1,.44-.44l1.32-1.19c1.15-1,2.87-2.46,5-4.16s4.83-3.64,7.86-5.68,6.46-4.14,10.14-6.18,7.31-3.79,10.64-5.28,6.4-2.68,9-3.6,4.72-1.62,6.21-2.05l1.71-.48A3.39,3.39,0,0,1,343.62,279.32Z" style="fill:#fff"></path><path d="M366.8,325.21a2.1,2.1,0,0,1-.52.27l-1.53.67c-1.33.57-3.25,1.41-5.61,2.46-4.73,2.11-11.19,5.18-18.14,8.94s-13,7.5-17.39,10.31c-2.18,1.4-3.93,2.56-5.13,3.36l-1.39.92a3.59,3.59,0,0,1-.51.29s.14-.15.45-.38l1.34-1c1.16-.86,2.89-2.06,5-3.51,4.3-2.89,10.38-6.69,17.34-10.46s13.47-6.79,18.24-8.82c2.38-1,4.33-1.8,5.69-2.31l1.56-.58A3.88,3.88,0,0,1,366.8,325.21Z" style="fill:#fff"></path><path d="M400.65,373.79a2.2,2.2,0,0,1-.56.23l-1.65.56-6.08,2c-5.12,1.7-12.21,4.07-19.75,7.37-3.77,1.67-7.26,3.44-10.37,5.2-1.52.92-3,1.75-4.3,2.65-.66.44-1.31.84-1.91,1.27l-1.72,1.24c-1.11.77-2,1.56-2.87,2.22s-1.55,1.26-2.11,1.77L348,399.43a3,3,0,0,1-.48.37,2.79,2.79,0,0,1,.41-.45l1.25-1.21c.54-.53,1.21-1.16,2.05-1.84s1.74-1.51,2.84-2.3c.55-.4,1.11-.83,1.7-1.27s1.25-.85,1.91-1.3c1.3-.92,2.78-1.77,4.3-2.71a113,113,0,0,1,10.4-5.26,191.12,191.12,0,0,1,19.85-7.24c2.58-.8,4.68-1.42,6.13-1.83l1.68-.47A2.61,2.61,0,0,1,400.65,373.79Z" style="fill:#fff"></path><path d="M380.76,294a33.87,33.87,0,0,1-3.29,1.24,74.74,74.74,0,0,0-7.76,3.37,75.81,75.81,0,0,0-7.3,4.27c-1.81,1.2-2.89,2-2.94,1.93s.22-.26.69-.65,1.16-.94,2-1.58a54.41,54.41,0,0,1,7.28-4.43,55.07,55.07,0,0,1,7.87-3.26c1-.33,1.88-.57,2.48-.71A3.49,3.49,0,0,1,380.76,294Z" style="fill:#fff"></path><path d="M402.29,333.55a2.87,2.87,0,0,1-.48.76,23.54,23.54,0,0,1-1.51,1.91,41.39,41.39,0,0,1-12.57,9.88c-.92.46-1.68.81-2.21,1a3.31,3.31,0,0,1-.85.28,33,33,0,0,1,2.89-1.62,53.26,53.26,0,0,0,6.62-4.42A52,52,0,0,0,400,336C401.42,334.48,402.22,333.5,402.29,333.55Z" style="fill:#fff"></path><path d="M421.71,362.62c-.09.05-.79-1.34-2.3-3.31a26.48,26.48,0,0,0-2.93-3.22,29.24,29.24,0,0,0-4.22-3.24,30,30,0,0,0-4.78-2.34,29,29,0,0,0-4.17-1.23c-2.43-.51-4-.58-4-.68a4.2,4.2,0,0,1,1.09,0,22.84,22.84,0,0,1,3,.34,25.65,25.65,0,0,1,4.27,1.14,27.76,27.76,0,0,1,4.88,2.35,26.77,26.77,0,0,1,4.28,3.33,23.36,23.36,0,0,1,2.89,3.35,15.7,15.7,0,0,1,.94,1.42,9.56,9.56,0,0,1,.62,1.11A4.51,4.51,0,0,1,421.71,362.62Z" style="fill:#fff"></path><path d="M415.65,408.5a1.66,1.66,0,0,1-.19.47c-.17.36-.39.79-.64,1.32l-.48.95c-.18.34-.41.69-.65,1.08A28.91,28.91,0,0,1,412,414.9l-1,1.45c-.37.5-.81,1-1.23,1.49-.84,1.06-1.86,2.06-2.91,3.14a49.44,49.44,0,0,1-7.73,6,48.9,48.9,0,0,1-8.84,4.24c-1.44.46-2.79.93-4.11,1.21-.65.15-1.27.33-1.88.44l-1.77.29a30.11,30.11,0,0,1-3.05.35c-.45,0-.87.08-1.26.1h-2.52a1.81,1.81,0,0,1-.51,0,1.69,1.69,0,0,1,.51-.06l1.45-.09,1.06-.05c.38,0,.79-.09,1.24-.14.89-.11,1.91-.18,3-.42l1.74-.33c.61-.11,1.22-.3,1.87-.46,1.3-.29,2.63-.78,4.05-1.25a50.68,50.68,0,0,0,8.73-4.22,51.23,51.23,0,0,0,7.66-5.93c1.05-1.06,2.08-2.05,2.92-3.08.43-.5.87-1,1.25-1.46l1.06-1.42c.71-.88,1.23-1.77,1.73-2.51.24-.38.48-.72.68-1.06l.51-.92.73-1.26C415.54,408.64,415.63,408.49,415.65,408.5Z" style="fill:#fff"></path><path d="M353.62,261.17a49,49,0,0,1-6,3.68,47,47,0,0,1-6.27,3.23,49,49,0,0,1,6-3.68A47,47,0,0,1,353.62,261.17Z" style="fill:#fff"></path><path d="M301.52,333.65a4.86,4.86,0,0,1-1.08.27c-.7.15-1.73.32-3,.5a75.32,75.32,0,0,1-10,.67,73.33,73.33,0,0,1-10-.68c-1.27-.18-2.3-.35-3-.5a4.47,4.47,0,0,1-1.08-.28,4.63,4.63,0,0,1,1.11.08l3,.33a94.93,94.93,0,0,0,19.94,0l3-.33A4.23,4.23,0,0,1,301.52,333.65Z" style="fill:#fff"></path><path d="M280.68,287.39a50.43,50.43,0,0,1-7.32-.21,52.23,52.23,0,0,1-7.28-.73,52.05,52.05,0,0,1,7.31.21A52.5,52.5,0,0,1,280.68,287.39Z" style="fill:#fff"></path><path d="M282.42,258.51a32.63,32.63,0,0,1-5.44-2,33.14,33.14,0,0,1-5.25-2.48,32.2,32.2,0,0,1,5.45,2A32.74,32.74,0,0,1,282.42,258.51Z" style="fill:#fff"></path><path d="M327.37,376.22a10.79,10.79,0,0,1-1.65.5c-1.07.29-2.63.66-4.56,1.08-3.87.85-9.26,1.83-15.26,2.52s-11.48.95-15.44,1c-2,0-3.58,0-4.69,0a12.7,12.7,0,0,1-1.72-.11,10.5,10.5,0,0,1,1.72-.1l4.68-.13c3.95-.14,9.4-.46,15.39-1.14s11.37-1.61,15.24-2.37l4.59-.92A11,11,0,0,1,327.37,376.22Z" style="fill:#fff"></path><path d="M390.89,444.14a1,1,0,0,1-.29.05l-.84.07-3.26.25c-1.42.1-3.15.22-5.17.29s-4.31.2-6.85.22-5.32.1-8.3.05-6.18-.11-9.53-.22c-6.71-.29-14.08-.82-21.78-1.68s-15-2.07-21.6-3.3c-3.29-.66-6.43-1.26-9.33-1.95s-5.62-1.31-8.08-1.93-4.68-1.25-6.62-1.78-3.61-1-5-1.45l-3.13-1-.8-.26-.27-.11a1,1,0,0,1,.28.06l.83.21,3.14.88c1.36.4,3,.87,5,1.37s4.16,1.13,6.63,1.7,5.16,1.26,8.08,1.87,6,1.25,9.33,1.9c6.59,1.2,13.88,2.35,21.57,3.25s15,1.4,21.74,1.72c3.35.12,6.53.26,9.51.27s5.76,0,8.3,0,4.82-.1,6.84-.15,3.75-.13,5.16-.21l3.27-.14.85,0Z" style="fill:#fff"></path><path d="M258.44,130l37.17,4.29c-2.95,16.31-5.91,32.89-4.26,49.38s8.54,33.21,21.87,43.07c4.91,3.62,10.56,6.25,15,10.4s7.65,10.57,5.66,16.34c-8.08-2.06-16.37-4.12-24.66-3.3-4.31.42-8.67,1.62-12.91.73a21.74,21.74,0,0,1-6.66-2.92c-17.43-10.61-28-30-32.43-50S250.78,159.3,258.44,130Z" style="fill:#263238"></path><path d="M300.94,94.78a4.73,4.73,0,0,1-.3.37l-.91,1c-.79.91-2,2.21-3.43,4a91.19,91.19,0,0,0-10.58,16.27,94.61,94.61,0,0,0-9.1,27.22,89.28,89.28,0,0,0,.8,35,94.37,94.37,0,0,0,13.89,32.2,98.54,98.54,0,0,0,9.59,12c1.72,1.7,3.3,3.41,5,4.87.83.74,1.63,1.49,2.46,2.18l2.45,2c3.2,2.57,6.31,4.62,8.94,6.57a65.28,65.28,0,0,1,6.5,5.29,35.31,35.31,0,0,1,3.61,3.89c.38.47.63.85.82,1.1s.26.39.26.39-.11-.11-.31-.35-.46-.62-.85-1.08a40.26,40.26,0,0,0-3.66-3.8,69.69,69.69,0,0,0-6.54-5.21c-2.64-1.92-5.76-3.95-9-6.51-.8-.64-1.63-1.29-2.47-2s-1.64-1.44-2.48-2.18c-1.72-1.45-3.32-3.16-5.05-4.86a99.31,99.31,0,0,1-9.68-12.05,94.51,94.51,0,0,1-14-32.36,89.44,89.44,0,0,1-.76-35.22,94.14,94.14,0,0,1,9.24-27.31,89.22,89.22,0,0,1,10.75-16.23c1.43-1.8,2.69-3.07,3.52-4l.94-1Z" style="fill:#455a64"></path></g><g id="freepik--character-1--inject-4"><path d="M244.67,141.4,132,136.53c-.52,35,1.08,65.12-12.26,94.3-3.4,7.41-7.71,14.43-10.3,22.16s-3.3,16.58.5,23.79l23.18-5.28.21-7.11a10.42,10.42,0,0,0,5.84,7.29c3.76,1.79,8.09,1.77,12.25,1.64A350.46,350.46,0,0,0,223,263.6c3.11-.76,17.57,1.3,17.57,1.3C250.81,229.41,250.73,177.85,244.67,141.4Z" style="fill:#263238"></path><path d="M243.1,134.63c-4.1-17.4-8.29-35.51-22.7-46.08-12.85-9.41-27.21-11.68-43.09-10.5-7.82.58-16.54,4.48-23.24,8.57-9.18,5.59-12.79,16.46-17,26.36-8.41,19.83-6.4,46.25,0,53.4l83,40.46c14.2-8,23.76-11.81,27.07-27.77C249.42,168.2,245.64,145.43,243.1,134.63Z" style="fill:#263238"></path><path d="M219.15,104.74,167.28,91.25c-16.63-1.87-27.84,18.55-29,35.24-1.3,18.55-2.15,41.24-.05,55.1,4.23,27.88,25.55,31.56,25.55,31.56s.06.42.16,8.69l-.14,18.62,54.11-8.92,9.94-116.81A9.8,9.8,0,0,0,219.15,104.74Z" style="fill:#ffbe9d"></path><path d="M145,148.35a3.56,3.56,0,0,0,3.42,3.62,3.41,3.41,0,0,0,3.7-3.19,3.58,3.58,0,0,0-3.41-3.63A3.42,3.42,0,0,0,145,148.35Z" style="fill:#263238"></path><path d="M143.12,143.12c.44.47,3.16-1.52,7-1.48s6.64,2,7.06,1.51c.21-.21-.24-1.05-1.46-2a9.88,9.88,0,0,0-5.65-1.78,9.37,9.37,0,0,0-5.57,1.76C143.31,142.07,142.9,142.91,143.12,143.12Z" style="fill:#263238"></path><path d="M180.83,147.57a3.57,3.57,0,0,0,3.42,3.62A3.41,3.41,0,0,0,188,148a3.57,3.57,0,0,0-3.42-3.63A3.42,3.42,0,0,0,180.83,147.57Z" style="fill:#263238"></path><path d="M180.88,142.34c.44.47,3.16-1.51,7-1.48s6.65,2,7.07,1.51c.2-.2-.24-1.05-1.47-2a9.71,9.71,0,0,0-5.65-1.78,9.37,9.37,0,0,0-5.57,1.75C181.07,141.29,180.66,142.13,180.88,142.34Z" style="fill:#263238"></path><path d="M166.74,167.71c0-.22-2.36-.65-6.23-1.17-1-.11-1.91-.31-2.07-1a5,5,0,0,1,.68-2.91c.93-2.36,1.92-4.85,2.95-7.45,4.1-10.61,7.08-19.33,6.65-19.49s-4.1,8.3-8.21,18.91c-1,2.62-1.93,5.11-2.83,7.5-.38,1.11-1,2.37-.53,3.85a2.45,2.45,0,0,0,1.6,1.44,6.39,6.39,0,0,0,1.67.24C164.31,167.89,166.73,167.92,166.74,167.71Z" style="fill:#263238"></path><path d="M163.78,213.15a70.77,70.77,0,0,0,37.35-9.69s-9.35,19.42-37.2,16.63Z" style="fill:#eb996e"></path><path d="M179.39,175a6.2,6.2,0,0,0-5.12-2.83,8,8,0,0,0-7.34,3.58c-.65.78-.61,3-.35,3.6s.06.31.54.73c1.7,1.53,3.51,3.06,5.71,3.6a6,6,0,0,0,6.38-2.3A6.16,6.16,0,0,0,179.39,175Z" style="fill:#eb996e"></path><path d="M168.29,183.73c.61.15,1.38-3.94,5.43-6.2s8.34-1,8.47-1.55c.11-.25-.82-1-2.65-1.38a10.39,10.39,0,0,0-7,1.07,9,9,0,0,0-4.3,5.25C167.74,182.6,168,183.71,168.29,183.73Z" style="fill:#263238"></path><path d="M196.32,135.31c-.15-1.1-4-1.4-8.31-2.85s-7.62-3.4-8.4-2.61c-.35.38.07,1.48,1.3,2.77a15.29,15.29,0,0,0,12.73,4.16C195.4,136.47,196.38,135.83,196.32,135.31Z" style="fill:#263238"></path><path d="M156.79,130.91c-.89-.74-3.65.66-7.14,1.31s-6.57.55-7.1,1.56c-.23.49.39,1.27,1.83,1.86a11.56,11.56,0,0,0,11.48-2.32C156.94,132.22,157.19,131.27,156.79,130.91Z" style="fill:#263238"></path><path d="M166.74,88a61.77,61.77,0,0,0,5.43,33,22.72,22.72,0,0,0,5.35,7.73,10.14,10.14,0,0,0,8.76,2.54A37.58,37.58,0,0,1,178,110c3.54,7.81,7.17,15.75,13,22.07s14.2,10.86,22.71,9.85l-.73-5.71c1.35,4.07,3.51,8.06,7.06,10.46s8.72,2.75,12-.06c-3.26-13.85,4.85-29.21-.88-42.24-4-9-13.58-14.21-23.06-16.92a78.47,78.47,0,0,0-41.09-.5" style="fill:#263238"></path><path d="M167.9,88.23c0,.2-.07.41-.11.61l.1,0C167.89,88.66,167.89,88.45,167.9,88.23Z" style="fill:#263238"></path><path d="M167.79,88.84l-1.71-.65c-5.32-2.57-8.85-5.55-16.81,1.9-4.31,4-8.1,10-10.76,16.06-2.38,5.41-5,11.28-5.71,17.14a74.55,74.55,0,0,0,0,21.36c4.63-3.25,6.9-8.92,8.26-14.41s2.1-11.25,4.72-16.27c-.67,4.68-1.34,9.47-.46,14.12a5.82,5.82,0,0,0,1.63,3.44,2.45,2.45,0,0,0,3.45-.09c-1.87-5.34-1.69-11.22-.43-16.74a87.41,87.41,0,0,1,5.87-15.89,83.5,83.5,0,0,0,1.85,28.27,7.24,7.24,0,0,0,1.69,3.66c1.47,1.41,3.79,1.39,5.79,1s4.08-1,6.05-.43A79.93,79.93,0,0,1,167.79,88.84Z" style="fill:#263238"></path><path d="M192.17,150.48c.05,0-.28.6-1,1.3a8.52,8.52,0,0,1-7.63,1.82,3.29,3.29,0,0,1-1.52-.68,12,12,0,0,1,1.6.32,9.78,9.78,0,0,0,3.84-.13,9.65,9.65,0,0,0,3.48-1.62A12.65,12.65,0,0,1,192.17,150.48Z" style="fill:#eb996e"></path><path d="M150.67,154.59a6.62,6.62,0,0,1-4.25-.57,6.52,6.52,0,0,1-3.34-2.68,22.81,22.81,0,0,0,3.55,2.2A22.76,22.76,0,0,0,150.67,154.59Z" style="fill:#eb996e"></path><path d="M193,152.57c.12.07-.53,1.2-1.91,1.94a3.63,3.63,0,0,1-2.67.56c0-.15,1.17-.32,2.42-1S192.89,152.48,193,152.57Z" style="fill:#eb996e"></path><path d="M133.74,162.86a1.05,1.05,0,0,1,0,.31c0,.23,0,.53.08.91,0,.81.19,2,.23,3.53a100.47,100.47,0,0,1-.32,13c-.23,2.74-.65,5.73-1.18,8.92s-1.31,6.56-2.35,10a98.23,98.23,0,0,1-9.18,21.75c-4.22,7.27-9,13.65-12.64,19.94A62,62,0,0,0,104,250.5a41.34,41.34,0,0,0-2.23,8.63,29.27,29.27,0,0,0,.77,12.8c.11.37.22.71.32,1s.24.61.35.89a11.16,11.16,0,0,0,.59,1.37l.39.83a1,1,0,0,1,.12.29,2.31,2.31,0,0,1-.17-.27l-.44-.81a11,11,0,0,1-.63-1.35c-.12-.28-.24-.57-.38-.88l-.34-1a28.69,28.69,0,0,1-.94-12.91,41.41,41.41,0,0,1,2.18-8.73A60.91,60.91,0,0,1,108,241c3.58-6.34,8.41-12.73,12.59-20a99,99,0,0,0,9.18-21.62c1.05-3.46,1.75-6.84,2.38-10s1-6.14,1.24-8.87a105.59,105.59,0,0,0,.48-13c0-1.54-.11-2.72-.13-3.53l0-.92A1.43,1.43,0,0,1,133.74,162.86Z" style="fill:#263238"></path><path d="M184.37,178.15c-.14-.07.08-.79.07-1.68s-.21-1.62-.07-1.68.6.65.59,1.68S184.48,178.22,184.37,178.15Z" style="fill:#eb996e"></path><path d="M186.55,178.15c-.13-.06.06-.7,0-1.48s-.34-1.39-.21-1.48.66.49.73,1.44S186.67,178.23,186.55,178.15Z" style="fill:#eb996e"></path><path d="M234.91,288.18c.4-28.91-14.34-58.05-14.34-58.05L163.8,240.46s-57,61.76-61.39,69.38c-6.48,11.3-4.63,17.66-4.24,24s15.32,34.57,15.71,38.89-9.82,78.18-5.89,100.18H239.37l-21.46-77.12C222.16,371.47,234.53,316.17,234.91,288.18Z" style="fill:#FF81AE"></path><g style="opacity:0.30000000000000004"><path d="M182.75,387.24c-2.29-6.25-15.46-2.86-15.8-9.52l-32.72,43.95c-3.38,4.35-6.84,8.72-11.19,12.1s-7.26,6.58-15.34,6.73l-.15,2.86c12.41,3.4,25.89-1.5,34.75-10.82,9.38,3.64,20.37,3.3,29.19-1.54S186.6,416.7,187,406.65C187.23,400,185.05,393.5,182.75,387.24Z"></path></g><path d="M221.29,279.73c-3.42-30.15-24.93-45.29-48.53-26.22-5.07,4.09-9.62,13.06-12.76,18.13C144.76,296.32,97.25,373.1,97.25,373.1S79.62,380,79.62,388.21s4,40.87,15,48.73,28.3,2.23,41.36-9.68a82.25,82.25,0,0,0,11.59-14.62c4.26-6.59,7.87-13,12.71-20.88,7.35-11.94,15.17-26.22,23.4-39.82,20-33.08,31.12-50.1,34.2-61.24C218.14,289.85,221.4,280.64,221.29,279.73Z" style="fill:#FF81AE"></path><path d="M217.91,270.89s-.25-.71-.71-2a30.41,30.41,0,0,0-2.4-5.12,31.34,31.34,0,0,0-5.15-6.58A30.09,30.09,0,0,0,183,249.31a30,30,0,0,0-5.44,1.53c-1.25.49-1.93.8-2,.76a1.9,1.9,0,0,1,.47-.28c.32-.15.77-.42,1.4-.67a27.48,27.48,0,0,1,5.45-1.71,29.82,29.82,0,0,1,32.16,14.68,28.54,28.54,0,0,1,2.28,5.24c.22.64.31,1.15.41,1.49A2.13,2.13,0,0,1,217.91,270.89Z" style="fill:#263238"></path><path d="M98.12,325s-19.67,15.36-19.71,34.54c0,19.93,5.43,21.31,5.43,21.31a53.08,53.08,0,0,1,16.46-8l13.14-26.19Z" style="fill:#FF81AE"></path><path d="M181.82,408.07c8.1-3.15,3.64-12.32,3.64-12.32,6.21.42,6.72-5.86,6.72-5.86-6-1.31-12.31-9.82-12.31-9.82s-11.34-.15-11.93-.32l-22.49,36.6L154.86,428s1.8,1.91,6.21,2.8,7.63-5.13,7.63-5.13c7.65-.43,7.19-8.28,7.19-8.28s6.66-.23,5.93-9.35Z" style="fill:#ffbe9d"></path><path d="M185.53,395.74a23.25,23.25,0,0,1-2.68-1.35c-1.64-.86-3.95-2-6.37-3.49s-4.3-3.32-5.84-4.28a16.31,16.31,0,0,0-2.71-1.2,2.08,2.08,0,0,1,.81.09,6.81,6.81,0,0,1,2.08.79c1.67.93,3.53,2.7,5.94,4.16s4.67,2.66,6.27,3.61A13.27,13.27,0,0,1,185.53,395.74Z" style="fill:#eb996e"></path><path d="M176.42,417.51a9.58,9.58,0,0,1-2.7-.08,25.11,25.11,0,0,1-12-4.89,9.75,9.75,0,0,1-2-1.83c.05-.06.84.6,2.2,1.53a29.83,29.83,0,0,0,11.82,4.82A24.6,24.6,0,0,1,176.42,417.51Z" style="fill:#eb996e"></path><path d="M158.72,420.38a14.59,14.59,0,0,0,10.51,5.49,4.3,4.3,0,0,1-1.83.09,11.42,11.42,0,0,1-4.25-1.25,11.56,11.56,0,0,1-3.46-2.77A4.47,4.47,0,0,1,158.72,420.38Z" style="fill:#eb996e"></path><path d="M181.77,408.15a6.78,6.78,0,0,1-2-.54,30.14,30.14,0,0,1-8.82-5,7.31,7.31,0,0,1-1.52-1.47c.11-.12,2.55,2,6,3.9S181.83,408,181.77,408.15Z" style="fill:#eb996e"></path><path d="M215.69,296.32s-.07.15-.22.43l-.7,1.25c-.63,1.12-1.55,2.72-2.72,4.78L202,320.32l-33.49,57.76-9.57,16.45c-3.08,5.32-6.09,10.43-9.12,15.2a121.43,121.43,0,0,1-9.39,13,52.56,52.56,0,0,1-10.15,9.62,45.11,45.11,0,0,1-18.51,7.91c-1.18.21-2.24.26-3.16.34s-1.7,0-2.33,0l-1.43-.12-.49-.06a4.52,4.52,0,0,1,.49,0l1.43.07c.63,0,1.4,0,2.32-.06s2-.16,3.14-.39a45.66,45.66,0,0,0,18.33-8,52.77,52.77,0,0,0,10-9.59,122.41,122.41,0,0,0,9.31-13c3-4.76,6-9.88,9.09-15.2L168,377.81c13.13-22.51,25-42.9,33.62-57.67l10.24-17.46,2.81-4.73.74-1.22C215.59,296.45,215.69,296.32,215.69,296.32Z" style="fill:#263238"></path><path d="M98.9,373.57c.06.2-4.14.65-8.68,2.89S83,382,82.88,381.88a9.25,9.25,0,0,1,1.75-2.08A21.24,21.24,0,0,1,90,376a25.43,25.43,0,0,1,6.23-2.1A10.55,10.55,0,0,1,98.9,373.57Z" style="fill:#263238"></path><path d="M155.74,277.41a2,2,0,0,1-.13.27c-.1.2-.23.45-.4.76-.39.69-.92,1.65-1.6,2.88-1.4,2.49-3.46,6.09-6,10.52-5.12,8.86-12.3,21-20.45,34.35s-15.71,25.27-21.27,33.86c-2.77,4.3-5,7.76-6.62,10.15l-1.84,2.73-.48.71-.18.23s0-.09.13-.26l.45-.73c.42-.67,1-1.61,1.75-2.79l6.48-10.24c5.48-8.64,13-20.61,21.14-33.93s15.38-25.46,20.58-34.27l6.15-10.44,1.69-2.83.45-.73A1.19,1.19,0,0,1,155.74,277.41Z" style="fill:#263238"></path><path d="M108.57,356.08a2.56,2.56,0,0,1-.34-.39c-.21-.26-.5-.66-.88-1.17-.74-1-1.79-2.56-3-4.52a68.42,68.42,0,0,1-3.75-7.09,36.39,36.39,0,0,1-2.92-9.39,35.17,35.17,0,0,1,1.44-17.67,25.72,25.72,0,0,1,2.37-4.87l.85-1.2c.2-.27.31-.41.33-.4a2.31,2.31,0,0,1-.24.46l-.77,1.24a29.68,29.68,0,0,0-2.2,4.89,36.14,36.14,0,0,0-1.27,17.46,37.09,37.09,0,0,0,2.85,9.28,71,71,0,0,0,3.63,7.1c1.13,2,2.13,3.52,2.82,4.59A14.86,14.86,0,0,1,108.57,356.08Z" style="fill:#263238"></path><g style="opacity:0.30000000000000004"><path d="M97.31,325.64l-.47.76a34.86,34.86,0,0,0,8.59,33.68l3-4.46A54.07,54.07,0,0,1,97.31,325.64Z"></path></g><path d="M156.56,276.73a3.17,3.17,0,0,1,.61.14l1.71.48c1.48.42,3.61,1.12,6.21,2s5.66,2.14,9,3.61,6.95,3.25,10.64,5.27,7.11,4.16,10.15,6.18,5.69,4,7.85,5.69,3.9,3.13,5.05,4.16l1.32,1.19a2.36,2.36,0,0,1,.44.44,3.59,3.59,0,0,1-.51-.37l-1.38-1.11c-1.19-1-2.94-2.36-5.14-4s-4.87-3.56-7.9-5.58-6.46-4.08-10.13-6.12-7.27-3.78-10.58-5.29-6.36-2.74-8.94-3.7-4.68-1.71-6.14-2.19l-1.68-.58A3,3,0,0,1,156.56,276.73Z" style="fill:#fff"></path><path d="M130.22,321.51a2.75,2.75,0,0,1,.59.18l1.66.62c1.43.54,3.49,1.37,6,2.44,5,2.13,11.94,5.3,19.35,9.18s13.92,7.8,18.5,10.81c2.3,1.5,4.13,2.75,5.37,3.66l1.42,1a2.9,2.9,0,0,1,.48.4,3.78,3.78,0,0,1-.54-.31l-1.48-1c-1.27-.85-3.13-2.05-5.45-3.51-4.62-2.93-11.15-6.76-18.54-10.65s-14.25-7.1-19.26-9.31c-2.5-1.12-4.54-2-6-2.59l-1.62-.71A3.33,3.33,0,0,1,130.22,321.51Z" style="fill:#fff"></path><path d="M99.53,371.2a2.62,2.62,0,0,1,.6.13l1.67.46c1.46.42,3.56,1,6.14,1.84a191.12,191.12,0,0,1,19.85,7.24,109.08,109.08,0,0,1,10.39,5.26c1.53.94,3,1.79,4.31,2.71.65.45,1.3.86,1.9,1.3l1.7,1.27c1.1.79,2,1.61,2.85,2.3s1.51,1.31,2.05,1.84l1.25,1.21a2.91,2.91,0,0,1,.41.45,3.27,3.27,0,0,1-.48-.37l-1.32-1.14c-.56-.51-1.25-1.11-2.1-1.77s-1.77-1.46-2.88-2.22l-1.71-1.25c-.6-.42-1.25-.82-1.91-1.26-1.31-.9-2.78-1.74-4.31-2.66-3.1-1.75-6.6-3.53-10.36-5.19-7.54-3.3-14.63-5.67-19.75-7.37l-6.08-2-1.65-.56A3.13,3.13,0,0,1,99.53,371.2Z" style="fill:#fff"></path><path d="M118.19,290.82a3.3,3.3,0,0,1,1,.19c.63.15,1.52.41,2.62.77a63.12,63.12,0,0,1,16,8.13c.94.67,1.68,1.24,2.17,1.66a3.63,3.63,0,0,1,.74.68c-.06.06-1.2-.78-3.12-2a81.72,81.72,0,0,0-15.93-8.09C119.53,291.32,118.17,290.9,118.19,290.82Z" style="fill:#fff"></path><path d="M97.9,331c.06,0,.86.93,2.25,2.42a51.07,51.07,0,0,0,12.48,9.8,33,33,0,0,1,2.89,1.63,2.93,2.93,0,0,1-.85-.29,23.37,23.37,0,0,1-2.21-1,41.54,41.54,0,0,1-6.78-4.33,40.92,40.92,0,0,1-5.8-5.55c-.67-.79-1.18-1.44-1.51-1.91A3,3,0,0,1,97.9,331Z" style="fill:#fff"></path><path d="M78.19,360.56a5.05,5.05,0,0,1,.46-1,11.12,11.12,0,0,1,.64-1.13c.27-.43.56-.94.95-1.45a25.25,25.25,0,0,1,2.93-3.42,29.82,29.82,0,0,1,4.31-3.44,29.27,29.27,0,0,1,4.93-2.49,26.14,26.14,0,0,1,4.33-1.24c.62-.14,1.2-.19,1.7-.26a10,10,0,0,1,1.3-.11,4.12,4.12,0,0,1,1.11,0c0,.1-1.57.16-4,.72a29,29,0,0,0-4.23,1.33,28.39,28.39,0,0,0-9.08,5.83,28.87,28.87,0,0,0-3,3.29C79,359.2,78.28,360.61,78.19,360.56Z" style="fill:#fff"></path><path d="M80.9,401.64a2.38,2.38,0,0,1,.35.51l.92,1.52A19.06,19.06,0,0,0,83.78,406c.34.43.66.92,1.08,1.38l1.32,1.45c.89,1,2,2,3.22,3.14.57.57,1.26,1.05,1.92,1.61s1.33,1.13,2.09,1.64a80.43,80.43,0,0,0,10,6.27,94,94,0,0,0,10.83,4.78,71.45,71.45,0,0,0,9.3,2.65l1.92.39c.61.11,1.2.17,1.74.25a27.31,27.31,0,0,0,2.78.31l1.78.11a2.45,2.45,0,0,1,.62.08l-.62,0L130,430a25.31,25.31,0,0,1-2.81-.22c-.55-.07-1.13-.11-1.75-.21l-1.94-.36a66.8,66.8,0,0,1-9.39-2.56,87.59,87.59,0,0,1-10.91-4.77,78.33,78.33,0,0,1-10.08-6.35c-.76-.51-1.41-1.13-2.09-1.67s-1.35-1.06-1.92-1.64a42,42,0,0,1-3.2-3.21l-1.31-1.49c-.41-.47-.72-1-1-1.42A16.16,16.16,0,0,1,82,403.78l-.84-1.58A2.45,2.45,0,0,1,80.9,401.64Z" style="fill:#fff"></path><path d="M147,258.81a71.69,71.69,0,0,1,7.64,4,70.62,70.62,0,0,1,7.38,4.46,74,74,0,0,1-7.64-4A70.62,70.62,0,0,1,147,258.81Z" style="fill:#fff"></path><path d="M196.9,330.05a7.2,7.2,0,0,1,1.29.11l3.52.42c3,.34,7.07.73,11.62.94a111.65,111.65,0,0,0,11.65,0c1.49-.08,2.69-.2,3.52-.28a6,6,0,0,1,1.3-.09,7.85,7.85,0,0,1-1.27.29c-.83.15-2,.32-3.53.45a86.68,86.68,0,0,1-11.7.16c-4.56-.21-8.68-.66-11.64-1.1-1.48-.21-2.68-.42-3.5-.58A6,6,0,0,1,196.9,330.05Z" style="fill:#fff"></path><path d="M219.51,284.8a52.23,52.23,0,0,1,7.28-.73,52.19,52.19,0,0,1,7.32-.21,52.5,52.5,0,0,1-7.29.73A50.29,50.29,0,0,1,219.51,284.8Z" style="fill:#fff"></path><path d="M213.15,257.85a65.35,65.35,0,0,1,7.55-3.45,67.1,67.1,0,0,1,7.75-3,66.45,66.45,0,0,1-7.55,3.44A66.81,66.81,0,0,1,213.15,257.85Z" style="fill:#fff"></path><path d="M171.66,373.5a1.64,1.64,0,0,1,.51.06l1.42.28c1.24.25,3,.61,5.24,1,4.44.79,10.6,1.67,17.44,2.37s13.06,1.06,17.56,1.22c2.25.1,4.08.14,5.34.17l1.45,0a2.8,2.8,0,0,1,.5.05,1.65,1.65,0,0,1-.5.06l-1.45.05c-1.27,0-3.09,0-5.35,0-4.51-.07-10.75-.39-17.6-1.07s-13-1.64-17.45-2.53c-2.22-.43-4-.84-5.22-1.15l-1.41-.38A1.89,1.89,0,0,1,171.66,373.5Z" style="fill:#fff"></path><path d="M107.55,447.26h.32l.93,0,3.58.18c1.55.09,3.45.17,5.66.25s4.72.19,7.5.25c5.55.17,12.17.19,19.52.13s15.43-.41,23.89-1,16.5-1.42,23.79-2.37l5.31-.78,2.54-.37,2.46-.43,4.65-.82,4.28-.86c1.36-.29,2.66-.53,3.88-.81l3.44-.83,3-.71c.92-.23,1.74-.48,2.49-.68l3.46-.94.9-.23.31-.06a162.21,162.21,0,0,1-17.4,4.62c-1.36.28-2.78.61-4.27.9l-4.66.84-2.46.45-2.54.39-5.32.8c-7.29,1-15.34,1.82-23.82,2.41s-16.56.82-23.91.93-14,0-19.54-.25c-2.79-.07-5.3-.2-7.51-.32s-4.1-.22-5.65-.34l-3.58-.27-.92-.09Z" style="fill:#fff"></path><path d="M241.68,127.93l-37.17,4.29c3,16.31,5.91,32.88,4.26,49.38s-8.54,33.21-21.87,43.06c-4.91,3.63-10.56,6.26-15,10.41s-7.65,10.57-5.66,16.33c8.09-2.05,16.37-4.12,24.67-3.3,4.3.43,8.66,1.63,12.9.73a21.72,21.72,0,0,0,6.66-2.91c17.44-10.61,28-30,32.43-50S249.34,157.2,241.68,127.93Z" style="fill:#263238"></path><path d="M199.18,92.68l.34.33.94,1c.83.89,2.09,2.16,3.52,4a88.5,88.5,0,0,1,10.75,16.23A93.74,93.74,0,0,1,224,141.51a89.26,89.26,0,0,1-.76,35.22,94.51,94.51,0,0,1-14,32.36,99.31,99.31,0,0,1-9.68,12c-1.73,1.69-3.33,3.41-5.05,4.86-.84.74-1.64,1.5-2.48,2.18l-2.47,2c-3.23,2.56-6.36,4.58-9,6.51a68.79,68.79,0,0,0-6.54,5.2,37.7,37.7,0,0,0-3.66,3.81c-.4.46-.66.83-.86,1.07l-.31.36s.08-.14.26-.39.44-.64.82-1.11a36.25,36.25,0,0,1,3.61-3.89,68.23,68.23,0,0,1,6.5-5.29c2.63-1.95,5.74-4,8.94-6.56l2.45-2c.83-.69,1.63-1.45,2.47-2.19,1.7-1.45,3.28-3.17,5-4.86a100.34,100.34,0,0,0,9.6-12,94.69,94.69,0,0,0,13.88-32.21,89.22,89.22,0,0,0,.8-35,94.61,94.61,0,0,0-9.1-27.22A90.82,90.82,0,0,0,203.82,98.1c-1.4-1.82-2.64-3.11-3.43-4l-.91-1Z" style="fill:#455a64"></path></g><g id="freepik--Desk--inject-4"><path d="M444.46,472.58c0,.15-87.07.26-194.45.26s-194.47-.11-194.47-.26,87.05-.26,194.47-.26S444.46,472.44,444.46,472.58Z" style="fill:#263238"></path></g></svg>