<svg xmlns="http://www.w3.org/2000/svg" viewBox="0 0 500 500"><g id="freepik--background-simple--inject-130"><path d="M81.51,164.76s-61.64,45.92-65.9,147.06,70,154,128.11,146.37,77.06-37.92,125.21-47.54,129.58,20.6,184.62-33.7,22.86-169.71-32-249.23S183.74,53.2,81.51,164.76Z" style="fill:#90CAF9"></path><path d="M81.51,164.76s-61.64,45.92-65.9,147.06,70,154,128.11,146.37,77.06-37.92,125.21-47.54,129.58,20.6,184.62-33.7,22.86-169.71-32-249.23S183.74,53.2,81.51,164.76Z" style="fill:#fff;opacity:0.7000000000000001"></path></g><g id="freepik--Plants--inject-130"><path d="M361,430.33c1.69.74,5.82.65,5.82.65s-.89-2.71-1-2.87c-.9-1.89-3.77-5-6.1-4.71a2.79,2.79,0,0,0-2.24,3.49C357.9,428.51,359.56,429.71,361,430.33Z" style="fill:#263238"></path><path d="M362.42,442.3c1.75.25,5.44-.82,5.73-.9a50.51,50.51,0,0,0,2.24,6.18c.51,1.18,1.05,2.34,1.62,3.51-.34-.49-.64-.93-.69-1-1.38-1.59-5-3.85-7.13-2.93a2.78,2.78,0,0,0-1.24,4c.8,1.45,2.72,2.17,4.27,2.4s4.74-.62,5.57-.86l.66,1.34c1.07,2.12,2.14,4.24,3.13,6.34.35.75.67,1.49,1,2.24l-.6-.86c-1.38-1.59-5-3.85-7.13-2.93a2.79,2.79,0,0,0-1.24,4c.8,1.45,2.72,2.17,4.27,2.4s4.43-.54,5.42-.82c.31.78.61,1.55.87,2.31.17.52.36,1,.5,1.55s.29,1.05.44,1.57c.24,1,.49,2,.7,3,.16.69.29,1.35.42,2-.34-.75-1-2.19-1.1-2.3-1.12-1.78-4.33-4.56-6.61-4a2.79,2.79,0,0,0-1.82,3.72c.57,1.56,2.36,2.56,3.86,3s5.31.05,5.77,0c.22,1.09.42,2.15.59,3.16.1.54.18,1,.26,1.54h1.46c-.11-.58-.22-1.17-.34-1.79-.22-1.11-.48-2.3-.75-3.51a32,32,0,0,0,3.22-1.51,20.23,20.23,0,0,0,4.69,3c-.42,1-.84,2-1.25,3l-.37.82h1.54l.11-.27c.43-1.05.87-2.18,1.31-3.34.45.09,4.07.83,5.76.45,1.53-.35,3.38-1.21,4.07-2.73a2.79,2.79,0,0,0-1.54-3.85c-2.23-.75-5.64,1.79-6.88,3.48-.08.1-.76,1.27-1.17,2l.53-1.43c.36-1,.68-1.95,1-3,.15-.52.31-1,.46-1.56s.28-1.08.42-1.63c.31-1.27.55-2.58.77-3.9.85.31,3.89,1.37,5.46,1.25s3.53-.68,4.44-2.07a2.79,2.79,0,0,0-.94-4c-2.09-1.08-5.84.91-7.33,2.39-.09.09-1,1.28-1.55,1.94.12-.8.25-1.59.35-2.4.29-2.33.51-4.7.74-7.06.07-.73.15-1.45.23-2.17.3.11,3.88,1.45,5.64,1.32,1.57-.11,3.53-.68,4.44-2.08a2.77,2.77,0,0,0-.94-4c-2.09-1.08-5.84.91-7.33,2.39-.11.11-1.47,1.82-1.8,2.27.17-1.59.35-3.18.59-4.73a50.59,50.59,0,0,1,1.36-6.21c.14.05,3.87,1.46,5.68,1.33,1.56-.11,3.53-.68,4.43-2.07a2.79,2.79,0,0,0-.93-4c-2.09-1.08-5.84.91-7.33,2.39-.12.12-1.59,1.95-1.83,2.3,0-.11.06-.24.1-.36a35,35,0,0,1,2.46-5.88c.53-1.05,1.1-2,1.68-2.95.67.33,3.74,1.83,5.37,1.89s3.59-.29,4.64-1.58a2.78,2.78,0,0,0-.49-4.11c-2-1.3-5.9.26-7.54,1.57-.09.07-.92.9-1.52,1.51.27-.42.54-.86.8-1.25,1-1.48,2-2.78,2.87-3.92.51-.65,1-1.22,1.43-1.75.83,0,4.16-.12,5.61-.8s3-1.91,3.39-3.54a2.77,2.77,0,0,0-2.33-3.42c-2.34-.26-5.12,3-6,4.87-.08.17-.93,2.89-.89,2.89h.05q-.66.75-1.41,1.65c-.92,1.13-1.94,2.41-3,3.87a49.79,49.79,0,0,0-3.07,4.89,35.69,35.69,0,0,0-2.62,5.9s0,0,0,.08c0-.69,0-2.62,0-2.77-.27-2.08-2-6-4.33-6.38a2.78,2.78,0,0,0-3.21,2.62c-.14,1.66,1.06,3.31,2.23,4.36s5,2.32,5.28,2.41a49.68,49.68,0,0,0-1.55,6.39c-.22,1.26-.41,2.54-.58,3.82,0-.6,0-1.13,0-1.21-.27-2.08-2-5.95-4.33-6.38a2.8,2.8,0,0,0-3.22,2.62c-.13,1.66,1.07,3.32,2.24,4.36s4.29,2.1,5.12,2.36c-.06.49-.13,1-.19,1.48-.28,2.36-.55,4.72-.89,7-.12.81-.26,1.61-.41,2.4,0-.53,0-1,0-1-.27-2.08-2-5.95-4.33-6.38a2.79,2.79,0,0,0-3.21,2.62c-.13,1.66,1.07,3.31,2.24,4.36s4,2,5,2.31c-.18.81-.35,1.62-.55,2.4-.15.53-.26,1.05-.44,1.57s-.33,1-.5,1.55c-.35,1-.71,2-1.08,2.92-.25.65-.5,1.27-.75,1.9.12-.81.34-2.4.34-2.53a10.67,10.67,0,0,0-1.45-5.26,2.59,2.59,0,0,0,0-.62,2.78,2.78,0,0,0-3.4-2.36c-2.27.61-3.72,4.6-3.82,6.7,0,.12.07,1.47.14,2.32-.12-.49-.22-1-.35-1.48-.24-1-.51-2-.79-3.08-.15-.51-.31-1-.47-1.55s-.37-1.06-.55-1.59c-.45-1.23-1-2.46-1.51-3.68.88-.21,4-1,5.24-2s2.57-2.51,2.56-4.17a2.79,2.79,0,0,0-3-2.86c-2.34.26-4.37,4-4.79,6,0,.13-.17,1.64-.23,2.47-.33-.73-.66-1.46-1-2.19-1-2.11-2.16-4.2-3.28-6.3l-1-1.93c.31-.08,4-.94,5.43-2,1.25-.95,2.57-2.51,2.56-4.17a2.79,2.79,0,0,0-3-2.86c-2.34.26-4.37,4-4.79,6,0,.16-.23,2.33-.26,2.89-.73-1.42-1.45-2.84-2.11-4.27a49.18,49.18,0,0,1-2.29-5.93c.14,0,4-.92,5.47-2,1.24-.95,2.56-2.52,2.55-4.18a2.78,2.78,0,0,0-3-2.85c-2.34.25-4.37,4-4.79,6,0,.16-.24,2.5-.25,2.93,0-.12-.09-.24-.12-.36a35.46,35.46,0,0,1-1.19-6.26c-.14-1.17-.2-2.29-.23-3.39.74-.09,4.12-.54,5.53-1.39s2.82-2.22,3-3.87a2.78,2.78,0,0,0-2.67-3.16c-2.36,0-4.78,3.47-5.43,5.47,0,.11-.27,1.25-.43,2.09,0-.49,0-1,0-1.48,0-1.78.12-3.41.23-4.85.07-.82.15-1.56.23-2.25.68-.47,3.41-2.39,4.24-3.76s1.49-3.28.88-4.82a2.8,2.8,0,0,0-3.84-1.58c-2.09,1.08-2.64,5.29-2.29,7.37,0,.17.82,2.92.86,2.9l0,0q-.15,1-.27,2.16c-.14,1.44-.29,3.07-.33,4.86a49.58,49.58,0,0,0,.13,5.77,37.07,37.07,0,0,0,1.07,6.36l0,.08c-.37-.58-1.46-2.18-1.56-2.29-1.38-1.59-5-3.85-7.13-2.93a2.79,2.79,0,0,0-1.24,4C359,441.35,360.87,442.07,362.42,442.3Z" style="fill:#263238"></path><path d="M402.77,431.24s.76-2.74.78-2.92c.29-2.08-.37-6.27-2.49-7.3a2.78,2.78,0,0,0-3.79,1.68c-.57,1.56.15,3.48,1,4.79C399.28,429,402.77,431.24,402.77,431.24Z" style="fill:#263238"></path><path d="M24.67,443a14.78,14.78,0,0,0,4.33.48s-.66-2-.72-2.14c-.67-1.41-2.81-3.74-4.54-3.5a2.07,2.07,0,0,0-1.67,2.59A4.35,4.35,0,0,0,24.67,443Z" style="fill:#263238"></path><path d="M25.73,451.92a14.16,14.16,0,0,0,4.26-.67,38.15,38.15,0,0,0,1.67,4.61q.57,1.31,1.2,2.61c-.25-.37-.47-.7-.51-.74-1-1.18-3.7-2.87-5.31-2.18a2.07,2.07,0,0,0-.92,2.94,4.33,4.33,0,0,0,3.18,1.79,14,14,0,0,0,4.15-.63c.16.33.32.66.49,1,.79,1.58,1.59,3.16,2.33,4.72.26.56.49,1.11.73,1.66l-.44-.63c-1-1.18-3.7-2.87-5.31-2.18a2.07,2.07,0,0,0-.92,2.94,4.31,4.31,0,0,0,3.18,1.79,13.13,13.13,0,0,0,4-.61c.23.58.46,1.15.65,1.72.12.39.27.76.37,1.15s.22.79.33,1.17c.18.75.37,1.52.52,2.25.11.51.21,1,.31,1.49-.25-.55-.77-1.62-.82-1.71-.83-1.32-3.22-3.39-4.92-3a2.07,2.07,0,0,0-1.35,2.77,4.32,4.32,0,0,0,2.87,2.25,14.27,14.27,0,0,0,4.29,0c.17.81.32,1.61.45,2.36.07.39.13.77.19,1.14h1.08c-.08-.43-.16-.87-.25-1.33-.16-.83-.35-1.71-.56-2.61a21.12,21.12,0,0,0,2.4-1.13,14.84,14.84,0,0,0,3.49,2.25c-.31.77-.63,1.52-.93,2.21l-.27.61h1.14l.09-.2c.32-.78.64-1.62,1-2.49a14.3,14.3,0,0,0,4.28.34,4.36,4.36,0,0,0,3-2,2.07,2.07,0,0,0-1.14-2.87c-1.66-.55-4.2,1.33-5.12,2.59-.06.07-.56.95-.87,1.5l.39-1.06c.27-.72.51-1.45.78-2.24.11-.38.23-.76.34-1.15s.21-.81.31-1.22c.23-.95.41-1.92.57-2.9a13.51,13.51,0,0,0,4.07.93,4.34,4.34,0,0,0,3.3-1.54,2.07,2.07,0,0,0-.7-3c-1.55-.8-4.34.68-5.45,1.78-.07.07-.78.95-1.16,1.44.1-.59.19-1.18.27-1.78.21-1.74.38-3.5.55-5.26.05-.54.11-1.08.16-1.61a14.79,14.79,0,0,0,4.21,1,4.35,4.35,0,0,0,3.3-1.54,2.08,2.08,0,0,0-.7-3c-1.55-.8-4.35.68-5.45,1.78-.09.08-1.1,1.35-1.34,1.69.12-1.18.26-2.36.44-3.52a34.1,34.1,0,0,1,1-4.62,14.73,14.73,0,0,0,4.22,1,4.3,4.3,0,0,0,3.3-1.55,2.07,2.07,0,0,0-.69-3c-1.56-.8-4.35.68-5.46,1.78-.09.09-1.18,1.45-1.36,1.71a2.13,2.13,0,0,0,.07-.27,27.41,27.41,0,0,1,1.83-4.37c.4-.78.83-1.51,1.26-2.2a13.82,13.82,0,0,0,4,1.41,4.36,4.36,0,0,0,3.45-1.18,2.07,2.07,0,0,0-.36-3.06c-1.46-1-4.4.2-5.62,1.17-.07.05-.69.67-1.13,1.12l.59-.93c.74-1.1,1.48-2.07,2.14-2.92.38-.48.73-.9,1.07-1.3a13.73,13.73,0,0,0,4.17-.59,4.37,4.37,0,0,0,2.53-2.64,2.08,2.08,0,0,0-1.74-2.55c-1.74-.18-3.81,2.2-4.45,3.63-.05.12-.69,2.15-.66,2.15h0c-.33.38-.68.78-1,1.23-.68.84-1.44,1.79-2.2,2.88a38.87,38.87,0,0,0-2.29,3.64,27.49,27.49,0,0,0-1.95,4.39s0,0,0,.06c0-.51,0-1.95,0-2.06-.2-1.55-1.5-4.43-3.23-4.75a2.08,2.08,0,0,0-2.39,1.95,4.35,4.35,0,0,0,1.67,3.25,14.77,14.77,0,0,0,3.92,1.79,37.59,37.59,0,0,0-1.15,4.76c-.16.94-.3,1.89-.43,2.84,0-.44,0-.84,0-.9-.21-1.55-1.51-4.43-3.23-4.75a2.08,2.08,0,0,0-2.39,1.95,4.32,4.32,0,0,0,1.67,3.25,13.83,13.83,0,0,0,3.8,1.76c0,.36-.09.73-.13,1.09-.21,1.76-.42,3.52-.67,5.23-.08.61-.19,1.2-.3,1.79,0-.39,0-.73,0-.78-.2-1.55-1.5-4.43-3.23-4.74a2.07,2.07,0,0,0-2.39,2,4.35,4.35,0,0,0,1.67,3.24,13.37,13.37,0,0,0,3.7,1.72c-.13.6-.26,1.21-.41,1.79-.11.39-.19.78-.33,1.17l-.37,1.15c-.26.72-.53,1.47-.8,2.17-.19.49-.38,1-.56,1.41.09-.6.25-1.78.25-1.88A7.88,7.88,0,0,0,45.89,471a1.75,1.75,0,0,0,0-.46,2.07,2.07,0,0,0-2.53-1.76c-1.69.45-2.77,3.42-2.85,5,0,.1.06,1.1.11,1.74-.09-.37-.17-.73-.26-1.11-.18-.75-.37-1.49-.59-2.29-.11-.38-.23-.77-.35-1.16s-.27-.78-.41-1.18c-.33-.92-.71-1.83-1.12-2.74a13.55,13.55,0,0,0,3.9-1.46,4.31,4.31,0,0,0,1.9-3.11,2.06,2.06,0,0,0-2.23-2.12c-1.75.19-3.26,3-3.57,4.49,0,.1-.13,1.22-.17,1.84-.25-.54-.49-1.09-.76-1.63-.78-1.57-1.62-3.13-2.45-4.69l-.75-1.44a14.25,14.25,0,0,0,4.05-1.5,4.31,4.31,0,0,0,1.9-3.11,2.07,2.07,0,0,0-2.24-2.12c-1.74.19-3.25,3-3.57,4.49,0,.12-.17,1.74-.18,2.15-.55-1.05-1.09-2.11-1.57-3.18a34.24,34.24,0,0,1-1.71-4.41,14.89,14.89,0,0,0,4.07-1.5,4.36,4.36,0,0,0,1.9-3.11,2.09,2.09,0,0,0-2.24-2.13c-1.74.19-3.25,3-3.57,4.5,0,.12-.18,1.86-.19,2.18a2,2,0,0,0-.09-.26,26.93,26.93,0,0,1-.88-4.67c-.1-.87-.14-1.7-.17-2.52a14,14,0,0,0,4.11-1,4.33,4.33,0,0,0,2.23-2.89,2.07,2.07,0,0,0-2-2.35c-1.75,0-3.56,2.59-4,4.07,0,.09-.2.94-.32,1.56,0-.37,0-.75,0-1.1,0-1.33.09-2.54.17-3.61.05-.61.11-1.16.17-1.68a13.83,13.83,0,0,0,3.16-2.8,4.29,4.29,0,0,0,.65-3.58,2.07,2.07,0,0,0-2.85-1.18c-1.56.81-2,3.94-1.71,5.48,0,.14.61,2.18.64,2.16l0,0c-.07.5-.14,1-.2,1.61-.11,1.07-.22,2.29-.25,3.62a39.5,39.5,0,0,0,.1,4.29,27.47,27.47,0,0,0,.8,4.74.08.08,0,0,0,0,.05c-.28-.43-1.09-1.61-1.16-1.7-1-1.18-3.7-2.86-5.31-2.18a2.08,2.08,0,0,0-.92,2.95A4.31,4.31,0,0,0,25.73,451.92Z" style="fill:#263238"></path><path d="M55.77,443.69s.55-2,.57-2.17c.22-1.55-.28-4.67-1.85-5.43a2.07,2.07,0,0,0-2.82,1.25,4.27,4.27,0,0,0,.75,3.56A14.54,14.54,0,0,0,55.77,443.69Z" style="fill:#263238"></path></g><g id="freepik--Clouds--inject-130"><path d="M348.27,63.49h-122a.48.48,0,0,1-.4-.2.47.47,0,0,1-.08-.44c.1-.31,2.41-7.61,9.87-9.49a16.82,16.82,0,0,1,9.28.26,9.73,9.73,0,0,0,5.26.35,6.27,6.27,0,0,0,3.66-2.68c1.37-1.68,3.26-4,8.53-7,5.58-3.23,9-2,12.24-.78,2.44.89,4.76,1.74,8,.73,3-.92,4.11-2.8,5.45-5,2-3.33,4.35-7.09,13.69-7.85,14.31-1.15,23.77,14.42,25,16.5a32.25,32.25,0,0,0,4.62.14,33.66,33.66,0,0,1,10.3,1.06c7,1.91,7.09,13.42,7.09,13.9A.5.5,0,0,1,348.27,63.49ZM227,62.49H347.75c-.1-2.19-.83-10.93-6.33-12.43a32.2,32.2,0,0,0-10-1,32.37,32.37,0,0,1-5-.18.49.49,0,0,1-.38-.26c-.09-.17-9.53-17.39-24.13-16.2C293,33.1,291,36.49,289,39.76c-1.39,2.26-2.69,4.39-6,5.42-3.57,1.11-6.15.16-8.65-.76-3.2-1.17-6.22-2.27-11.39.71s-6.93,5.17-8.26,6.79a7.2,7.2,0,0,1-4.17,3,10.68,10.68,0,0,1-5.77-.35,16,16,0,0,0-8.79-.26C230.27,55.75,227.75,60.71,227,62.49Z" style="fill:#263238"></path><path d="M249.46,41.54H181.77a.54.54,0,0,1-.41-.2.52.52,0,0,1-.07-.45,8.39,8.39,0,0,1,5.63-5.41,9.6,9.6,0,0,1,5.26.14,5.22,5.22,0,0,0,2.81.2,3.32,3.32,0,0,0,1.92-1.42,15,15,0,0,1,4.79-3.95,7.09,7.09,0,0,1,7-.45,6,6,0,0,0,4.3.41,5,5,0,0,0,2.9-2.67c1.16-1.89,2.48-4,7.77-4.46,8-.64,13.13,7.64,14,9.17a19.41,19.41,0,0,0,2.42.06,18.61,18.61,0,0,1,5.78.6c4,1.1,4.09,7.65,4.09,7.93A.5.5,0,0,1,249.46,41.54Zm-67-1h66.43c-.09-1.47-.59-5.72-3.33-6.47a17.87,17.87,0,0,0-5.5-.56,17.73,17.73,0,0,1-2.82-.1.52.52,0,0,1-.38-.26c0-.09-5.21-9.53-13.18-8.88-4.79.39-5.91,2.22-7,4a5.94,5.94,0,0,1-3.45,3.1,7,7,0,0,1-4.94-.42,6.11,6.11,0,0,0-6.14.38A14.31,14.31,0,0,0,197.68,35a4.21,4.21,0,0,1-2.43,1.75,6.08,6.08,0,0,1-3.32-.19,8.56,8.56,0,0,0-4.76-.14A7.22,7.22,0,0,0,182.51,40.54Z" style="fill:#263238"></path><path d="M478.7,149.7H411a.51.51,0,0,1-.41-.2.49.49,0,0,1-.07-.44,8.38,8.38,0,0,1,5.63-5.42,9.6,9.6,0,0,1,5.26.14,5.13,5.13,0,0,0,2.81.2,3.28,3.28,0,0,0,1.92-1.42,15.13,15.13,0,0,1,4.79-3.95,7.09,7.09,0,0,1,7-.44,6.08,6.08,0,0,0,4.3.4,5,5,0,0,0,2.9-2.67c1.16-1.89,2.48-4,7.77-4.46,8-.64,13.13,7.64,14,9.17a17.66,17.66,0,0,0,2.42.06,19.21,19.21,0,0,1,5.78.6c4.05,1.11,4.09,7.65,4.09,7.93A.5.5,0,0,1,478.7,149.7Zm-66.95-1h66.43c-.09-1.47-.59-5.72-3.33-6.46a17.94,17.94,0,0,0-5.5-.57,17.73,17.73,0,0,1-2.82-.1.49.49,0,0,1-.38-.26c0-.09-5.2-9.53-13.18-8.87-4.79.38-5.91,2.21-7,4a5.91,5.91,0,0,1-3.45,3.1,7,7,0,0,1-4.94-.42,6.14,6.14,0,0,0-6.14.38,14.3,14.3,0,0,0-4.52,3.72,4.2,4.2,0,0,1-2.43,1.74,6,6,0,0,1-3.31-.19,8.69,8.69,0,0,0-4.77-.14A7.24,7.24,0,0,0,411.75,148.7Z" style="fill:#263238"></path></g><g id="freepik--Sun--inject-130"><circle cx="428.39" cy="63.18" r="21.26" style="fill:#fff"></circle><path d="M428.31,85.27A22.39,22.39,0,1,1,450,57.13a.51.51,0,0,1-.36.62.51.51,0,0,1-.61-.36,21.41,21.41,0,1,0,.71,5.49q0-.63,0-1.23a.49.49,0,0,1,.47-.53.5.5,0,0,1,.53.47c0,.43,0,.85,0,1.29A22.42,22.42,0,0,1,428.31,85.27Z" style="fill:#263238"></path><path d="M468.79,63.38H456.16a.5.5,0,0,1-.5-.5.5.5,0,0,1,.5-.5h12.63a.5.5,0,0,1,.5.5A.51.51,0,0,1,468.79,63.38Z" style="fill:#263238"></path><path d="M400.46,63.38H387.83a.51.51,0,0,1-.5-.5.5.5,0,0,1,.5-.5h12.63a.5.5,0,0,1,.5.5A.5.5,0,0,1,400.46,63.38Z" style="fill:#263238"></path><path d="M448,43.69a.49.49,0,0,1-.35-.15.5.5,0,0,1,0-.71l8.93-8.93a.5.5,0,1,1,.71.71l-8.94,8.93A.47.47,0,0,1,448,43.69Z" style="fill:#263238"></path><path d="M399.69,92a.47.47,0,0,1-.35-.15.48.48,0,0,1,0-.7l8.93-8.94a.5.5,0,0,1,.7,0,.5.5,0,0,1,0,.71L400,91.85A.47.47,0,0,1,399.69,92Z" style="fill:#263238"></path><path d="M408.62,43.69a.49.49,0,0,1-.35-.15l-2-2a.48.48,0,0,1,0-.7.5.5,0,0,1,.71,0l2,2a.5.5,0,0,1,0,.71A.47.47,0,0,1,408.62,43.69Z" style="fill:#263238"></path><path d="M404.69,39.75a.54.54,0,0,1-.36-.14l-5-5a.5.5,0,0,1,0-.71.5.5,0,0,1,.7,0l5,5a.5.5,0,0,1,0,.71A.54.54,0,0,1,404.69,39.75Z" style="fill:#263238"></path><path d="M456.93,92a.49.49,0,0,1-.35-.15l-8.93-8.93a.5.5,0,0,1,0-.71.5.5,0,0,1,.7,0l8.94,8.94a.5.5,0,0,1,0,.7A.51.51,0,0,1,456.93,92Z" style="fill:#263238"></path><path d="M428.31,35.53a.5.5,0,0,1-.5-.5V22.4a.5.5,0,0,1,.5-.5.5.5,0,0,1,.5.5V35A.5.5,0,0,1,428.31,35.53Z" style="fill:#263238"></path><path d="M428.31,103.85a.5.5,0,0,1-.5-.5V90.72a.51.51,0,0,1,.5-.5.5.5,0,0,1,.5.5v12.63A.5.5,0,0,1,428.31,103.85Z" style="fill:#263238"></path></g><g id="freepik--Bench--inject-130"><rect x="115.71" y="339.2" width="6.17" height="140.39" style="fill:#263238"></rect><path d="M121.88,480.09h-6.17a.5.5,0,0,1-.5-.5V339.2a.51.51,0,0,1,.5-.5h6.17a.5.5,0,0,1,.5.5V479.59A.5.5,0,0,1,121.88,480.09Zm-5.67-1h5.17V339.7h-5.17Z" style="fill:#263238"></path><rect x="287.38" y="339.2" width="6.17" height="140.39" style="fill:#263238"></rect><path d="M293.55,480.09h-6.17a.5.5,0,0,1-.5-.5V339.2a.5.5,0,0,1,.5-.5h6.17a.51.51,0,0,1,.5.5V479.59A.5.5,0,0,1,293.55,480.09Zm-5.67-1h5.17V339.7h-5.17Z" style="fill:#263238"></path><rect x="237.97" y="403.71" width="6.17" height="75.89" style="fill:#263238"></rect><path d="M244.14,480.09H238a.5.5,0,0,1-.5-.5V403.71a.5.5,0,0,1,.5-.5h6.17a.5.5,0,0,1,.5.5v75.88A.5.5,0,0,1,244.14,480.09Zm-5.67-1h5.17V404.21h-5.17Z" style="fill:#263238"></path><rect x="62" y="403.71" width="6.17" height="75.89" style="fill:#263238"></rect><path d="M68.17,480.09H62a.5.5,0,0,1-.5-.5V403.71a.5.5,0,0,1,.5-.5h6.17a.5.5,0,0,1,.5.5v75.88A.5.5,0,0,1,68.17,480.09Zm-5.67-1h5.17V404.21H62.5Z" style="fill:#263238"></path><rect x="100.65" y="329.5" width="203.44" height="20.38" style="fill:#fff"></rect><path d="M304.09,350.38H100.65a.5.5,0,0,1-.5-.5V329.5a.5.5,0,0,1,.5-.5H304.09a.5.5,0,0,1,.5.5v20.38A.5.5,0,0,1,304.09,350.38Zm-202.94-1H303.59V330H101.15Z" style="fill:#263238"></path><rect x="100.65" y="353.76" width="203.44" height="20.38" style="fill:#fff"></rect><path d="M304.09,374.65H100.65a.5.5,0,0,1-.5-.5V353.76a.5.5,0,0,1,.5-.5H304.09a.51.51,0,0,1,.5.5v20.39A.51.51,0,0,1,304.09,374.65Zm-202.94-1H303.59V354.26H101.15Z" style="fill:#263238"></path><rect x="98.1" y="329.5" width="203.44" height="20.38" style="fill:#fff"></rect><path d="M301.54,350.38H98.1a.5.5,0,0,1-.5-.5V329.5a.5.5,0,0,1,.5-.5H301.54a.5.5,0,0,1,.5.5v20.38A.5.5,0,0,1,301.54,350.38Zm-202.94-1H301V330H98.6Z" style="fill:#263238"></path><rect x="98.1" y="353.76" width="203.44" height="20.38" style="fill:#fff"></rect><path d="M301.54,374.65H98.1a.5.5,0,0,1-.5-.5V353.76a.5.5,0,0,1,.5-.5H301.54a.5.5,0,0,1,.5.5v20.39A.5.5,0,0,1,301.54,374.65Zm-202.94-1H301V354.26H98.6Z" style="fill:#263238"></path><rect x="49.66" y="401.33" width="254.42" height="6.79" style="fill:#fff"></rect><path d="M304.09,408.62H49.66a.5.5,0,0,1-.5-.5v-6.79a.5.5,0,0,1,.5-.5H304.09a.5.5,0,0,1,.5.5v6.79A.5.5,0,0,1,304.09,408.62Zm-253.93-1H303.59v-5.79H50.16Z" style="fill:#263238"></path><rect x="255.67" y="401.33" width="48.42" height="6.79" style="fill:#fff"></rect><path d="M304.09,408.62H255.67a.5.5,0,0,1-.5-.5v-6.79a.5.5,0,0,1,.5-.5h48.42a.5.5,0,0,1,.5.5v6.79A.5.5,0,0,1,304.09,408.62Zm-47.92-1h47.42v-5.79H256.17Z" style="fill:#263238"></path><path d="M280.58,408.42a.5.5,0,0,1-.5-.5v-6.51a.5.5,0,0,1,.5-.5.5.5,0,0,1,.5.5v6.51A.5.5,0,0,1,280.58,408.42Z" style="fill:#263238"></path><path d="M282.54,408.42a.5.5,0,0,1-.5-.5v-6.51a.5.5,0,0,1,.5-.5.5.5,0,0,1,.5.5v6.51A.5.5,0,0,1,282.54,408.42Z" style="fill:#263238"></path></g><g id="freepik--Badge--inject-130"><circle cx="275.57" cy="178.76" r="13.27" style="fill:#fff"></circle><path d="M275.12,197.8c-1.1,0-1.82-1.31-2.52-2.57-.45-.82-1-1.83-1.46-1.95s-1.51.48-2.34,1c-1.26.76-2.45,1.47-3.37.94s-.9-1.94-.87-3.43c0-1,0-2.13-.3-2.47s-1.53-.33-2.48-.31c-1.49,0-2.89.06-3.43-.87s.19-2.11.95-3.37c.49-.83,1.11-1.85,1-2.34s-1.14-1-2-1.46c-1.26-.7-2.56-1.42-2.56-2.51s1.3-1.82,2.56-2.52c.82-.45,1.84-1,2-1.46s-.49-1.51-1-2.34c-.76-1.26-1.48-2.45-.95-3.37s1.94-.89,3.43-.87c1,0,2.13,0,2.48-.3s.32-1.53.3-2.48c0-1.49-.05-2.89.87-3.43s2.11.19,3.37,1c.83.49,1.85,1.11,2.34,1s1-1.14,1.46-2c.7-1.26,1.42-2.56,2.52-2.56s1.81,1.3,2.51,2.56c.45.82,1,1.84,1.46,2s1.52-.49,2.34-1c1.26-.76,2.46-1.48,3.37-1s.9,1.94.87,3.43c0,1,0,2.13.31,2.48s1.52.32,2.47.3c1.5,0,2.9,0,3.43.87s-.18,2.11-.94,3.37c-.5.83-1.11,1.85-1,2.34s1.13,1,2,1.46c1.26.7,2.57,1.42,2.57,2.52s-1.31,1.81-2.57,2.51c-.82.45-1.83,1-2,1.46s.48,1.52,1,2.34c.76,1.26,1.47,2.46.94,3.37s-1.94.9-3.43.87c-.95,0-2.13,0-2.47.31s-.32,1.52-.31,2.47c0,1.49.06,2.9-.87,3.43s-2.11-.18-3.37-.94c-.83-.5-1.85-1.11-2.34-1s-1,1.13-1.46,1.95C276.93,196.49,276.21,197.8,275.12,197.8ZM271,192.26a1.83,1.83,0,0,1,.4.05c.86.23,1.45,1.3,2.08,2.44.48.86,1.13,2.05,1.64,2.05s1.16-1.19,1.64-2.05c.62-1.14,1.22-2.21,2.08-2.44s2,.41,3.1,1.09c.83.5,2,1.17,2.36.94s.39-1.57.37-2.55c0-1.31,0-2.56.6-3.2s1.89-.62,3.2-.6c1,0,2.31,0,2.55-.37s-.45-1.53-.94-2.36c-.68-1.13-1.33-2.21-1.09-3.1s1.3-1.46,2.44-2.08c.86-.48,2.05-1.14,2.05-1.64s-1.19-1.16-2.05-1.64c-1.14-.63-2.21-1.22-2.44-2.08s.41-2,1.09-3.11c.5-.82,1.17-2,.94-2.36s-1.58-.39-2.55-.37c-1.31,0-2.56.05-3.2-.6s-.62-1.88-.6-3.2c0-1,.05-2.3-.37-2.54s-1.53.44-2.36.93c-1.13.69-2.21,1.33-3.1,1.09s-1.46-1.3-2.08-2.43c-.48-.87-1.14-2-1.64-2s-1.16,1.18-1.64,2c-.63,1.13-1.22,2.2-2.08,2.43s-2-.4-3.11-1.09c-.82-.49-2-1.17-2.35-.94s-.4,1.58-.38,2.55c0,1.32.05,2.56-.6,3.2s-1.88.62-3.2.6c-1,0-2.3,0-2.54.37s.44,1.54.93,2.36c.69,1.14,1.33,2.21,1.09,3.11s-1.3,1.45-2.43,2.08c-.87.48-2.05,1.13-2.05,1.64s1.18,1.16,2.05,1.64c1.13.62,2.2,1.22,2.43,2.08s-.4,2-1.09,3.1c-.49.83-1.17,2-.94,2.36s1.58.39,2.55.37c1.32,0,2.56,0,3.2.6s.62,1.89.6,3.2c0,1,0,2.31.37,2.55s1.54-.45,2.36-.94A6.13,6.13,0,0,1,271,192.26Z" style="fill:#263238"></path><path d="M275.12,191.71a13.28,13.28,0,1,1,13.27-13.27A13.29,13.29,0,0,1,275.12,191.71Zm0-25.55a12.28,12.28,0,1,0,12.27,12.28A12.3,12.3,0,0,0,275.12,166.16Z" style="fill:#263238"></path><path d="M284.45,216.92a.5.5,0,0,1-.33-.12l-9.87-8.89-11.88,8.66a.5.5,0,0,1-.78-.54l5.75-19.36a.51.51,0,0,1,.62-.34.5.5,0,0,1,.34.62l-5.33,18,11-8a.5.5,0,0,1,.63,0l9.21,8.28-2-19a.5.5,0,0,1,.44-.55.48.48,0,0,1,.55.44L285,216.37a.51.51,0,0,1-.27.5A.46.46,0,0,1,284.45,216.92Z" style="fill:#263238"></path><path d="M274.79,186.66h-.08a.51.51,0,0,1-.42-.57l2.09-13-6.12,4.8a.49.49,0,0,1-.7-.08.5.5,0,0,1,.09-.7l7.12-5.6a.5.5,0,0,1,.56,0,.49.49,0,0,1,.24.51l-2.29,14.24A.5.5,0,0,1,274.79,186.66Z" style="fill:#263238"></path><path d="M277.84,187.93h-.08l-6.61-1a.5.5,0,1,1,.15-1l6.62,1a.49.49,0,0,1,.41.57A.5.5,0,0,1,277.84,187.93Z" style="fill:#263238"></path><path d="M70.55,293.79a50.68,50.68,0,0,1-7.27-.43.5.5,0,1,1,.16-1c.29,0,29.44,4.49,55.3-16.67a.5.5,0,0,1,.7.07.5.5,0,0,1-.07.71A77.46,77.46,0,0,1,70.55,293.79Z" style="fill:#263238"></path></g><g id="freepik--Arrow--inject-130"><path d="M194.06,189.83l-.15,0a.48.48,0,0,1-.29-.25l-9.7-18.7a.49.49,0,0,1,.21-.67L213.49,155l-2.82-5.44a.5.5,0,0,1,0-.5.46.46,0,0,1,.44-.23l34.29,1.56a.48.48,0,0,1,.42.27.52.52,0,0,1,0,.5L227.34,180a.52.52,0,0,1-.45.23.48.48,0,0,1-.42-.27l-2.82-5.44L203.9,184.79a.5.5,0,0,1-.67-.21.51.51,0,0,1,.21-.68l20.19-10.46a.5.5,0,0,1,.68.21l2.65,5.12,17.56-27.46L212,149.83l2.65,5.12a.5.5,0,0,1,0,.38.51.51,0,0,1-.25.29L185,170.84l9.23,17.82,6.2-3.21a.49.49,0,0,1,.67.21.5.5,0,0,1-.21.67l-6.64,3.44A.46.46,0,0,1,194.06,189.83Z" style="fill:#263238"></path><path d="M242.47,161a.45.45,0,0,1-.27-.08.49.49,0,0,1-.15-.68l2.57-4.09a.51.51,0,0,1,.69-.16.49.49,0,0,1,.16.69l-2.58,4.09A.49.49,0,0,1,242.47,161Z" style="fill:#263238"></path><path d="M193.09,195.17a.41.41,0,0,1-.16,0,.48.48,0,0,1-.29-.25l-9.91-20a.5.5,0,0,1,.23-.67.51.51,0,0,1,.67.23L193.31,194l28.83-15.17a.53.53,0,0,1,.39,0,.5.5,0,0,1,.29.26l3.13,6.66,13.55-21.48a.51.51,0,0,1,.69-.16.5.5,0,0,1,.15.69l-14,22.26a.5.5,0,0,1-.87-.06l-3.3-7-28.82,15.17A.59.59,0,0,1,193.09,195.17Z" style="fill:#263238"></path></g><g id="freepik--Suns--inject-130"><circle cx="138.92" cy="246.9" r="13.27" style="fill:#fff"></circle><path d="M138.87,260.87a14.16,14.16,0,1,1,13.69-17.79.5.5,0,1,1-1,.25,13.16,13.16,0,1,0,.44,3.38c0-.26,0-.51,0-.76a.5.5,0,0,1,.47-.53.49.49,0,0,1,.52.47c0,.27,0,.54,0,.82A14.18,14.18,0,0,1,138.87,260.87Z" style="fill:#263238"></path><path d="M164.13,247.21h-7.89a.51.51,0,0,1-.5-.5.5.5,0,0,1,.5-.5h7.89a.5.5,0,0,1,.5.5A.51.51,0,0,1,164.13,247.21Z" style="fill:#263238"></path><path d="M121.49,247.21h-7.88a.5.5,0,0,1-.5-.5.5.5,0,0,1,.5-.5h7.88a.5.5,0,0,1,.5.5A.5.5,0,0,1,121.49,247.21Z" style="fill:#263238"></path><path d="M151.15,234.92a.5.5,0,0,1-.35-.85l5.57-5.58a.51.51,0,0,1,.71,0,.5.5,0,0,1,0,.71l-5.57,5.57A.51.51,0,0,1,151.15,234.92Z" style="fill:#263238"></path><path d="M121,265.07a.51.51,0,0,1-.36-.15.51.51,0,0,1,0-.71l5.58-5.57a.5.5,0,0,1,.7,0,.5.5,0,0,1,0,.71l-5.57,5.57A.5.5,0,0,1,121,265.07Z" style="fill:#263238"></path><path d="M126.58,234.92a.47.47,0,0,1-.35-.15L125,233.54a.5.5,0,0,1,.71-.71l1.23,1.24a.48.48,0,0,1,0,.7A.47.47,0,0,1,126.58,234.92Z" style="fill:#263238"></path><path d="M124.13,232.46a.5.5,0,0,1-.36-.14l-3.12-3.12a.5.5,0,1,1,.71-.71l3.12,3.12a.51.51,0,0,1,0,.71A.49.49,0,0,1,124.13,232.46Z" style="fill:#263238"></path><path d="M156.73,265.07a.51.51,0,0,1-.36-.15l-5.57-5.57a.5.5,0,0,1,.71-.71l5.57,5.57a.5.5,0,0,1,0,.71A.49.49,0,0,1,156.73,265.07Z" style="fill:#263238"></path><path d="M138.87,229.83a.5.5,0,0,1-.5-.5v-7.88a.5.5,0,0,1,.5-.5.5.5,0,0,1,.5.5v7.88A.5.5,0,0,1,138.87,229.83Z" style="fill:#263238"></path><path d="M138.87,272.47a.5.5,0,0,1-.5-.5v-7.89a.5.5,0,0,1,.5-.5.51.51,0,0,1,.5.5V272A.51.51,0,0,1,138.87,272.47Z" style="fill:#263238"></path><path d="M137.29,118.15a9.39,9.39,0,1,0,.31,2.4c0-.18,0-.36,0-.54" style="fill:#fff"></path><path d="M128.23,131.38a10.83,10.83,0,1,1,10.47-13.61.51.51,0,0,1-.36.62.5.5,0,0,1-.61-.36,9.83,9.83,0,1,0,.33,2.52c0-.19,0-.38,0-.56a.5.5,0,0,1,.47-.53.48.48,0,0,1,.53.47c0,.21,0,.41,0,.62A10.84,10.84,0,0,1,128.23,131.38Z" style="fill:#263238"></path><path d="M147.33,121.05h-6a.5.5,0,0,1-.5-.5.5.5,0,0,1,.5-.5h6a.5.5,0,0,1,.5.5A.5.5,0,0,1,147.33,121.05Z" style="fill:#263238"></path><path d="M115.09,121.05h-6a.5.5,0,0,1-.5-.5.5.5,0,0,1,.5-.5h6a.51.51,0,0,1,.5.5A.5.5,0,0,1,115.09,121.05Z" style="fill:#263238"></path><path d="M137.52,111.76a.47.47,0,0,1-.35-.15.48.48,0,0,1,0-.7l4.21-4.22a.5.5,0,1,1,.71.71l-4.22,4.21A.47.47,0,0,1,137.52,111.76Z" style="fill:#263238"></path><path d="M114.72,134.56a.5.5,0,0,1-.35-.85l4.21-4.22a.5.5,0,0,1,.71.71l-4.22,4.21A.47.47,0,0,1,114.72,134.56Z" style="fill:#263238"></path><path d="M118.94,111.76a.51.51,0,0,1-.36-.15l-.93-.93a.5.5,0,0,1,0-.71.51.51,0,0,1,.71,0l.93.94a.5.5,0,0,1-.35.85Z" style="fill:#263238"></path><path d="M117.08,109.9a.5.5,0,0,1-.35-.14l-2.36-2.36a.5.5,0,0,1,0-.71.5.5,0,0,1,.7,0l2.36,2.36a.5.5,0,0,1-.35.85Z" style="fill:#263238"></path><path d="M141.74,134.56a.51.51,0,0,1-.36-.15l-4.21-4.21a.5.5,0,0,1,0-.71.5.5,0,0,1,.7,0l4.22,4.22a.5.5,0,0,1-.35.85Z" style="fill:#263238"></path><path d="M128.23,107.91a.5.5,0,0,1-.5-.5v-6a.5.5,0,0,1,.5-.5.5.5,0,0,1,.5.5v6A.5.5,0,0,1,128.23,107.91Z" style="fill:#263238"></path><path d="M128.23,140.15a.5.5,0,0,1-.5-.5v-6a.5.5,0,0,1,.5-.5.51.51,0,0,1,.5.5v6A.5.5,0,0,1,128.23,140.15Z" style="fill:#263238"></path></g><g id="freepik--Symbols--inject-130"><path d="M195.57,225a.5.5,0,0,1-.5-.5v-2.46h-4.93a6.42,6.42,0,1,1,0-12.84h4.93v-4.93a6.42,6.42,0,0,1,12.38-2.39.5.5,0,0,1-.28.65.5.5,0,0,1-.65-.28,5.42,5.42,0,0,0-10.45,2v5.43a.51.51,0,0,1-.5.5h-5.43a5.42,5.42,0,1,0,0,10.84h5.43a.5.5,0,0,1,.5.5v3A.51.51,0,0,1,195.57,225Z" style="fill:#263238"></path><path d="M201.49,233.4a6.43,6.43,0,0,1-6.42-6.42.5.5,0,0,1,.5-.5.5.5,0,0,1,.5.5,5.42,5.42,0,1,0,10.84,0v-5.43a.5.5,0,0,1,.5-.5h5.43a5.42,5.42,0,1,0,0-10.84h-5.43a.5.5,0,0,1-.5-.5v-5.43a.5.5,0,0,1,1,0v4.93h4.93a6.42,6.42,0,0,1,0,12.84h-4.93V227A6.43,6.43,0,0,1,201.49,233.4Z" style="fill:#263238"></path><path d="M103.54,161.85a4.15,4.15,0,0,1-4.14-4.14v-2.83H97.81a.51.51,0,0,1-.5-.5.5.5,0,0,1,.5-.5H99.9a.5.5,0,0,1,.5.5v3.33a3.14,3.14,0,1,0,6.28,0v-3.33a.5.5,0,0,1,.5-.5h3.33a3.14,3.14,0,0,0,0-6.28h-3.33a.5.5,0,0,1-.5-.5v-3.33a3.14,3.14,0,1,0-6.28,0v3.33a.5.5,0,0,1-.5.5H96.57a3.14,3.14,0,0,0-1.22,6,.5.5,0,0,1,.26.66.5.5,0,0,1-.65.26,4.14,4.14,0,0,1,1.61-8H99.4v-2.83a4.14,4.14,0,1,1,8.28,0v2.83h2.83a4.14,4.14,0,1,1,0,8.28h-2.83v2.83A4.15,4.15,0,0,1,103.54,161.85Z" style="fill:#263238"></path><path d="M254.29,123H251v-3.34a3.64,3.64,0,1,0-7.27,0V123h-3.34a3.63,3.63,0,0,0-3.63,3.63h0a3.64,3.64,0,0,0,3.63,3.64h3.34v3.33a3.64,3.64,0,1,0,7.27,0v-3.33h3.34a3.64,3.64,0,0,0,3.64-3.64h0A3.63,3.63,0,0,0,254.29,123Z" style="fill:#90CAF9"></path><path d="M247.32,137.73a4.14,4.14,0,0,1-4.14-4.14v-2.83h-2.84a4.14,4.14,0,0,1,0-8.27h2.84v-2.84a4.14,4.14,0,1,1,8.27,0v2.84h2.84a4.14,4.14,0,0,1,0,8.27h-2.84v2.83A4.13,4.13,0,0,1,247.32,137.73Zm-7-14.24a3.14,3.14,0,0,0,0,6.27h3.34a.5.5,0,0,1,.5.5v3.33a3.14,3.14,0,1,0,6.27,0v-3.33a.5.5,0,0,1,.5-.5h3.34a3.14,3.14,0,0,0,0-6.27H251a.51.51,0,0,1-.5-.5v-3.34a3.14,3.14,0,1,0-6.27,0V123a.51.51,0,0,1-.5.5Z" style="fill:#263238"></path><path d="M239,264.72h-3.33v-3.33a3.64,3.64,0,1,0-7.28,0v3.33h-3.33a3.64,3.64,0,0,0-3.64,3.64h0a3.64,3.64,0,0,0,3.64,3.64h3.33v3.33a3.64,3.64,0,0,0,7.28,0V272H239a3.64,3.64,0,0,0,3.64-3.64h0A3.64,3.64,0,0,0,239,264.72Z" style="fill:#90CAF9"></path><path d="M232,279.47a4.15,4.15,0,0,1-4.14-4.14V272.5h-2.83a4.14,4.14,0,0,1,0-8.28h2.83v-2.83a4.14,4.14,0,0,1,8.28,0v2.83H239a4.14,4.14,0,0,1,0,8.28h-2.83v2.83A4.15,4.15,0,0,1,232,279.47Zm-7-14.25a3.14,3.14,0,0,0,0,6.28h3.33a.5.5,0,0,1,.5.5v3.33a3.14,3.14,0,0,0,6.28,0V272a.5.5,0,0,1,.5-.5H239a3.14,3.14,0,0,0,0-6.28h-3.33a.5.5,0,0,1-.5-.5v-3.33a3.14,3.14,0,0,0-6.28,0v3.33a.5.5,0,0,1-.5.5Z" style="fill:#263238"></path><path d="M67.3,234.71H64v-3.33a3.64,3.64,0,0,0-7.28,0v3.33H53.36a3.64,3.64,0,0,0-3.64,3.64h0A3.64,3.64,0,0,0,53.36,242h3.33v3.33a3.64,3.64,0,0,0,7.28,0V242H67.3a3.64,3.64,0,0,0,3.64-3.64h0A3.64,3.64,0,0,0,67.3,234.71Z" style="fill:#90CAF9"></path><path d="M60.33,249.46a4.15,4.15,0,0,1-4.14-4.14v-2.83H53.36a4.14,4.14,0,1,1,0-8.28h2.83v-2.83a4.14,4.14,0,0,1,8.28,0v2.83H67.3a4.14,4.14,0,0,1,0,8.28H64.47v2.83A4.15,4.15,0,0,1,60.33,249.46Zm-7-14.25a3.14,3.14,0,0,0,0,6.28h3.33a.5.5,0,0,1,.5.5v3.33a3.14,3.14,0,0,0,6.28,0V242a.5.5,0,0,1,.5-.5H67.3a3.14,3.14,0,0,0,0-6.28H64a.5.5,0,0,1-.5-.5v-3.33a3.14,3.14,0,0,0-6.28,0v3.33a.5.5,0,0,1-.5.5Z" style="fill:#263238"></path></g><g id="freepik--Flowers--inject-130"><path d="M69.83,188.34c-2,0-4.07-2.49-4.39-8.09a.5.5,0,0,1,.15-.38,28.54,28.54,0,0,0,2.74-3.21.5.5,0,0,1,.46-.2,4.71,4.71,0,0,0,1.5-.05.5.5,0,0,1,.45.14l0,0a27.77,27.77,0,0,0,2.91,3,.49.49,0,0,1,.18.37c0,5.68-2,8.28-4,8.34Zm-3.38-7.92c.31,4.56,1.91,6.92,3.38,6.92h0c1.47-.05,3-2.5,3-7.11a26.81,26.81,0,0,1-2.68-2.79,5.61,5.61,0,0,1-1.23,0A27.88,27.88,0,0,1,66.45,180.42Z" style="fill:#263238"></path><path d="M60.5,175.65c-5.63,0-8.21-2-8.27-4s2.42-4.13,8.09-4.45a.46.46,0,0,1,.38.14,26.61,26.61,0,0,0,3.21,2.74.48.48,0,0,1,.19.46,5.16,5.16,0,0,0,.05,1.52.5.5,0,0,1-.17.47,26.91,26.91,0,0,0-3,2.92A.58.58,0,0,1,60.5,175.65Zm-.35-7.41c-4.6.3-7,1.93-6.92,3.41s2.5,3,7.11,3A27.68,27.68,0,0,1,63.12,172a6.43,6.43,0,0,1,0-1.24A28.73,28.73,0,0,1,60.15,168.24Z" style="fill:#263238"></path><path d="M68.39,165.94a.46.46,0,0,1-.38-.18c-.46-.54-.9-1-1.34-1.51a.5.5,0,0,1,.73-.68c.39.41.79.86,1.19,1.33a6.32,6.32,0,0,1,1.23,0,28.93,28.93,0,0,1,2.51-2.94c-.31-4.6-2-7-3.41-6.92s-3,2.58-3,7.33a.52.52,0,0,1-.5.51h0a.5.5,0,0,1-.5-.5c0-5.68,2-8.28,4-8.34s4.13,2.42,4.45,8.09a.5.5,0,0,1-.15.38,27.53,27.53,0,0,0-2.73,3.21.53.53,0,0,1-.47.2,5.1,5.1,0,0,0-1.51,0Z" style="fill:#263238"></path><path d="M78.44,175.12a.51.51,0,0,1-.36-.15,28.22,28.22,0,0,0-3.2-2.73.62.62,0,0,1-.21-.47,4.79,4.79,0,0,0,0-1.51.49.49,0,0,1,.18-.47,26.73,26.73,0,0,0,3-2.92.6.6,0,0,1,.44-.17c5.63,0,8.21,2,8.27,4s-2.42,4.13-8.08,4.45ZM75.7,171.6a29.69,29.69,0,0,1,2.93,2.51c4.6-.31,7-1.94,6.92-3.41s-2.49-3-7.11-3a27.68,27.68,0,0,1-2.78,2.67A5.67,5.67,0,0,1,75.7,171.6Z" style="fill:#263238"></path><path d="M59.58,184.36a2.85,2.85,0,0,1-1.79-.55c-1.12-.87-1.63-2.95.31-6.2a.5.5,0,0,1,.68-.17.49.49,0,0,1,.17.69c-1.32,2.21-1.53,4.13-.55,4.89s3.82.24,7.19-3.15a26.28,26.28,0,0,0,2.25-2.57,5.86,5.86,0,0,1-2.09-1,7.15,7.15,0,0,1-.7-.56,7.4,7.4,0,0,1-.6-.67,6,6,0,0,1-1.09-2c-.75.67-1.43,1.32-2,1.95a.5.5,0,0,1-.74-.68,30,30,0,0,1,2.73-2.56.5.5,0,0,1,.49-.08.5.5,0,0,1,.32.38,5.19,5.19,0,0,0,1.08,2.4,5.27,5.27,0,0,0,.51.56,5,5,0,0,0,.58.47,5.19,5.19,0,0,0,2.46.94.51.51,0,0,1,.41.3.5.5,0,0,1-.06.5,28.47,28.47,0,0,1-2.84,3.32C63.51,183.38,61.2,184.36,59.58,184.36Z" style="fill:#263238"></path><path d="M63.61,171a.47.47,0,0,1-.3-.1A27.65,27.65,0,0,1,60,168.08c-4-3.94-4.43-7.18-3.13-8.64,1.11-1.24,3.88-1.53,8,1.77a.5.5,0,1,1-.63.78c-3.32-2.67-5.76-2.84-6.62-1.88s-.24,3.95,3.1,7.26a25.94,25.94,0,0,0,2.56,2.25,6.23,6.23,0,0,1,1-2.09,5.13,5.13,0,0,1,.56-.69,5.36,5.36,0,0,1,.66-.61,6.21,6.21,0,0,1,2-1.08c-.27-.32-.54-.61-.81-.9a.5.5,0,0,1,.73-.68c.45.47.91,1,1.37,1.55a.49.49,0,0,1,.09.49.49.49,0,0,1-.39.32A5.21,5.21,0,0,0,66.08,167a4.52,4.52,0,0,0-.56.51,5.17,5.17,0,0,0-.48.59,5.29,5.29,0,0,0-.94,2.46.49.49,0,0,1-.29.4A.48.48,0,0,1,63.61,171Z" style="fill:#263238"></path><path d="M79.76,183.77A8.77,8.77,0,0,1,75.12,182a.49.49,0,0,1-.13-.69.5.5,0,0,1,.69-.14c2.83,1.91,4.82,1.89,5.54,1,.9-1.09.3-3.81-3.13-7.22a26.12,26.12,0,0,0-2.57-2.25,6.23,6.23,0,0,1-1,2.09,5.84,5.84,0,0,1-.56.69,5.36,5.36,0,0,1-.66.61,6.21,6.21,0,0,1-2,1.08c.61.7,1.21,1.32,1.79,1.87a.5.5,0,0,1-.69.73A30.57,30.57,0,0,1,70,177.23a.49.49,0,0,1,.3-.81,5.21,5.21,0,0,0,2.39-1.08,6.91,6.91,0,0,0,.57-.51,6.39,6.39,0,0,0,.47-.59,5.19,5.19,0,0,0,.94-2.46.5.5,0,0,1,.79-.34,28.62,28.62,0,0,1,3.33,2.83c4.15,4.13,4.32,7.2,3.19,8.57A2.77,2.77,0,0,1,79.76,183.77Z" style="fill:#263238"></path><path d="M75.13,170.67a.57.57,0,0,1-.18,0,.52.52,0,0,1-.32-.38,5.15,5.15,0,0,0-1.08-2.4,4.45,4.45,0,0,0-.51-.56,4.26,4.26,0,0,0-.58-.47,5.19,5.19,0,0,0-2.46-.94.51.51,0,0,1-.35-.8,29.33,29.33,0,0,1,2.84-3.32c4-4,7.24-4.45,8.68-3.09s1.2,4.63-2.58,8.85a29.68,29.68,0,0,1-3.14,3A.54.54,0,0,1,75.13,170.67ZM70.94,165a6.19,6.19,0,0,1,2.1,1,5.84,5.84,0,0,1,.69.56,7.68,7.68,0,0,1,.61.67,6.06,6.06,0,0,1,1.08,2,25,25,0,0,0,2.42-2.39h0c3.16-3.54,3.72-6.43,2.63-7.46s-3.94-.3-7.29,3.07A27.31,27.31,0,0,0,70.94,165Z" style="fill:#263238"></path><path d="M73.39,166.94a5.22,5.22,0,0,1,.55.61,5.73,5.73,0,0,1,1.19,2.62,5.45,5.45,0,0,1,0,1.66h0a5.67,5.67,0,0,1-1,2.69,7.67,7.67,0,0,1-.52.64,5.32,5.32,0,0,1-.61.56,5.8,5.8,0,0,1-2.63,1.18h0a5.14,5.14,0,0,1-1.66.06,5.75,5.75,0,0,1-2.69-1,4.42,4.42,0,0,1-.64-.52,5.32,5.32,0,0,1-.56-.61,5.62,5.62,0,0,1-1.18-2.62,5.51,5.51,0,0,1,0-1.67,5.63,5.63,0,0,1,1-2.69,5.67,5.67,0,0,1,1.13-1.2,5.7,5.7,0,0,1,2.63-1.18,5.44,5.44,0,0,1,1.66-.05,5.75,5.75,0,0,1,2.69,1A4.49,4.49,0,0,1,73.39,166.94Z" style="fill:#90CAF9"></path><path d="M69.39,177.5a5.81,5.81,0,0,1-.72-.05,6.1,6.1,0,0,1-2.92-1.11,7.15,7.15,0,0,1-.7-.56,7.4,7.4,0,0,1-.6-.67,6.18,6.18,0,0,1-1.29-2.85,6.44,6.44,0,0,1,0-1.81,6.2,6.2,0,0,1,1.12-2.92,5.13,5.13,0,0,1,.56-.69,5.36,5.36,0,0,1,.66-.61A6.25,6.25,0,0,1,68.31,165a5.72,5.72,0,0,1,1.8,0A6.18,6.18,0,0,1,73,166a5.84,5.84,0,0,1,.69.56,7.68,7.68,0,0,1,.61.67,6.27,6.27,0,0,1,1.28,2.85,5.92,5.92,0,0,1,0,1.73.16.16,0,0,1,0,.07,6.19,6.19,0,0,1-1.12,2.93,5.84,5.84,0,0,1-.56.69,5.36,5.36,0,0,1-.66.61,6.17,6.17,0,0,1-2.85,1.28h-.07A5.86,5.86,0,0,1,69.39,177.5Zm0-11.65a5.47,5.47,0,0,0-.9.08,5.2,5.2,0,0,0-2.4,1.08,4.52,4.52,0,0,0-.56.51,5.17,5.17,0,0,0-.48.59,5.29,5.29,0,0,0-.94,2.46,5.37,5.37,0,0,0,1.13,3.92,5.27,5.27,0,0,0,.51.56,5,5,0,0,0,.58.47,5.19,5.19,0,0,0,2.46.94,4.76,4.76,0,0,0,1.51-.05h.09a5.08,5.08,0,0,0,2.32-1.06,6.91,6.91,0,0,0,.57-.51,6.39,6.39,0,0,0,.47-.59,5.24,5.24,0,0,0,.93-2.39v-.08a4.79,4.79,0,0,0,0-1.51,5.15,5.15,0,0,0-1.08-2.4,4.45,4.45,0,0,0-.51-.56,4.26,4.26,0,0,0-.58-.47,5.19,5.19,0,0,0-2.46-.94A4.3,4.3,0,0,0,69.38,165.85Z" style="fill:#263238"></path><path d="M148.37,201.43c-1.45,0-3-1.79-3.22-5.81a.48.48,0,0,1,.15-.39,18.89,18.89,0,0,0,1.9-2.23.48.48,0,0,1,.46-.19,3.1,3.1,0,0,0,1,0,.49.49,0,0,1,.42.12l.06.06a19.78,19.78,0,0,0,2,2.11.5.5,0,0,1,.17.38c0,4.08-1.46,5.95-2.93,6Zm-2.21-5.65c.22,3.06,1.3,4.66,2.23,4.65s1.92-1.71,2-4.77a20.15,20.15,0,0,1-1.79-1.86,3.55,3.55,0,0,1-.73,0A18.09,18.09,0,0,1,146.16,195.78Z" style="fill:#263238"></path><path d="M141.84,192.53c-4.06,0-5.91-1.47-6-2.93s1.74-3,5.81-3.27a.47.47,0,0,1,.39.15,18.89,18.89,0,0,0,2.23,1.9.51.51,0,0,1,.2.46,3.49,3.49,0,0,0,0,1,.51.51,0,0,1-.17.47,19,19,0,0,0-2.12,2A.5.5,0,0,1,141.84,192.53Zm-.31-5.19c-3.06.22-4.67,1.3-4.65,2.24s1.71,1.91,4.77,1.95a18.88,18.88,0,0,1,1.86-1.78,4.48,4.48,0,0,1,0-.73A19.3,19.3,0,0,1,141.53,187.34Z" style="fill:#263238"></path><path d="M147.36,185.73a.53.53,0,0,1-.38-.18c-.31-.38-.63-.73-.93-1.05a.5.5,0,0,1,.73-.69c.26.27.52.57.79.88a4.42,4.42,0,0,1,.73,0,18.09,18.09,0,0,1,1.67-2c-.22-3.06-1.28-4.65-2.23-4.65s-2,1.79-2,5a.5.5,0,0,1-.5.51h0a.5.5,0,0,1-.5-.5c0-4.08,1.46-5.95,2.93-6s3,1.74,3.27,5.81a.47.47,0,0,1-.15.39,18.89,18.89,0,0,0-1.9,2.23.5.5,0,0,1-.46.2,3.49,3.49,0,0,0-1,0Z" style="fill:#263238"></path><path d="M154.41,192.16a.54.54,0,0,1-.36-.14,18,18,0,0,0-2.23-1.91.65.65,0,0,1-.2-.47,3.13,3.13,0,0,0,0-1,.51.51,0,0,1,.18-.47,19.78,19.78,0,0,0,2.11-2,.54.54,0,0,1,.42-.17c4,0,5.91,1.47,5.95,2.93s-1.74,3-5.81,3.27Zm-1.77-2.68a17.62,17.62,0,0,1,2,1.67c3.06-.22,4.68-1.3,4.65-2.23s-1.71-1.92-4.77-2a20.15,20.15,0,0,1-1.86,1.79A3.57,3.57,0,0,1,152.64,189.48Z" style="fill:#263238"></path><path d="M141.18,198.64a2.18,2.18,0,0,1-1.34-.41c-.84-.65-1.23-2.19.18-4.55a.5.5,0,0,1,.68-.17.51.51,0,0,1,.18.69c-1,1.68-.94,2.84-.43,3.24.75.57,2.65,0,4.84-2.2a16.76,16.76,0,0,0,1.43-1.61,4.63,4.63,0,0,1-1.3-.64,4.72,4.72,0,0,1-.5-.41,4,4,0,0,1-.44-.48,4.54,4.54,0,0,1-.71-1.25c-.46.41-.87.81-1.24,1.2a.5.5,0,0,1-.73-.68,22.9,22.9,0,0,1,1.92-1.81.53.53,0,0,1,.5-.08.5.5,0,0,1,.32.38,3.47,3.47,0,0,0,.72,1.61,2.55,2.55,0,0,0,.35.38,2.88,2.88,0,0,0,.39.32,3.45,3.45,0,0,0,1.66.63.52.52,0,0,1,.4.3.5.5,0,0,1-.06.5,21.76,21.76,0,0,1-2,2.35C144,197.94,142.36,198.64,141.18,198.64Z" style="fill:#263238"></path><path d="M144,189.28a.49.49,0,0,1-.3-.1,19.69,19.69,0,0,1-2.34-2c-2.85-2.83-3.16-5.18-2.2-6.26.82-.92,2.84-1.16,5.8,1.22a.5.5,0,0,1,.08.7.49.49,0,0,1-.7.08c-2.15-1.73-3.86-2-4.44-1.33s-.11,2.63,2.16,4.88a16.76,16.76,0,0,0,1.61,1.43,4.92,4.92,0,0,1,.64-1.3,4.72,4.72,0,0,1,.41-.5,4.9,4.9,0,0,1,.48-.44,4.6,4.6,0,0,1,1.26-.71q-.21-.24-.42-.45a.5.5,0,0,1,.73-.69c.31.34.64.7,1,1.09a.5.5,0,0,1,.08.5.5.5,0,0,1-.38.32,3.52,3.52,0,0,0-1.61.72,3.15,3.15,0,0,0-.38.35,2.88,2.88,0,0,0-.32.39,3.45,3.45,0,0,0-.63,1.66.52.52,0,0,1-.3.4A.45.45,0,0,1,144,189.28Z" style="fill:#263238"></path><path d="M155.31,198.24A6.18,6.18,0,0,1,152,197a.5.5,0,0,1-.13-.7.49.49,0,0,1,.69-.13c1.89,1.28,3.24,1.28,3.68.73.61-.73,0-2.64-2.18-4.86a18.24,18.24,0,0,0-1.61-1.43,4.38,4.38,0,0,1-.64,1.3,4.72,4.72,0,0,1-.41.5,4,4,0,0,1-.48.44,4.54,4.54,0,0,1-1.25.71c.37.42.73.8,1.09,1.14a.49.49,0,0,1,0,.7.5.5,0,0,1-.71,0c-.54-.52-1.11-1.13-1.69-1.81a.53.53,0,0,1-.08-.5.52.52,0,0,1,.38-.32,3.47,3.47,0,0,0,1.61-.72,4.17,4.17,0,0,0,.38-.34,3,3,0,0,0,.32-.4,3.37,3.37,0,0,0,.63-1.65.52.52,0,0,1,.3-.41.5.5,0,0,1,.5.06,21.76,21.76,0,0,1,2.35,2c3,3,3.07,5.2,2.25,6.21A2.14,2.14,0,0,1,155.31,198.24Z" style="fill:#263238"></path><path d="M152.09,189a.57.57,0,0,1-.18,0,.5.5,0,0,1-.32-.38,3.47,3.47,0,0,0-.72-1.61,3.15,3.15,0,0,0-.35-.38,3,3,0,0,0-.39-.32,3.45,3.45,0,0,0-1.65-.63.5.5,0,0,1-.41-.3.5.5,0,0,1,.06-.5,20.66,20.66,0,0,1,2-2.34c2.87-2.89,5.23-3.17,6.3-2.17s.92,3.37-1.8,6.41a20,20,0,0,1-2.22,2.14A.54.54,0,0,1,152.09,189Zm-2.68-4.18a4.63,4.63,0,0,1,1.3.64,4.72,4.72,0,0,1,.5.41,4.9,4.9,0,0,1,.44.48,4.6,4.6,0,0,1,.71,1.26,18.13,18.13,0,0,0,1.52-1.52h0c2.14-2.39,2.55-4.37,1.86-5s-2.65-.12-4.9,2.15A16.72,16.72,0,0,0,149.41,184.86Z" style="fill:#263238"></path><path d="M150.87,186.27c.14.14.27.29.39.43a4.14,4.14,0,0,1,.83,1.84,3.83,3.83,0,0,1,0,1.17h0a3.92,3.92,0,0,1-.72,1.89q-.17.22-.36.45a5.22,5.22,0,0,1-.43.39,4.09,4.09,0,0,1-1.84.83h0a3.47,3.47,0,0,1-1.16,0,4,4,0,0,1-1.89-.72l-.45-.36a5.22,5.22,0,0,1-.39-.43,3.93,3.93,0,0,1-.82-1.84,3.82,3.82,0,0,1,0-1.17,3.89,3.89,0,0,1,.72-1.88,3.43,3.43,0,0,1,.79-.85,4,4,0,0,1,1.84-.82,3.83,3.83,0,0,1,1.17,0,4.07,4.07,0,0,1,1.89.72Q150.64,186.08,150.87,186.27Z" style="fill:#90CAF9"></path><path d="M148.07,193.83a4.71,4.71,0,0,1-.53,0,4.63,4.63,0,0,1-2.12-.81,4.72,4.72,0,0,1-.5-.41,4,4,0,0,1-.44-.48,4.54,4.54,0,0,1-.93-2.07,4.42,4.42,0,0,1,0-1.31,4.63,4.63,0,0,1,.81-2.12,4.72,4.72,0,0,1,.41-.5,4.9,4.9,0,0,1,.48-.44,4.59,4.59,0,0,1,2.07-.93,4.11,4.11,0,0,1,1.31,0,4.5,4.5,0,0,1,2.12.8,4.72,4.72,0,0,1,.5.41h0a4.9,4.9,0,0,1,.44.48,4.49,4.49,0,0,1,.93,2.07,4.38,4.38,0,0,1,0,1.25v.06a4.58,4.58,0,0,1-.81,2.12,4.72,4.72,0,0,1-.41.5,4,4,0,0,1-.48.44,4.49,4.49,0,0,1-2.07.93h0A4.49,4.49,0,0,1,148.07,193.83Zm0-8.17a3.15,3.15,0,0,0-.61.06,3.52,3.52,0,0,0-1.61.72,3.15,3.15,0,0,0-.38.35,2.88,2.88,0,0,0-.32.39,3.45,3.45,0,0,0-.63,1.66,3.59,3.59,0,0,0,.75,2.63,2.55,2.55,0,0,0,.35.38,2.88,2.88,0,0,0,.39.32,3.45,3.45,0,0,0,1.66.63,3.1,3.1,0,0,0,1,0h.07a3.39,3.39,0,0,0,1.55-.71,4.17,4.17,0,0,0,.38-.34,3,3,0,0,0,.32-.4,3.55,3.55,0,0,0,.63-1.6v-.07a3.13,3.13,0,0,0,0-1,3.47,3.47,0,0,0-.72-1.61,3.15,3.15,0,0,0-.35-.38,3,3,0,0,0-.39-.32,3.45,3.45,0,0,0-1.65-.63A3,3,0,0,0,148.06,185.66Z" style="fill:#263238"></path><path d="M199.58,268.36c-1.45,0-3-1.79-3.23-5.81a.54.54,0,0,1,.15-.39,17.17,17.17,0,0,0,1.9-2.23.51.51,0,0,1,.47-.2,3.42,3.42,0,0,0,1,0,.48.48,0,0,1,.44.14l0,0a19,19,0,0,0,2,2.12.48.48,0,0,1,.17.37c0,4.08-1.47,5.95-2.93,6Zm-2.21-5.65c.22,3.06,1.29,4.65,2.23,4.65s1.92-1.71,2-4.77a20.15,20.15,0,0,1-1.79-1.86,4.45,4.45,0,0,1-.73,0A20.65,20.65,0,0,1,197.37,262.71Z" style="fill:#263238"></path><path d="M193,259.46c-4,0-5.91-1.47-5.95-2.93s1.74-3,5.81-3.27a.43.43,0,0,1,.38.15,20.66,20.66,0,0,0,2.23,1.9.48.48,0,0,1,.2.46,3.49,3.49,0,0,0,0,1,.5.5,0,0,1-.17.47,18,18,0,0,0-2.11,2A.55.55,0,0,1,193,259.46Zm-.31-5.19c-3,.22-4.67,1.3-4.64,2.23s1.7,1.92,4.77,2a20.19,20.19,0,0,1,1.86-1.79,4.41,4.41,0,0,1,0-.73A20.24,20.24,0,0,1,192.73,254.27Z" style="fill:#263238"></path><path d="M198.57,252.65a.46.46,0,0,1-.38-.18c-.32-.37-.63-.72-.94-1.05a.49.49,0,0,1,0-.7.5.5,0,0,1,.71,0c.26.27.53.56.79.88a3.57,3.57,0,0,1,.73,0,19.3,19.3,0,0,1,1.68-2c-.22-3.06-1.3-4.66-2.24-4.65s-2,1.79-2,5a.49.49,0,0,1-.49.5h0a.51.51,0,0,1-.5-.5c0-4.08,1.47-5.95,2.93-6s3.05,1.74,3.28,5.81a.51.51,0,0,1-.15.39,17.17,17.17,0,0,0-1.9,2.23.52.52,0,0,1-.47.2,2.87,2.87,0,0,0-1,0Z" style="fill:#263238"></path><path d="M205.62,259.09a.48.48,0,0,1-.36-.15A18.89,18.89,0,0,0,203,257a.67.67,0,0,1-.2-.47,3.43,3.43,0,0,0,0-1,.49.49,0,0,1,.17-.47,19,19,0,0,0,2.12-2,.52.52,0,0,1,.41-.17c4.05,0,5.91,1.47,5.95,2.93s-1.73,3-5.81,3.27Zm-1.77-2.68a18.58,18.58,0,0,1,2,1.67c3.05-.22,4.67-1.3,4.64-2.24s-1.7-1.91-4.76-2a23.09,23.09,0,0,1-1.86,1.78A4.61,4.61,0,0,1,203.85,256.41Z" style="fill:#263238"></path><path d="M192.39,265.57a2.13,2.13,0,0,1-1.35-.42c-.83-.65-1.22-2.18.18-4.54a.5.5,0,0,1,.69-.17.49.49,0,0,1,.17.68c-1,1.69-.94,2.84-.42,3.24.74.58,2.65,0,4.84-2.19a20,20,0,0,0,1.43-1.61,4.63,4.63,0,0,1-1.3-.64,4.72,4.72,0,0,1-.5-.41,3.9,3.9,0,0,1-.44-.48,4.13,4.13,0,0,1-.71-1.26c-.46.41-.88.82-1.24,1.21a.5.5,0,0,1-.73-.69,23,23,0,0,1,1.92-1.8.49.49,0,0,1,.49-.08.5.5,0,0,1,.32.38,3.53,3.53,0,0,0,.73,1.61,3.07,3.07,0,0,0,.34.38,4,4,0,0,0,.4.32,3.37,3.37,0,0,0,1.65.63.53.53,0,0,1,.41.3.5.5,0,0,1-.06.5,19.71,19.71,0,0,1-2,2.34C195.23,264.87,193.57,265.57,192.39,265.57Z" style="fill:#263238"></path><path d="M195.22,256.21a.47.47,0,0,1-.3-.1,20,20,0,0,1-2.35-2c-2.85-2.83-3.16-5.19-2.2-6.26s2.84-1.16,5.81,1.22a.5.5,0,0,1,.08.7.51.51,0,0,1-.71.08c-2.15-1.73-3.86-2-4.43-1.33s-.11,2.63,2.16,4.88a16.76,16.76,0,0,0,1.61,1.43,4.38,4.38,0,0,1,.64-1.3,3.74,3.74,0,0,1,.41-.5,4,4,0,0,1,.48-.44,4.54,4.54,0,0,1,1.25-.71l-.42-.46a.49.49,0,0,1,0-.7.5.5,0,0,1,.71,0c.32.33.64.7,1,1.09a.51.51,0,0,1,.09.5.51.51,0,0,1-.39.32,3.52,3.52,0,0,0-1.61.72,4.14,4.14,0,0,0-.38.35,3,3,0,0,0-.31.39,3.57,3.57,0,0,0-.64,1.65.48.48,0,0,1-.49.45Z" style="fill:#263238"></path><path d="M206.52,265.16a6.15,6.15,0,0,1-3.31-1.26.5.5,0,0,1-.14-.69.51.51,0,0,1,.7-.14c1.89,1.28,3.23,1.28,3.68.74.61-.74.05-2.64-2.19-4.86a14.65,14.65,0,0,0-1.61-1.43,4.37,4.37,0,0,1-.64,1.3,3.65,3.65,0,0,1-.4.5,5,5,0,0,1-.49.44,4.4,4.4,0,0,1-1.25.71c.37.42.74.8,1.1,1.14a.49.49,0,0,1,0,.7.5.5,0,0,1-.71,0,21.6,21.6,0,0,1-1.69-1.81.5.5,0,0,1,.3-.82,3.52,3.52,0,0,0,1.61-.72,4.14,4.14,0,0,0,.38-.35,3.89,3.89,0,0,0,.32-.39,3.55,3.55,0,0,0,.63-1.66.5.5,0,0,1,.3-.4.48.48,0,0,1,.49.06,20,20,0,0,1,2.35,2c3,3,3.08,5.2,2.25,6.21A2.13,2.13,0,0,1,206.52,265.16Z" style="fill:#263238"></path><path d="M203.29,256a.51.51,0,0,1-.17,0,.5.5,0,0,1-.32-.38,3.39,3.39,0,0,0-.73-1.61,2.5,2.5,0,0,0-.34-.39c-.13-.11-.26-.22-.39-.31a3.45,3.45,0,0,0-1.66-.63.5.5,0,0,1-.4-.3.53.53,0,0,1,.05-.5,21.77,21.77,0,0,1,2-2.35c2.87-2.88,5.23-3.17,6.29-2.16s.92,3.37-1.79,6.41a21.1,21.1,0,0,1-2.23,2.14A.52.52,0,0,1,203.29,256Zm-2.67-4.18a4.45,4.45,0,0,1,1.29.64,6.11,6.11,0,0,1,.51.41,5,5,0,0,1,.44.48,4.54,4.54,0,0,1,.71,1.25,19.76,19.76,0,0,0,1.52-1.51h0c2.13-2.38,2.55-4.36,1.86-5s-2.65-.12-4.9,2.15A16.76,16.76,0,0,0,200.62,251.79Z" style="fill:#263238"></path><path d="M202.07,253.2a3.1,3.1,0,0,1,.39.43,3.94,3.94,0,0,1,.83,1.84,3.83,3.83,0,0,1,0,1.17h0a4,4,0,0,1-.72,1.88,3.92,3.92,0,0,1-.37.46,4,4,0,0,1-.43.39,3.93,3.93,0,0,1-1.84.82h0a3.77,3.77,0,0,1-1.16,0,3.92,3.92,0,0,1-1.89-.72,5.07,5.07,0,0,1-.45-.36,5.22,5.22,0,0,1-.39-.43,4,4,0,0,1-.83-1.84,3.83,3.83,0,0,1,0-1.17,4,4,0,0,1,.72-1.89,3.55,3.55,0,0,1,.36-.45,5.22,5.22,0,0,1,.43-.39,4,4,0,0,1,1.84-.83,3.82,3.82,0,0,1,1.17,0,4.22,4.22,0,0,1,2.33,1.08Z" style="fill:#90CAF9"></path><path d="M199.27,260.76a4.53,4.53,0,0,1-.52,0,4.58,4.58,0,0,1-2.12-.81,4.72,4.72,0,0,1-.5-.41,3.9,3.9,0,0,1-.44-.48,4.49,4.49,0,0,1-.93-2.07,4.42,4.42,0,0,1,0-1.31,4.48,4.48,0,0,1,.81-2.12,3.74,3.74,0,0,1,.41-.5,4,4,0,0,1,.48-.44,4.61,4.61,0,0,1,3.38-1,4.59,4.59,0,0,1,2.11.81,6.11,6.11,0,0,1,.51.41h0a5,5,0,0,1,.44.48,4.65,4.65,0,0,1,.93,2.07,4.36,4.36,0,0,1,0,1.25.09.09,0,0,1,0,.05,4.41,4.41,0,0,1-.81,2.13,3.65,3.65,0,0,1-.4.5,5,5,0,0,1-.49.44,4.51,4.51,0,0,1-2.06.93H200A3.54,3.54,0,0,1,199.27,260.76Zm0-8.17a3.05,3.05,0,0,0-.6.06,3.51,3.51,0,0,0-1.62.72,4.14,4.14,0,0,0-.38.35,3,3,0,0,0-.31.39,3.55,3.55,0,0,0,.12,4.29,3.07,3.07,0,0,0,.34.38,4,4,0,0,0,.4.32,3.37,3.37,0,0,0,1.65.63,3.48,3.48,0,0,0,1,0H200a3.5,3.5,0,0,0,1.55-.71,4.14,4.14,0,0,0,.38-.35,3.89,3.89,0,0,0,.32-.39,3.42,3.42,0,0,0,.62-1.6.17.17,0,0,1,0-.07,3.43,3.43,0,0,0,0-1,3.39,3.39,0,0,0-.73-1.61,2.43,2.43,0,0,0-.34-.38,3.66,3.66,0,0,0-.39-.32,3.45,3.45,0,0,0-1.66-.63A3,3,0,0,0,199.26,252.59Z" style="fill:#263238"></path><path d="M242.63,213c-1.45,0-3-1.79-3.23-5.82a.54.54,0,0,1,.15-.38,17.87,17.87,0,0,0,1.9-2.23.53.53,0,0,1,.47-.2,3.35,3.35,0,0,0,1,0,.5.5,0,0,1,.41.1l.08.07a19,19,0,0,0,2,2.12.48.48,0,0,1,.17.37c0,4.08-1.47,5.95-2.93,6Zm-2.21-5.65c.21,3.05,1.31,4.66,2.23,4.65s1.92-1.71,2-4.77a21.5,21.5,0,0,1-1.79-1.86,4.42,4.42,0,0,1-.73,0A22,22,0,0,1,240.42,207.35Z" style="fill:#263238"></path><path d="M236.09,204.1c-4.05,0-5.91-1.47-6-2.93s1.74-3,5.81-3.27a.45.45,0,0,1,.38.14,19.6,19.6,0,0,0,2.23,1.91.48.48,0,0,1,.2.46,3.41,3.41,0,0,0,0,1,.51.51,0,0,1-.17.48,19.78,19.78,0,0,0-2.11,2A.55.55,0,0,1,236.09,204.1Zm-.31-5.19c-3.05.22-4.67,1.3-4.64,2.23s1.7,1.92,4.77,2a19,19,0,0,1,1.86-1.79,4.41,4.41,0,0,1,0-.73A21.75,21.75,0,0,1,235.78,198.91Z" style="fill:#263238"></path><path d="M241.62,197.29a.46.46,0,0,1-.38-.18c-.32-.38-.63-.72-.94-1.05a.5.5,0,1,1,.73-.68c.26.27.53.56.79.88a4.51,4.51,0,0,1,.73,0,21.76,21.76,0,0,1,1.68-2c-.22-3.05-1.33-4.64-2.24-4.64s-2,1.79-2,5a.49.49,0,0,1-.49.5h0a.51.51,0,0,1-.5-.5c0-4.08,1.47-6,2.93-6s3,1.74,3.28,5.81a.53.53,0,0,1-.15.39,18.89,18.89,0,0,0-1.9,2.23.49.49,0,0,1-.46.19,3.48,3.48,0,0,0-1,0Z" style="fill:#263238"></path><path d="M248.67,203.73a.48.48,0,0,1-.36-.15,20.66,20.66,0,0,0-2.23-1.9.49.49,0,0,1-.2-.47,3.42,3.42,0,0,0,0-1,.49.49,0,0,1,.17-.47,19,19,0,0,0,2.12-2,.53.53,0,0,1,.41-.17c4,0,5.91,1.46,5.95,2.92s-1.73,3.05-5.81,3.28ZM246.9,201a21.54,21.54,0,0,1,2,1.68c3-.22,4.67-1.3,4.64-2.24s-1.7-1.92-4.76-1.95a23.09,23.09,0,0,1-1.86,1.78A6,6,0,0,1,246.9,201Z" style="fill:#263238"></path><path d="M235.44,210.21a2.13,2.13,0,0,1-1.35-.42c-.83-.65-1.22-2.18.18-4.54a.5.5,0,0,1,.69-.17.49.49,0,0,1,.17.68c-1,1.69-.94,2.84-.42,3.24.74.58,2.65,0,4.84-2.2a17.06,17.06,0,0,0,1.43-1.61,4.15,4.15,0,0,1-1.3-.64,3.65,3.65,0,0,1-.5-.4,4.9,4.9,0,0,1-.44-.48,4.35,4.35,0,0,1-.71-1.26c-.46.41-.88.82-1.24,1.2a.5.5,0,0,1-.71,0,.5.5,0,0,1,0-.71,22.88,22.88,0,0,1,1.92-1.8.49.49,0,0,1,.49-.08.48.48,0,0,1,.32.38,3.64,3.64,0,0,0,.73,1.61,3.08,3.08,0,0,0,.74.7,3.47,3.47,0,0,0,1.65.63.51.51,0,0,1,.41.3.53.53,0,0,1-.06.5,20.68,20.68,0,0,1-2,2.34C238.28,209.5,236.62,210.21,235.44,210.21Z" style="fill:#263238"></path><path d="M238.27,200.85a.54.54,0,0,1-.3-.1,20,20,0,0,1-2.35-2c-2.85-2.84-3.16-5.19-2.2-6.26s2.85-1.16,5.81,1.22a.5.5,0,0,1,.08.7.51.51,0,0,1-.71.08c-2.15-1.73-3.86-2-4.43-1.34s-.11,2.63,2.16,4.89a20,20,0,0,0,1.61,1.43,4.38,4.38,0,0,1,.64-1.3,3.74,3.74,0,0,1,.41-.5,4,4,0,0,1,.48-.44,4.54,4.54,0,0,1,1.25-.71l-.42-.46a.5.5,0,1,1,.73-.68c.32.33.64.7,1,1.09a.49.49,0,0,1-.3.81,3.64,3.64,0,0,0-1.61.73c-.13.11-.26.22-.38.34a3.9,3.9,0,0,0-.31.4,3.49,3.49,0,0,0-.64,1.65.52.52,0,0,1-.29.41A.79.79,0,0,1,238.27,200.85Z" style="fill:#263238"></path><path d="M249.57,209.8a6.15,6.15,0,0,1-3.31-1.26.5.5,0,0,1-.14-.69.51.51,0,0,1,.7-.14c1.89,1.28,3.23,1.28,3.68.74.61-.74.05-2.64-2.19-4.86a15.64,15.64,0,0,0-1.61-1.43,4.21,4.21,0,0,1-.64,1.29,4.45,4.45,0,0,1-.4.51c-.16.16-.32.3-.49.44a4.4,4.4,0,0,1-1.25.71c.37.41.74.79,1.1,1.13a.5.5,0,1,1-.69.73,20.34,20.34,0,0,1-1.69-1.82.49.49,0,0,1,.3-.81,3.52,3.52,0,0,0,1.61-.72,4.14,4.14,0,0,0,.38-.35,3.89,3.89,0,0,0,.32-.39,3.55,3.55,0,0,0,.63-1.66.5.5,0,0,1,.79-.34,19.07,19.07,0,0,1,2.35,2c3,3,3.08,5.2,2.25,6.2A2.11,2.11,0,0,1,249.57,209.8Z" style="fill:#263238"></path><path d="M246.34,200.61a.51.51,0,0,1-.17,0,.49.49,0,0,1-.32-.39,3.52,3.52,0,0,0-.72-1.61,3.06,3.06,0,0,0-.35-.37,3.66,3.66,0,0,0-.39-.32,3.56,3.56,0,0,0-1.66-.64.49.49,0,0,1-.4-.29.52.52,0,0,1,0-.5,20,20,0,0,1,2-2.35c2.87-2.89,5.23-3.17,6.29-2.16s.92,3.37-1.79,6.41a21,21,0,0,1-2.23,2.13A.47.47,0,0,1,246.34,200.61Zm-2.67-4.18a4.45,4.45,0,0,1,1.29.64,4.58,4.58,0,0,1,.51.41,5,5,0,0,1,.44.48,4.54,4.54,0,0,1,.71,1.25,18.1,18.1,0,0,0,1.52-1.51h0c2.13-2.38,2.55-4.36,1.86-5s-2.65-.12-4.91,2.15A18.22,18.22,0,0,0,243.67,196.43Z" style="fill:#263238"></path><path d="M245.12,197.84a3.1,3.1,0,0,1,.39.43,3.94,3.94,0,0,1,.83,1.84,3.76,3.76,0,0,1,0,1.16h0a4,4,0,0,1-.72,1.88,3.16,3.16,0,0,1-.37.45,2.62,2.62,0,0,1-.43.39,3.94,3.94,0,0,1-1.84.83h0a4.11,4.11,0,0,1-1.16,0,4,4,0,0,1-1.89-.72,3.84,3.84,0,0,1-.45-.37,5.11,5.11,0,0,1-.39-.42,4,4,0,0,1-.83-1.85,3.76,3.76,0,0,1,0-1.16,3.92,3.92,0,0,1,.72-1.89,3,3,0,0,1,.36-.45,5.22,5.22,0,0,1,.43-.39,3.94,3.94,0,0,1,1.84-.83,3.82,3.82,0,0,1,1.17,0,3.93,3.93,0,0,1,1.88.72A2.54,2.54,0,0,1,245.12,197.84Z" style="fill:#90CAF9"></path><path d="M242.32,205.4a3,3,0,0,1-.52,0,4.38,4.38,0,0,1-2.12-.81,3.65,3.65,0,0,1-.5-.4,4.9,4.9,0,0,1-.44-.48,4.49,4.49,0,0,1-.93-2.07,4.42,4.42,0,0,1,0-1.31,4.58,4.58,0,0,1,.81-2.12,3.74,3.74,0,0,1,.41-.5,4,4,0,0,1,.48-.44,4.58,4.58,0,0,1,3.38-1,4.73,4.73,0,0,1,2.62,1.22h0a5,5,0,0,1,.44.48,4.54,4.54,0,0,1,1,3.31.13.13,0,0,1,0,.06,4.34,4.34,0,0,1-.81,2.12,4.45,4.45,0,0,1-.4.51c-.16.16-.32.3-.49.44a4.51,4.51,0,0,1-2.06.93h-.06A4.4,4.4,0,0,1,242.32,205.4Zm0-8.17a4,4,0,0,0-.6.05,3.63,3.63,0,0,0-1.62.73c-.13.11-.26.22-.38.34a3.9,3.9,0,0,0-.31.4,3.52,3.52,0,0,0-.61,2.67,3.63,3.63,0,0,0,.73,1.62,3.08,3.08,0,0,0,.74.7,3.47,3.47,0,0,0,1.65.63,3.4,3.4,0,0,0,1,0H243a3.5,3.5,0,0,0,1.55-.71,4.14,4.14,0,0,0,.38-.35,3.89,3.89,0,0,0,.32-.39,3.53,3.53,0,0,0,.62-1.6.17.17,0,0,1,0-.07,3.42,3.42,0,0,0,0-1,3.51,3.51,0,0,0-.72-1.62,3.06,3.06,0,0,0-.35-.37h0c-.13-.11-.26-.22-.39-.31a3.56,3.56,0,0,0-1.66-.64Z" style="fill:#263238"></path></g><g id="freepik--Hearts--inject-130"><path d="M270,242.13c-3.86-2.61-6.93,3.05-6.93,3.05s-3.38-5.66-7.24-3.05-1.08,7.6,1.07,9.5,6.66,5.23,6.66,5.23,3.22-3.33,5.37-5.23S273.91,244.74,270,242.13Z" style="fill:#263238"></path><path d="M263.6,257.36a.49.49,0,0,1-.3-.1c-.18-.14-4.55-3.36-6.69-5.25-1.37-1.21-3.33-4-3.16-6.7a4.55,4.55,0,0,1,2.14-3.59,4.06,4.06,0,0,1,3.27-.68,8.08,8.08,0,0,1,4.23,3.22,7.58,7.58,0,0,1,4-3.21,4,4,0,0,1,3.27.67,4.55,4.55,0,0,1,2.14,3.59c.18,2.71-1.79,5.49-3.16,6.7-2.11,1.86-5.31,5.16-5.34,5.2A.51.51,0,0,1,263.6,257.36ZM258,241.94a3.24,3.24,0,0,0-1.82.6,3.61,3.61,0,0,0-1.7,2.83c-.14,2.08,1.35,4.59,2.82,5.89,1.76,1.56,5.18,4.12,6.28,4.94.86-.88,3.34-3.39,5.09-4.94,1.47-1.3,3-3.81,2.82-5.89a3.61,3.61,0,0,0-1.7-2.83,3,3,0,0,0-2.47-.52c-2.16.53-3.72,3.37-3.74,3.4a.5.5,0,0,1-.87,0s-1.77-2.92-4-3.42A2.61,2.61,0,0,0,258,241.94Z" style="fill:#263238"></path><path d="M86.05,111.29c-2.68-1.82-4.81,2.11-4.81,2.11s-2.34-3.93-5-2.11-.74,5.27.75,6.59,4.62,3.63,4.62,3.63,2.24-2.31,3.73-3.63S88.73,113.1,86.05,111.29Z" style="fill:#263238"></path><path d="M81.58,122a.49.49,0,0,1-.3-.1c-.13-.09-3.16-2.33-4.65-3.65a6.67,6.67,0,0,1-2.25-4.78,3.35,3.35,0,0,1,1.55-2.61,3,3,0,0,1,2.39-.49,5.61,5.61,0,0,1,2.9,2.12,5.23,5.23,0,0,1,2.72-2.11,2.9,2.9,0,0,1,2.39.48,3.33,3.33,0,0,1,1.55,2.61,6.63,6.63,0,0,1-2.24,4.78c-1.46,1.29-3.68,3.58-3.7,3.6A.51.51,0,0,1,81.58,122Zm-3.91-10.7a2.1,2.1,0,0,0-1.18.39,2.31,2.31,0,0,0-1.11,1.85,5.62,5.62,0,0,0,1.91,4c1.16,1,3.38,2.7,4.24,3.34.66-.68,2.27-2.3,3.44-3.34a5.58,5.58,0,0,0,1.91-4,2.31,2.31,0,0,0-1.11-1.85h0a1.92,1.92,0,0,0-1.59-.34c-1.43.35-2.49,2.26-2.5,2.28a.49.49,0,0,1-.43.26.5.5,0,0,1-.44-.24s-1.19-2-2.71-2.3A1.58,1.58,0,0,0,77.67,111.31Z" style="fill:#263238"></path><path d="M204.25,124.92c-3.86-2.62-6.93,3-6.93,3s-3.37-5.67-7.24-3-1.07,7.6,1.07,9.5,6.66,5.23,6.66,5.23,3.22-3.33,5.37-5.23S208.12,127.53,204.25,124.92Z" style="fill:#90CAF9"></path><path d="M197.81,140.15a.57.57,0,0,1-.3-.1c-.18-.14-4.55-3.36-6.69-5.26-1.36-1.2-3.33-4-3.16-6.7a4.56,4.56,0,0,1,2.14-3.59,4,4,0,0,1,3.27-.67,8,8,0,0,1,4.23,3.22,7.58,7.58,0,0,1,4-3.21,4,4,0,0,1,3.27.66,4.54,4.54,0,0,1,2.14,3.59c.18,2.71-1.79,5.5-3.16,6.7-2.11,1.87-5.31,5.17-5.34,5.2A.48.48,0,0,1,197.81,140.15Zm-5.63-15.42a3.24,3.24,0,0,0-1.82.6,3.6,3.6,0,0,0-1.7,2.83c-.13,2.08,1.36,4.59,2.83,5.89,1.76,1.55,5.17,4.12,6.27,4.93.86-.87,3.34-3.38,5.09-4.93,1.47-1.3,3-3.81,2.82-5.89a3.55,3.55,0,0,0-1.7-2.83h0a3,3,0,0,0-2.47-.52c-2.16.53-3.72,3.37-3.74,3.39a.51.51,0,0,1-.43.27.57.57,0,0,1-.44-.25s-1.76-2.91-4-3.42A3.11,3.11,0,0,0,192.18,124.73Z" style="fill:#263238"></path><path d="M97.22,260.05c-3-2-5.31,2.33-5.31,2.33s-2.59-4.34-5.55-2.33-.82,5.82.82,7.27,5.1,4,5.1,4,2.47-2.55,4.11-4S100.18,262.05,97.22,260.05Z" style="fill:#263238"></path><path d="M92.28,271.83a.51.51,0,0,1-.29-.1c-.15-.11-3.49-2.58-5.14-4a7.27,7.27,0,0,1-2.45-5.23,3.62,3.62,0,0,1,1.68-2.84,3.27,3.27,0,0,1,2.6-.53,6.16,6.16,0,0,1,3.21,2.38,5.74,5.74,0,0,1,3-2.37,3.17,3.17,0,0,1,2.6.52h0a3.62,3.62,0,0,1,1.68,2.84,7.27,7.27,0,0,1-2.45,5.23c-1.62,1.42-4.06,3.95-4.09,4A.52.52,0,0,1,92.28,271.83ZM88,260a2.32,2.32,0,0,0-1.33.44,2.65,2.65,0,0,0-1.25,2.08A6.23,6.23,0,0,0,87.52,267c1.3,1.15,3.79,3,4.71,3.71.72-.73,2.54-2.56,3.83-3.71a6.23,6.23,0,0,0,2.13-4.41,2.65,2.65,0,0,0-1.25-2.08,2.15,2.15,0,0,0-1.8-.38c-1.61.39-2.78,2.52-2.79,2.54a.49.49,0,0,1-.43.26.52.52,0,0,1-.44-.24s-1.33-2.19-3-2.57A2.81,2.81,0,0,0,88,260Z" style="fill:#263238"></path><path d="M71.79,121.69c-3.86-2.62-6.93,3-6.93,3s-3.38-5.67-7.24-3-1.08,7.6,1.07,9.5,6.66,5.23,6.66,5.23,3.22-3.33,5.37-5.23S75.66,124.3,71.79,121.69Z" style="fill:#90CAF9"></path><path d="M65.35,136.92a.57.57,0,0,1-.3-.1c-.18-.14-4.55-3.36-6.69-5.26-1.37-1.21-3.33-4-3.16-6.7a4.56,4.56,0,0,1,2.14-3.59,4.05,4.05,0,0,1,3.27-.67,8,8,0,0,1,4.23,3.22,7.58,7.58,0,0,1,4-3.21,4,4,0,0,1,3.27.66,4.56,4.56,0,0,1,2.14,3.59c.17,2.71-1.79,5.49-3.16,6.7-2.11,1.87-5.31,5.17-5.34,5.2A.52.52,0,0,1,65.35,136.92ZM59.72,121.5a3.24,3.24,0,0,0-1.82.6,3.6,3.6,0,0,0-1.7,2.83c-.14,2.08,1.35,4.58,2.82,5.88,1.76,1.56,5.18,4.13,6.28,4.94.85-.87,3.34-3.39,5.09-4.94,1.47-1.3,3-3.8,2.82-5.88a3.6,3.6,0,0,0-1.7-2.83h0a3,3,0,0,0-2.47-.52c-2.17.53-3.72,3.36-3.74,3.39a.49.49,0,0,1-.43.26.45.45,0,0,1-.44-.24s-1.77-2.91-4-3.42A3.11,3.11,0,0,0,59.72,121.5Z" style="fill:#263238"></path><path d="M89.59,306.12c-3.87-2.61-6.94,3.05-6.94,3.05s-3.37-5.66-7.24-3.05-1.07,7.61,1.08,9.51,6.65,5.22,6.65,5.22,3.22-3.32,5.37-5.22S93.45,308.74,89.59,306.12Z" style="fill:#90CAF9"></path><path d="M83.14,321.35a.5.5,0,0,1-.29-.09c-.19-.14-4.56-3.37-6.7-5.26-1.36-1.21-3.33-4-3.16-6.7a4.55,4.55,0,0,1,2.14-3.59A4.1,4.1,0,0,1,78.4,305a8.11,8.11,0,0,1,4.24,3.22,7.51,7.51,0,0,1,4-3.2,4,4,0,0,1,3.28.66A4.54,4.54,0,0,1,92,309.3c.18,2.71-1.79,5.49-3.16,6.7-2.11,1.87-5.31,5.17-5.34,5.2A.51.51,0,0,1,83.14,321.35Zm-5.63-15.42a3.18,3.18,0,0,0-1.82.61,3.6,3.6,0,0,0-1.7,2.83c-.13,2.08,1.36,4.58,2.83,5.88,1.76,1.56,5.17,4.12,6.27,4.94.86-.88,3.34-3.39,5.09-4.94,1.47-1.3,3-3.8,2.82-5.88a3.56,3.56,0,0,0-1.69-2.83,3,3,0,0,0-2.47-.52c-2.17.52-3.73,3.36-3.75,3.39a.48.48,0,0,1-.43.26.55.55,0,0,1-.44-.24s-1.76-2.91-4-3.42A3.14,3.14,0,0,0,77.51,305.93Z" style="fill:#263238"></path></g><g id="freepik--Stars--inject-130"><polygon points="67.02 266.41 64.16 270.65 66.03 275.4 61.12 274 57.17 277.25 56.99 272.14 52.68 269.39 57.49 267.64 58.77 262.69 61.92 266.72 67.02 266.41" style="fill:#90CAF9"></polygon><path d="M57.17,277.75a.46.46,0,0,1-.2-.05.52.52,0,0,1-.3-.44l-.17-4.84-4.08-2.61a.51.51,0,0,1-.23-.48.48.48,0,0,1,.32-.41l4.56-1.66,1.22-4.7a.5.5,0,0,1,.87-.18l3,3.82,4.84-.29a.47.47,0,0,1,.46.25.51.51,0,0,1,0,.53l-2.72,4,1.78,4.51a.5.5,0,0,1-.1.52.47.47,0,0,1-.5.14l-4.67-1.33-3.74,3.08A.47.47,0,0,1,57.17,277.75Zm-3.36-8.24,3.45,2.2a.5.5,0,0,1,.23.41l.15,4.09,3.16-2.6a.51.51,0,0,1,.46-.1l3.94,1.13-1.5-3.81a.5.5,0,0,1,0-.46L66,267l-4.09.25a.52.52,0,0,1-.43-.19L59,263.8l-1,4a.52.52,0,0,1-.31.35Z" style="fill:#263238"></path><polygon points="196.4 90.3 193.54 94.54 195.41 99.29 190.49 97.89 186.55 101.14 186.37 96.03 182.06 93.28 186.86 91.53 188.14 86.58 191.29 90.61 196.4 90.3" style="fill:#263238"></polygon><path d="M186.55,101.64a.54.54,0,0,1-.21,0,.51.51,0,0,1-.29-.44l-.17-4.84-4.09-2.61a.51.51,0,0,1-.23-.48.49.49,0,0,1,.33-.41l4.55-1.66,1.22-4.7a.51.51,0,0,1,.38-.36.5.5,0,0,1,.5.18l3,3.82,4.84-.29a.49.49,0,0,1,.47.25.51.51,0,0,1,0,.53l-2.71,4,1.77,4.51a.49.49,0,0,1-.6.66l-4.66-1.33-3.74,3.08A.49.49,0,0,1,186.55,101.64Zm-3.37-8.24,3.46,2.2a.51.51,0,0,1,.23.41l.14,4.1,3.17-2.61a.49.49,0,0,1,.45-.1l3.94,1.13-1.5-3.81a.5.5,0,0,1,.05-.46l2.29-3.4-4.09.25a.49.49,0,0,1-.42-.19l-2.53-3.23-1,4A.53.53,0,0,1,187,92Z" style="fill:#263238"></path><polygon points="182.28 268.28 177.78 270.7 177.22 275.79 173.53 272.25 168.53 273.29 170.74 268.69 168.21 264.25 173.27 264.94 176.71 261.15 177.62 266.18 182.28 268.28" style="fill:#263238"></polygon><path d="M177.22,276.29a.49.49,0,0,1-.34-.14l-3.51-3.35-4.74,1a.5.5,0,0,1-.5-.18.49.49,0,0,1-.06-.52l2.11-4.37-2.41-4.21a.53.53,0,0,1,0-.53.52.52,0,0,1,.49-.22l4.8.65,3.26-3.58a.49.49,0,0,1,.86.24l.87,4.77,4.42,2a.47.47,0,0,1,.29.43.48.48,0,0,1-.26.46l-4.27,2.3-.53,4.82a.52.52,0,0,1-.32.42Zm-3.69-4.54a.52.52,0,0,1,.35.14l3,2.83.45-4.07a.49.49,0,0,1,.26-.39l3.6-1.94-3.73-1.68a.52.52,0,0,1-.29-.37l-.73-4-2.76,3a.5.5,0,0,1-.43.16l-4.07-.55,2,3.56a.47.47,0,0,1,0,.46l-1.77,3.7,4-.84Z" style="fill:#263238"></path><polygon points="139.79 156.09 135.29 158.51 134.73 163.59 131.04 160.06 126.03 161.1 128.25 156.49 125.72 152.06 130.78 152.74 134.22 148.96 135.13 153.99 139.79 156.09" style="fill:#90CAF9"></polygon><path d="M134.73,164.09a.49.49,0,0,1-.34-.14l-3.51-3.35-4.74,1a.52.52,0,0,1-.5-.18.51.51,0,0,1-.06-.53l2.11-4.37-2.41-4.21a.51.51,0,0,1,0-.52.52.52,0,0,1,.48-.22l4.81.65,3.26-3.59a.49.49,0,0,1,.51-.14.48.48,0,0,1,.35.39l.87,4.77,4.42,2a.51.51,0,0,1,0,.9l-4.27,2.3-.53,4.82a.49.49,0,0,1-.32.41A.57.57,0,0,1,134.73,164.09ZM131,159.56a.52.52,0,0,1,.35.14l3,2.83.44-4.07a.52.52,0,0,1,.26-.39l3.61-1.94-3.73-1.69a.49.49,0,0,1-.29-.36l-.73-4-2.76,3a.5.5,0,0,1-.43.16l-4.07-.55,2,3.56a.47.47,0,0,1,0,.46l-1.78,3.69,4-.83Z" style="fill:#263238"></path></g><g id="freepik--Emojis--inject-130"><circle cx="164.24" cy="146.74" r="14.28" transform="translate(-28.46 40.09) rotate(-12.82)" style="fill:#fff"></circle><path d="M164,162.41a15.78,15.78,0,0,1-9-2.77.5.5,0,0,1,.56-.82,14.9,14.9,0,1,0-2.73-2.4.49.49,0,0,1,0,.7.5.5,0,0,1-.71,0A15.9,15.9,0,1,1,164,162.41Z" style="fill:#263238"></path><path d="M164,156.06a9.54,9.54,0,0,1-8.8-5.83.5.5,0,0,1,.27-.66.49.49,0,0,1,.65.27,8.55,8.55,0,0,0,15.55.44.5.5,0,0,1,.67-.22.49.49,0,0,1,.22.67A9.5,9.5,0,0,1,164,156.06Z" style="fill:#263238"></path><path d="M154.84,145.6a.48.48,0,0,1-.39-.19.49.49,0,0,1,.07-.7s3.54-2.82,7.23-.65a.51.51,0,0,1,.18.69.51.51,0,0,1-.69.17c-3.09-1.82-6.06.54-6.09.57A.51.51,0,0,1,154.84,145.6Z" style="fill:#263238"></path><path d="M166.74,145.6a.5.5,0,0,1-.31-.89s3.54-2.82,7.22-.65a.5.5,0,1,1-.5.86c-3.1-1.82-6.06.54-6.09.57A.56.56,0,0,1,166.74,145.6Z" style="fill:#263238"></path><path d="M154.23,141.76a.45.45,0,0,1-.2,0,.51.51,0,0,1-.26-.66s1.84-3.95,7.38-3.32a.51.51,0,0,1,.44.56.49.49,0,0,1-.56.43c-4.8-.55-6.28,2.6-6.34,2.74A.52.52,0,0,1,154.23,141.76Z" style="fill:#263238"></path><path d="M174.61,141a.52.52,0,0,1-.38-.17,5.39,5.39,0,0,0-5.89-1.89.49.49,0,0,1-.65-.27A.51.51,0,0,1,168,138a6.39,6.39,0,0,1,7,2.15.48.48,0,0,1,0,.7A.46.46,0,0,1,174.61,141Z" style="fill:#263238"></path><circle cx="96.84" cy="203.33" r="14.28" style="fill:#fff"></circle><path d="M96.84,219.23a15.9,15.9,0,0,1,0-31.8,15.75,15.75,0,0,1,9.76,3.35.5.5,0,0,1,.08.7.49.49,0,0,1-.7.09,14.74,14.74,0,0,0-9.14-3.14,14.9,14.9,0,1,0,11.52,5.45.5.5,0,0,1,.07-.7.48.48,0,0,1,.7.07,15.89,15.89,0,0,1-12.29,26Z" style="fill:#263238"></path><path d="M96.84,212.88a9.52,9.52,0,0,1-8.79-5.83.5.5,0,0,1,.26-.66.51.51,0,0,1,.66.27,8.55,8.55,0,0,0,15.54.45.5.5,0,0,1,.9.44A9.49,9.49,0,0,1,96.84,212.88Z" style="fill:#263238"></path><path d="M91.39,204.35c-1,0-1.81-1.3-1.81-3s.78-3,1.81-3,1.81,1.3,1.81,3S92.42,204.35,91.39,204.35Zm0-5c-.32,0-.81.81-.81,2s.49,2,.81,2,.81-.81.81-2S91.71,199.31,91.39,199.31Z" style="fill:#263238"></path><path d="M101.89,204.35c-1,0-1.82-1.3-1.82-3s.78-3,1.82-3,1.81,1.3,1.81,3S102.92,204.35,101.89,204.35Zm0-5c-.33,0-.82.81-.82,2s.49,2,.82,2,.81-.81.81-2S102.21,199.31,101.89,199.31Z" style="fill:#263238"></path></g><g id="freepik--Lines--inject-130"><path d="M335.15,158.28a65.41,65.41,0,0,1-18-8.58,152.35,152.35,0,0,1-15.83-12.19c-10.17-8.56-20.3-17.16-30.8-25.27a283.23,283.23,0,0,0-32.76-22.38A129.94,129.94,0,0,0,220,81.31a73.92,73.92,0,0,0-18.9-4.74,47.09,47.09,0,0,0-19,1.78,42.25,42.25,0,0,0-8.71,3.9,95.58,95.58,0,0,0-8.06,5.53,67.76,67.76,0,0,1-8.63,5.55,26.46,26.46,0,0,1-4.92,2c-.87.24-1.7.56-2.59.72l-2.67.44a26.28,26.28,0,0,1-10.67-1.25,48.7,48.7,0,0,1-9.39-4.41c-5.8-3.47-11.18-7.19-17.19-9.27a95.26,95.26,0,0,0-18.93-5,72.18,72.18,0,0,0-9.77-.49,95.61,95.61,0,0,0-9.84.65q-4.94.5-9.81,1.42c-1.61.32-3.23.67-4.81,1.13A21.68,21.68,0,0,0,51.49,81h0a.2.2,0,0,1-.27-.08.21.21,0,0,1,.07-.27A34.11,34.11,0,0,1,60.63,77c3.24-.84,6.52-1.54,9.82-2.1a92.73,92.73,0,0,1,10-1.15,73.17,73.17,0,0,1,10.15,0c6.82.5,13.38,2.44,19.74,4.4,6.68,2.11,12.42,6,18.08,9.16a44.68,44.68,0,0,0,8.64,4,22.07,22.07,0,0,0,9,1c.75-.13,1.5-.26,2.25-.37s1.48-.4,2.22-.59a22.58,22.58,0,0,0,4.31-1.7A64.12,64.12,0,0,0,163,84.56,99.38,99.38,0,0,1,171.48,79a46.05,46.05,0,0,1,9.54-4,50.29,50.29,0,0,1,20.43-1.54A76.93,76.93,0,0,1,221,78.61a132.71,132.71,0,0,1,18,9,285.54,285.54,0,0,1,32.7,23.06c10.38,8.36,20.35,17.17,30.34,25.93A148.77,148.77,0,0,0,317.59,149a65,65,0,0,0,17.67,8.87.2.2,0,0,1,.14.25A.2.2,0,0,1,335.15,158.28Z" style="fill:#263238"></path><path d="M299.36,253.54A84,84,0,0,0,269.65,267c-4.44,3.17-8.52,6.84-12.75,10.38a74.11,74.11,0,0,1-13.66,9.55,43.71,43.71,0,0,1-7.89,3,44.61,44.61,0,0,1-8.34,1.27,86,86,0,0,1-16.68-.67c-11-1.39-21.73-4-32.53-4.33a65.49,65.49,0,0,0-16,1.45,88.56,88.56,0,0,0-15.41,4.75,111.58,111.58,0,0,0-14.49,7.19,136.75,136.75,0,0,0-13.54,9c-4.41,3.21-8.76,6.61-13.36,9.75a74.56,74.56,0,0,1-14.72,8.09,60.09,60.09,0,0,1-16.36,3.67,122.23,122.23,0,0,1-16.57.12.2.2,0,0,1-.19-.21.21.21,0,0,1,.19-.19,147.82,147.82,0,0,0,16.35-1.53,58.67,58.67,0,0,0,15.5-4.43,78.57,78.57,0,0,0,13.76-8.4c4.38-3.21,8.62-6.68,13-10.07A142.46,142.46,0,0,1,129.83,296,110.59,110.59,0,0,1,145,288.73a91.57,91.57,0,0,1,16.18-4.58,68.6,68.6,0,0,1,16.8-1.14c11.24.55,22,3.41,32.74,4.95a83.15,83.15,0,0,0,16.2,1,42.22,42.22,0,0,0,7.95-1.05,41.74,41.74,0,0,0,7.54-2.74,72.13,72.13,0,0,0,13.53-9c4.28-3.41,8.48-7,13.07-10.12a84.45,84.45,0,0,1,30.32-12.86.19.19,0,0,1,.23.15A.2.2,0,0,1,299.36,253.54Z" style="fill:#263238"></path><path d="M169.32,115.4a80.47,80.47,0,0,1,20.5-1.61,54.24,54.24,0,0,1,10.25,1.6,34.13,34.13,0,0,1,9.58,4.32,76,76,0,0,1,8.06,6.55c2.55,2.33,5,4.75,7.46,7a51.33,51.33,0,0,0,7.9,6.08,40.66,40.66,0,0,0,9,4c.8.23,1.6.42,2.4.64l1.2.3,1.22.23,2.44.45,2.51.33c3.35.45,6.72.75,10.1,1,6.75.55,13.66.78,20.56,2.2a64,64,0,0,1,10.12,3,64.79,64.79,0,0,1,9.35,4.78q8.73,5.4,17.24,11.16a.2.2,0,0,1,.05.28.2.2,0,0,1-.25.07q-9.32-4.35-18.43-9.06a72.48,72.48,0,0,0-9.19-3.92,63.39,63.39,0,0,0-9.63-2.41c-3.27-.57-6.61-.89-10-1.22l-10.2-1c-3.42-.38-6.85-.83-10.26-1.42l-2.56-.43-2.58-.57-1.29-.28-1.27-.37c-.84-.25-1.69-.49-2.53-.76a43.89,43.89,0,0,1-9.54-4.65,54.56,54.56,0,0,1-8.13-6.63c-2.48-2.41-4.82-4.9-7.25-7.26a77.07,77.07,0,0,0-7.65-6.59,32.73,32.73,0,0,0-8.87-4.42,54,54,0,0,0-9.9-1.94,79.56,79.56,0,0,0-20.32.82h0a.21.21,0,0,1-.23-.17A.21.21,0,0,1,169.32,115.4Z" style="fill:#263238"></path><path d="M164.73,222.07a37.28,37.28,0,0,0,6.37,5.38c1.13.81,2.34,1.5,3.52,2.23s2.44,1.34,3.72,1.87a49.89,49.89,0,0,0,15.94,4.29,67.21,67.21,0,0,0,16.51-.64,86.14,86.14,0,0,0,16.06-4.07c5.25-1.81,10.56-3.93,16.31-5.12a43.52,43.52,0,0,1,8.75-.81c.73,0,1.46,0,2.19.05l2.18.18c1.48.12,2.83.34,4.24.51l8.33,1.24c2.76.43,5.51.82,8.21,1a29.28,29.28,0,0,0,8.07-.54c2.71-.52,5.4-1.32,8.13-2a.19.19,0,0,1,.24.14.19.19,0,0,1-.1.23,61.77,61.77,0,0,1-7.79,3.44,29.65,29.65,0,0,1-4.21,1.13A28.18,28.18,0,0,1,277,231c-5.84.14-11.39-.63-17-1.1-1.39-.13-2.81-.31-4.14-.37l-2-.15c-.67,0-1.34,0-2,0a49.12,49.12,0,0,0-8,.55,66.77,66.77,0,0,0-8,1.81l-8,2.46a89.2,89.2,0,0,1-16.7,3.6,69.31,69.31,0,0,1-17.09,0,51.29,51.29,0,0,1-16.24-5.16c-1.29-.6-2.48-1.39-3.71-2.09s-2.38-1.56-3.49-2.44a38.63,38.63,0,0,1-6.19-5.8.2.2,0,0,1,0-.28.21.21,0,0,1,.28,0Z" style="fill:#263238"></path><path d="M48.37,199.84A63.59,63.59,0,0,0,56,198.31c2.49-.66,5-1.37,7.4-2.24a93.18,93.18,0,0,0,14.07-6.26,88.1,88.1,0,0,0,12.81-8.41A71.25,71.25,0,0,1,103.71,173,81.5,81.5,0,0,1,118.78,168a68.32,68.32,0,0,1,15.8-1.67c1.32,0,2.65,0,4,.12l3.95.3c2.62.37,5.24.67,7.81,1.28a67.37,67.37,0,0,1,14.93,4.92.2.2,0,0,1-.14.38,127.42,127.42,0,0,0-15.22-2.52,100.93,100.93,0,0,0-15.24-.49c-10.1.41-20.24,1.86-29.64,5.7a67.9,67.9,0,0,0-13.2,7.5,90.89,90.89,0,0,1-13.47,8.12,93.85,93.85,0,0,1-14.61,5.65,75.38,75.38,0,0,1-15.32,3,.19.19,0,0,1-.21-.18.21.21,0,0,1,.17-.22Z" style="fill:#263238"></path></g><g id="freepik--Character--inject-130"><path d="M374.62,159.31s6.33-6.18,9.19-.95-3.17,9-2.7,10.14,1.43,2.38,0,4-9-5.23-9.5-6S374.62,159.31,374.62,159.31Z" style="fill:#263238"></path><path d="M380.48,173.2h-.2c-2.6-.25-8.59-5.63-9.1-6.49-.42-.69.59-3.26,3-7.63a.47.47,0,0,1,.09-.12c.15-.14,3.76-3.63,7-3.14a4.12,4.12,0,0,1,3,2.31c2.13,3.92-.33,7.07-1.8,9a5.22,5.22,0,0,0-.86,1.28l.19.39c.49,1,1.16,2.43-.29,4.05A1.31,1.31,0,0,1,380.48,173.2ZM375,159.62c-1.5,2.74-3,6-3,6.63.39.59,6.19,5.76,8.33,5.95a.5.5,0,0,0,.35-.07c1-1.12.6-2,.14-2.95-.08-.16-.16-.32-.23-.48-.26-.61.25-1.26,1-2.24,1.41-1.8,3.53-4.52,1.71-7.86a3.13,3.13,0,0,0-2.3-1.8C378.55,156.42,375.45,159.21,375,159.62Z" style="fill:#263238"></path><path d="M396.21,256.68l8.72,20.69s16.13,5.73,22.29,6.37,16.82.76,16.82.76,10.61-2.33,12.09-2.33,7.43,3.39,9.77,4.45,3.6,1.7,2.12,2.34a9.1,9.1,0,0,1-5.31.21,22,22,0,0,0-4.24-.42s3,1.48,1.48,1.91-3.82-.43-5.09-.43-5.52.64-7.64.64a20.78,20.78,0,0,1-5.52-1.28s-24.88,3.91-32.1,5.18a19.49,19.49,0,0,1-15.07-3.18c-2.54-1.91-6.6-12.63-6.6-12.63l8.49-23.77" style="fill:#fff"></path><path d="M405.71,295.62A19.19,19.19,0,0,1,394.23,292c-2.63-2-6.6-12.41-6.76-12.85a.47.47,0,0,1,0-.35L396,255a.5.5,0,0,1,.64-.3.49.49,0,0,1,.3.64l-.34.95a.66.66,0,0,1,.12.17L405.31,277c1.9.67,16.31,5.69,22,6.27,5.83.6,15.86.75,16.71.76.93-.2,10.67-2.33,12.15-2.33,1.08,0,3.63,1.27,7.12,3.07,1.11.57,2.16,1.11,2.85,1.43,2,.91,3.07,1.43,3.06,2.22,0,.63-.71.93-1,1a9.52,9.52,0,0,1-5.62.24,14.16,14.16,0,0,0-2.3-.34,1.39,1.39,0,0,1,.58,1.05c0,.21-.15.59-.78.77a8.28,8.28,0,0,1-3.58-.18,10.21,10.21,0,0,0-1.65-.23c-.53,0-1.68.13-2.89.26-1.65.18-3.53.38-4.75.38a20.53,20.53,0,0,1-5.57-1.26c-1.94.3-25.1,3.94-32,5.16A23.75,23.75,0,0,1,405.71,295.62ZM388.47,279c1.17,3.07,4.41,10.76,6.36,12.23a19.08,19.08,0,0,0,14.68,3.09c7.14-1.26,31.87-5.14,32.11-5.18a.57.57,0,0,1,.26,0,20.47,20.47,0,0,0,5.34,1.24c1.17,0,3-.2,4.64-.38,1.3-.14,2.42-.26,3-.26a10.68,10.68,0,0,1,1.84.25,8,8,0,0,0,3.06.21,7.09,7.09,0,0,0-1.52-1,.5.5,0,0,1,.23-.94,21.51,21.51,0,0,1,4.36.44,8.49,8.49,0,0,0,5-.19,1.3,1.3,0,0,0,.28-.15,13,13,0,0,0-2.41-1.27c-.72-.33-1.73-.85-2.9-1.45-2.28-1.18-5.74-3-6.66-3-1.17,0-9.05,1.67-12,2.32H444c-.11,0-10.76-.13-16.86-.77s-21.74-6.15-22.4-6.39a.52.52,0,0,1-.3-.28l-8.39-19.91Z" style="fill:#263238"></path><path d="M409.88,279.06c-2.9-1-4.95-1.69-4.95-1.69l-8.72-20.69.21-1.49L387.93,279s4.06,10.72,6.6,12.63a18.92,18.92,0,0,0,11,3.52Z" style="fill:#90CAF9"></path><path d="M405.53,295.61h0a19.4,19.4,0,0,1-11.3-3.62c-2.63-2-6.6-12.41-6.76-12.85a.47.47,0,0,1,0-.35L396,255a.5.5,0,0,1,1,.24l-.19,1.35L405.31,277c.59.21,2.37.83,4.73,1.61a.5.5,0,0,1,.32.61L406,295.24A.48.48,0,0,1,405.53,295.61ZM388.47,279c1.17,3.07,4.41,10.76,6.36,12.23a18.34,18.34,0,0,0,10.32,3.41l4.13-15.22c-2.68-.89-4.51-1.54-4.51-1.54a.52.52,0,0,1-.3-.28l-8.39-19.91Z" style="fill:#263238"></path><path d="M458.47,289.25l-.13,0-7.43-1.91a.51.51,0,0,1-.36-.61.5.5,0,0,1,.61-.36l7.43,1.91a.5.5,0,0,1-.12,1Z" style="fill:#263238"></path><path d="M315.7,440.69s-8.82,23.6-9.77,26.46-2.86,6.44.24,7.87,7.15.47,8.82.47,4.76,1.91,7.15,3.34,10.49,1.67,11.44,1.67,2.62-2.14,1.91-3.34-5.72-3.57-8.11-5.24-7.15-9.78-6.91-11.68,6.67-15,6.67-15Z" style="fill:#fff"></path><path d="M333.58,481c-.09,0-9-.13-11.7-1.74l-.31-.19c-2.17-1.3-5.13-3.08-6.58-3.08-.37,0-.9.06-1.5.12-2,.2-5.05.51-7.53-.64-3.09-1.42-1.9-4.65-.94-7.25.15-.42.3-.83.43-1.23.95-2.83,9.42-25.51,9.78-26.48a.57.57,0,0,1,.27-.28.5.5,0,0,1,.38,0l11.45,4.53a.53.53,0,0,1,.28.29.47.47,0,0,1,0,.4C325,450.68,321.13,459,321,460.3c-.2,1.58,4.35,9.57,6.7,11.21.89.63,2.2,1.37,3.47,2.1,2.66,1.52,4.3,2.51,4.78,3.3a2.39,2.39,0,0,1-.2,2.41C335.26,480.13,334.4,481,333.58,481ZM315,475c1.73,0,4.58,1.72,7.09,3.22l.32.19c2.17,1.31,9.86,1.6,11.18,1.6a2.29,2.29,0,0,0,1.27-1.17,1.5,1.5,0,0,0,.21-1.41c-.37-.62-2.62-1.91-4.42-2.94-1.28-.74-2.61-1.5-3.54-2.15-2.53-1.77-7.39-10.06-7.13-12.15.23-1.79,5.2-12.07,6.49-14.7L316,441.34c-1.26,3.37-8.72,23.37-9.59,26-.13.41-.29.83-.45,1.26-1.1,3-1.66,5,.43,6s5.11.75,7,.55C314,475.05,314.56,475,315,475Z" style="fill:#263238"></path><path d="M335.49,477.16c-.72-1.19-5.72-3.57-8.11-5.24-1.61-1.13-4.33-5.23-5.83-8.34A3.35,3.35,0,0,0,319,465a16.31,16.31,0,0,0-1.43,2.62A92,92,0,0,1,307.06,464c-.56,1.53-1,2.67-1.13,3.17-1,2.86-2.86,6.44.24,7.87s7.15.47,8.82.47,4.76,1.91,7.15,3.34,10.49,1.67,11.44,1.67S336.2,478.36,335.49,477.16Z" style="fill:#263238"></path><path d="M333.58,481c-.09,0-9-.13-11.7-1.74l-.31-.19c-2.16-1.3-5.12-3.08-6.58-3.08-.37,0-.9.06-1.5.12-2,.2-5.05.51-7.53-.64-3.09-1.42-1.9-4.65-.94-7.25.15-.42.3-.83.43-1.23s.58-1.65,1.14-3.18a.5.5,0,0,1,.67-.29A90.73,90.73,0,0,0,317.33,467a16.5,16.5,0,0,1,1.29-2.3,3.87,3.87,0,0,1,2.89-1.65.5.5,0,0,1,.49.28c1.44,3,4.13,7.07,5.67,8.15.9.63,2.2,1.38,3.47,2.1,2.66,1.52,4.3,2.51,4.78,3.3h0a2.39,2.39,0,0,1-.2,2.41C335.26,480.13,334.4,481,333.58,481ZM315,475c1.73,0,4.58,1.72,7.1,3.23l.3.18c2.18,1.31,9.87,1.6,11.19,1.6a2.29,2.29,0,0,0,1.27-1.17,1.5,1.5,0,0,0,.21-1.41h0c-.37-.62-2.62-1.91-4.42-2.94-1.28-.74-2.61-1.5-3.54-2.15-1.64-1.15-4.29-5.09-5.84-8.21a2.79,2.79,0,0,0-1.8,1.16,17.08,17.08,0,0,0-1.39,2.53.49.49,0,0,1-.59.3,96.16,96.16,0,0,1-10.13-3.46c-.46,1.27-.8,2.22-1,2.66s-.29.83-.45,1.26c-1.1,3-1.66,5,.43,6,2.24,1,5.11.75,7,.55C314,475.05,314.56,475,315,475Z" style="fill:#263238"></path><path d="M344.07,346.52s1.43,31.47.48,34.81S334.3,393,332.15,399.92s-18.83,44.82-18.83,44.82l18.35,8.58s24.8-39.57,28.85-51.49,15-37.43,15-37.43Z" style="fill:#8a8a8a"></path><path d="M331.67,453.82a.52.52,0,0,1-.21,0l-18.35-8.59a.49.49,0,0,1-.25-.65c.17-.38,16.7-38,18.81-44.76,1.29-4.14,5.06-8.76,8.09-12.47,2.11-2.59,3.94-4.83,4.31-6.12.73-2.58,0-23.79-.5-34.64a.48.48,0,0,1,.24-.45.49.49,0,0,1,.51,0L375.79,364a.5.5,0,0,1,.21.63c-.11.25-11,25.63-15,37.39s-27.88,50-28.89,51.6A.51.51,0,0,1,331.67,453.82ZM314,444.5l17.51,8.18c2.54-4.07,24.79-39.9,28.57-51S373.47,368,374.9,364.62l-30.29-17.21c.23,5.28,1.3,31,.42,34.06-.43,1.48-2.22,3.68-4.5,6.47-3,3.65-6.68,8.18-7.9,12.13C330.6,406.61,315.94,440,314,444.5Z" style="fill:#263238"></path><path d="M427.29,445.61l13.11,16s10.49.48,14.54-.72,8.59-6,9.06-3.57-1.43,8.34-4.53,11.68-16.21,9.53-19.54,10.73-5.25-2.39-6-4.06-1.43-5.48-2.15-6.91-17.4-17.64-17.4-17.64Z" style="fill:#fff"></path><path d="M438.6,480.44c-2,0-3.8-1.58-5.09-4.6a26.11,26.11,0,0,1-1-3.4,23.66,23.66,0,0,0-1.1-3.49c-.49-1-10.87-11.26-17.3-17.5a.51.51,0,0,1-.14-.45.5.5,0,0,1,.29-.37l12.87-5.48a.51.51,0,0,1,.59.14l13,15.8c1.53.06,10.55.35,14.15-.71a21.2,21.2,0,0,0,4.86-2.51c1.87-1.18,3.22-2,4.14-1.64a1.2,1.2,0,0,1,.69,1c.53,2.63-1.51,8.74-4.65,12.12-3.3,3.55-16.75,9.79-19.75,10.86A4.39,4.39,0,0,1,438.6,480.44Zm-23.29-29.19c3.19,3.11,16.28,15.89,17,17.26a22.7,22.7,0,0,1,1.16,3.67,27.51,27.51,0,0,0,1,3.27c.79,1.84,2.53,4.77,5.33,3.78,3.44-1.23,16.35-7.38,19.35-10.6s4.82-9.14,4.4-11.24c0-.05,0-.22-.11-.24-.43-.19-2,.78-3.21,1.56a21.28,21.28,0,0,1-5.1,2.63c-4.09,1.21-14.28.76-14.71.74a.5.5,0,0,1-.36-.18l-12.88-15.69Z" style="fill:#263238"></path><path d="M454.94,460.86a31.06,31.06,0,0,1-7,.77l.56,5.43s-9.64,4-15.62,5a31.13,31.13,0,0,0,1.08,3.57c.71,1.67,2.62,5.25,6,4.06s16.45-7.39,19.54-10.73,5-9.3,4.53-11.68S459,459.67,454.94,460.86Z" style="fill:#263238"></path><path d="M438.6,480.44c-2,0-3.8-1.58-5.09-4.6a26.11,26.11,0,0,1-1-3.4l-.07-.24a.55.55,0,0,1,.06-.4.49.49,0,0,1,.34-.22c5.23-.91,13.4-4.13,15.17-4.84l-.52-5.05a.47.47,0,0,1,.12-.38.5.5,0,0,1,.36-.18,29.83,29.83,0,0,0,6.87-.75h0a21.2,21.2,0,0,0,4.86-2.51c1.87-1.18,3.22-2,4.14-1.64a1.2,1.2,0,0,1,.69,1c.53,2.63-1.51,8.74-4.65,12.12-3.3,3.55-16.75,9.79-19.75,10.86A4.39,4.39,0,0,1,438.6,480.44Zm-5.09-8a25,25,0,0,0,.92,3c.79,1.84,2.53,4.77,5.33,3.78,3.44-1.23,16.35-7.38,19.35-10.6s4.82-9.14,4.4-11.24c0-.05,0-.22-.11-.24-.43-.19-2,.78-3.21,1.56a21.28,21.28,0,0,1-5.1,2.63h0a29.29,29.29,0,0,1-6.59.78L449,467a.5.5,0,0,1-.31.51C448.31,467.68,439.48,471.3,433.51,472.46Z" style="fill:#263238"></path><path d="M352.92,286.6,351,292.76s-17.77,18.81-18.62,31.55,4.4,22.36,9.7,26,38.84,42.24,40.75,45.42,6.32,24.67,11.84,33.79,19.1,31.5,19.1,31.5l18.52-12.75s-21.66-41.29-26.11-54.45-7-22.92-9.55-28-8.71-24.41-8.71-24.41,4.67-15.92,5.31-28.44-.21-28.44-.21-28.44Z" style="fill:#8a8a8a"></path><path d="M413.78,461.48h-.1a.52.52,0,0,1-.33-.23s-13.58-22.37-19.1-31.5c-3.51-5.81-6.58-16.57-8.82-24.43-1.26-4.42-2.35-8.24-3-9.36-2-3.33-35.3-41.66-40.6-45.26S331,337.2,331.9,324.28c.83-12.47,17.2-30.22,18.66-31.78l1.88-6a.52.52,0,0,1,.45-.36L393,284a.5.5,0,0,1,.53.47c0,.16.84,16.09.21,28.5-.6,11.79-4.81,26.75-5.28,28.4.57,1.79,6.24,19.42,8.62,24.19,1.64,3.29,3.3,8.53,5.4,15.18,1.2,3.81,2.57,8.13,4.18,12.9,4.39,13,25.86,54,26.08,54.38a.49.49,0,0,1-.16.64l-18.52,12.75A.47.47,0,0,1,413.78,461.48Zm-60.49-174.4-1.81,5.83a.45.45,0,0,1-.11.19c-.18.19-17.65,18.83-18.48,31.24s4.33,22,9.48,25.52c5.34,3.63,38.89,42.22,40.9,45.57.74,1.24,1.79,4.93,3.12,9.61,2.23,7.8,5.27,18.49,8.72,24.19,5.05,8.35,16.87,27.82,18.82,31l17.72-12.2c-2.23-4.27-21.75-41.77-25.94-54.13-1.62-4.77-3-9.1-4.19-12.92-2.08-6.6-3.73-11.82-5.33-15-2.54-5.07-8.48-23.69-8.73-24.48a.48.48,0,0,1,0-.29c0-.16,4.65-16,5.28-28.33.57-11.11-.05-25.09-.19-27.88ZM351,292.76h0Z" style="fill:#263238"></path><path d="M364.38,316.18l-.13,0a.5.5,0,0,1-.36-.61l5.95-22.5a.5.5,0,1,1,1,.26l-5.94,22.5A.5.5,0,0,1,364.38,316.18Z" style="fill:#263238"></path><path d="M370.32,317.45h0a.5.5,0,0,1-.46-.53l.28-3.87a.51.51,0,0,1,.53-.46.49.49,0,0,1,.46.53l-.27,3.87A.5.5,0,0,1,370.32,317.45Z" style="fill:#263238"></path><path d="M370.82,310.47h0a.5.5,0,0,1-.46-.54l1.2-16.78a.52.52,0,0,1,.53-.47.5.5,0,0,1,.47.54L371.32,310A.5.5,0,0,1,370.82,310.47Z" style="fill:#263238"></path><path d="M388.57,314.69a.51.51,0,0,1-.5-.45l-.39-4a.5.5,0,0,1,1-.09l.39,4a.5.5,0,0,1-.45.55Z" style="fill:#263238"></path><path d="M388,308.66a.5.5,0,0,1-.5-.45L386,292.59a.5.5,0,0,1,1-.09l1.53,15.61a.51.51,0,0,1-.45.55Z" style="fill:#263238"></path><path d="M387.93,341.86a.51.51,0,0,1-.46-.31c0-.11-4.48-11-9.46-16.63a.5.5,0,0,1,.75-.66c5.09,5.73,9.45,16.46,9.64,16.91a.5.5,0,0,1-.28.65A.41.41,0,0,1,387.93,341.86Z" style="fill:#263238"></path><path d="M351.36,291.62l41.92-.85c-.12-3.79-.25-6.29-.25-6.29l-40.11,2.12Z" style="fill:#fff"></path><path d="M351.36,292.12a.5.5,0,0,1-.4-.19.49.49,0,0,1-.08-.45l1.56-5a.52.52,0,0,1,.45-.36L393,284a.5.5,0,0,1,.53.47s.13,2.51.25,6.3a.43.43,0,0,1-.14.36.46.46,0,0,1-.35.16l-41.92.85Zm1.93-5-1.25,4,40.73-.83c-.09-2.53-.17-4.42-.22-5.27Z" style="fill:#263238"></path><path d="M335.73,240.12l-20.59,44.57s-3.4-.85-11.89,10.4-16.1,17.51-17.16,18.15-12.73,4.24-14.85,6.36-4.67,8.7-6.8,11.25-4.24,4.88-1.91,4.46,8.49-4.25,10.4-4.88,8.92-4.67,8.92-4.67-4,5.73-4,7.64,2.33,2.33,2.75,1.27a44,44,0,0,1,2.76-5.3c1.06-1.7,3.4-4.67,4.46-7.22l1.06-2.55s29.68-18.78,32.44-21.54,5.31-7.85,6.16-8.7,15.28-21.65,15.28-21.65l6.79,22.5s33.75.21,47.75-4.24c0,0,1.28-34-.85-42.45s-6.63-16.93-9.57-19.29-16.53-5.54-32.24-1.3S335.73,240.12,335.73,240.12Z" style="fill:#fff"></path><path d="M262.07,335.86a1,1,0,0,1-.94-.44c-.46-.79.47-2,2.45-4.31l.48-.58a34.4,34.4,0,0,0,3.12-5.28c1.24-2.37,2.52-4.82,3.7-6,1.56-1.56,7.68-3.76,11.73-5.22,1.51-.54,2.95-1.06,3.23-1.22.77-.47,8.39-6.59,17-18,7.1-9.4,10.76-10.54,12-10.61L335.25,240c.25-.9,3.93-13.36,19.23-17.5,16.48-4.45,29.87-.86,32.68,1.39s7.55,10.77,9.75,19.56c2.11,8.46.91,41.2.86,42.59a.48.48,0,0,1-.35.45c-13.92,4.43-47.56,4.27-47.9,4.27a.5.5,0,0,1-.48-.35l-6.49-21.51c-3,4.26-14,20.08-14.75,20.87a18.08,18.08,0,0,0-1.42,2.14,38,38,0,0,1-4.73,6.56c-2.7,2.7-30,20-32.4,21.52l-1,2.4a33.49,33.49,0,0,1-3.34,5.58c-.45.65-.85,1.23-1.15,1.71a42.13,42.13,0,0,0-2.72,5.23,1.59,1.59,0,0,1-1.87.84,2.27,2.27,0,0,1-1.85-2.3c0-1.37,1.7-4.26,2.93-6.16a68.41,68.41,0,0,1-7.16,3.66,34.65,34.65,0,0,0-3.79,1.87c-2.44,1.3-5.21,2.76-6.68,3A3,3,0,0,1,262.07,335.86Zm0-1a2.85,2.85,0,0,0,.4,0c1.32-.24,4.13-1.74,6.39-2.93a33.57,33.57,0,0,1,3.95-1.94c1.84-.61,8.75-4.59,8.82-4.63a.5.5,0,0,1,.62.1.5.5,0,0,1,0,.62c-1.59,2.26-3.94,6.07-3.94,7.36a1.29,1.29,0,0,0,1,1.32c.29,0,.65,0,.75-.23a43.3,43.3,0,0,1,2.8-5.39c.31-.49.72-1.09,1.18-1.75a33.07,33.07,0,0,0,3.24-5.39l1.06-2.55a.6.6,0,0,1,.19-.23c.3-.19,29.67-18.78,32.36-21.47a37.1,37.1,0,0,0,4.59-6.38,17,17,0,0,1,1.56-2.32c.61-.61,9.44-13.24,15.23-21.58a.49.49,0,0,1,.49-.21.51.51,0,0,1,.4.35l6.68,22.14c3.67,0,33.72-.09,46.9-4.12.12-3.63,1.11-34.09-.85-41.95-2.15-8.59-6.6-16.77-9.4-19-2.61-2.08-15.89-5.5-31.8-1.2-15.24,4.12-18.5,16.7-18.53,16.82l0,.09L315.59,284.9a.5.5,0,0,1-.57.28s-3.36-.4-11.37,10.21c-8.85,11.73-16.46,17.77-17.3,18.27A31.53,31.53,0,0,1,283,315c-3.73,1.34-10,3.58-11.36,5a28.18,28.18,0,0,0-3.52,5.75,35.07,35.07,0,0,1-3.24,5.46l-.49.58A17,17,0,0,0,262,334.86Zm73.68-94.74h0Z" style="fill:#263238"></path><path d="M386.85,224.23c-3-2.36-16.53-5.54-32.24-1.3s-18.88,17.19-18.88,17.19l-20.59,44.57s-1.58-.39-5.25,2.9l10.67,11.11a8.71,8.71,0,0,0,.73-.64c2.76-2.76,5.31-7.85,6.16-8.7s15.28-21.65,15.28-21.65l6.79,22.5s33.75.21,47.75-4.24c0,0,1.28-34-.85-42.45S389.79,226.59,386.85,224.23Z" style="fill:#90CAF9"></path><path d="M320.56,299.2a.51.51,0,0,1-.36-.15l-10.67-11.11a.46.46,0,0,1-.14-.36.48.48,0,0,1,.16-.36c2.83-2.53,4.53-3,5.27-3l20.45-44.28s3.41-13.19,19.21-17.46c16.48-4.45,29.87-.86,32.68,1.39h0c2.93,2.35,7.55,10.77,9.75,19.56,2.11,8.46.91,41.2.86,42.59a.48.48,0,0,1-.35.45c-13.92,4.43-47.56,4.27-47.9,4.27a.5.5,0,0,1-.48-.35l-6.49-21.51c-3,4.26-14,20.08-14.75,20.87a18.08,18.08,0,0,0-1.42,2.14,38,38,0,0,1-4.73,6.56c-.16.15-.43.39-.78.67A.51.51,0,0,1,320.56,299.2Zm-9.95-11.57,10,10.39.34-.31a37.1,37.1,0,0,0,4.59-6.38,17,17,0,0,1,1.56-2.32c.61-.61,9.44-13.24,15.23-21.58a.49.49,0,0,1,.49-.21.51.51,0,0,1,.4.35l6.68,22.14c3.67,0,33.72-.09,46.9-4.12.12-3.63,1.11-34.09-.85-41.95-2.15-8.59-6.6-16.77-9.4-19-2.61-2.08-15.89-5.5-31.79-1.2-15.22,4.11-18.51,16.7-18.54,16.82L315.59,284.9a.5.5,0,0,1-.57.28h0S313.65,285,310.61,287.63Z" style="fill:#263238"></path><path d="M342.73,268.21a.5.5,0,0,1-.39-.81l7.59-9.58a.5.5,0,0,1,.78.62l-5.62,7.1,7-4.69a.49.49,0,0,1,.69.13.5.5,0,0,1-.14.7L343,268.13A.5.5,0,0,1,342.73,268.21Z" style="fill:#263238"></path><path d="M262.11,334.32a.5.5,0,0,1-.32-.89l10.4-8.48a.5.5,0,0,1,.71.07.5.5,0,0,1-.07.7l-10.4,8.49A.5.5,0,0,1,262.11,334.32Z" style="fill:#263238"></path><path d="M371.45,163s6.81,4.27,8.24,6.49,4.43,6.5,7.29,7.92,6.49.64,6.65,2.7-1.27,5.23-1.27,5.23a52.58,52.58,0,0,1,1.9,8.39c.32,3.33.95,7.29-.15,8.08s-12.52,2.54-12.52,2.54-4,9.35-4,12.67,7.76,10.3,7.76,10.3-.63,5.87-5.07,8.56-14.26-2.06-16.16-3.8,2.85-4.28-1.27-17.12-9.66-14.89-8.39-26S371.45,163,371.45,163Z" style="fill:#fff"></path><path d="M376.92,237.13c-5,0-11.6-3.35-13.1-4.73-.9-.83-.66-1.79-.33-3.13.56-2.29,1.51-6.13-1.07-14.19a61.22,61.22,0,0,0-4.85-11c-2.54-4.74-4.37-8.17-3.57-15.19,1.27-11.14,16.46-25.67,17.1-26.29a.51.51,0,0,1,.61-.06c.29.18,6.93,4.37,8.4,6.65,1.19,1.86,4.28,6.34,7.09,7.75a12.15,12.15,0,0,0,3.44.93c1.73.29,3.37.56,3.49,2.17a13.82,13.82,0,0,1-1.24,5.3,51.28,51.28,0,0,1,1.87,8.32c.05.5.1,1,.16,1.53.41,3.83.58,6.22-.52,7s-10,2.21-12.46,2.58c-.63,1.52-3.81,9.34-3.81,12.22,0,2.55,5.48,8,7.59,9.93a.51.51,0,0,1,.17.43c0,.25-.71,6.14-5.31,8.93A7.06,7.06,0,0,1,376.92,237.13Zm-5.41-73.54C369.41,165.66,356.13,179,355,189c-.76,6.7,1,10,3.46,14.6a62.44,62.44,0,0,1,4.92,11.17c2.67,8.33,1.64,12.5,1.09,14.74-.33,1.31-.41,1.75,0,2.16,1.73,1.59,11.33,6.31,15.56,3.74,3.67-2.22,4.62-6.82,4.8-7.93-1.41-1.29-7.73-7.24-7.73-10.5s3.83-12.48,4-12.87a.51.51,0,0,1,.38-.3c4.69-.71,11.61-1.94,12.31-2.44s.36-3.73.1-6.08c-.05-.52-.11-1-.15-1.55a52.49,52.49,0,0,0-1.89-8.29.56.56,0,0,1,0-.36s1.37-3.08,1.22-5c-.06-.76-.85-1-2.65-1.26a12.89,12.89,0,0,1-3.73-1c-2.92-1.46-5.94-5.7-7.48-8.1C378.09,167.89,372.88,164.47,371.51,163.59Z" style="fill:#263238"></path><polygon points="381.59 204.31 376.59 203.48 378.97 209.59 381.59 204.31" style="fill:#263238"></polygon><path d="M379,210.09h0a.5.5,0,0,1-.45-.32l-2.38-6.11a.53.53,0,0,1,.08-.5.49.49,0,0,1,.47-.18l5,.84a.47.47,0,0,1,.36.26.48.48,0,0,1,0,.45l-2.62,5.28A.51.51,0,0,1,379,210.09Zm-1.6-6,1.65,4.24,1.82-3.66Z" style="fill:#263238"></path><path d="M379.76,180.81a6.24,6.24,0,0,1-1.12-.09.49.49,0,0,1-.39-.59.48.48,0,0,1,.58-.39c.15,0,3.64.65,4.17-2.14a.5.5,0,1,1,1,.19,3.41,3.41,0,0,1-1.44,2.28A5,5,0,0,1,379.76,180.81Z" style="fill:#263238"></path><path d="M375.57,177.24a.51.51,0,0,1-.5-.43c-.24-1.81.23-5.39,3.75-5.95a.49.49,0,0,1,.57.41.51.51,0,0,1-.42.58c-3.42.55-2.93,4.65-2.91,4.83a.5.5,0,0,1-.43.56Z" style="fill:#263238"></path><path d="M385.71,190.06a7.71,7.71,0,0,1-4.43-1.36.51.51,0,0,1-.09-.7.5.5,0,0,1,.7-.09,7.19,7.19,0,0,0,7.7.11.52.52,0,0,1,.68.21.5.5,0,0,1-.21.68A9.16,9.16,0,0,1,385.71,190.06Z" style="fill:#263238"></path><path d="M345.15,166.13s4.75-8.08,12.67-11.25,13.63-1.27,16.48,1.74,2.54,6.65-1.58,13.31-7,10.14-6.66,11.56,3,6.82,2.38,8.4c0,0-4.76-4-7.61-.47s-.63,9.66,2.22,10.45a10.18,10.18,0,0,0,5.55-.16s-3.17,3.49-3.17,6.82,7.13,7.92,7.13,16.32-4.91,14.26-8.88,14.1-8.87-6.18-12.19-5.23-1.43,7.29-5.07,9-4.44-1.58-7,.48-.63,4.59-3.17,5.7-8.55-1.9-9.34-1.27.31,1,1.42,4.12-.63,5.71-4.91,5.55-9.82-3.17-8.87-9.35,5.7-4.44,5.86-6.66-5.7,1.11-6.5-11.24,4.76-9.67,8.4-9.67,6.66-5.23,3-9.19-7.92-3.64-4.28-11.88,11.41-5.39,13.63-7.45-2.85-7.76,2.06-15.37S345.15,166.13,345.15,166.13Z" style="fill:#263238"></path><path d="M323.81,255.83h-.39a10.82,10.82,0,0,1-7.72-3.57,7.83,7.83,0,0,1-1.63-6.36c.64-4.13,2.95-5,4.48-5.58,1-.37,1.35-.56,1.38-1,0-.23,0-.29-.85-.57-1.77-.58-5.07-1.65-5.64-10.61-.31-4.75.3-7.78,1.84-9.27s3.57-1.23,5.39-1.05c.59.06,1.15.12,1.66.12a4.29,4.29,0,0,0,3.74-2.72,5.1,5.1,0,0,0-1.1-5.63,19.9,19.9,0,0,0-2.6-2.28c-2.61-2-4.67-3.57-1.76-10.14,2.57-5.83,7.12-6.36,10.44-6.74,1.45-.17,2.7-.32,3.3-.88s.48-1.67.14-3.52c-.53-2.93-1.26-6.95,1.84-11.75,4.34-6.71,7.62-8.24,8.49-8.55.75-1.21,5.37-8.31,12.82-11.29,10.26-4.1,15.62.39,17,1.87,3.09,3.25,2.66,7.16-1.52,13.91-1.28,2.07-2.41,3.79-3.41,5.32-2,3-3.35,5.1-3.18,5.88a20.46,20.46,0,0,0,.78,2.13c1.18,3,2.05,5.37,1.57,6.56a.49.49,0,0,1-.34.3.53.53,0,0,1-.44-.1s-2.43-2-4.68-1.78a3.16,3.16,0,0,0-2.22,1.23,6.59,6.59,0,0,0-.82,6.17c.57,1.81,1.66,3.18,2.78,3.49a9.79,9.79,0,0,0,5.25-.15.5.5,0,0,1,.58.2.5.5,0,0,1,0,.61s-3,3.39-3,6.48c0,1.12,1.05,2.58,2.27,4.27,2.05,2.84,4.86,6.73,4.86,12,0,5-1.74,9.65-4.65,12.44a6.8,6.8,0,0,1-4.74,2.16c-2-.08-4.14-1.49-6.2-2.85s-4.3-2.85-5.85-2.4c-1.35.39-1.67,2-2.05,3.77-.41,2-.87,4.24-2.94,5.23a4.81,4.81,0,0,1-4.31.13,2.12,2.12,0,0,0-2.56.28,3.9,3.9,0,0,0-1.4,2.85,3.2,3.2,0,0,1-1.89,2.93c-1.67.73-4.46-.08-6.71-.74a10.25,10.25,0,0,0-2.57-.57l0,.06c0,.05.18.33.33.58a15.54,15.54,0,0,1,1.34,2.9,4.56,4.56,0,0,1-.39,4.34A5.5,5.5,0,0,1,323.81,255.83Zm-5.09-37.17a3.78,3.78,0,0,0-2.75.9c-1.32,1.28-1.82,4.05-1.54,8.48.53,8.29,3.3,9.19,5,9.73.76.25,1.62.53,1.54,1.59s-1.07,1.53-2,1.89c-1.47.56-3.3,1.25-3.85,4.81a6.79,6.79,0,0,0,1.41,5.56,9.83,9.83,0,0,0,7,3.21c1.93.08,3.41-.45,4.16-1.46a3.63,3.63,0,0,0,.26-3.42,14.16,14.16,0,0,0-1.27-2.73c-.4-.68-.77-1.33,0-1.95.51-.4,1.42-.16,3.43.42s4.69,1.37,6,.78c1-.45,1.14-1.13,1.3-2.16a4.87,4.87,0,0,1,1.76-3.47,3.05,3.05,0,0,1,3.53-.45,3.89,3.89,0,0,0,3.54-.09c1.62-.78,2-2.69,2.39-4.53s.82-4,2.76-4.53,4.26.93,6.67,2.52c2,1.29,4,2.62,5.68,2.69a5.76,5.76,0,0,0,4-1.88c2.72-2.61,4.34-7,4.34-11.72,0-5-2.59-8.58-4.67-11.46-1.37-1.91-2.46-3.42-2.46-4.86a11.15,11.15,0,0,1,2.37-6,10.27,10.27,0,0,1-4.38-.19c-1.46-.4-2.79-2-3.48-4.15a7.56,7.56,0,0,1,1-7.1,4.15,4.15,0,0,1,2.9-1.6A7.85,7.85,0,0,1,368,189a25.63,25.63,0,0,0-1.63-5.08,20.78,20.78,0,0,1-.83-2.29c-.26-1.19.94-3,3.32-6.64,1-1.52,2.13-3.24,3.4-5.3,3.94-6.36,4.39-9.8,1.65-12.7-1.29-1.36-6.25-5.49-15.93-1.62-7.68,3.07-12.38,11-12.43,11a.5.5,0,0,1-.32.23c-.07,0-3.42.95-8.09,8.18-2.88,4.47-2.2,8.26-1.7,11,.35,1.93.63,3.45-.44,4.44-.84.78-2.24.94-3.86,1.13-3.25.38-7.3.85-9.65,6.15-2.59,5.85-1.07,7,1.45,9a20.21,20.21,0,0,1,2.74,2.39,6.1,6.1,0,0,1,1.28,6.71,5.25,5.25,0,0,1-4.66,3.32c-.56,0-1.15-.06-1.76-.12S319.33,218.66,318.72,218.66Zm26.43-52.53h0Z" style="fill:#263238"></path></g><g id="freepik--Floor--inject-130"><path d="M479.35,480.45H14.14a.5.5,0,0,1-.5-.5.51.51,0,0,1,.5-.5H479.35a.51.51,0,0,1,.5.5A.5.5,0,0,1,479.35,480.45Z" style="fill:#263238"></path></g></svg>