<svg xmlns="http://www.w3.org/2000/svg" viewBox="0 0 500 500"><g id="freepik--background-simple--inject-200"><path d="M428.88,54.51s-72.06-57.9-186-45.58-126.65,139-156,171.75-81.73,90-65.71,168.25S135.69,504.76,266.89,479.51s111-88.39,141.77-140.13S557,185.7,428.88,54.51Z" style="fill:#F55E94"></path><path d="M428.88,54.51s-72.06-57.9-186-45.58-126.65,139-156,171.75-81.73,90-65.71,168.25S135.69,504.76,266.89,479.51s111-88.39,141.77-140.13S557,185.7,428.88,54.51Z" style="fill:#fff;opacity:0.7000000000000001"></path></g><g id="freepik--Floor--inject-200"><line x1="31.59" y1="429.58" x2="464.96" y2="429.58" style="fill:none;stroke:#263238;stroke-linecap:round;stroke-linejoin:round"></line></g><g id="freepik--Tiles--inject-200"><g style="opacity:0.15"><rect x="61.04" y="53.83" width="30.56" height="31.83" rx="4.88" style="fill:none;stroke:#000;stroke-linecap:round;stroke-linejoin:round"></rect><rect x="93.4" y="53.83" width="30.56" height="31.83" rx="4.88" style="fill:none;stroke:#000;stroke-linecap:round;stroke-linejoin:round"></rect><rect x="125.76" y="53.83" width="30.56" height="31.83" rx="4.88" style="fill:none;stroke:#000;stroke-linecap:round;stroke-linejoin:round"></rect><rect x="158.13" y="53.83" width="30.56" height="31.83" rx="4.88" style="fill:none;stroke:#000;stroke-linecap:round;stroke-linejoin:round"></rect><rect x="190.49" y="53.83" width="30.56" height="31.83" rx="4.88" style="fill:none;stroke:#000;stroke-linecap:round;stroke-linejoin:round"></rect><path d="M227.73,53.83h20.79a4.89,4.89,0,0,1,4.89,4.89V80.78a4.88,4.88,0,0,1-4.88,4.88H227.73a4.88,4.88,0,0,1-4.88-4.88V58.72A4.88,4.88,0,0,1,227.73,53.83Z" style="fill:none;stroke:#000;stroke-linecap:round;stroke-linejoin:round"></path><rect x="255.21" y="53.83" width="30.56" height="31.83" rx="4.88" style="fill:none;stroke:#000;stroke-linecap:round;stroke-linejoin:round"></rect><rect x="287.57" y="53.83" width="30.56" height="31.83" rx="4.88" style="fill:none;stroke:#000;stroke-linecap:round;stroke-linejoin:round"></rect><rect x="319.93" y="53.83" width="30.56" height="31.83" rx="4.88" style="fill:none;stroke:#000;stroke-linecap:round;stroke-linejoin:round"></rect><path d="M357.18,53.83H378a4.89,4.89,0,0,1,4.89,4.89V80.78A4.88,4.88,0,0,1,378,85.67H357.18a4.88,4.88,0,0,1-4.88-4.88V58.72A4.88,4.88,0,0,1,357.18,53.83Z" style="fill:none;stroke:#000;stroke-linecap:round;stroke-linejoin:round"></path><rect x="384.65" y="53.83" width="30.56" height="31.83" rx="4.88" style="fill:none;stroke:#000;stroke-linecap:round;stroke-linejoin:round"></rect><rect x="417.02" y="53.83" width="30.56" height="31.83" rx="4.88" style="fill:none;stroke:#000;stroke-linecap:round;stroke-linejoin:round"></rect></g><g style="opacity:0.15"><path d="M65.93,88H86.72a4.88,4.88,0,0,1,4.88,4.88v22.06a4.89,4.89,0,0,1-4.89,4.89H65.93A4.88,4.88,0,0,1,61,114.94V92.88A4.88,4.88,0,0,1,65.93,88Z" style="fill:none;stroke:#000;stroke-linecap:round;stroke-linejoin:round"></path><path d="M98.29,88h20.79A4.88,4.88,0,0,1,124,92.88v22.06a4.89,4.89,0,0,1-4.89,4.89H98.29a4.88,4.88,0,0,1-4.88-4.88V92.88A4.88,4.88,0,0,1,98.29,88Z" style="fill:none;stroke:#000;stroke-linecap:round;stroke-linejoin:round"></path><path d="M130.65,88h20.79a4.88,4.88,0,0,1,4.88,4.88v22.06a4.89,4.89,0,0,1-4.89,4.89H130.65a4.88,4.88,0,0,1-4.88-4.88V92.88A4.88,4.88,0,0,1,130.65,88Z" style="fill:none;stroke:#000;stroke-linecap:round;stroke-linejoin:round"></path><path d="M163,88H183.8a4.88,4.88,0,0,1,4.88,4.88v22.06a4.89,4.89,0,0,1-4.89,4.89H163a4.88,4.88,0,0,1-4.88-4.88V92.88A4.88,4.88,0,0,1,163,88Z" style="fill:none;stroke:#000;stroke-linecap:round;stroke-linejoin:round"></path><path d="M195.37,88h20.79a4.88,4.88,0,0,1,4.88,4.88v22.06a4.89,4.89,0,0,1-4.89,4.89H195.37a4.88,4.88,0,0,1-4.88-4.88V92.88A4.88,4.88,0,0,1,195.37,88Z" style="fill:none;stroke:#000;stroke-linecap:round;stroke-linejoin:round"></path><path d="M227.73,88h20.79a4.89,4.89,0,0,1,4.89,4.89v22.06a4.89,4.89,0,0,1-4.89,4.89H227.73a4.89,4.89,0,0,1-4.89-4.89V92.88A4.88,4.88,0,0,1,227.73,88Z" style="fill:none;stroke:#000;stroke-linecap:round;stroke-linejoin:round"></path><path d="M260.09,88h20.79a4.88,4.88,0,0,1,4.88,4.88v22.06a4.89,4.89,0,0,1-4.89,4.89H260.09a4.88,4.88,0,0,1-4.88-4.88V92.88A4.88,4.88,0,0,1,260.09,88Z" style="fill:none;stroke:#000;stroke-linecap:round;stroke-linejoin:round"></path><path d="M292.46,88h20.79a4.88,4.88,0,0,1,4.88,4.88v22.06a4.88,4.88,0,0,1-4.88,4.88H292.46a4.89,4.89,0,0,1-4.89-4.89V92.88A4.88,4.88,0,0,1,292.46,88Z" style="fill:none;stroke:#000;stroke-linecap:round;stroke-linejoin:round"></path><path d="M324.82,88h20.79a4.88,4.88,0,0,1,4.88,4.88v22.06a4.89,4.89,0,0,1-4.89,4.89H324.82a4.88,4.88,0,0,1-4.88-4.88V92.88A4.88,4.88,0,0,1,324.82,88Z" style="fill:none;stroke:#000;stroke-linecap:round;stroke-linejoin:round"></path><path d="M357.18,88H378a4.89,4.89,0,0,1,4.89,4.89v22.06a4.89,4.89,0,0,1-4.89,4.89H357.18a4.88,4.88,0,0,1-4.88-4.88V92.88A4.88,4.88,0,0,1,357.18,88Z" style="fill:none;stroke:#000;stroke-linecap:round;stroke-linejoin:round"></path><path d="M389.54,88h20.79a4.88,4.88,0,0,1,4.88,4.88v22.06a4.89,4.89,0,0,1-4.89,4.89H389.54a4.88,4.88,0,0,1-4.88-4.88V92.88A4.88,4.88,0,0,1,389.54,88Z" style="fill:none;stroke:#000;stroke-linecap:round;stroke-linejoin:round"></path><path d="M421.9,88h20.79a4.88,4.88,0,0,1,4.88,4.88v22.06a4.89,4.89,0,0,1-4.89,4.89H421.9a4.88,4.88,0,0,1-4.88-4.88V92.88A4.88,4.88,0,0,1,421.9,88Z" style="fill:none;stroke:#000;stroke-linecap:round;stroke-linejoin:round"></path></g><g style="opacity:0.15"><path d="M65.93,122.15H86.72A4.88,4.88,0,0,1,91.61,127V149.1A4.89,4.89,0,0,1,86.72,154H65.93A4.88,4.88,0,0,1,61,149.1V127A4.88,4.88,0,0,1,65.93,122.15Z" style="fill:none;stroke:#000;stroke-linecap:round;stroke-linejoin:round"></path><path d="M98.29,122.15h20.79A4.88,4.88,0,0,1,124,127V149.1a4.89,4.89,0,0,1-4.89,4.89H98.29a4.88,4.88,0,0,1-4.88-4.88V127A4.88,4.88,0,0,1,98.29,122.15Z" style="fill:none;stroke:#000;stroke-linecap:round;stroke-linejoin:round"></path><path d="M130.65,122.15h20.79a4.88,4.88,0,0,1,4.88,4.88V149.1a4.89,4.89,0,0,1-4.89,4.89H130.65a4.88,4.88,0,0,1-4.88-4.88V127A4.88,4.88,0,0,1,130.65,122.15Z" style="fill:none;stroke:#000;stroke-linecap:round;stroke-linejoin:round"></path><rect x="158.13" y="122.15" width="30.56" height="31.83" rx="4.88" style="fill:none;stroke:#000;stroke-linecap:round;stroke-linejoin:round"></rect><path d="M195.37,122.15h20.79a4.88,4.88,0,0,1,4.88,4.88V149.1a4.89,4.89,0,0,1-4.89,4.89H195.37a4.88,4.88,0,0,1-4.88-4.88V127A4.88,4.88,0,0,1,195.37,122.15Z" style="fill:none;stroke:#000;stroke-linecap:round;stroke-linejoin:round"></path><path d="M227.73,122.15h20.79a4.89,4.89,0,0,1,4.89,4.89V149.1a4.89,4.89,0,0,1-4.89,4.89H227.73a4.89,4.89,0,0,1-4.89-4.89V127A4.88,4.88,0,0,1,227.73,122.15Z" style="fill:none;stroke:#000;stroke-linecap:round;stroke-linejoin:round"></path><path d="M260.09,122.15h20.79a4.88,4.88,0,0,1,4.88,4.88V149.1a4.89,4.89,0,0,1-4.89,4.89H260.09a4.88,4.88,0,0,1-4.88-4.88V127A4.88,4.88,0,0,1,260.09,122.15Z" style="fill:none;stroke:#000;stroke-linecap:round;stroke-linejoin:round"></path><path d="M292.46,122.15h20.79a4.88,4.88,0,0,1,4.88,4.88V149.1a4.88,4.88,0,0,1-4.88,4.88H292.46a4.89,4.89,0,0,1-4.89-4.89V127A4.88,4.88,0,0,1,292.46,122.15Z" style="fill:none;stroke:#000;stroke-linecap:round;stroke-linejoin:round"></path><path d="M324.82,122.15h20.79A4.88,4.88,0,0,1,350.5,127V149.1a4.89,4.89,0,0,1-4.89,4.89H324.82a4.88,4.88,0,0,1-4.88-4.88V127A4.88,4.88,0,0,1,324.82,122.15Z" style="fill:none;stroke:#000;stroke-linecap:round;stroke-linejoin:round"></path><path d="M357.18,122.15H378a4.89,4.89,0,0,1,4.89,4.89V149.1A4.89,4.89,0,0,1,378,154H357.18a4.88,4.88,0,0,1-4.88-4.88V127A4.88,4.88,0,0,1,357.18,122.15Z" style="fill:none;stroke:#000;stroke-linecap:round;stroke-linejoin:round"></path><path d="M389.54,122.15h20.79a4.88,4.88,0,0,1,4.88,4.88V149.1a4.89,4.89,0,0,1-4.89,4.89H389.54a4.88,4.88,0,0,1-4.88-4.88V127A4.88,4.88,0,0,1,389.54,122.15Z" style="fill:none;stroke:#000;stroke-linecap:round;stroke-linejoin:round"></path><path d="M421.9,122.15h20.79a4.88,4.88,0,0,1,4.88,4.88V149.1a4.89,4.89,0,0,1-4.89,4.89H421.9A4.88,4.88,0,0,1,417,149.1V127A4.88,4.88,0,0,1,421.9,122.15Z" style="fill:none;stroke:#000;stroke-linecap:round;stroke-linejoin:round"></path></g><g style="opacity:0.15"><path d="M65.93,156.31H86.72a4.88,4.88,0,0,1,4.88,4.88v22.06a4.88,4.88,0,0,1-4.88,4.88H65.93A4.88,4.88,0,0,1,61,183.26V161.19A4.89,4.89,0,0,1,65.93,156.31Z" style="fill:none;stroke:#000;stroke-linecap:round;stroke-linejoin:round"></path><rect x="93.4" y="156.31" width="30.56" height="31.83" rx="4.88" style="fill:none;stroke:#000;stroke-linecap:round;stroke-linejoin:round"></rect><path d="M130.65,156.31h20.79a4.88,4.88,0,0,1,4.88,4.88v22.06a4.88,4.88,0,0,1-4.88,4.88H130.65a4.88,4.88,0,0,1-4.88-4.88V161.19A4.89,4.89,0,0,1,130.65,156.31Z" style="fill:none;stroke:#000;stroke-linecap:round;stroke-linejoin:round"></path><path d="M163,156.31H183.8a4.88,4.88,0,0,1,4.88,4.88v22.06a4.88,4.88,0,0,1-4.88,4.88H163a4.88,4.88,0,0,1-4.88-4.88V161.19A4.89,4.89,0,0,1,163,156.31Z" style="fill:none;stroke:#000;stroke-linecap:round;stroke-linejoin:round"></path><path d="M195.37,156.31h20.79a4.88,4.88,0,0,1,4.88,4.88v22.06a4.88,4.88,0,0,1-4.88,4.88H195.37a4.88,4.88,0,0,1-4.88-4.88V161.19A4.89,4.89,0,0,1,195.37,156.31Z" style="fill:none;stroke:#000;stroke-linecap:round;stroke-linejoin:round"></path><path d="M227.73,156.31h20.79a4.89,4.89,0,0,1,4.89,4.89v22.06a4.88,4.88,0,0,1-4.88,4.88H227.73a4.88,4.88,0,0,1-4.88-4.88V161.19A4.89,4.89,0,0,1,227.73,156.31Z" style="fill:none;stroke:#000;stroke-linecap:round;stroke-linejoin:round"></path><path d="M260.09,156.31h20.79a4.88,4.88,0,0,1,4.88,4.88v22.06a4.88,4.88,0,0,1-4.88,4.88H260.09a4.88,4.88,0,0,1-4.88-4.88V161.19A4.89,4.89,0,0,1,260.09,156.31Z" style="fill:none;stroke:#000;stroke-linecap:round;stroke-linejoin:round"></path><path d="M292.46,156.31h20.79a4.88,4.88,0,0,1,4.88,4.88v22.06a4.88,4.88,0,0,1-4.88,4.88H292.46a4.88,4.88,0,0,1-4.88-4.88V161.19A4.89,4.89,0,0,1,292.46,156.31Z" style="fill:none;stroke:#000;stroke-linecap:round;stroke-linejoin:round"></path><path d="M324.82,156.31h20.79a4.88,4.88,0,0,1,4.88,4.88v22.06a4.88,4.88,0,0,1-4.88,4.88H324.82a4.88,4.88,0,0,1-4.88-4.88V161.19A4.89,4.89,0,0,1,324.82,156.31Z" style="fill:none;stroke:#000;stroke-linecap:round;stroke-linejoin:round"></path><path d="M357.18,156.31H378a4.89,4.89,0,0,1,4.89,4.89v22.06a4.88,4.88,0,0,1-4.88,4.88H357.18a4.88,4.88,0,0,1-4.88-4.88V161.19A4.89,4.89,0,0,1,357.18,156.31Z" style="fill:none;stroke:#000;stroke-linecap:round;stroke-linejoin:round"></path><rect x="384.65" y="156.31" width="30.56" height="31.83" rx="4.88" style="fill:none;stroke:#000;stroke-linecap:round;stroke-linejoin:round"></rect><rect x="417.02" y="156.31" width="30.56" height="31.83" rx="4.88" style="fill:none;stroke:#000;stroke-linecap:round;stroke-linejoin:round"></rect></g><g style="opacity:0.15"><path d="M65.93,190.47H86.72a4.88,4.88,0,0,1,4.88,4.88v22.06a4.88,4.88,0,0,1-4.88,4.88H65.93A4.88,4.88,0,0,1,61,217.42V195.35A4.89,4.89,0,0,1,65.93,190.47Z" style="fill:none;stroke:#000;stroke-linecap:round;stroke-linejoin:round"></path><path d="M98.29,190.47h20.79a4.89,4.89,0,0,1,4.89,4.89v22.06a4.88,4.88,0,0,1-4.88,4.88H98.29a4.88,4.88,0,0,1-4.88-4.88V195.35A4.88,4.88,0,0,1,98.29,190.47Z" style="fill:none;stroke:#000;stroke-linecap:round;stroke-linejoin:round"></path><path d="M130.65,190.47h20.79a4.88,4.88,0,0,1,4.88,4.88v22.06a4.88,4.88,0,0,1-4.88,4.88H130.65a4.88,4.88,0,0,1-4.88-4.88V195.35A4.89,4.89,0,0,1,130.65,190.47Z" style="fill:none;stroke:#000;stroke-linecap:round;stroke-linejoin:round"></path><path d="M163,190.47H183.8a4.88,4.88,0,0,1,4.88,4.88v22.06a4.88,4.88,0,0,1-4.88,4.88H163a4.88,4.88,0,0,1-4.88-4.88V195.35A4.89,4.89,0,0,1,163,190.47Z" style="fill:none;stroke:#000;stroke-linecap:round;stroke-linejoin:round"></path><path d="M195.37,190.47h20.79a4.88,4.88,0,0,1,4.88,4.88v22.06a4.88,4.88,0,0,1-4.88,4.88H195.37a4.88,4.88,0,0,1-4.88-4.88V195.35A4.89,4.89,0,0,1,195.37,190.47Z" style="fill:none;stroke:#000;stroke-linecap:round;stroke-linejoin:round"></path><path d="M227.73,190.47h20.79a4.89,4.89,0,0,1,4.89,4.89v22.06a4.88,4.88,0,0,1-4.88,4.88H227.73a4.88,4.88,0,0,1-4.88-4.88V195.35A4.89,4.89,0,0,1,227.73,190.47Z" style="fill:none;stroke:#000;stroke-linecap:round;stroke-linejoin:round"></path><path d="M260.09,190.47h20.79a4.88,4.88,0,0,1,4.88,4.88v22.06a4.88,4.88,0,0,1-4.88,4.88H260.09a4.88,4.88,0,0,1-4.88-4.88V195.35A4.89,4.89,0,0,1,260.09,190.47Z" style="fill:none;stroke:#000;stroke-linecap:round;stroke-linejoin:round"></path><path d="M292.46,190.47h20.79a4.88,4.88,0,0,1,4.88,4.88v22.06a4.88,4.88,0,0,1-4.88,4.88H292.46a4.88,4.88,0,0,1-4.88-4.88V195.35A4.89,4.89,0,0,1,292.46,190.47Z" style="fill:none;stroke:#000;stroke-linecap:round;stroke-linejoin:round"></path><path d="M324.82,190.47h20.79a4.88,4.88,0,0,1,4.88,4.88v22.06a4.88,4.88,0,0,1-4.88,4.88H324.82a4.88,4.88,0,0,1-4.88-4.88V195.35A4.89,4.89,0,0,1,324.82,190.47Z" style="fill:none;stroke:#000;stroke-linecap:round;stroke-linejoin:round"></path><path d="M357.18,190.47H378a4.89,4.89,0,0,1,4.89,4.89v22.06A4.88,4.88,0,0,1,378,222.3H357.18a4.88,4.88,0,0,1-4.88-4.88V195.35A4.89,4.89,0,0,1,357.18,190.47Z" style="fill:none;stroke:#000;stroke-linecap:round;stroke-linejoin:round"></path><rect x="384.65" y="190.47" width="30.56" height="31.83" rx="4.88" style="fill:none;stroke:#000;stroke-linecap:round;stroke-linejoin:round"></rect><path d="M421.9,190.47h20.79a4.89,4.89,0,0,1,4.89,4.89v22.06a4.88,4.88,0,0,1-4.88,4.88H421.9a4.88,4.88,0,0,1-4.88-4.88V195.35A4.88,4.88,0,0,1,421.9,190.47Z" style="fill:none;stroke:#000;stroke-linecap:round;stroke-linejoin:round"></path></g><g style="opacity:0.15"><path d="M65.93,224.63H86.72a4.88,4.88,0,0,1,4.88,4.88v22.06a4.88,4.88,0,0,1-4.88,4.88H65.93A4.88,4.88,0,0,1,61,251.58V229.51A4.89,4.89,0,0,1,65.93,224.63Z" style="fill:none;stroke:#000;stroke-linecap:round;stroke-linejoin:round"></path><rect x="93.4" y="224.63" width="30.56" height="31.83" rx="4.88" style="fill:none;stroke:#000;stroke-linecap:round;stroke-linejoin:round"></rect><path d="M130.65,224.63h20.79a4.88,4.88,0,0,1,4.88,4.88v22.06a4.88,4.88,0,0,1-4.88,4.88H130.65a4.88,4.88,0,0,1-4.88-4.88V229.51A4.89,4.89,0,0,1,130.65,224.63Z" style="fill:none;stroke:#000;stroke-linecap:round;stroke-linejoin:round"></path><path d="M163,224.63H183.8a4.89,4.89,0,0,1,4.89,4.89v22.06a4.88,4.88,0,0,1-4.88,4.88H163a4.88,4.88,0,0,1-4.88-4.88V229.51A4.89,4.89,0,0,1,163,224.63Z" style="fill:none;stroke:#000;stroke-linecap:round;stroke-linejoin:round"></path><path d="M195.37,224.63h20.79a4.88,4.88,0,0,1,4.88,4.88v22.06a4.88,4.88,0,0,1-4.88,4.88H195.37a4.88,4.88,0,0,1-4.88-4.88V229.51A4.89,4.89,0,0,1,195.37,224.63Z" style="fill:none;stroke:#000;stroke-linecap:round;stroke-linejoin:round"></path><path d="M227.73,224.63h20.79a4.89,4.89,0,0,1,4.89,4.89v22.06a4.88,4.88,0,0,1-4.88,4.88H227.73a4.88,4.88,0,0,1-4.88-4.88V229.51A4.89,4.89,0,0,1,227.73,224.63Z" style="fill:none;stroke:#000;stroke-linecap:round;stroke-linejoin:round"></path><path d="M260.09,224.63h20.79a4.88,4.88,0,0,1,4.88,4.88v22.06a4.88,4.88,0,0,1-4.88,4.88H260.09a4.88,4.88,0,0,1-4.88-4.88V229.51A4.89,4.89,0,0,1,260.09,224.63Z" style="fill:none;stroke:#000;stroke-linecap:round;stroke-linejoin:round"></path><path d="M292.46,224.63h20.79a4.88,4.88,0,0,1,4.88,4.88v22.06a4.88,4.88,0,0,1-4.88,4.88H292.46a4.88,4.88,0,0,1-4.88-4.88V229.51A4.89,4.89,0,0,1,292.46,224.63Z" style="fill:none;stroke:#000;stroke-linecap:round;stroke-linejoin:round"></path><path d="M324.82,224.63h20.79a4.88,4.88,0,0,1,4.88,4.88v22.06a4.88,4.88,0,0,1-4.88,4.88H324.82a4.88,4.88,0,0,1-4.88-4.88V229.51A4.89,4.89,0,0,1,324.82,224.63Z" style="fill:none;stroke:#000;stroke-linecap:round;stroke-linejoin:round"></path><path d="M357.18,224.63H378a4.89,4.89,0,0,1,4.89,4.89v22.06a4.88,4.88,0,0,1-4.88,4.88H357.18a4.88,4.88,0,0,1-4.88-4.88V229.51A4.89,4.89,0,0,1,357.18,224.63Z" style="fill:none;stroke:#000;stroke-linecap:round;stroke-linejoin:round"></path><rect x="384.65" y="224.63" width="30.56" height="31.83" rx="4.88" style="fill:none;stroke:#000;stroke-linecap:round;stroke-linejoin:round"></rect><rect x="417.02" y="224.63" width="30.56" height="31.83" rx="4.88" style="fill:none;stroke:#000;stroke-linecap:round;stroke-linejoin:round"></rect></g><g style="opacity:0.15"><rect x="61.04" y="258.79" width="30.56" height="31.83" rx="4.88" style="fill:none;stroke:#000;stroke-linecap:round;stroke-linejoin:round"></rect><rect x="93.4" y="258.79" width="30.56" height="31.83" rx="4.88" style="fill:none;stroke:#000;stroke-linecap:round;stroke-linejoin:round"></rect><rect x="125.76" y="258.79" width="30.56" height="31.83" rx="4.88" style="fill:none;stroke:#000;stroke-linecap:round;stroke-linejoin:round"></rect><rect x="158.13" y="258.79" width="30.56" height="31.83" rx="4.88" style="fill:none;stroke:#000;stroke-linecap:round;stroke-linejoin:round"></rect><rect x="190.49" y="258.79" width="30.56" height="31.83" rx="4.88" style="fill:none;stroke:#000;stroke-linecap:round;stroke-linejoin:round"></rect><path d="M227.73,258.79h20.79a4.89,4.89,0,0,1,4.89,4.89v22.06a4.88,4.88,0,0,1-4.88,4.88H227.73a4.88,4.88,0,0,1-4.88-4.88V263.67A4.88,4.88,0,0,1,227.73,258.79Z" style="fill:none;stroke:#000;stroke-linecap:round;stroke-linejoin:round"></path><rect x="255.21" y="258.79" width="30.56" height="31.83" rx="4.88" style="fill:none;stroke:#000;stroke-linecap:round;stroke-linejoin:round"></rect><rect x="287.57" y="258.79" width="30.56" height="31.83" rx="4.88" style="fill:none;stroke:#000;stroke-linecap:round;stroke-linejoin:round"></rect><rect x="319.93" y="258.79" width="30.56" height="31.83" rx="4.88" style="fill:none;stroke:#000;stroke-linecap:round;stroke-linejoin:round"></rect><path d="M357.18,258.79H378a4.89,4.89,0,0,1,4.89,4.89v22.06a4.88,4.88,0,0,1-4.88,4.88H357.18a4.88,4.88,0,0,1-4.88-4.88V263.67A4.88,4.88,0,0,1,357.18,258.79Z" style="fill:none;stroke:#000;stroke-linecap:round;stroke-linejoin:round"></path><rect x="384.65" y="258.79" width="30.56" height="31.83" rx="4.88" style="fill:none;stroke:#000;stroke-linecap:round;stroke-linejoin:round"></rect><rect x="417.02" y="258.79" width="30.56" height="31.83" rx="4.88" style="fill:none;stroke:#000;stroke-linecap:round;stroke-linejoin:round"></rect></g><g style="opacity:0.15"><rect x="61.04" y="292.95" width="30.56" height="31.83" rx="4.88" style="fill:none;stroke:#000;stroke-linecap:round;stroke-linejoin:round"></rect><rect x="93.4" y="292.95" width="30.56" height="31.83" rx="4.88" style="fill:none;stroke:#000;stroke-linecap:round;stroke-linejoin:round"></rect><rect x="125.76" y="292.95" width="30.56" height="31.83" rx="4.88" style="fill:none;stroke:#000;stroke-linecap:round;stroke-linejoin:round"></rect><rect x="158.13" y="292.95" width="30.56" height="31.83" rx="4.88" style="fill:none;stroke:#000;stroke-linecap:round;stroke-linejoin:round"></rect><rect x="190.49" y="292.95" width="30.56" height="31.83" rx="4.88" style="fill:none;stroke:#000;stroke-linecap:round;stroke-linejoin:round"></rect><path d="M227.73,292.95h20.79a4.89,4.89,0,0,1,4.89,4.89v22.06a4.88,4.88,0,0,1-4.88,4.88H227.73a4.88,4.88,0,0,1-4.88-4.88V297.83A4.88,4.88,0,0,1,227.73,292.95Z" style="fill:none;stroke:#000;stroke-linecap:round;stroke-linejoin:round"></path><rect x="255.21" y="292.95" width="30.56" height="31.83" rx="4.88" style="fill:none;stroke:#000;stroke-linecap:round;stroke-linejoin:round"></rect><rect x="287.57" y="292.95" width="30.56" height="31.83" rx="4.88" style="fill:none;stroke:#000;stroke-linecap:round;stroke-linejoin:round"></rect><rect x="319.93" y="292.95" width="30.56" height="31.83" rx="4.88" style="fill:none;stroke:#000;stroke-linecap:round;stroke-linejoin:round"></rect><path d="M357.18,292.95H378a4.89,4.89,0,0,1,4.89,4.89v22.06a4.89,4.89,0,0,1-4.89,4.89H357.18a4.88,4.88,0,0,1-4.88-4.88V297.83A4.88,4.88,0,0,1,357.18,292.95Z" style="fill:none;stroke:#000;stroke-linecap:round;stroke-linejoin:round"></path><rect x="384.65" y="292.95" width="30.56" height="31.83" rx="4.88" style="fill:none;stroke:#000;stroke-linecap:round;stroke-linejoin:round"></rect><rect x="417.02" y="292.95" width="30.56" height="31.83" rx="4.88" style="fill:none;stroke:#000;stroke-linecap:round;stroke-linejoin:round"></rect></g><g style="opacity:0.15"><rect x="61.04" y="327.1" width="30.56" height="31.83" rx="4.88" style="fill:none;stroke:#000;stroke-linecap:round;stroke-linejoin:round"></rect><rect x="93.4" y="327.1" width="30.56" height="31.83" rx="4.88" style="fill:none;stroke:#000;stroke-linecap:round;stroke-linejoin:round"></rect><rect x="125.76" y="327.1" width="30.56" height="31.83" rx="4.88" style="fill:none;stroke:#000;stroke-linecap:round;stroke-linejoin:round"></rect><rect x="158.13" y="327.1" width="30.56" height="31.83" rx="4.88" style="fill:none;stroke:#000;stroke-linecap:round;stroke-linejoin:round"></rect><rect x="190.49" y="327.1" width="30.56" height="31.83" rx="4.88" style="fill:none;stroke:#000;stroke-linecap:round;stroke-linejoin:round"></rect><path d="M227.73,327.1h20.79a4.89,4.89,0,0,1,4.89,4.89v22.06a4.88,4.88,0,0,1-4.88,4.88H227.73a4.88,4.88,0,0,1-4.88-4.88V332A4.88,4.88,0,0,1,227.73,327.1Z" style="fill:none;stroke:#000;stroke-linecap:round;stroke-linejoin:round"></path><rect x="255.21" y="327.1" width="30.56" height="31.83" rx="4.88" style="fill:none;stroke:#000;stroke-linecap:round;stroke-linejoin:round"></rect><rect x="287.57" y="327.1" width="30.56" height="31.83" rx="4.88" style="fill:none;stroke:#000;stroke-linecap:round;stroke-linejoin:round"></rect><rect x="319.93" y="327.1" width="30.56" height="31.83" rx="4.88" style="fill:none;stroke:#000;stroke-linecap:round;stroke-linejoin:round"></rect><path d="M357.18,327.1H378a4.89,4.89,0,0,1,4.89,4.89v22.06a4.88,4.88,0,0,1-4.88,4.88H357.18a4.88,4.88,0,0,1-4.88-4.88V332A4.88,4.88,0,0,1,357.18,327.1Z" style="fill:none;stroke:#000;stroke-linecap:round;stroke-linejoin:round"></path><rect x="384.65" y="327.1" width="30.56" height="31.83" rx="4.88" style="fill:none;stroke:#000;stroke-linecap:round;stroke-linejoin:round"></rect><rect x="417.02" y="327.1" width="30.56" height="31.83" rx="4.88" style="fill:none;stroke:#000;stroke-linecap:round;stroke-linejoin:round"></rect></g><g style="opacity:0.15"><rect x="61.04" y="361.26" width="30.56" height="31.83" rx="4.88" style="fill:none;stroke:#000;stroke-linecap:round;stroke-linejoin:round"></rect><rect x="93.4" y="361.26" width="30.56" height="31.83" rx="4.88" style="fill:none;stroke:#000;stroke-linecap:round;stroke-linejoin:round"></rect><rect x="125.76" y="361.26" width="30.56" height="31.83" rx="4.88" style="fill:none;stroke:#000;stroke-linecap:round;stroke-linejoin:round"></rect><rect x="158.13" y="361.26" width="30.56" height="31.83" rx="4.88" style="fill:none;stroke:#000;stroke-linecap:round;stroke-linejoin:round"></rect><rect x="190.49" y="361.26" width="30.56" height="31.83" rx="4.88" style="fill:none;stroke:#000;stroke-linecap:round;stroke-linejoin:round"></rect><path d="M227.73,361.26h20.79a4.89,4.89,0,0,1,4.89,4.89v22.06a4.88,4.88,0,0,1-4.88,4.88H227.73a4.88,4.88,0,0,1-4.88-4.88V366.15A4.88,4.88,0,0,1,227.73,361.26Z" style="fill:none;stroke:#000;stroke-linecap:round;stroke-linejoin:round"></path><rect x="255.21" y="361.26" width="30.56" height="31.83" rx="4.88" style="fill:none;stroke:#000;stroke-linecap:round;stroke-linejoin:round"></rect><rect x="287.57" y="361.26" width="30.56" height="31.83" rx="4.88" style="fill:none;stroke:#000;stroke-linecap:round;stroke-linejoin:round"></rect><rect x="319.93" y="361.26" width="30.56" height="31.83" rx="4.88" style="fill:none;stroke:#000;stroke-linecap:round;stroke-linejoin:round"></rect><path d="M357.18,361.26H378a4.89,4.89,0,0,1,4.89,4.89v22.06A4.89,4.89,0,0,1,378,393.1H357.18a4.88,4.88,0,0,1-4.88-4.88V366.15A4.88,4.88,0,0,1,357.18,361.26Z" style="fill:none;stroke:#000;stroke-linecap:round;stroke-linejoin:round"></path><rect x="384.65" y="361.26" width="30.56" height="31.83" rx="4.88" style="fill:none;stroke:#000;stroke-linecap:round;stroke-linejoin:round"></rect><rect x="417.02" y="361.26" width="30.56" height="31.83" rx="4.88" style="fill:none;stroke:#000;stroke-linecap:round;stroke-linejoin:round"></rect></g><g style="opacity:0.15"><rect x="61.04" y="395.42" width="30.56" height="31.83" rx="4.88" style="fill:none;stroke:#000;stroke-linecap:round;stroke-linejoin:round"></rect><rect x="93.4" y="395.42" width="30.56" height="31.83" rx="4.88" style="fill:none;stroke:#000;stroke-linecap:round;stroke-linejoin:round"></rect><rect x="125.76" y="395.42" width="30.56" height="31.83" rx="4.88" style="fill:none;stroke:#000;stroke-linecap:round;stroke-linejoin:round"></rect><rect x="158.13" y="395.42" width="30.56" height="31.83" rx="4.88" style="fill:none;stroke:#000;stroke-linecap:round;stroke-linejoin:round"></rect><rect x="190.49" y="395.42" width="30.56" height="31.83" rx="4.88" style="fill:none;stroke:#000;stroke-linecap:round;stroke-linejoin:round"></rect><path d="M227.73,395.42h20.79a4.89,4.89,0,0,1,4.89,4.89v22.06a4.88,4.88,0,0,1-4.88,4.88H227.73a4.88,4.88,0,0,1-4.88-4.88V400.31A4.88,4.88,0,0,1,227.73,395.42Z" style="fill:none;stroke:#000;stroke-linecap:round;stroke-linejoin:round"></path><rect x="255.21" y="395.42" width="30.56" height="31.83" rx="4.88" style="fill:none;stroke:#000;stroke-linecap:round;stroke-linejoin:round"></rect><rect x="287.57" y="395.42" width="30.56" height="31.83" rx="4.88" style="fill:none;stroke:#000;stroke-linecap:round;stroke-linejoin:round"></rect><rect x="319.93" y="395.42" width="30.56" height="31.83" rx="4.88" style="fill:none;stroke:#000;stroke-linecap:round;stroke-linejoin:round"></rect><path d="M357.18,395.42H378a4.89,4.89,0,0,1,4.89,4.89v22.06a4.88,4.88,0,0,1-4.88,4.88H357.18a4.88,4.88,0,0,1-4.88-4.88V400.31A4.88,4.88,0,0,1,357.18,395.42Z" style="fill:none;stroke:#000;stroke-linecap:round;stroke-linejoin:round"></path><rect x="384.65" y="395.42" width="30.56" height="31.83" rx="4.88" style="fill:none;stroke:#000;stroke-linecap:round;stroke-linejoin:round"></rect><rect x="417.02" y="395.42" width="30.56" height="31.83" rx="4.88" style="fill:none;stroke:#000;stroke-linecap:round;stroke-linejoin:round"></rect></g></g><g id="freepik--Toilet--inject-200"><polygon points="161.79 261.06 180.84 351.8 201.33 371.21 201.33 430 144.56 434.66 125.76 388.21 161.79 261.06" style="opacity:0.12"></polygon><path d="M72,261.07h89.8a0,0,0,0,1,0,0v80.53a11.32,11.32,0,0,1-11.32,11.32H83.32A11.32,11.32,0,0,1,72,341.59V261.07A0,0,0,0,1,72,261.07Z" style="fill:#fff;stroke:#263238;stroke-linecap:round;stroke-linejoin:round"></path><rect x="72" y="261.07" width="89.8" height="20.19" style="fill:#fff;stroke:#263238;stroke-linecap:round;stroke-linejoin:round"></rect><polygon points="144.56 434.66 90.6 434.66 97.34 384.04 137.82 384.04 144.56 434.66" style="fill:#fff;stroke:#263238;stroke-linecap:round;stroke-linejoin:round"></polygon><path d="M72,341.59h91.17a0,0,0,0,1,0,0v15a45.58,45.58,0,0,1-45.58,45.58h0A45.58,45.58,0,0,1,72,356.62v-15A0,0,0,0,1,72,341.59Z" style="fill:#fff;stroke:#263238;stroke-linecap:round;stroke-linejoin:round"></path><rect x="72" y="341.59" width="91.17" height="8.58" style="fill:#fff;stroke:#263238;stroke-linecap:round;stroke-linejoin:round"></rect></g><g id="freepik--Picture--inject-200"><rect x="67.67" y="44.54" width="95.11" height="123.24" style="fill:#263238;stroke:#263238;stroke-linecap:round;stroke-linejoin:round"></rect><rect x="74.13" y="52.91" width="82.2" height="106.5" style="fill:#fff;stroke:#263238;stroke-linecap:round;stroke-linejoin:round"></rect><rect x="95.64" y="80.78" width="39.17" height="50.75" style="fill:#c7c7c7;stroke:#263238;stroke-linecap:round;stroke-linejoin:round"></rect></g><g id="freepik--Vase--inject-200"><path d="M428.31,196.75s1.87-9.11,5.64-12.49a20.25,20.25,0,0,1,6.83-4.32Z" style="fill:#F55E94;stroke:#263238;stroke-linecap:round;stroke-linejoin:round"></path><path d="M428.31,196.75a82.84,82.84,0,0,0,2.16-19.23c-.08-10.6-1.61-15.85-1.61-15.85s-4.56,10.5-3.18,17S428.31,196.75,428.31,196.75Z" style="fill:#F55E94;stroke:#263238;stroke-linecap:round;stroke-linejoin:round"></path><path d="M428.31,196.75s-1-6-4.87-9.44a56.14,56.14,0,0,0-8.63-6.05,14.29,14.29,0,0,0,3.38,7.58C421.21,192.14,428.31,196.75,428.31,196.75Z" style="fill:#F55E94;stroke:#263238;stroke-linecap:round;stroke-linejoin:round"></path><path d="M433.39,196.71v-.38h-9.31v.38a32.29,32.29,0,0,1-5.63,17.6,9.8,9.8,0,0,0-1.6,5.37v10.13a9.84,9.84,0,0,0,9.85,9.84h4.07a9.84,9.84,0,0,0,9.85-9.84V219.68a9.8,9.8,0,0,0-1.6-5.37A32.29,32.29,0,0,1,433.39,196.71Z" style="fill:#fff;stroke:#263238;stroke-linecap:round;stroke-linejoin:round"></path></g><g id="freepik--Sink--inject-200"><polygon points="285.23 333.63 302.85 343.02 454.74 343.02 454.74 248.3 444.57 238.79 285.23 333.63" style="opacity:0.12"></polygon><rect x="285.23" y="238.79" width="159.34" height="94.84" style="fill:#c7c7c7;stroke:#263238;stroke-linecap:round;stroke-linejoin:round"></rect><rect x="285.23" y="238.79" width="159.34" height="9.85" style="fill:#fff;stroke:#263238;stroke-linecap:round;stroke-linejoin:round"></rect><path d="M369.76,231.86h-5.14V208.08a2.57,2.57,0,0,1,2.57-2.57h0a2.57,2.57,0,0,1,2.57,2.57Z" style="fill:#fff;stroke:#263238;stroke-linecap:round;stroke-linejoin:round"></path><path d="M369.76,221h-5.14V208.08a2.57,2.57,0,0,1,2.57-2.57h0a2.57,2.57,0,0,1,2.57,2.57Z" style="fill:#fff;stroke:#263238;stroke-linecap:round;stroke-linejoin:round"></path><polygon points="409.77 238.65 320.03 238.65 317.66 231.19 412.13 231.19 409.77 238.65" style="fill:#fff;stroke:#263238;stroke-linecap:round;stroke-linejoin:round"></polygon><line x1="366.21" y1="248.83" x2="366.21" y2="332.45" style="fill:none;stroke:#263238;stroke-linecap:round;stroke-linejoin:round"></line></g><g id="freepik--Scale--inject-200"><path d="M268.91,468H181.44c-2.85,0-4.4-2.32-3.5-5.08l10.95-33.52c.52-1.58,2.59-2.83,4.65-2.83h63.27c2.06,0,4.14,1.25,4.65,2.83l11,33.52C273.31,465.66,271.76,468,268.91,468Z" style="fill:#fff;stroke:#263238;stroke-linecap:round;stroke-linejoin:round"></path><path d="M268.91,465H181.44c-2.85,0-4.4-2.31-3.5-5.08l10.95-33.52c.52-1.58,2.59-2.82,4.65-2.82h63.27c2.06,0,4.14,1.24,4.65,2.82l11,33.52C273.31,462.67,271.76,465,268.91,465Z" style="fill:#fff;stroke:#263238;stroke-linecap:round;stroke-linejoin:round"></path><path d="M258.47,453.88H191.88c-2.17,0-3.52-1.38-3-3.05l6.49-21.72c.33-1.1,2-2,3.67-2h52.31c1.7,0,3.35.87,3.67,2l6.49,21.72C262,452.5,260.64,453.88,258.47,453.88Z" style="fill:#263238;stroke:#263238;stroke-linecap:round;stroke-linejoin:round"></path><path d="M232.92,444.26h-15.6l-8.87,8.18c2.88,5.51,9.13,9.47,16.73,9.47S239,458,241.87,452.5Z" style="fill:#fff;stroke:#263238;stroke-linecap:round;stroke-linejoin:round"></path><line x1="224.55" y1="455.51" x2="224.53" y2="458.83" style="fill:none;stroke:#263238;stroke-linecap:round;stroke-linejoin:round"></line><line x1="220.44" y1="454.44" x2="218.8" y2="457.7" style="fill:none;stroke:#263238;stroke-linecap:round;stroke-linejoin:round"></line><line x1="229.78" y1="454.85" x2="230.94" y2="458.22" style="fill:none;stroke:#263238;stroke-linecap:round;stroke-linejoin:round"></line><line x1="234.34" y1="452.94" x2="235.92" y2="455.23" style="fill:none;stroke:#263238;stroke-linecap:round;stroke-linejoin:round"></line><line x1="215.26" y1="452.75" x2="213.04" y2="455.23" style="fill:none;stroke:#263238;stroke-linecap:round;stroke-linejoin:round"></line></g><g id="freepik--Character--inject-200"><path d="M190.11,286s-2,16.46,2,30.89,6.59,21,5.32,28.36-1.26,24.81,1.27,34.69,5.82,32.41,6.33,35.7-8.61,12.92-12.41,16.71-4.81,6.34-2.53,7.6,10.13,2.53,14.43,1a17.64,17.64,0,0,0,7.6-5.31c1.52-1.52,7.59-1.27,7.09-9.37a236.39,236.39,0,0,1,.25-23.8c.25-5.07,3.29-22.29,3.55-31.66s-.76-23.8-.76-23.8a171.82,171.82,0,0,0,1.26-21.52c-.25-9.37.26-29.12.26-29.12Z" style="fill:#d9d9d9;stroke:#263238;stroke-linecap:round;stroke-linejoin:round"></path><path d="M219.23,426.23c-.27-4.29-.25-9.27-.14-13.78-7.56,2.86-12.36.95-14.59-.49.26,1.74.45,3,.55,3.63.5,3.29-8.61,12.92-12.41,16.71s-4.81,6.33-2.53,7.6,10.13,2.53,14.43,1a17.64,17.64,0,0,0,7.6-5.31C213.66,434.08,219.73,434.33,219.23,426.23Z" style="fill:#fff;stroke:#263238;stroke-linecap:round;stroke-linejoin:round"></path><path d="M262.59,286s2,16.46-2,30.89-6.58,21-5.32,28.36S256.51,370,254,379.89s-5.83,32.41-6.33,35.7,8.61,12.92,12.41,16.71,4.81,6.34,2.53,7.6-10.13,2.53-14.44,1a17.66,17.66,0,0,1-7.59-5.31c-1.52-1.52-7.6-1.27-7.09-9.37s0-18.74-.25-23.8-3.3-22.29-3.55-31.66.76-23.8.76-23.8a173,173,0,0,1-1.27-21.52c.26-9.37-.25-29.12-.25-29.12Z" style="fill:#d9d9d9;stroke:#263238;stroke-linecap:round;stroke-linejoin:round"></path><path d="M233.47,426.23c.27-4.29.25-9.27.14-13.78,7.55,2.86,12.35.95,14.59-.49-.27,1.74-.46,3-.55,3.63-.51,3.29,8.61,12.92,12.41,16.71s4.81,6.33,2.53,7.6-10.13,2.53-14.44,1a17.66,17.66,0,0,1-7.59-5.31C239,434.08,233,434.33,233.47,426.23Z" style="fill:#fff;stroke:#263238;stroke-linecap:round;stroke-linejoin:round"></path><path d="M187.83,235.05s-5.57,21.27-7.85,28.62c-1.32,4.26-1,10.56-3.8,13.92a5.7,5.7,0,0,0-1,3.8s15.44,12.41,26.59,15.19,23.54,6.08,23.54,6.08l1.78-2.78s.25,3,1.26,3a12.54,12.54,0,0,0,3-.76S269.62,292,272.66,290s6.07-3.8,5.57-6.08-3.55-6.33-3.55-6.33S271.9,250,261,233.79c0,0-15.39,9-42.29,3.29S188.5,232.43,187.83,235.05Z" style="fill:#263238;stroke:#263238;stroke-linecap:round;stroke-linejoin:round"></path><path d="M251.4,263.09s-12.86,10-16.72,12.86" style="fill:none;stroke:#d9d9d9;stroke-linecap:round;stroke-linejoin:round"></path><line x1="251.07" y1="258.59" x2="242.72" y2="266.95" style="fill:none;stroke:#d9d9d9;stroke-linecap:round;stroke-linejoin:round"></line><path d="M203.5,261.49s7.07,9.32,9.65,11.57" style="fill:none;stroke:#d9d9d9;stroke-linecap:round;stroke-linejoin:round"></path><path d="M204.15,256.67s5.46,7.71,7.07,9" style="fill:none;stroke:#d9d9d9;stroke-linecap:round;stroke-linejoin:round"></path><path d="M228.34,302.91a12.54,12.54,0,0,0,3-.76S269.62,292,272.66,290s6.07-3.8,5.57-6.08-3.55-6.33-3.55-6.33S271.9,250,261,233.79a24.15,24.15,0,0,1-2.81,1.31c.85,2.83,3.69,6.05,7.78,16.28,4.18,10.45,5.75,27.44,5.75,27.44s2.61,2.35,2.35,3.4-4.7,3.13-11.76,5.74-29.26,10.72-31.61,10.2a3.51,3.51,0,0,0-3.63,1.72S227.33,302.91,228.34,302.91Z" style="fill:#fff;stroke:#263238;stroke-linecap:round;stroke-linejoin:round"></path><path d="M180,263.67c-1.32,4.26-1,10.56-3.8,13.92a5.7,5.7,0,0,0-1,3.8s15.44,12.41,26.59,15.19,23.54,6.08,23.54,6.08l1.78-2.78-1.34-1.72c-1.34-1.72-2.87.78-2.87.78s-7.32-2.35-20.91-7.58a77.43,77.43,0,0,1-23-14.11l8.86-42.2S182.26,256.32,180,263.67Z" style="fill:#fff;stroke:#263238;stroke-linecap:round;stroke-linejoin:round"></path><path d="M211.79,136.59s-13.34-3.08-21.81,3.84-43.1,41.31-45.41,44.65,5.65,9.75,9,10.26,43.62-29.25,43.62-29.25l4.1-4.1s-1.79,36.94-3.33,45.67-6.67,14.88-9,16.42-8,4.1-6.67,8.46S194.6,241,201,242.8s23.86,6.93,36.43,4.88,22.83-6.41,23.86-10.52-4.62-15.39-4.87-20.27a129.45,129.45,0,0,1,.25-14.62c.26-2.83,3.08-28.23,3.08-28.23s17.19,25.4,19.5,30,14.88,9.24,19.24,5.65,5.13-7.19,2.82-13.34-18.21-29.25-25.91-40.54-7.18-12.32-19-17.19S231,135.3,231,135.3Z" style="fill:#d9d9d9;stroke:#263238;stroke-linecap:round;stroke-linejoin:round"></path><path d="M213.59,134.53c.26-.77-11.29,32.59,9.75,36.18s20.78-35.66,20.78-35.66l8.21,1.79s.77,17.19,4.88,28,6.15,23.86,1.79,32.07-15.39,7.7-23.6,7.7-32.59-1.8-36.44-5.39-9.75-9.75-5.64-22.07,8.72-18.73,11-26.68,3.85-15.65,3.85-15.65Z" style="fill:#F55E94;stroke:#263238;stroke-linecap:round;stroke-linejoin:round"></path><path d="M214.21,86.94s-13.23-2.3-19.44,2.93-9.4,15.62-6.73,19.35,7.21,5.87,6.46,9.67-10.84,3.45-7.75,14,8.1,8.95,9.76,13.76-3.3,6.17-4.66,4.87.52,5.46,5.38,8.24,14.46,1.29,16.44-4.47-1.56-17.06-1.26-22.87-1.15-17.3,4.35-26.32,7.65-10.75,5.66-14.31S214.21,86.94,214.21,86.94Z" style="fill:#263238;stroke:#263238;stroke-linecap:round;stroke-linejoin:round"></path><path d="M209.85,90s-5.12,9.36-4.94,14.66.7,13.07.53,17.66,1.41,8.83,4.59,13.77,7.59,10.25,10.77,11a10.15,10.15,0,0,0,9-2.29c2.12-2.12,8.83-7.77,10.24-11.13S242.7,114,242.7,114s-10.42-19.61-17.48-23.49S214.27,84.86,209.85,90Z" style="fill:#d9d9d9;stroke:#263238;stroke-linecap:round;stroke-linejoin:round"></path><path d="M216.74,113.11a46,46,0,0,1,1.06,6.36s-.18,5.48-1.06,8" style="fill:none;stroke:#263238;stroke-linecap:round;stroke-linejoin:round"></path><path d="M216.39,131.83s1.94,1.59,3.35,1.24,3-.88,3.53-1.59" style="fill:none;stroke:#263238;stroke-linecap:round;stroke-linejoin:round"></path><path d="M216.39,137.31s4.06-.35,6.35,1.06" style="fill:none;stroke:#263238;stroke-linecap:round;stroke-linejoin:round"></path><path d="M224.86,119.12s4.42,2.82,8.3-.18" style="fill:none;stroke:#263238;stroke-linecap:round;stroke-linejoin:round"></path><path d="M208.08,117.88s3.18,2.65,6.72.89" style="fill:none;stroke:#263238;stroke-linecap:round;stroke-linejoin:round"></path><path d="M214.44,111.52s-5.3-.17-7.24,3.18" style="fill:none;stroke:#263238;stroke-linecap:round;stroke-linejoin:round"></path><path d="M221.86,111.88a10.68,10.68,0,0,1,10.24,2.82" style="fill:none;stroke:#263238;stroke-linecap:round;stroke-linejoin:round"></path><path d="M209.85,90s9.89-.88,11.83,6.71,4.42,10.6,9,11.83,9.18,3.53,9.18,7.77-4.76,10.25-1.23,16.78,4.41,5.3,4.24,7.6-3.89,5.65-2.12,10.24,6.36,2.29,7.59,4.77.88,3.88-1.41,4.06l-2.3.18s-.35,4.94,6.89,4.94,12.89-5.83,13.6-11.3S262.66,143,263,139.43s8.12-7.24,7.95-16.78-5.48-7.77-5.3-13.07,3.89-13.07,1.59-16.6S252.94,80.79,242.7,74.44s-27.2-7.07-32.32-1.77-5.3,10.24-5.3,10.24S203.49,88.21,209.85,90Z" style="fill:#263238;stroke:#263238;stroke-linecap:round;stroke-linejoin:round"></path><path d="M152.53,176.87s-7.44,5.38-8,8.21a27.38,27.38,0,0,0,1.54,17.44c3.59,8.73,11.29,16.94,16.42,21s5.39,4.11,6.67,6.42,6.42,7.69,8.73,8,5.9,2.57,7.18,3.34,3.33,0,4.87-.52a5.82,5.82,0,0,0,1.8-.77l-4.62-2.31a52.56,52.56,0,0,1-4.87-5.13c-1.54-2-.77-7.18-.77-7.18a58.77,58.77,0,0,1,5.9,3.59c2.05,1.54,3.33,2.05,6.16.77s.51-1.28-1.29-2.82-9.49-8.73-9.49-8.73l-8.21-.25s-8-6.16-9-8.73-.51-21.55-4.36-26.17" style="fill:#d9d9d9;stroke:#263238;stroke-linecap:round;stroke-linejoin:round"></path><path d="M191.83,231.35a27.4,27.4,0,0,0,5.72.47" style="fill:none;stroke:#263238;stroke-linecap:round;stroke-linejoin:round"></path><path d="M193.46,232.87a34.15,34.15,0,0,0,8.76,2" style="fill:none;stroke:#263238;stroke-linecap:round;stroke-linejoin:round"></path><path d="M272.63,191.93s-9-12.82-11.38-14.42-10.58.65-13.78,1.76c-2.52.88-5.25.22-9.77.65-3.15.29-1,2.88,1.6,3.2s5.93-.32,7.69.48,8.33,8,8.82,8.49-2.41.48-5-.48-6.25-2.88-7.05-1.76.32,3.2,2.08,3.69,5.29,3.36,9.29,4a22.32,22.32,0,0,0,6.73.16l4.81.8s10.42,12,20.67,15.71,14.1,2.24,16.83-1,3.36-10.09,1-13.46-2.73-3.2-10.74-4.64S272.63,191.93,272.63,191.93Z" style="fill:#d9d9d9;stroke:#263238;stroke-linecap:round;stroke-linejoin:round"></path><path d="M253.56,179.76s-4.32-4.49-5.61-4.17-5.6,7-5.28,8.17,1.76.8,3-.64a40,40,0,0,1,3.37-3.2" style="fill:#d9d9d9;stroke:#263238;stroke-linecap:round;stroke-linejoin:round"></path><path d="M258.05,178s-4.49-3.36-6.41-1.92-5,9-3.85,9.13,1.83-.22,3.37-1.76c3.36-3.36,1.28-1.76,1.28-1.76" style="fill:#d9d9d9;stroke:#263238;stroke-linecap:round;stroke-linejoin:round"></path><path d="M263,179s-4-3.52-5.61-3.2-5.29,8.81-4.81,9.93,3-.32,4-1.76,2.24-3.52,2.24-3.52,2.08,7.21,3.2,8.65" style="fill:#d9d9d9;stroke:#263238;stroke-linecap:round;stroke-linejoin:round"></path><path d="M266.7,198.5s2.4,1,4.33-2.08" style="fill:#fff;stroke:#263238;stroke-linecap:round;stroke-linejoin:round"></path></g><g id="freepik--Mirror--inject-200"><ellipse cx="371.19" cy="125.78" rx="59.6" ry="77.45" style="opacity:0.12"></ellipse><ellipse cx="369.08" cy="122.96" rx="59.6" ry="77.45" style="fill:#fff;stroke:#263238;stroke-linecap:round;stroke-linejoin:round"></ellipse><line x1="363.67" y1="65.62" x2="331.51" y2="97.78" style="fill:none;stroke:#263238;stroke-linecap:round;stroke-linejoin:round"></line><line x1="348.5" y1="86.7" x2="326.32" y2="108.88" style="fill:none;stroke:#263238;stroke-linecap:round;stroke-linejoin:round"></line><line x1="358.48" y1="76.72" x2="352.05" y2="83.15" style="fill:none;stroke:#263238;stroke-linecap:round;stroke-linejoin:round"></line><line x1="403.56" y1="112.07" x2="353.45" y2="162.18" style="fill:none;stroke:#263238;stroke-linecap:round;stroke-linejoin:round"></line><line x1="417.02" y1="98.62" x2="408.08" y2="107.55" style="fill:none;stroke:#263238;stroke-linecap:round;stroke-linejoin:round"></line><line x1="351.61" y1="175.69" x2="343.19" y2="184.11" style="fill:none;stroke:#263238;stroke-linecap:round;stroke-linejoin:round"></line><line x1="406.75" y1="120.55" x2="356.13" y2="171.17" style="fill:none;stroke:#263238;stroke-linecap:round;stroke-linejoin:round"></line></g></svg>