<svg xmlns="http://www.w3.org/2000/svg" viewBox="0 0 500 500"><g id="freepik--background-complete--inject-24"><path d="M85.49,350.49a1.32,1.32,0,0,1,0-.33l0-.92c0-.85,0-2,0-3.55,0-3.12-.06-7.6-.11-13.24l.21.21-68.2.13.35-.34h0v18l-.34-.34,48.6.15,14.34.1,3.88.05,1,0a1.55,1.55,0,0,1,.36,0l-.32,0-1,0-3.81.05-14.26.09-48.84.16H17v-.34c0-2.9,0-5.86,0-8.88v-9.15h0l.35-.35,68.2.14h.21v.21c0,5.7-.09,10.22-.12,13.36,0,1.5,0,2.67,0,3.5,0,.37,0,.66,0,.89S85.49,350.5,85.49,350.49Z" style="fill:#e0e0e0"></path><path d="M94.73,332.45s0-.13,0-.35,0-.57,0-1c0-.89,0-2.1-.06-3.62,0-3.16-.08-7.63-.14-13.12l.25.24-41,.1c-.31.31.42-.42.35-.34h0v9.28c0,3,0,5.94,0,8.75l-.33-.33,29.31.15,8.54.1,2.3,0a4.94,4.94,0,0,1,.82,0,7.33,7.33,0,0,1-.74,0l-2.23,0-8.47.09-29.53.16h-.33v-.33c0-2.81,0-5.73,0-8.75v-9.28h0l.35-.35,41,.1H95v.25c0,5.55-.1,10.07-.13,13.27,0,1.5,0,2.69-.06,3.56A9,9,0,0,1,94.73,332.45Z" style="fill:#e0e0e0"></path><path d="M185.15,78.44a2.4,2.4,0,0,1,0-.33l0-.93c0-.84,0-2-.05-3.55,0-3.11-.07-7.59-.12-13.23l.21.21L117,60.74l.34-.34h0v9.15c0,3,0,6,0,8.88L117,78.1l48.6.15,14.35.1,3.88,0,1,0a1.55,1.55,0,0,1,.36,0,1.64,1.64,0,0,1-.31,0l-1,0-3.8,0-14.27.09L117,78.78h-.34V69.56c0-1.5,0-3,0-4.55v-4.6h0c.7-.7.2-.2.36-.35l68.19.13h.21v.22c-.05,5.7-.09,10.22-.11,13.36,0,1.5,0,2.67-.06,3.5,0,.37,0,.66,0,.89A.88.88,0,0,1,185.15,78.44Z" style="fill:#e0e0e0"></path><path d="M194.4,60.4a1.84,1.84,0,0,1,0-.35c0-.26,0-.57,0-.95,0-.89,0-2.1-.07-3.62,0-3.16-.07-7.63-.13-13.13l.25.25-41,.1c-.31.31.42-.42.35-.34h0v4.69c0,1.55,0,3.08,0,4.59q0,4.53,0,8.75l-.33-.34,29.31.16,8.54.09,2.31,0a5.87,5.87,0,0,1,.82,0s-.24,0-.75,0l-2.23,0-8.46.09-29.54.16h-.33V60.4c0-2.81,0-5.73,0-8.75V47.06c0-.78,0-1.56,0-2.34V42.37h0l.35-.35,41,.09h.25v.25c-.06,5.56-.1,10.08-.14,13.28,0,1.5,0,2.69-.06,3.56A10.73,10.73,0,0,1,194.4,60.4Z" style="fill:#e0e0e0"></path><rect x="411.64" y="124.9" width="65.37" height="17.29" style="fill:#e0e0e0"></rect><path d="M450.5,159.85s0-.11,0-.32,0-.52,0-.88c0-.82,0-2,0-3.41,0-3-.06-7.27-.11-12.69l.2.21-65.36.13c.14-.15-.34.33.32-.34h0v17.27l-.33-.33,46.59.15,13.75.09,3.72.05,1,0a1.3,1.3,0,0,1,.34,0,1.45,1.45,0,0,1-.3,0l-.93,0-3.65,0L432,160l-46.82.14h-.32v-.32q0-4.17,0-8.51v-8.76h0c.66-.66.19-.18.34-.33l65.36.13h.21v.2c0,5.47-.09,9.8-.12,12.81,0,1.44,0,2.56,0,3.36,0,.35,0,.63,0,.85A.84.84,0,0,1,450.5,159.85Z" style="fill:#e0e0e0"></path><path d="M204.16,454.62a1.2,1.2,0,0,1,0-.32c0-.23,0-.52,0-.88,0-.82,0-1.95-.05-3.41,0-3-.07-7.27-.12-12.69l.21.21-65.37.13c.15-.15-.34.33.33-.33h0v8.77q0,4.33,0,8.51l-.33-.33,46.59.15,13.75.09,3.72.05,1,0a1.5,1.5,0,0,1,.35,0l-.31,0-.93,0-3.65,0-13.67.1-46.82.14h-.32v-.33c0-2.78,0-5.62,0-8.51v-8.77h0l.34-.34,65.37.13h.2v.2c-.05,5.47-.09,9.8-.11,12.81,0,1.44,0,2.56-.05,3.36,0,.35,0,.63,0,.85S204.16,454.63,204.16,454.62Z" style="fill:#e0e0e0"></path><path d="M380.59,45.2a1.09,1.09,0,0,1,0-.31c0-.23,0-.52,0-.89,0-.81,0-2-.05-3.4,0-3-.07-7.28-.12-12.69l.21.2-65.37.13c.15-.15-.34.33.33-.33h0V36.7c0,2.88,0,5.72,0,8.5l-.33-.32L361.8,45l13.75.09,3.72,0,1,0,.35,0a1.2,1.2,0,0,1-.31,0l-.93,0-3.65,0L362,45.38l-46.82.15h-.32V45.2c0-2.78,0-5.62,0-8.5V27.92h0c.67-.67.19-.18.34-.33l65.37.13h.2v.2c-.05,5.46-.09,9.8-.11,12.81,0,1.44,0,2.55-.05,3.36,0,.35,0,.63,0,.85S380.59,45.21,380.59,45.2Z" style="fill:#e0e0e0"></path><path d="M466.47,271.64a1.27,1.27,0,0,1,0-.32c0-.23,0-.52,0-.89,0-.81,0-1.94-.05-3.4,0-3-.07-7.28-.12-12.69l.21.2-65.37.14c.15-.15-.34.33.33-.34h0v8.76q0,4.33,0,8.51l-.33-.33,46.59.15,13.75.09,3.72,0,1,0a1.5,1.5,0,0,1,.35,0l-.31,0-.93,0-3.65,0-13.67.09-46.82.15h-.32v-.32q0-4.17,0-8.51v-8.76h0l.34-.33,65.37.13h.2v.2c-.05,5.47-.09,9.8-.11,12.81,0,1.44,0,2.56-.05,3.36,0,.35,0,.63,0,.85S466.47,271.64,466.47,271.64Z" style="fill:#e0e0e0"></path></g><g id="freepik--Window--inject-24"><rect x="78.72" y="79.74" width="308.31" height="346.29" style="fill:#455a64"></rect><path d="M79.22,79.62a13.59,13.59,0,0,1,2.23,1.79c1.32,1.17,3.11,2.83,5,4.73s3.59,3.69,4.76,5A14.6,14.6,0,0,1,93,93.36a17.4,17.4,0,0,1-2.08-2l-4.85-4.89L81.2,81.68A16.93,16.93,0,0,1,79.22,79.62Z" style="fill:#263238"></path><path d="M387,79.74a86.56,86.56,0,0,1-6.55,6.83A84.91,84.91,0,0,1,373.57,93a87.62,87.62,0,0,1,6.55-6.84A85.54,85.54,0,0,1,387,79.74Z" style="fill:#263238"></path><path d="M93.12,410.85c.11.1-3.11,3.81-7.19,8.28s-7.48,8-7.58,7.93,3.11-3.8,7.19-8.28S93,410.75,93.12,410.85Z" style="fill:#263238"></path><rect x="92.19" y="93.04" width="281.38" height="319.68" style="fill:#ebebeb"></rect><path d="M374.07,413.22H91.69V92.54H374.07Zm-281.38-1H373.07V93.54H92.69Z" style="fill:#263238"></path><g style="opacity:0.6000000000000001"><path d="M369.87,195.27c-.51-6.44-1-13-3.26-19s-6.41-11.51-12.14-13.54c-4.19-1.48-8.74-1-13.12-.4-8.7,1.18-17.49,2.79-25.43,6.79-14.88,7.5-21.55,25.56-25.28,42.69s.53,34.28,7.31,50.31,12,28.7,24.16,40.56a44.22,44.22,0,0,0-4.35,37.52c1.08,3.12,2.55,6.3,2.16,9.61-.68,5.86-6.63,9.18-9.27,14.36-2.34,4.58-1.88,10.12-1.88,15.33s-.85,11.06-4.76,14.17c-2.56,2-5.9,2.45-9,3.39s-6.31,2.9-7,6.24l2.29,8.34,46-1.24L360.44,380l14.19-70.16Z" style="fill:#fff"></path></g><path d="M213.92,351.17c-.1-.1,5.6-5.52,12.72-12.09s13-11.82,13.08-11.71-5.6,5.52-12.72,12.09S214,351.28,213.92,351.17Z" style="fill:#e0e0e0"></path><path d="M288.41,327.29c-.1-.1,5.6-5.52,12.72-12.09s13-11.82,13.08-11.71-5.6,5.52-12.73,12.09S288.5,327.4,288.41,327.29Z" style="fill:#e0e0e0"></path><path d="M297.81,368.9c-.1-.1,5.6-5.52,12.72-12.09s13-11.82,13.08-11.71-5.6,5.52-12.73,12.09S297.9,369,297.81,368.9Z" style="fill:#e0e0e0"></path><path d="M262.59,284.44c-.1-.1,5.6-5.52,12.73-12.09s13-11.82,13.07-11.72-5.6,5.53-12.72,12.1S262.69,284.55,262.59,284.44Z" style="fill:#e0e0e0"></path><path d="M335.18,327.82c-.1-.11,5.6-5.52,12.72-12.1S360.88,303.9,361,304s-5.6,5.52-12.73,12.1S335.28,327.92,335.18,327.82Z" style="fill:#e0e0e0"></path><path d="M111.78,277c-.09-.11,5.6-5.52,12.73-12.1s13-11.81,13.07-11.71-5.59,5.52-12.72,12.1S111.88,277.12,111.78,277Z" style="fill:#e0e0e0"></path><path d="M119,133.65c-.1-.1,5.6-5.52,12.72-12.09s13-11.82,13.08-11.71-5.6,5.52-12.72,12.09S119.09,133.76,119,133.65Z" style="fill:#e0e0e0"></path><path d="M177,295c-.1-.1,5.6-5.52,12.72-12.09s13-11.82,13.08-11.71-5.6,5.52-12.73,12.09S177.07,295.09,177,295Z" style="fill:#e0e0e0"></path><path d="M158.51,395.3c-.1-.11,5.6-5.52,12.72-12.1s13-11.81,13.08-11.71-5.6,5.52-12.73,12.1S158.6,395.4,158.51,395.3Z" style="fill:#e0e0e0"></path><path d="M245.83,392c-.1-.1,5.6-5.52,12.72-12.09s13-11.82,13.08-11.72-5.6,5.52-12.73,12.1S245.92,392.14,245.83,392Z" style="fill:#e0e0e0"></path><path d="M256.39,179.8c-.1-.1,5.6-5.52,12.72-12.09s13-11.82,13.08-11.72-5.6,5.52-12.72,12.1S256.49,179.91,256.39,179.8Z" style="fill:#e0e0e0"></path><path d="M309.43,139.09c-.1-.1,5.6-5.52,12.72-12.09s13-11.82,13.08-11.71-5.6,5.52-12.73,12.09S309.52,139.2,309.43,139.09Z" style="fill:#fff"></path><path d="M131.89,205.51c-.1-.1,5.6-5.52,12.72-12.09s13-11.82,13.08-11.71-5.6,5.52-12.72,12.09S132,205.62,131.89,205.51Z" style="fill:#fff"></path><path d="M114.62,328.61c-.1-.11,5.6-5.52,12.72-12.1s13-11.82,13.08-11.71-5.6,5.52-12.72,12.09S114.72,328.71,114.62,328.61Z" style="fill:#fff"></path><path d="M179.65,356.21c-.1-.1,5.6-5.52,12.72-12.09s13-11.82,13.08-11.71-5.6,5.52-12.72,12.09S179.75,356.32,179.65,356.21Z" style="fill:#fff"></path><path d="M293.62,187.4c-.1-.11,5.6-5.52,12.72-12.1s13-11.81,13.08-11.71-5.6,5.52-12.73,12.1S293.71,187.5,293.62,187.4Z" style="fill:#fff"></path><path d="M243.49,252.49c-.1-.11,5.6-5.53,12.72-12.1s13-11.82,13.08-11.71-5.6,5.52-12.72,12.09S243.59,252.59,243.49,252.49Z" style="fill:#fff"></path><path d="M309.43,280.69c-.1-.1,5.6-5.52,12.72-12.09s13-11.82,13.08-11.72-5.6,5.52-12.73,12.1S309.52,280.8,309.43,280.69Z" style="fill:#fff"></path><path d="M200.7,396.67c-.09-.1,5.6-5.52,12.73-12.09s13-11.82,13.07-11.72-5.59,5.52-12.72,12.1S200.8,396.78,200.7,396.67Z" style="fill:#fff"></path><path d="M299.66,225.55c-.09-.1,5.6-5.52,12.73-12.09s13-11.82,13.07-11.72-5.59,5.52-12.72,12.1S299.76,225.66,299.66,225.55Z" style="fill:#e0e0e0"></path><path d="M181.49,139.09c-.1-.1,5.6-5.52,12.72-12.09s13-11.82,13.08-11.71-5.6,5.52-12.73,12.09S181.59,139.2,181.49,139.09Z" style="fill:#e0e0e0"></path><path d="M275.49,127.19c-.1-.11,5.6-5.52,12.73-12.1s13-11.81,13.07-11.71-5.6,5.52-12.72,12.1S275.59,127.29,275.49,127.19Z" style="fill:#e0e0e0"></path><path d="M204.85,175.49c-.1-.1,5.6-5.52,12.72-12.09s13-11.82,13.08-11.71-5.6,5.52-12.73,12.09S205,175.6,204.85,175.49Z" style="fill:#e0e0e0"></path><path d="M223.59,130.17c-.1-.1,5.6-5.52,12.72-12.09s13-11.82,13.08-11.71-5.6,5.52-12.73,12.09S223.68,130.28,223.59,130.17Z" style="fill:#e0e0e0"></path><path d="M119,371.49c-.1-.1,5.6-5.52,12.72-12.09s13-11.82,13.08-11.72-5.6,5.52-12.72,12.1S119.09,371.6,119,371.49Z" style="fill:#e0e0e0"></path><path d="M137.17,152.68c.09.11-5.42,5.08-12.31,11.11s-12.57,10.82-12.66,10.71,5.42-5.08,12.31-11.11S137.08,152.57,137.17,152.68Z" style="fill:#e0e0e0"></path><path d="M97.88,407,368,405.76l-.22.22c0-88.38,0-194,0-307.33l.26.26h-.46l-269.63,0,.23-.23c-.14,184-.23,306.3-.23,308.3,0-2-.1-124.34-.23-308.3v-.23h.23l269.63,0h.72v.26c0,113.29,0,219,0,307.33v.22H368Z" style="fill:#fff"></path><path d="M233.2,411.65c-.15,0-.26-71.31-.26-159.25s.11-159.27.26-159.27.26,71.29.26,159.27S233.34,411.65,233.2,411.65Z" style="fill:#263238"></path><path d="M376.91,240.58c0,.15-63.89.26-142.68.26s-142.7-.11-142.7-.26,63.88-.26,142.7-.26S376.91,240.44,376.91,240.58Z" style="fill:#263238"></path><g style="opacity:0.7000000000000001"><path d="M175.26,224.09c3.71-.59,6.24-4.47,9.93-5.22,7.4-1.5,13.59,5.92,21,7.35,5.67,1.1,11.37-1.44,16.47-4.16s10.36-5.77,16.14-5.81,12.05,4.34,11.65,10.11c-.34,4.92-5,8.2-8.57,11.58s-6.45,9.3-3.1,12.92c3,3.26,9.17,2.12,10.52,7.92a9.73,9.73,0,0,1-1.39,7.34c-2.83,4.45-7.76,6.81-11.24,10.64-3,3.33-4.73,8.78-1.84,12.24.87,1.05,2.06,1.78,3,2.74,4,4,3.23,10.93,0,15.57s-8.23,7.63-12.8,10.95-9.05,7.46-10.27,13c-1.49,6.77,2.32,13.67,1.84,20.59-.71,10.29-12.75,18.07-22.43,14.5-3.27-1.21-6.16-3.44-9.57-4.19-5.41-1.2-10.81,1.54-15.89,3.76s-11.25,3.92-15.93.94c-7.65-4.86-5.5-18.24-13.19-23.05-6.37-4-16.52.12-21.18-5.77-2.27-2.85-2.07-6.95-1.11-10.47s2.56-6.91,2.76-10.55c.59-10.87-11.17-19.25-11.29-30.14-.07-6.87,4.58-12.87,9.66-17.51s10.92-8.64,14.59-14.46c3.78-6,4.88-13.38,8.58-19.44a26.63,26.63,0,0,1,21.67-12.34,23.19,23.19,0,0,1,6.09.74A14.65,14.65,0,0,0,175.26,224.09Z" style="fill:#fff"></path></g><path d="M158.35,277.44a4.29,4.29,0,1,0,5.13,3.25A4.28,4.28,0,0,0,158.35,277.44Z" style="fill:#ebebeb"></path><path d="M186.56,279.93a4.29,4.29,0,1,0-5.12-3.25A4.29,4.29,0,0,0,186.56,279.93Z" style="fill:#ebebeb"></path><path d="M171.21,296.66A13.44,13.44,0,0,1,184,294.33a16.77,16.77,0,0,1,2.79,1.14A18,18,0,0,1,189,296.9c2.63,2,3.72,3.89,4.16,3.67.19-.09.16-.68-.21-1.66a11.44,11.44,0,0,0-2.46-3.68,15.7,15.7,0,0,0-2.37-2,16.67,16.67,0,0,0-3.18-1.65,14.82,14.82,0,0,0-15.62,2.86,15.88,15.88,0,0,0-2.39,2.67,16.22,16.22,0,0,0-1.51,2.71,11.66,11.66,0,0,0-1,4.32c0,1,.18,1.61.39,1.63a.24.24,0,0,0,.15-.06,32.6,32.6,0,0,0,2.24,6.13c.18.39.47.83.9.82a.79.79,0,0,0,.68-.64,2.42,2.42,0,0,0-.05-1l-1.26-6.13a2.4,2.4,0,0,0,.52,1,.8.8,0,0,0,1,.12,1.19,1.19,0,0,0,.25-1l-.32-5.9a.43.43,0,0,0-.07-.25l.11-.13A17.39,17.39,0,0,1,171.21,296.66Z" style="fill:#ebebeb"></path><path d="M217,280.43c-2-8.9-7.63-17.2-15.89-23.36a50.08,50.08,0,0,0-15.17-7.66,42.65,42.65,0,0,0-21.59-1.07,36,36,0,0,0-24.1,18.5,44,44,0,0,0-5,23.11,8.54,8.54,0,0,0-1,5.6,23.77,23.77,0,0,0,2.19,6.4l4.52,10A27.38,27.38,0,0,0,145,319c2.18,2.44,5.14,4,8,5.52a33.32,33.32,0,0,0,9.33,3.73,49.93,49.93,0,0,0,2,5.56c.36.84.91,1.78,1.82,1.83,1.18.07,1.79-1.35,2.06-2.51,4.23,4.17,2.7,11.68,6.29,16.41a1.62,1.62,0,0,0,1.41.83c.87-.15,1-1.35.86-2.23q-1.23-9.26-2.44-18.53c.45,0,.91,0,1.37,0a40.51,40.51,0,0,0,8.92-1,42,42,0,0,0,8-2.61,1.22,1.22,0,0,0-1-2.23,40.39,40.39,0,0,1-7.5,2.46,38.14,38.14,0,0,1-45.54-28.9c-4.61-20.63,5.45-40.08,23.11-45.83l1.38-.34a2,2,0,0,1,1.5,0,2.12,2.12,0,0,1,.8,1.66l.81,5.63c.12.85.46,1.91,1.31,1.94s1.3-1,1.4-1.9a16.89,16.89,0,0,0,0-4c-.12-1.08-.2-2.46.78-2.94.68-.33,1.48,0,2.24,0a2.69,2.69,0,0,0,2.54-1.75,43.61,43.61,0,0,1,10.67,1.85A47.53,47.53,0,0,1,199.6,259c7.79,5.8,13.11,13.6,15,21.93a1.22,1.22,0,1,0,2.38-.53Z" style="fill:#ebebeb"></path><path d="M98,98.65a14.38,14.38,0,0,1-2.88-2.47,14,14,0,0,1-2.51-2.85,14.38,14.38,0,0,1,2.88,2.47A14.35,14.35,0,0,1,98,98.65Z" style="fill:#fff"></path><g style="opacity:0.6000000000000001"><path d="M211.65,405.09c-.1-6-8.13-8.43-14.07-9.35s-12.3-.27-17.66-3c-3.34-1.68-5.94-4.5-9.08-6.53a22,22,0,0,0-15.37-3.2c-3.07.5-6.32,1.65-9.2.43-3.44-1.46-4.71-5.56-6.14-9-6.72-16.2-23.74-25.13-40.53-20.05l.68,50.69Z" style="fill:#fff"></path></g><g style="opacity:0.6000000000000001"><path d="M264.63,101.84h0c1.14,3.93-4,7.39-7.68,9.14s-8,1.58-12,1.1-8.18-1.22-12.21-.51c-5.25.93-9.79,4.24-14.94,5.67-8,2.2-16.41-.35-24.44-2.36s-17.06-3.37-24.2.83c-6.45,3.79-10.37,11.61-17.59,13.59-4,1.08-8.38.18-12.12,1.87-5,2.26-7,8.26-8.1,13.67s-1.95,11.38-6.06,15c-3.15,2.81-7.63,3.69-10.88,6.37-5,4.13-6,11.36-6,17.84,0,10.89,1.43,21.75,1.21,32.64s-2.32,22.13-8.7,30.95h0l1-146Z" style="fill:#fff"></path></g></g><g id="freepik--Character--inject-24"><path d="M426.16,272.77c-1.15-5.91-3.59-11.48-5.31-17.25s-1.56-12-2.57-18.31l-18.65,53q.35,10.8.68,21.61c0,1.54.2,3.29,1.43,4.21,1.51,1.12,3.65.3,5.27-.66C421.29,306.91,429.32,289.05,426.16,272.77Z" style="fill:#263238"></path><path d="M376.51,200.51l-35.41-7.78-8.52,2.43c-19.53,3.27-29.48,27-27,42.88,2.74,17.61,6.77,39,11.69,51.5,9.88,25.15,30.59,24.06,30.59,24.06s1,7.16,2.22,15.94A28,28,0,0,0,383,353h0A28,28,0,0,0,405.38,321L386.76,208A9.37,9.37,0,0,0,376.51,200.51Z" style="fill:#9e5f58"></path><path d="M316.13,255.77a3.42,3.42,0,0,0,4,2.66,3.28,3.28,0,0,0,2.79-3.77,3.43,3.43,0,0,0-4-2.66A3.26,3.26,0,0,0,316.13,255.77Z" style="fill:#263238"></path><path d="M312.28,247.16c.51.34,2.63-2.09,6.23-2.88s6.63.44,6.92-.09c.15-.24-.45-.93-1.78-1.51a9.35,9.35,0,0,0-5.66-.47,9.07,9.07,0,0,0-4.84,2.83C312.24,246.14,312,247,312.28,247.16Z" style="fill:#263238"></path><path d="M340.93,270.5c0-.21-2.34-.1-6.07.23-.94.11-1.85.12-2.14-.47a4.81,4.81,0,0,1,0-2.86q.57-3.61,1.18-7.59c1.57-10.79,2.5-19.58,2.06-19.64s-2.06,8.64-3.64,19.43c-.36,2.65-.72,5.18-1.05,7.6-.12,1.12-.45,2.44.32,3.71a2.37,2.37,0,0,0,1.81,1,6,6,0,0,0,1.6-.13C338.7,271.19,341,270.7,340.93,270.5Z" style="fill:#263238"></path><path d="M347.84,313.6a67.93,67.93,0,0,0,32.84-17S375.37,316.7,348.75,320Z" style="fill:#794742"></path><path d="M353.9,274.44a5.47,5.47,0,0,0-4.91-1.13,4.89,4.89,0,0,0-3.44,3.6c-.41,1.95.49,3.91,1.35,5.7l-.15.18a11.6,11.6,0,0,0,6.32.14,4.4,4.4,0,0,0,1.9-.9,3.9,3.9,0,0,0,1.07-3A6.23,6.23,0,0,0,353.9,274.44Z" style="fill:#794742"></path><path d="M345.08,284.58c.58.12,1.14-3.84,4.92-6.18s7.94-1.32,8-1.86c.09-.25-.83-.9-2.6-1.2a10,10,0,0,0-6.68,1.33,8.66,8.66,0,0,0-3.88,5.22C344.5,283.52,344.8,284.57,345.08,284.58Z" style="fill:#263238"></path><path d="M320.17,231.42c-1-.34-2.63,1.79-5.15,3.51s-5,2.66-5,3.71c0,.5.82,1,2.2,1a9,9,0,0,0,8.19-5.82C320.82,232.51,320.63,231.6,320.17,231.42Z" style="fill:#263238"></path><path d="M356.55,247.09a3.42,3.42,0,0,1-2.63,4,3.27,3.27,0,0,1-4-2.4,3.44,3.44,0,0,1,2.63-4A3.28,3.28,0,0,1,356.55,247.09Z" style="fill:#263238"></path><path d="M360.36,237.26c-.34.52-3.23-.91-6.85-.24s-5.95,3-6.42,2.59c-.23-.16.05-1,1.05-2.08a9.4,9.4,0,0,1,5.05-2.62,9,9,0,0,1,5.55.74C360,236.3,360.53,237,360.36,237.26Z" style="fill:#263238"></path><path d="M346.16,223.52c.74-.83,3.61,0,7.08.1s6.4-.53,7.07.35c.29.42-.17,1.26-1.46,2.05a10.87,10.87,0,0,1-5.76,1.34,10.61,10.61,0,0,1-5.64-1.71C346.23,224.79,345.83,223.93,346.16,223.52Z" style="fill:#263238"></path><path d="M336.69,182.42c-47.15,1.27-32.86,59.43-32.86,59.43h0C321.49,224.12,337,193.31,337,193.31l7.05-2.45Z" style="fill:#263238"></path><path d="M389,253.28c-.43-1.95.81-7,2.66-7.74,4.94-1.92,14.25-3.55,17.21,9.43,4,17.74-14.61,18.13-14.76,17.63S390.47,260,389,253.28Z" style="fill:#9e5f58"></path><path d="M398,264.65c.07-.08.36.14.94.26a3.18,3.18,0,0,0,2.32-.47c1.72-1.12,2.62-4.45,2-7.67a10.43,10.43,0,0,0-1.88-4.23,3.65,3.65,0,0,0-2.86-1.84,1.6,1.6,0,0,0-1.63,1.26c-.13.55.07.88,0,.93s-.45-.21-.47-1a2,2,0,0,1,.44-1.28,2.44,2.44,0,0,1,1.61-.84,4.47,4.47,0,0,1,3.85,2,10.67,10.67,0,0,1,2.2,4.7c.7,3.6-.37,7.36-2.77,8.69a3.37,3.37,0,0,1-2.93.17C398.14,265.07,398,264.69,398,264.65Z" style="fill:#794742"></path><path d="M420,252c-1-28.86-17.59-63.91-33.27-69.57s-50-14.12-52.67,7.38c-1.7,13.73,16.71,22.51,29.21,28.46,4.12,2,8.64,3.6,11.59,7.08,4.32,5.08-4.32,26.7,14.07,36.15,0,0,.05-13.61.71-14.52,1.78-2.44,7.29-4.17,12.94-1.79,6.39,2.7,13.09,21.32-5.18,27.32l3.9,23.67S421,280.85,420,252Z" style="fill:#263238"></path><path d="M361.74,252.26c0,.16-2.13.28-4.68.88s-4.53,1.42-4.59,1.27a16,16,0,0,1,9.27-2.15Z" style="fill:#794742"></path><path d="M323.93,261.91c0,.15-2.12-.24-4.68,0s-4.54,1-4.59.87a11.83,11.83,0,0,1,9.27-.88Z" style="fill:#794742"></path><path d="M362.09,278.13c-.14-.05.19-1.1,0-2.38s-.79-2.19-.67-2.28a2.9,2.9,0,0,1,1.19,2.21A2.87,2.87,0,0,1,362.09,278.13Z" style="fill:#794742"></path><path d="M416.83,233.94a17.32,17.32,0,0,0-1.49-3.37,20.85,20.85,0,0,0-7.41-6.65c-1.83-1.08-3.92-2.11-6.2-3.17l-7.26-3.41-16.62-7.85-16.61-7.89L354,198.15c-2.26-1.08-4.38-2.08-6.27-3.1a27.83,27.83,0,0,1-8.1-6.05,12.72,12.72,0,0,1-2.09-3.08,26.18,26.18,0,0,0,2.24,2.94,28.69,28.69,0,0,0,8.13,5.86c1.88,1,4,2,6.28,3l7.26,3.41L378.07,209l16.6,7.88,7.24,3.46a65.89,65.89,0,0,1,6.21,3.25,26,26,0,0,1,4.64,3.46,16,16,0,0,1,2.76,3.4,12.47,12.47,0,0,1,1.09,2.53l.18.7A1.12,1.12,0,0,1,416.83,233.94Z" style="fill:#455a64"></path><path d="M410.58,211.34a4.91,4.91,0,0,1-.7-.43c-.45-.28-1.08-.75-1.95-1.27a61.4,61.4,0,0,0-7.54-4,94.37,94.37,0,0,0-11.91-4.37c-4.57-1.38-9.67-2.66-15-4s-10.43-2.83-14.94-4.47a71.87,71.87,0,0,1-11.59-5.29,47.49,47.49,0,0,1-7-4.92c-.79-.63-1.33-1.21-1.73-1.57a6.5,6.5,0,0,1-.57-.58,4.44,4.44,0,0,1,.64.5c.42.33,1,.89,1.79,1.5a51.39,51.39,0,0,0,7.09,4.75,74.11,74.11,0,0,0,11.56,5.16c4.5,1.61,9.56,3,14.91,4.41s10.45,2.67,15,4.08a92.93,92.93,0,0,1,11.92,4.49,57.34,57.34,0,0,1,7.5,4.18c.86.55,1.47,1.05,1.9,1.36A4.31,4.31,0,0,1,410.58,211.34Z" style="fill:#455a64"></path><path d="M431.55,301.29a31.35,31.35,0,0,1,25.64,13.89c5.86,8.92,6.68,20.09,8.63,30.58s6,21.76,15.35,26.87c1.1.61,2.38,1.25,2.7,2.47.37,1.46-1,2.91-2.5,3.18a8.4,8.4,0,0,1-4.4-.84,22.73,22.73,0,0,1-27.49,34.31l-30.86-90.84Z" style="fill:#263238"></path><path d="M429.24,293.15c-3.05-1.68-6.84.45-9.18,3-3.35,3.66-5.48,8.25-7.55,12.75,1,2.74-1.05,6.06.79,8.32s4.67,3.94,7.57,3.63c3.87-.41,6.55-4.05,8.15-7.6a38,38,0,0,0,3.12-11.36C432.51,298.66,432.1,294.73,429.24,293.15Z" style="fill:#455a64"></path><path d="M229.36,337.44s25.69,34.48,35.65,47c10.77,13.55,28.32,34.92,28.32,34.92l-4.47,49.2s-27.73-13.48-35.44-28.39S209.66,358,209.66,358Z" style="fill:#9e5f58"></path><path d="M403,296.59s-19.2,12-26,16.87c-3.29,2.35-27.38,23-27.38,23l1.67,6.43s-9.93,33.47-11.82,41.55c-1.51,6.43-6.27,75.14-7.12,86.52H457.46s.19-85.81-5.26-101.81c-7.88-23.1-36.44-58.48-36.44-58.48l-9.49-2.27Z" style="fill:#616364"></path><path d="M360,361.57c-1.71,1-39.18,39-39.18,39s-9.21,2.13-10.44,9.05L299.67,413c-.84-2.33-9.51-3.66-11.12,1.87-.73,2.52-10.86,41.07-11.36,46.95-.46,5.3,16.14,9.11,16.14,9.11l14.88-4s25.77-1.84,29.46-2.76,52.2-16.89,66.32-31.93,29.79-31.32,29.79-31.32S387.29,346.22,360,361.57Z" style="fill:#616364"></path><path d="M288.55,414.91a.91.91,0,0,1,.05-.24,3.7,3.7,0,0,1,.25-.67,4,4,0,0,1,2-1.86c2.23-1,5.89-.85,10,.37h-.12l8.87-2.85-.12.09,1.11-1.81,0,0a11.23,11.23,0,0,1,3.92-4.91,16.37,16.37,0,0,1,6.23-2.71l-.13.07,7.18-7.34,24.05-24.44c3.07-3.09,5.57-5.59,7.33-7.37l2-2c.22-.2.39-.37.53-.51a1,1,0,0,1,.2-.16,1,1,0,0,1-.2.16c-.13.15-.29.33-.49.54l-1.95,2.06-7.21,7.48-23.93,24.54-7.2,7.34-.06,0-.08,0c-4.43.9-8.39,3.63-9.82,7.29v0h0l-1.12,1.8,0,.07-.08,0-8.9,2.78h-.11c-4-1.25-7.64-1.48-9.81-.54a4,4,0,0,0-2,1.73C288.64,414.59,288.59,414.92,288.55,414.91Z" style="fill:#263238"></path><g style="opacity:0.30000000000000004"><path d="M336.39,464.54c19.75-1.48,39.72-5.45,56.84-15.4s31.1-26.6,34.27-46.14C406.15,434.2,375.43,454.29,336.39,464.54Z"></path></g><path d="M426.53,403.42a2.22,2.22,0,0,1-.19.31l-.6.9-2.36,3.4-1.71,2.46c-.65.88-1.42,1.79-2.21,2.79-1.63,2-3.36,4.32-5.61,6.63l-3.42,3.71c-1.2,1.28-2.58,2.49-3.93,3.81l-2.09,2a28.35,28.35,0,0,1-2.23,2l-4.76,4a143.87,143.87,0,0,1-48.79,25.53l-6,1.64-1.45.39c-.48.12-1,.21-1.44.31l-2.83.58c-1.86.36-3.64.8-5.37,1.06l-5,.69c-3.17.53-6.09.62-8.64.83-1.27.08-2.46.2-3.55.23h-8.21a1.7,1.7,0,0,1-.37,0l.37,0,1.07,0,4.14-.09,3-.06c1.09-.05,2.27-.18,3.54-.27,2.54-.24,5.45-.35,8.61-.9l5-.73c1.73-.26,3.5-.71,5.35-1.08l2.82-.59c.47-.11,1-.19,1.44-.32l1.44-.4,6-1.65A145.34,145.34,0,0,0,397.12,435l4.76-4c.78-.64,1.54-1.28,2.23-2l2.09-2c1.36-1.31,2.74-2.51,3.94-3.78l3.44-3.68c2.26-2.29,4-4.61,5.65-6.57.8-1,1.58-1.88,2.24-2.75l1.75-2.43,2.43-3.34.65-.87C426.44,403.51,426.52,403.41,426.53,403.42Z" style="fill:#263238"></path><path d="M430.9,382.46a5.42,5.42,0,0,1-.15-.76c-.1-.49-.18-1.22-.38-2.15a36.31,36.31,0,0,0-2.53-7.6,37.71,37.71,0,0,0-6.61-9.82,36,36,0,0,0-11.82-8.29A38.93,38.93,0,0,0,395.23,351a72.8,72.8,0,0,0-11.88.72c-3.38.44-6.09.92-8,1.24l-2.17.36a3.52,3.52,0,0,1-.76.09,4.28,4.28,0,0,1,.74-.19l2.15-.46c1.86-.38,4.57-.92,7.94-1.41a71.48,71.48,0,0,1,12-.83,38.39,38.39,0,0,1,14.36,2.89,35.74,35.74,0,0,1,12,8.43,37.42,37.42,0,0,1,6.6,10,33.92,33.92,0,0,1,2.39,7.71c.17.94.21,1.68.28,2.18A4,4,0,0,1,430.9,382.46Z" style="fill:#263238"></path><path d="M406.14,310.7a5.94,5.94,0,0,1-.58.53l-1.73,1.43-6.43,5.21-21.34,17L357.41,349.6l-.2.16-.11-.22c-2.07-4-3.77-7.28-5-9.62-.57-1.11-1-2-1.34-2.65l-.34-.7a1,1,0,0,1-.1-.25,1,1,0,0,1,.15.22c.11.18.24.4.39.67.36.65.84,1.51,1.44,2.61,1.25,2.31,3,5.56,5.13,9.53l-.3-.07,18.58-14.81,21.43-16.89,6.53-5.08,1.79-1.36A4.42,4.42,0,0,1,406.14,310.7Z" style="fill:#263238"></path><path d="M397.85,321c.12.08-3.52,6.39-8.14,14.1S381.25,349,381.13,349s3.52-6.38,8.14-14.1S397.73,321,397.85,321Z" style="fill:#263238"></path><path d="M410.58,471.18c-.15,0,.79-11.32,2.08-25.25s2.47-25.21,2.61-25.2S414.48,432,413.18,446,410.72,471.19,410.58,471.18Z" style="fill:#263238"></path><g style="opacity:0.30000000000000004"><polyline points="350.75 337.06 350.85 337.44 356.23 356.2 397.85 317.27 359.06 348.4"></polyline></g><path d="M293.41,471.18a2.52,2.52,0,0,1,.1-.59c.11-.43.24-1,.4-1.64.37-1.43.86-3.5,1.43-6.07a176.25,176.25,0,0,0,4.2-40.78c0-2.63-.09-4.76-.16-6.23,0-.69,0-1.25-.05-1.69a2.52,2.52,0,0,1,0-.6,2.33,2.33,0,0,1,.09.59c0,.44.09,1,.15,1.69.13,1.47.25,3.6.33,6.23A156.66,156.66,0,0,1,295.7,463c-.61,2.57-1.16,4.63-1.59,6-.2.66-.37,1.2-.5,1.62A2.3,2.3,0,0,1,293.41,471.18Z" style="fill:#263238"></path><path d="M304.71,444.56a5.77,5.77,0,0,1-.06-1.24c0-.8,0-1.95,0-3.37a93.47,93.47,0,0,0-.94-11.07A90.34,90.34,0,0,0,301.36,418c-.37-1.37-.7-2.48-.93-3.24a6.34,6.34,0,0,1-.31-1.21,5.56,5.56,0,0,1,.5,1.14c.29.75.67,1.84,1.1,3.2a75.52,75.52,0,0,1,2.47,10.9,74.24,74.24,0,0,1,.79,11.14c0,1.43-.06,2.59-.12,3.39A5.25,5.25,0,0,1,304.71,444.56Z" style="fill:#263238"></path><path d="M317.34,445.63a8,8,0,0,1-.08-1.47c0-.94-.05-2.31-.12-4a106.84,106.84,0,0,0-1.41-13.06,105.65,105.65,0,0,0-3.09-12.77c-.5-1.6-.92-2.9-1.23-3.79a8.27,8.27,0,0,1-.42-1.41,8.7,8.7,0,0,1,.61,1.34c.37.87.84,2.15,1.39,3.75a86.21,86.21,0,0,1,4.51,25.93c0,1.69,0,3.06,0,4A7.23,7.23,0,0,1,317.34,445.63Z" style="fill:#263238"></path><path d="M193.31,319.86s-4.13-3.64-6.54-3.34c-3,.37-2.84,4.94-2.84,4.94-.57,2.48,5.93,9.19,8.41,12.82s19.1,25.78,19.1,25.78l22.15-15.85-1-5.92c-1-5.92-11.08-26.93-11.08-26.93S209.72,292.07,208,290s-13.94-8-14.51-8.21c0,0-3.51,4-.34,6.68,1.63,1.39,8.36,6.11,8.36,6.11l5.92,10.51-.05.85-6.63-9.54s-2.72-2.46-5.19-2.83-6.48,1-6.48,1a4.12,4.12,0,0,0-1.29,4.46l1.23,1.48,2.84.81,4.71,7.51s-4.22-2.42-5.92-.92a5.52,5.52,0,0,0-1.89,5C189,314.75,193.31,319.86,193.31,319.86Z" style="fill:#9e5f58"></path><path d="M214.16,305.74a12.4,12.4,0,0,0-2,.8c-1,.64-1.45,1.58-1.59,1.52s0-.3.15-.7a3.34,3.34,0,0,1,2.79-1.78C213.9,305.57,214.16,305.67,214.16,305.74Z" style="fill:#794742"></path><path d="M200.56,314.44a15.84,15.84,0,0,1-2.65-3,15.57,15.57,0,0,1-2.23-3.35,16.24,16.24,0,0,1,2.65,3A15.12,15.12,0,0,1,200.56,314.44Z" style="fill:#794742"></path><path d="M195.8,324.07a10.72,10.72,0,0,1-2.11-2.52,10.87,10.87,0,0,1-1.68-2.83,20.86,20.86,0,0,1,3.79,5.35Z" style="fill:#794742"></path><path d="M351.27,342.9a9,9,0,0,1-.44,1.51c-.31,1-.74,2.38-1.23,4.12-1,3.49-2.27,8.34-3.74,13.68s-2.89,10.16-4.07,13.61c-.58,1.71-1.08,3.1-1.47,4a11.16,11.16,0,0,1-.63,1.45,7.89,7.89,0,0,1,.44-1.52c.33-1,.77-2.36,1.31-4.09,1.08-3.46,2.46-8.28,3.92-13.63s2.8-10.18,3.88-13.65c.55-1.73,1-3.12,1.39-4.07A9.55,9.55,0,0,1,351.27,342.9Z" style="fill:#263238"></path></g><g id="freepik--Desk--inject-24"><path d="M468.54,471c0,.15-98.3.26-219.53.26S29.46,471.12,29.46,471s98.28-.26,219.55-.26S468.54,470.83,468.54,471Z" style="fill:#263238"></path></g><g id="freepik--Plant--inject-24"><path d="M48.18,227.41a5.93,5.93,0,0,1,.1-.59c.09-.42.21-1,.36-1.72l1.46-6.57c1.29-5.74,3.16-14,5.47-24.19,4.7-20.45,11.18-48.69,18.35-80l.33-1.42.32,1.42c.13.56.26,1.16.4,1.77,7.14,31.72,13.6,60.43,18.29,81.24,2.3,10.38,4.17,18.79,5.47,24.64.63,2.89,1.11,5.14,1.45,6.7l.37,1.75c.07.39.1.6.1.6s-.07-.2-.17-.59-.24-1-.43-1.73c-.36-1.56-.89-3.8-1.57-6.68-1.35-5.83-3.28-14.22-5.67-24.59C88.07,176.69,81.54,148,74.33,116.3l-.41-1.78h.65C67.31,145.78,60.77,174,56,194.44c-2.39,10.18-4.33,18.42-5.68,24.14-.67,2.82-1.2,5-1.57,6.55-.18.73-.32,1.29-.43,1.7S48.18,227.41,48.18,227.41Z" style="fill:#263238"></path><path d="M48.16,251.15V231.08h53.56v20.07a23.37,23.37,0,0,1-23.37,23.37H71.53A23.37,23.37,0,0,1,48.16,251.15Z" style="fill:#263238"></path><path d="M48.16,231.08a6.3,6.3,0,0,1,.61.84l1.63,2.49,5.91,9.21,19.26,30.51.14.22h-.57l18.69-30.68,5.72-9.25,1.58-2.49a6.29,6.29,0,0,1,.59-.85,5.66,5.66,0,0,1-.47.92c-.37.63-.87,1.49-1.48,2.56l-5.54,9.35L75.71,274.69l-.28.46-.28-.45-.14-.22-19.1-30.61-5.72-9.32L48.66,232A6.7,6.7,0,0,1,48.16,231.08Z" style="fill:#263238"></path><path d="M80.26,114.2a5.85,5.85,0,1,1-5.85-5.85A5.85,5.85,0,0,1,80.26,114.2Z" style="fill:#263238"></path><path d="M74.41,14.66c.18,0,.33,22.53.33,50.31s-.15,50.32-.33,50.32S74.08,92.77,74.08,65,74.23,14.66,74.41,14.66Z" style="fill:#263238"></path><path d="M77.45,276.7a2.51,2.51,0,1,1-2.51-2.5A2.51,2.51,0,0,1,77.45,276.7Z" style="fill:#263238"></path><path d="M73.83,277.64l.41-.2a5.52,5.52,0,0,0-2.53,4.14,14.54,14.54,0,0,0,.43,5c.11.52.38,1.17.91,1.14s.71-.6.79-1.08a10.4,10.4,0,0,0,.08-3,5.27,5.27,0,0,0,1.16,3.54c.16.2.38.39.62.33s.33-.32.39-.55a11.73,11.73,0,0,0,.38-2.57,4,4,0,0,0,.79,2.09,1.39,1.39,0,0,0,2,.13,1.93,1.93,0,0,0,.21-1.46,17.3,17.3,0,0,0-3.5-8.23" style="fill:#263238"></path><path d="M51.53,231.08s-24.06-27.74-21.38-28.74,24.06,14.37,24.06,14.37S35.83,175.61,39.5,172.6,62.56,209,62.56,209s-3-57.48,0-58.14,14,57.48,14,57.48S93,155.22,97.65,155.22s-5,51.13-5,51.13S112,173.6,115,177.94s-13.7,39.77-13.7,39.77,24.39-20.38,25.4-17.71-26.4,31.08-26.4,31.08Z" style="fill:#616364"></path><path d="M48.18,189.31c.16-.08,4.43,9.07,9.53,20.43s9.1,20.63,8.93,20.71-4.43-9.08-9.53-20.44S48,189.38,48.18,189.31Z" style="fill:#263238"></path><path d="M67.62,194.42c.18,0,.89,8.05,1.58,18s1.11,18,.92,18.06-.89-8.05-1.58-18S67.43,194.43,67.62,194.42Z" style="fill:#263238"></path><path d="M94.43,168.68a2.89,2.89,0,0,1-.14.65c-.15.49-.32,1.09-.53,1.83-.51,1.67-1.19,3.93-2,6.69-1.7,5.66-4,13.48-6.31,22.18s-4.24,16.63-5.58,22.38l-1.6,6.81-.45,1.85a2.49,2.49,0,0,1-.2.63,2.53,2.53,0,0,1,.07-.66c.09-.5.2-1.12.33-1.87.3-1.63.77-4,1.39-6.86,1.23-5.78,3.08-13.73,5.41-22.45s4.68-16.52,6.49-22.15c.9-2.81,1.66-5.08,2.21-6.63.26-.72.48-1.31.65-1.79A2.22,2.22,0,0,1,94.43,168.68Z" style="fill:#263238"></path><path d="M106,198.3c.15.11-4.55,7.11-10.49,15.64s-10.88,15.37-11,15.27S89.05,222.1,95,213.57,105.87,198.2,106,198.3Z" style="fill:#263238"></path><path d="M59.66,230.49a8.79,8.79,0,0,1-2.11-1.5A59,59,0,0,1,53,224.76a57.12,57.12,0,0,1-4.11-4.68,8.94,8.94,0,0,1-1.45-2.15c.15-.12,2.65,2.91,6,6.37S59.78,230.34,59.66,230.49Z" style="fill:#263238"></path><path d="M74.27,219.47c.18,0,.56,2.55.85,5.72s.38,5.77.2,5.78-.57-2.54-.86-5.72S74.09,219.49,74.27,219.47Z" style="fill:#263238"></path><path d="M101.72,243.59a14.52,14.52,0,0,1-2.07.43c-1.34.23-3.28.54-5.69.87A183.48,183.48,0,0,1,75,246.57a121,121,0,0,1-19-.79c-2.41-.31-4.35-.63-5.69-.91a14.55,14.55,0,0,1-2.05-.49,12.35,12.35,0,0,1,2.1.23c1.34.21,3.29.45,5.7.71a140.79,140.79,0,0,0,18.91.59c7.4-.25,14.07-.94,18.89-1.48l5.72-.67A12.55,12.55,0,0,1,101.72,243.59Z" style="fill:#fff"></path><path d="M101.72,249.56a11.66,11.66,0,0,1-2.07.43c-1.34.24-3.28.54-5.69.88A189.27,189.27,0,0,1,75,252.55a121,121,0,0,1-19-.79c-2.41-.32-4.35-.63-5.69-.92a11.68,11.68,0,0,1-2.05-.49,13.27,13.27,0,0,1,2.1.24c1.34.2,3.29.45,5.7.7a140.57,140.57,0,0,0,18.91.6c7.4-.26,14.07-.94,18.89-1.49l5.72-.66A13.52,13.52,0,0,1,101.72,249.56Z" style="fill:#fff"></path></g></svg>