<svg xmlns="http://www.w3.org/2000/svg" viewBox="0 0 500 500"><g id="freepik--background-simple--inject-18"><path d="M195.24,26.1s-48,2.88-94.16,38.43c-40.18,31-62.47,77.28-64.79,127.63-1.54,33.24,6.4,65.65,16,97.21,12.33,40.6,20.29,86.85,46,121.55,40.09,54,117.59,76.78,182.4,67.11,41.87-6.24,86.11-30,99-73,4.77-15.91,7.1-33,15.25-47.71,9.76-17.62,27.48-27.91,40.93-42.26,16.61-17.72,23.31-39.8,27.45-63.16C476.78,176,448,111.62,396.06,64.53S217.34,18.41,195.24,26.1Z" style="fill:#CFD8DC"></path><path d="M195.24,26.1s-48,2.88-94.16,38.43c-40.18,31-62.47,77.28-64.79,127.63-1.54,33.24,6.4,65.65,16,97.21,12.33,40.6,20.29,86.85,46,121.55,40.09,54,117.59,76.78,182.4,67.11,41.87-6.24,86.11-30,99-73,4.77-15.91,7.1-33,15.25-47.71,9.76-17.62,27.48-27.91,40.93-42.26,16.61-17.72,23.31-39.8,27.45-63.16C476.78,176,448,111.62,396.06,64.53S217.34,18.41,195.24,26.1Z" style="fill:#fff;opacity:0.7000000000000001"></path></g><g id="freepik--Clouds--inject-18"><path d="M451.34,286.19a27.78,27.78,0,0,0-19.09-38.74,56,56,0,0,0-111.41-5.15,24.9,24.9,0,0,0-5.57-.64,24.6,24.6,0,0,0-15.5,5.47,19,19,0,0,0-35-6.78,52.81,52.81,0,0,0-103.28-12.6,30.93,30.93,0,0,0-4.65-.36A30,30,0,0,0,128,249.31a20.94,20.94,0,0,0-29.52,9A14.71,14.71,0,0,0,71.88,269.2a8.08,8.08,0,0,0-15.42,3.39,8.26,8.26,0,0,0,.19,1.73,8.37,8.37,0,0,0-1.49.58,8.55,8.55,0,0,0-12.85,11.29Z" style="fill:#fff;stroke:#a8a8a8;stroke-linecap:round;stroke-linejoin:round"></path><path d="M197.41,175.49A8.23,8.23,0,0,0,191.75,164a16.58,16.58,0,0,0-33-1.53,7.45,7.45,0,0,0-1.65-.19,7.34,7.34,0,0,0-4.6,1.62,5.63,5.63,0,0,0-10.37-2,15.65,15.65,0,0,0-30.61-3.73,8.86,8.86,0,0,0-9.93,6.39,6.2,6.2,0,0,0-8.75,2.68,4.36,4.36,0,0,0-7.93,2.53,3.82,3.82,0,0,0,.06.68,2.4,2.4,0,0,0-4.57,1,2.84,2.84,0,0,0,0,.51,2.35,2.35,0,0,0-.44.17,2.54,2.54,0,0,0-3.81,3.35Z" style="fill:#fff;stroke:#a8a8a8;stroke-linecap:round;stroke-linejoin:round"></path></g><g id="freepik--Landscape--inject-18"><path d="M395,357.32c9.76-17.62,27.48-27.91,40.93-42.26a92.29,92.29,0,0,0,17.92-28.29l-402.42-.4c.3,1,.59,2,.9,3,7.54,24.84,13.45,51.79,22.8,76.92,13.75.23,26.36.28,35.48,0,36.18-1.24,101.12-8.68,141.93-9.92,20.24-.62,80,1,141.68,2.47C394.43,358.3,394.68,357.81,395,357.32Z" style="fill:#919191"></path><line x1="40.28" y1="286.29" x2="474.67" y2="286.29" style="fill:none;stroke:#263238;stroke-linecap:round;stroke-linejoin:round"></line><path d="M66.76,368.08s87.26,3.88,126.48,0,85.3-7.77,126.48-5.83c39.55,1.87,79.1,7.67,110,7.44" style="fill:none;stroke:#263238;stroke-linecap:round;stroke-linejoin:round"></path><path d="M56.46,365.39s57.3,1.79,130.81-4.93c66.65-6.1,95.43-5.65,132.68-4.48,33.45,1,85.24,3.28,108.48,3.58" style="fill:none;stroke:#263238;stroke-linecap:round;stroke-linejoin:round"></path><line x1="341.29" y1="293.16" x2="404.04" y2="293.16" style="fill:none;stroke:#fff;stroke-linecap:round;stroke-linejoin:round"></line><line x1="380.51" y1="302.96" x2="369.72" y2="302.96" style="fill:none;stroke:#fff;stroke-linecap:round;stroke-linejoin:round"></line><line x1="339.33" y1="300.02" x2="353.05" y2="300.02" style="fill:none;stroke:#fff;stroke-linecap:round;stroke-linejoin:round"></line><line x1="172.65" y1="292.18" x2="105" y2="292.18" style="fill:none;stroke:#fff;stroke-linecap:round;stroke-linejoin:round"></line><line x1="88.33" y1="296.1" x2="143.23" y2="296.1" style="fill:none;stroke:#fff;stroke-linecap:round;stroke-linejoin:round"></line><line x1="120.68" y1="304.92" x2="148.14" y2="304.92" style="fill:none;stroke:#fff;stroke-linecap:round;stroke-linejoin:round"></line><line x1="179.51" y1="310.8" x2="151.08" y2="310.8" style="fill:none;stroke:#fff;stroke-linecap:round;stroke-linejoin:round"></line><line x1="306.97" y1="329.43" x2="349.13" y2="329.43" style="fill:none;stroke:#fff;stroke-linecap:round;stroke-linejoin:round"></line><line x1="315.8" y1="321.59" x2="300.11" y2="321.59" style="fill:none;stroke:#fff;stroke-linecap:round;stroke-linejoin:round"></line><line x1="177.55" y1="321.59" x2="195.2" y2="321.59" style="fill:none;stroke:#fff;stroke-linecap:round;stroke-linejoin:round"></line><line x1="167.75" y1="321.59" x2="107.94" y2="321.59" style="fill:none;stroke:#fff;stroke-linecap:round;stroke-linejoin:round"></line><line x1="352.07" y1="310.8" x2="380.51" y2="310.8" style="fill:none;stroke:#fff;stroke-linecap:round;stroke-linejoin:round"></line><line x1="391.29" y1="310.8" x2="406.98" y2="310.8" style="fill:none;stroke:#fff;stroke-linecap:round;stroke-linejoin:round"></line><line x1="332.46" y1="293.16" x2="322.66" y2="293.16" style="fill:none;stroke:#fff;stroke-linecap:round;stroke-linejoin:round"></line><line x1="149.12" y1="298.06" x2="168.73" y2="298.06" style="fill:none;stroke:#fff;stroke-linecap:round;stroke-linejoin:round"></line><line x1="96.17" y1="305.9" x2="106.96" y2="305.9" style="fill:none;stroke:#fff;stroke-linecap:round;stroke-linejoin:round"></line><line x1="358.94" y1="329.43" x2="369.72" y2="329.43" style="fill:none;stroke:#fff;stroke-linecap:round;stroke-linejoin:round"></line><line x1="288.34" y1="344.14" x2="326.58" y2="344.14" style="fill:none;stroke:#fff;stroke-linecap:round;stroke-linejoin:round"></line><line x1="182.45" y1="343.16" x2="168.73" y2="343.16" style="fill:none;stroke:#fff;stroke-linecap:round;stroke-linejoin:round"></line><line x1="161.62" y1="343.16" x2="130.73" y2="343.16" style="fill:none;stroke:#fff;stroke-linecap:round;stroke-linejoin:round"></line></g><g id="freepik--Floor--inject-18"><path d="M241.69,459.52s15.25-3.21,28.9-3.21,14.41-.31,22.47,0,19.27.8,37.73,1.61" style="fill:none;stroke:#263238;stroke-linecap:round;stroke-linejoin:round"></path><path d="M200.14,464.52a146.72,146.72,0,0,1,22.28-.18" style="fill:none;stroke:#263238;stroke-linecap:round;stroke-linejoin:round"></path><path d="M94.78,461.93s32.11-3.21,49,1.6c15.05,4.3,32.66,2.85,44.26,1.91" style="fill:none;stroke:#263238;stroke-linecap:round;stroke-linejoin:round"></path><path d="M345.92,440c6.28.84,8.95,1.11,8.95,1.11" style="fill:none;stroke:#263238;stroke-linecap:round;stroke-linejoin:round"></path><path d="M167.83,440.25s24.09-8,44.15-5.61,49.77,7.22,63.42,7.22,29.7-8,50.57-4.82c4.81.74,8.93,1.35,12.43,1.86" style="fill:none;stroke:#263238;stroke-linecap:round;stroke-linejoin:round"></path><path d="M108.54,420.81c4.17-.36,8.45-.62,11.93-.62,10.44,0,28.1,4.81,32.91,4s22.48-4,25.69-4" style="fill:none;stroke:#263238;stroke-linecap:round;stroke-linejoin:round"></path><path d="M92.38,422.59s2.87-.39,7-.86" style="fill:none;stroke:#263238;stroke-linecap:round;stroke-linejoin:round"></path><path d="M350.45,412.39h-.54c-13.64,0-11.81.27-15.82.27S322,413,322,413" style="fill:none;stroke:#263238;stroke-linecap:round;stroke-linejoin:round"></path><path d="M286.72,421.22h-.54c-13.64,0-11.81.26-15.82.26s-12.13.31-12.13.31" style="fill:none;stroke:#263238;stroke-linecap:round;stroke-linejoin:round"></path><path d="M374.32,456.63h-.54c-13.64,0-11.81.26-15.82.26s-12.13.31-12.13.31" style="fill:none;stroke:#263238;stroke-linecap:round;stroke-linejoin:round"></path><path d="M190,402.92h-.54c-13.64,0-11.81.26-15.82.26s-12.13.31-12.13.31" style="fill:none;stroke:#263238;stroke-linecap:round;stroke-linejoin:round"></path><path d="M127.55,391.57h-.36c-9.1,0-7.88.18-10.55.18s-8.08.2-8.08.2" style="fill:none;stroke:#263238;stroke-linecap:round;stroke-linejoin:round"></path><path d="M102.05,400.39h-.36c-9.09,0-7.87.18-10.54.18s-8.09.2-8.09.2" style="fill:none;stroke:#263238;stroke-linecap:round;stroke-linejoin:round"></path><path d="M321.8,396.14h-.36c-9.09,0-7.87.18-10.55.18s-8.08.2-8.08.2" style="fill:none;stroke:#263238;stroke-linecap:round;stroke-linejoin:round"></path><path d="M413.84,423.6h-.78c-19.84,0-17.17.18-23,.18s-17.62.2-17.62.2" style="fill:none;stroke:#263238;stroke-linecap:round;stroke-linejoin:round"></path><path d="M227.24,408.15s12.84-.81,22.47-.81H274.6" style="fill:none;stroke:#263238;stroke-linecap:round;stroke-linejoin:round"></path><path d="M387.65,386.68h-.25c-6.38,0-5.52.12-7.4.12s-5.67.15-5.67.15" style="fill:none;stroke:#263238;stroke-linecap:round;stroke-linejoin:round"></path><path d="M357.86,390.8h-.25c-6.38,0-5.53.13-7.4.13s-5.67.14-5.67.14" style="fill:none;stroke:#263238;stroke-linecap:round;stroke-linejoin:round"></path><path d="M330.05,384.69s6-.37,10.51-.37h11.63" style="fill:none;stroke:#263238;stroke-linecap:round;stroke-linejoin:round"></path><path d="M450.8,398.51h-.25c-6.38,0-5.52.12-7.4.12s-5.67.15-5.67.15" style="fill:none;stroke:#263238;stroke-linecap:round;stroke-linejoin:round"></path><path d="M421,402.63h-.25c-6.38,0-5.52.13-7.4.13s-5.67.14-5.67.14" style="fill:none;stroke:#263238;stroke-linecap:round;stroke-linejoin:round"></path><path d="M393.2,396.52s6-.37,10.51-.37h11.63" style="fill:none;stroke:#263238;stroke-linecap:round;stroke-linejoin:round"></path><path d="M124.11,380.25h-.25c-6.38,0-5.53.13-7.4.13s-5.67.14-5.67.14" style="fill:none;stroke:#263238;stroke-linecap:round;stroke-linejoin:round"></path><path d="M94.32,384.38h-.26c-6.38,0-5.52.12-7.4.12s-5.66.14-5.66.14" style="fill:none;stroke:#263238;stroke-linecap:round;stroke-linejoin:round"></path><path d="M66.51,378.27s6-.38,10.5-.38H88.65" style="fill:none;stroke:#263238;stroke-linecap:round;stroke-linejoin:round"></path><path d="M216.8,475.58A206,206,0,0,1,239.28,470c9.63-1.61,24.88,1.6,40.94,1.6h21.67" style="fill:none;stroke:#263238;stroke-linecap:round;stroke-linejoin:round"></path></g><g id="freepik--Character--inject-18"><ellipse cx="199.09" cy="468.58" rx="70.14" ry="10.09" style="opacity:0.29"></ellipse><path d="M198.39,378.08s10.4,11.32,10.4,13.46-4.28,14.68-5.2,23.85-.3,40.68-1.53,47.72,1.23,10.4,5.51,9.79,4.89-4.29,5.81-5.51,2.45-2.75,2.75-5.51-2.44-1.83-3.67-4,1.84-21.72,4-29.67,6.42-24.47,7.95-31.2,0-19.27,0-19.27Z" style="fill:#fff;stroke:#263238;stroke-linecap:round;stroke-linejoin:round"></path><path d="M212.46,457.91s.92,4.28.31,5.5a22,22,0,0,1-1.22,2.15" style="fill:none;stroke:#263238;stroke-linecap:round;stroke-linejoin:round"></path><path d="M226.53,376.85s-6.11,15-4.59,22,13.46,31.81,16.83,45,4,15.6,4,15.6-3.67.92-4.89,0-1.84,1.83-.92,4.28A10.76,10.76,0,0,0,240.6,468s.92,4.28,3.37,5.2,4.28.61,5.2-6.42-1.53-17.13-1.53-28.45-1.84-28.14-4.59-35.48-3.67-10.7-3.67-10.7,10.7-8.57,13.76-14.38Z" style="fill:#fff;stroke:#263238;stroke-linecap:round;stroke-linejoin:round"></path><path d="M242.74,459.44s-.61,3.06.31,4.89l.92,1.84" style="fill:none;stroke:#263238;stroke-linecap:round;stroke-linejoin:round"></path><path d="M193.52,280.6s-1.19,5.57-.59,7.36,2.18-3.18,2.78-5S195.11,278.61,193.52,280.6Z" style="fill:#fff;stroke:#263238;stroke-linecap:round;stroke-linejoin:round"></path><path d="M194.12,277.82a2.71,2.71,0,0,0-.27.37,3.23,3.23,0,0,0,.07,3.8c1.59,2.19,3,3.78,3,3.78l1.2-7.55Z" style="fill:#fff;stroke:#263238;stroke-linecap:round;stroke-linejoin:round"></path><path d="M196.11,273.05s-2.19,3.38-2,4.77S197.7,281,197.7,281l1-5.57Z" style="fill:#fff;stroke:#263238;stroke-linecap:round;stroke-linejoin:round"></path><path d="M199.49,269.27s-3.58,1.79-3.38,3.78a18.3,18.3,0,0,0,2,5.17Z" style="fill:#fff;stroke:#263238;stroke-linecap:round;stroke-linejoin:round"></path><path d="M228.76,247.23s-13.07-2.54-20.08-1.91c-5,.46-8,7.65-8.29,17.53s-6,30.6-5.73,38.57,4.14,11.47,7,10.83a25.41,25.41,0,0,0,6.69-3.18s-8.6,18.48-13.38,28.36-7.65,16.89-5.74,25.82,12.43,12.43,15.62,12.43h47.8s10.2-4.15,11.16-15-6.06-24.86-8-30.6-4.46-16.57-4.14-19.12c0,0,4.46,6.69,7.65,4.46s5.73-16.25,6.37-24.54,1-30.6-1.59-36.65-22.31-4.47-26.78-5.42S228.76,247.23,228.76,247.23Z" style="fill:#fff;stroke:#263238;stroke-linecap:round;stroke-linejoin:round"></path><path d="M263.82,360.7c.95-10.84-6.06-24.86-8-30.6s-4.46-16.57-4.14-19.12l5.1-59-5.74-1-2.87,27.41-32.51-9.24L219.84,246l-.28-.15c-1.61-.19-3.29-.36-4.93-.47-1.07,5-3.91,18.8-4.67,28-1,11.47-.32,26.13-1,30.92l-.64,4.78s-8.6,18.48-13.38,28.36-7.65,16.89-5.74,25.82,12.43,12.43,15.62,12.43h47.8S262.86,371.53,263.82,360.7Z" style="fill:#CFD8DC;stroke:#263238;stroke-linecap:round;stroke-linejoin:round"></path><path d="M247,304s-17.68,19.64-28.29,27.11" style="fill:none;stroke:#263238;stroke-linecap:round;stroke-linejoin:round"></path><path d="M200.88,339.22c-1,.64-2.06,1.23-3,1.75" style="fill:none;stroke:#263238;stroke-linecap:round;stroke-linejoin:round"></path><path d="M229.67,315.82s-12.89,12.37-24.46,20.52" style="fill:none;stroke:#263238;stroke-linecap:round;stroke-linejoin:round"></path><path d="M225.72,249.4s-9.14-4.57-16.26,2.54-4.06,24.39-6.09,34.05-4.07,19.3-2,21.33,7.67-3,7.67-3l2-2.05a210.19,210.19,0,0,1-9.66,24.9c-5.58,11.68-11.68,30.48-8.12,37.09s18.29,24.38,18.29,24.38,3-.5,1,7.63-5.08,33-7.11,46.23-2,24.39.51,21.34,4.06-34.55,7.62-48.27,7.11-20.83,7.62-23.88,3.06,2.83,4.57,9.66,11.69,22.86,14.23,33,3.55,25.4,5.08,21.85-.51-31-4.07-44.71-8.12-20.32-6.09-22.87,13.72-10.66,19.81-17.78,6.61-18.8,3.56-26.42-10.67-33-10.67-35.56a7.35,7.35,0,0,1,2-4.57s6.57,12.56,9.11,8.5,4.1-35.43-1-49.66S225.72,249.4,225.72,249.4Z" style="opacity:0.2"></path><line x1="137.35" y1="375.84" x2="137.35" y2="46.44" style="fill:none;stroke:#263238;stroke-linecap:round;stroke-linejoin:round;stroke-width:3px"></line><line x1="265.47" y1="375.84" x2="265.47" y2="43.56" style="fill:none;stroke:#263238;stroke-linecap:round;stroke-linejoin:round;stroke-width:3px"></line><path d="M240.87,196.24s-11.47,2.23-12.11,14.66-.32,25.82-5.1,35.38-5.1,22.31,5.1,27.73,18.17,12.11,18.17,22.63,16.25,18.16,30.27,18.8S296,305.88,304.3,303s2.86,1.59,6.69,3.19,8.29-10.52,6.69-18.49S300.47,277.51,299.2,268s3.82-19.44-1.28-25.18-22.63-2.23-25.5-8,.32-7,3.19-13.7,1.28-18.17-5.42-25.18S251.39,182.85,240.87,196.24Z" style="fill:#263238;stroke:#263238;stroke-linecap:round;stroke-linejoin:round"></path><path d="M241.51,197.83s-10.2,12.75-5.42,22,17.85,15,13.7,27.09-12.11,22.94-5.73,29.32,30.28,4.46,32.19,13.38,4.14,18.81,13.7,14,19.45-10.2,20.72-4.46" style="fill:none;stroke:#616161;stroke-linecap:round;stroke-linejoin:round"></path><path d="M246.61,197.51s16.89,10.84,14.66,24.23-5.1,16.89-1,19.44,13.07,7.33,9.88,15-6.69,14.34,0,16.89,19.76-4.46,22.31,3.19S296,289,302.06,288.67s15,1.27,13.07,8.6" style="fill:none;stroke:#616161;stroke-linecap:round;stroke-linejoin:round"></path><path d="M247.25,194s21.67-.64,24.22,12.11S260,224,266.05,236.4s17.21,4.46,25.18,9.56,5.1,12.11,5.1,20.72,5.1,12.43,12.11,15" style="fill:none;stroke:#616161;stroke-linecap:round;stroke-linejoin:round"></path><rect x="132.78" y="375.51" width="136.94" height="4.58" style="fill:#263238;stroke:#263238;stroke-linecap:round;stroke-linejoin:round"></rect></g><g id="freepik--Leaves--inject-18"><path d="M313.31,112.59s-6.83,4.1-2.28,6.38,9.56,2.73,9.11-1.37S315.58,109,313.31,112.59Z" style="fill:#263238"></path><path d="M406.24,44.51c-6.4-2.56-9.61-2.56-15.37-1.92s-12.82,5.13-15.38.64.64-8.33-.64-12.17-12.17-7.69-14.73.64c0,0-23.71-19.22-32.68-7-.43.6-.8,1.17-1.14,1.74-29.09-8.24-75.08-17.73-120-12.34C141.34,21.84,114,44.76,104.75,57A38.51,38.51,0,0,0,91.53,74.34s-.46,12.29,5.92,10.47,11.38-8.2,11.84-5.46-1.82,9.56,4.55,8.65,10.48-5.92,10.93-2.28-5.46,3.64-1.82,8.65,8.2,7.29,13.21,5.92,4.55-3.18,5-9.1,9.56-7.29,12.75-7.29,5.92-6.38,4.1-8.65a6.46,6.46,0,0,0-2.91-2c2.49-2.68,4.54-4.81,5.12-5.24l0,0s0,0,0,0L163,65.76c-.37,5.1-.82,12.66-.52,15.4s.4,5.45.43,6.93a2.69,2.69,0,0,0-1.45,1.24s-6.83,4.1-2.27,6.38,9.56,2.73,9.1-1.37a9.15,9.15,0,0,0-1.71-4.27,3.89,3.89,0,0,0,.41.17c4.09,1.37,10,5,11.38,1.37s-.45-3.64-.45-3.64-.38-.85-1-2a5.87,5.87,0,0,0,2.37,1c7.85,1.68,15.7-11.21,15.14-5s-4.49,7.85-2.81,11.77,12.9,1.12,12.9,1.12-7.29,7.85-3.93,10.1,11.22,6.73,14,1.68-2.24-10.66.56-12.9c1.8-1.43,3.82-.13,5.92-.16,1,.59,2,1.13,2.84,1.57-4.69,1.52-7.8,6.09-3.9,10,4.56,4.56,7.3.91,11-3.19s8.66,2.73,10.49-1.83,2.28-10.94-.46-13.22-10.49-4.11-11.4,2.28c0,0,1.8,3.3-.68,4.79l-2-.7A21.47,21.47,0,0,1,224.25,92c.14-.16.29-.32.44-.51,3.36-4.49,3.36-10.1,0-13.46s-9.54,3.36-10.66-3.36,10.66-12.9,11.22-8.42,2.8,10.66,8.41,7.29,7.85-7.29,6.73-11.77,1.12-11.22,2.8-6.73-.56,5.61,1.12,11.21,5.61,8.42,10.66,7.85,9-5.6,10.09-1.12-2.8,18,7.29,16.26,3.37-8.41,2.8-14.57,2.81-6.17,5.05-10.66S278,56.2,275.72,53.4s1.68-6.73,2.24-10.1c.16-1-.92-2-2.56-2.92,2.68-.28,5.15.07,6,1.17A9.81,9.81,0,0,0,286,44c-3.47,2.76-5.35,8.38,0,11.23,6.83,3.64,5.47-7.74,10-9.11s2.73,4.56,5,7.29a8.13,8.13,0,0,0,5.8,3s0,0,0,0c-3.09.37-6.31,1.73-7.66,4.65-2.73,5.92,4.55,11.84,10,12.3,4.13.34,7.21-1.14,7.69-3.65,3.63,2.18,6,3.8,2.86,4.84-3.55,1.19-8.16,3.17-8.89,6a2.86,2.86,0,0,1-.75-.79c-1.82-2.73-8.65-6.83-10,.46s5.46,1.36,7.29,5.92c.66,3,.13,6.43,1.53,8.8-1.59,1.8-3.32,3.66-5,5.29-1.12.31-2.7,0-4.72-2.25-4.55-5-11.84,0-10,3.18,1.59,2.79,5.6,3.14,6.6,4.7a49.92,49.92,0,0,1-6.11,2.2c-1.16-2.15-3.33-5.53-5.5-5.53-2.65,0-6.87,5.66-5.86,8.36a32.89,32.89,0,0,1-8.44.53,1.47,1.47,0,1,0-.27,2.93c.09,0,1,.09,2.44.09a32.8,32.8,0,0,0,7.94-.92c.61-.16,1.32-.32,2.06-.49,3.71,1.53,7.85,3.4,9,.43a4.77,4.77,0,0,0,.43-2.85c1.15-.36,2.31-.76,3.45-1.2-.81,1.57-1.2,3,2.5,3.6,5.92.91,6.37-6.84,10-7.75,2.42-.6,3-4.43,1.82-6.26.65-.7,1.29-1.41,1.91-2.11l.36.18c4.56,1.82,10.93-1.37,13.67-4.1a3.64,3.64,0,0,0,.6-.89c2.78.59,4.49-.53,5.31-4.12a3,3,0,0,0,2.79,1.36c1.87,0,4.3-.12,6.5-.25.7,1.35.82,2.55-.73,2.81-3.85.64-15.38-1.28-12.82,6.4,2.11,6.32,9,7.88,13.13,7.16a34.94,34.94,0,0,0,5.88,2.37c3.29,5.16,8.26,9.43,5.34,11.62-5.13,3.84-12.81,6.4-7,10.25a19.8,19.8,0,0,0,4.76,2.39,34,34,0,0,1-7.76,6.42l-1.46.77c-2.11-.19-4,.18-4.51,1.95a5.34,5.34,0,0,0-.09.53l-4.62,2.56c-.64-1.43-1.88-2.3-4.9-1.17,0,0-6.4,3.2-5.12,5.12s6.4,4.49,8.33,3.85,3.2-1.92,2.56-4.49l-.09-.38,4.64-2.57c1.76,2.58,5.7,4.23,5.7,4.23l2.35,2.36a13.92,13.92,0,0,1-.94,1.27,92.94,92.94,0,0,1-7.24,7.43c-2.48-1-5.38-1.45-7,.48-3.21,3.84-6.41,10.25,0,9a40,40,0,0,0,10.89-3.84l.64-3.2s-.67-.46-1.7-1a90.86,90.86,0,0,0,6.62-6.88,12.59,12.59,0,0,0,.82-1.07l.66.66a6.31,6.31,0,0,0,.64.82,39,39,0,0,0,.8,6.23c.57,2.72,1.18,5.12,1.73,7.24s1.05,4.14,1.35,5.81a5.81,5.81,0,0,0,.17,1.16,13.52,13.52,0,0,1,.1,1.86c-1.8.65-9.53.42-11.49,5.52-2.28,5.93-2.74,7.76.45,9.12s4.57,3.65,7.76,5,8.21,2.74,8.66-2.73-1.82-5.48,2.28-8.67,8.21-1.37,4.11-7.3-5.47-7.29-8.21-7.29a6.48,6.48,0,0,0-1.49.16c-.25-1.06-.54-2.18-.84-3.39-.54-2.09-1.15-4.46-1.71-7.11a35.63,35.63,0,0,1-.58-3.85,4.16,4.16,0,0,0,1.4,0c3.2-.64,4.48-3.84,4.48-5.76s0-.64-.64-5.13c-.49-3.42-1-7.58-4.59-6.81.4-2.32.63-4.33.75-5.64.19-.2.38-.4.56-.61a11.18,11.18,0,0,0,6.49-2.31c4.48-3.21,10.25-7.05,10.89-3.21s1.28,7.69,5.76,6.41,6.41-.64,5.77-7.69,1.92-8.33,3.84-11.53c1.51-2.52,5.39-4.24,4.81-7.36a3.34,3.34,0,0,0,.32-.33c3.2-3.84,5.12-8.33-.64-13.45-5.48-4.87,3.48-8,.55-12.7,1.93-3,3.18-5.65,2.65-11-.64-6.41,1.28-10.25,3.2-11.53s7.05,2.56,9.61-1.29S412.65,47.08,406.24,44.51Zm-58.5,96c-.34.23-.7.48-1.08.77,0,0-1.14-.5-2.71-1a34.79,34.79,0,0,0,4.46-3.58C348.24,137.84,348,139.14,347.74,140.48ZM152,72.3c-1-.31-2.21-.66-3.55-1.15a6.46,6.46,0,0,1-2.95-2.06c2.14.15,4.39.25,6.49.25,1,0,2,0,2.86-.07C154,70.2,153,71.23,152,72.3Zm9.88-11a9,9,0,0,0,.56,1.12l-4,3.36c-1.07.84-7.26.82-14,.32a4.34,4.34,0,0,1,.89-3.1,8.83,8.83,0,0,0,2.07-3.73,6.92,6.92,0,0,0,2-.82c7.74-4.56,10.93-15.49,17.31-13.66,3.42,1,2.25,2.74,1.28,4.59C163.84,52.73,160.23,57.12,161.88,61.25Zm14.58,12.89s-2.35,5.25-1.34,9.1c-1.07-1.39-2.34-2.56-3.61-2.56-2,0-4.82,3.15-5.73,5.86-.06-1.55-.17-3.62-.4-5.7-.3-2.67.22-10.8.59-15.77,4.39,1.1,10.09-2.33,10.49.1A44.21,44.21,0,0,1,176.46,74.14ZM293.33,39.29l.38.26c-.14.16-.26.32-.4.47C293.32,39.78,293.32,39.53,293.33,39.29Zm62.23,46.76c3,1,5.87,1.63,7.27,1-.86,2.15-.3,5.32.49,8C358.32,90.62,356.44,89.62,355.56,86.05ZM381.9,83s-7.18,1-10.55,3.58a5.42,5.42,0,0,0-6.11-1.66,4.82,4.82,0,0,0-.57.22,11.93,11.93,0,0,0,1.21-10.47C364,68.86,375.49,63.09,376.13,65s0,6.41.64,11.53c.32,2.52,2.64,4.88,5.23,6.17A2.52,2.52,0,0,0,381.9,83Z" style="fill:#263238"></path><path d="M397.27,83.59s-7,3.2-6.4,6.41,7.68,9.61,9,5.76,3.84-5.12,1.92-7.68S400.48,81.67,397.27,83.59Z" style="fill:#263238"></path></g></svg>