<svg xmlns="http://www.w3.org/2000/svg" viewBox="0 0 750 500"><g id="freepik--background-simple--inject-5"><path d="M135.91,211.93s31.27-63.43,132.22-99.16S416,82.2,475.62,131.43s42.65,86.75,119.48,101S705,325.39,714.82,379.88s-8.94,93.81-8.94,93.81H95.71S77.84,353.08,97.5,296.8,135.91,211.93,135.91,211.93Z" style="fill:#EA8831"></path><path d="M135.91,211.93s31.27-63.43,132.22-99.16S416,82.2,475.62,131.43s42.65,86.75,119.48,101S705,325.39,714.82,379.88s-8.94,93.81-8.94,93.81H95.71S77.84,353.08,97.5,296.8,135.91,211.93,135.91,211.93Z" style="fill:#fff;opacity:0.8"></path></g><g id="freepik--Aircrafts--inject-5"><path d="M584,58.27l3.85-.74,0,.23-9.43,2.11c.2-4.62.39-9,.59-13.7-1.88,1.17-4,1.61-5,3.71a41.58,41.58,0,0,1-2.34,3.64.83.83,0,0,1-1.09.41c-2.14-.6-2.14-.58-2.37-2.78-.1-.94-.19-1.88-.33-2.81-.12-.73,0-1.27.77-1.55a10.63,10.63,0,0,0,1.4-.8c-.61-.06-1-.06-1.38-.14-.58-.12-1.32.19-1.58-.79s.13-1.42,1-1.67l-.12-.26c-.71.06-1.41.11-2.12.19a15.51,15.51,0,0,1-2.34.26,12.07,12.07,0,0,1-2.22-.51,4.9,4.9,0,0,1,2.47-1.73,37.09,37.09,0,0,0,5.1-1.68c-.78,0-1.56-.13-2.34-.13s-.81-.43-.93-1-.09-1,.52-1.22,1.11-.56,1.91-1a21.68,21.68,0,0,1-2.3-.29,1.25,1.25,0,0,1-.79-.6c-.55-1.4-1.06-2.83-1.52-4.26a1.2,1.2,0,0,1,.22-1c1.43-1.62,1.44-1.6,3.29-.53a55,55,0,0,1,4.86,2.88c1.3.94,2.72.61,4.35,1.07l-6.59-11.94,8.88-2.16.09.3-3.66.9c.66.46,1.12.8,1.61,1.12,1.47,1,3,1.92,4.44,2.9,3.07,2,6.12,4.11,9.21,6.12a3.73,3.73,0,0,0,1.28.36c.21,0,.44,0,.66,0a46.74,46.74,0,0,0,11.46.08,97,97,0,0,0,10.46-1.19,34,34,0,0,1,6.54-.22,22.35,22.35,0,0,1-8,4.07c-3.85,1.25-7.69,2.54-11.45,4a59.24,59.24,0,0,0-5.77,3c-.58.3-1.17.6-1.74.93a1.63,1.63,0,0,0-.61.52q-4.42,7.62-8.82,15.25C584.16,57.81,584.14,57.93,584,58.27Z" style="opacity:0.30000000000000004"></path><path d="M657.16,75l2.47-.47,0,.15-6,1.35c.13-3,.25-5.81.38-8.79-1.21.75-2.55,1-3.2,2.38a25,25,0,0,1-1.51,2.33.52.52,0,0,1-.69.27c-1.38-.38-1.38-.37-1.52-1.78-.07-.6-.12-1.21-.22-1.8s0-.81.5-1a7.78,7.78,0,0,0,.9-.51c-.4,0-.65,0-.89-.09s-.85.12-1-.51.08-.9.67-1.06l-.08-.17c-.45,0-.91.07-1.36.12a10.93,10.93,0,0,1-1.5.17,8,8,0,0,1-1.43-.33,3.14,3.14,0,0,1,1.59-1.11A25,25,0,0,0,647.51,63c-.5,0-1-.08-1.5-.08s-.52-.28-.6-.62,0-.61.34-.78.71-.36,1.22-.62a14.49,14.49,0,0,1-1.47-.19.78.78,0,0,1-.51-.39c-.36-.9-.68-1.81-1-2.73a.76.76,0,0,1,.13-.62c.92-1,.93-1,2.11-.34a32.33,32.33,0,0,1,3.12,1.84c.83.61,1.74.4,2.79.69l-4.23-7.65,5.7-1.39.05.2c-.74.17-1.47.35-2.34.57.42.29.72.51,1,.71,1,.63,1.9,1.24,2.84,1.87,2,1.31,3.93,2.63,5.91,3.92a2.37,2.37,0,0,0,.82.23c.13,0,.28,0,.42,0a30,30,0,0,0,7.34.05,60.44,60.44,0,0,0,6.71-.77,22.56,22.56,0,0,1,4.2-.14,14.22,14.22,0,0,1-5.14,2.61c-2.47.8-4.93,1.63-7.34,2.57a38,38,0,0,0-3.7,1.9c-.37.19-.75.38-1.11.59a1.08,1.08,0,0,0-.39.34q-2.84,4.88-5.65,9.77A3.33,3.33,0,0,0,657.16,75Z" style="opacity:0.30000000000000004"></path><line x1="554.57" y1="44.26" x2="71.34" y2="134.05" style="fill:none;stroke:#000;stroke-linecap:round;stroke-linejoin:round;opacity:0.30000000000000004"></line><line x1="635.24" y1="68.61" x2="312.57" y2="131.01" style="fill:none;stroke:#000;stroke-linecap:round;stroke-linejoin:round;opacity:0.30000000000000004"></line></g><g id="freepik--City--inject-5"><polyline points="705.07 303.9 658.46 303.9 658.46 208.4 574.63 208.4 574.63 267.02 564.66 267.02 564.66 294.58 536.34 294.58 536.34 337.96 525.38 337.96 525.38 346.75 506.84 346.75 506.84 285.2 472.81 285.2 472.81 473.38 696.25 473.38" style="fill:none;stroke:#000;stroke-linecap:round;stroke-linejoin:round;opacity:0.30000000000000004"></polyline><rect x="478.58" y="294.43" width="8.83" height="8.83" style="fill:none;stroke:#000;stroke-linecap:round;stroke-linejoin:round;opacity:0.30000000000000004"></rect><rect x="492.45" y="294.43" width="8.83" height="8.83" style="fill:none;stroke:#000;stroke-linecap:round;stroke-linejoin:round;opacity:0.30000000000000004"></rect><rect x="478.58" y="310.82" width="8.83" height="8.83" style="fill:none;stroke:#000;stroke-linecap:round;stroke-linejoin:round;opacity:0.30000000000000004"></rect><rect x="492.45" y="310.82" width="8.83" height="8.83" style="fill:none;stroke:#000;stroke-linecap:round;stroke-linejoin:round;opacity:0.30000000000000004"></rect><rect x="478.58" y="328.48" width="8.83" height="8.83" style="fill:none;stroke:#000;stroke-linecap:round;stroke-linejoin:round;opacity:0.30000000000000004"></rect><rect x="492.45" y="328.48" width="8.83" height="8.83" style="fill:none;stroke:#000;stroke-linecap:round;stroke-linejoin:round;opacity:0.30000000000000004"></rect><rect x="478.58" y="344.87" width="8.83" height="8.83" style="fill:none;stroke:#000;stroke-linecap:round;stroke-linejoin:round;opacity:0.30000000000000004"></rect><rect x="492.45" y="344.87" width="8.83" height="8.83" style="fill:none;stroke:#000;stroke-linecap:round;stroke-linejoin:round;opacity:0.30000000000000004"></rect><rect x="478.58" y="362.53" width="8.83" height="8.83" style="fill:none;stroke:#000;stroke-linecap:round;stroke-linejoin:round;opacity:0.30000000000000004"></rect><rect x="492.45" y="362.53" width="8.83" height="8.83" style="fill:none;stroke:#000;stroke-linecap:round;stroke-linejoin:round;opacity:0.30000000000000004"></rect><rect x="478.58" y="378.92" width="8.83" height="8.83" style="fill:none;stroke:#000;stroke-linecap:round;stroke-linejoin:round;opacity:0.30000000000000004"></rect><rect x="492.45" y="378.92" width="8.83" height="8.83" style="fill:none;stroke:#000;stroke-linecap:round;stroke-linejoin:round;opacity:0.30000000000000004"></rect><polyline points="583.88 221.92 631.16 221.92 636.84 218.77 651.34 218.77" style="fill:none;stroke:#000;stroke-linecap:round;stroke-linejoin:round;opacity:0.30000000000000004"></polyline><polyline points="583.88 230.8 631.16 230.8 636.84 227.65 651.34 227.65" style="fill:none;stroke:#000;stroke-linecap:round;stroke-linejoin:round;opacity:0.30000000000000004"></polyline><polyline points="583.88 239.68 631.16 239.68 636.84 236.53 651.34 236.53" style="fill:none;stroke:#000;stroke-linecap:round;stroke-linejoin:round;opacity:0.30000000000000004"></polyline><polyline points="583.88 248.56 631.16 248.56 636.84 245.41 651.34 245.41" style="fill:none;stroke:#000;stroke-linecap:round;stroke-linejoin:round;opacity:0.30000000000000004"></polyline><polyline points="583.88 257.45 631.16 257.45 636.84 254.29 651.34 254.29" style="fill:none;stroke:#000;stroke-linecap:round;stroke-linejoin:round;opacity:0.30000000000000004"></polyline><polyline points="583.88 266.33 631.16 266.33 636.84 263.18 651.34 263.18" style="fill:none;stroke:#000;stroke-linecap:round;stroke-linejoin:round;opacity:0.30000000000000004"></polyline><polyline points="583.88 275.21 631.16 275.21 636.84 272.06 651.34 272.06" style="fill:none;stroke:#000;stroke-linecap:round;stroke-linejoin:round;opacity:0.30000000000000004"></polyline><polyline points="583.88 284.09 631.16 284.09 636.84 280.94 651.34 280.94" style="fill:none;stroke:#000;stroke-linecap:round;stroke-linejoin:round;opacity:0.30000000000000004"></polyline><polyline points="583.88 292.97 631.16 292.97 636.84 289.82 651.34 289.82" style="fill:none;stroke:#000;stroke-linecap:round;stroke-linejoin:round;opacity:0.30000000000000004"></polyline><polyline points="583.88 301.85 631.16 301.85 636.84 298.7 651.34 298.7" style="fill:none;stroke:#000;stroke-linecap:round;stroke-linejoin:round;opacity:0.30000000000000004"></polyline><polyline points="583.88 310.73 631.16 310.73 636.84 307.58 651.34 307.58" style="fill:none;stroke:#000;stroke-linecap:round;stroke-linejoin:round;opacity:0.30000000000000004"></polyline><polyline points="583.88 319.62 631.16 319.62 636.84 316.46 651.34 316.46" style="fill:none;stroke:#000;stroke-linecap:round;stroke-linejoin:round;opacity:0.30000000000000004"></polyline><polyline points="583.88 328.5 631.16 328.5 636.84 325.34 651.34 325.34" style="fill:none;stroke:#000;stroke-linecap:round;stroke-linejoin:round;opacity:0.30000000000000004"></polyline><polyline points="583.88 337.38 631.16 337.38 636.84 334.23 651.34 334.23" style="fill:none;stroke:#000;stroke-linecap:round;stroke-linejoin:round;opacity:0.30000000000000004"></polyline><polyline points="583.88 346.26 631.16 346.26 636.84 343.11 651.34 343.11" style="fill:none;stroke:#000;stroke-linecap:round;stroke-linejoin:round;opacity:0.30000000000000004"></polyline><polyline points="583.88 355.14 631.16 355.14 636.84 351.99 651.34 351.99" style="fill:none;stroke:#000;stroke-linecap:round;stroke-linejoin:round;opacity:0.30000000000000004"></polyline><rect x="52.31" y="294.43" width="8.83" height="8.83" style="fill:none;stroke:#000;stroke-linecap:round;stroke-linejoin:round;opacity:0.30000000000000004"></rect><rect x="66.18" y="294.43" width="8.83" height="8.83" style="fill:none;stroke:#000;stroke-linecap:round;stroke-linejoin:round;opacity:0.30000000000000004"></rect><rect x="52.31" y="310.82" width="8.83" height="8.83" style="fill:none;stroke:#000;stroke-linecap:round;stroke-linejoin:round;opacity:0.30000000000000004"></rect><rect x="66.18" y="310.82" width="8.83" height="8.83" style="fill:none;stroke:#000;stroke-linecap:round;stroke-linejoin:round;opacity:0.30000000000000004"></rect><rect x="52.31" y="328.48" width="8.83" height="8.83" style="fill:none;stroke:#000;stroke-linecap:round;stroke-linejoin:round;opacity:0.30000000000000004"></rect><rect x="66.18" y="328.48" width="8.83" height="8.83" style="fill:none;stroke:#000;stroke-linecap:round;stroke-linejoin:round;opacity:0.30000000000000004"></rect><rect x="52.31" y="344.87" width="8.83" height="8.83" style="fill:none;stroke:#000;stroke-linecap:round;stroke-linejoin:round;opacity:0.30000000000000004"></rect><rect x="66.18" y="344.87" width="8.83" height="8.83" style="fill:none;stroke:#000;stroke-linecap:round;stroke-linejoin:round;opacity:0.30000000000000004"></rect><rect x="52.31" y="362.53" width="8.83" height="8.83" style="fill:none;stroke:#000;stroke-linecap:round;stroke-linejoin:round;opacity:0.30000000000000004"></rect><rect x="66.18" y="362.53" width="8.83" height="8.83" style="fill:none;stroke:#000;stroke-linecap:round;stroke-linejoin:round;opacity:0.30000000000000004"></rect><rect x="52.31" y="378.92" width="8.83" height="8.83" style="fill:none;stroke:#000;stroke-linecap:round;stroke-linejoin:round;opacity:0.30000000000000004"></rect><rect x="66.18" y="378.92" width="8.83" height="8.83" style="fill:none;stroke:#000;stroke-linecap:round;stroke-linejoin:round;opacity:0.30000000000000004"></rect><polyline points="157.6 221.92 204.89 221.92 210.56 218.77 225.07 218.77" style="fill:none;stroke:#000;stroke-linecap:round;stroke-linejoin:round;opacity:0.30000000000000004"></polyline><polyline points="157.6 230.8 204.89 230.8 210.56 227.65 225.07 227.65" style="fill:none;stroke:#000;stroke-linecap:round;stroke-linejoin:round;opacity:0.30000000000000004"></polyline><polyline points="157.6 239.68 204.89 239.68 210.56 236.53 225.07 236.53" style="fill:none;stroke:#000;stroke-linecap:round;stroke-linejoin:round;opacity:0.30000000000000004"></polyline><polyline points="157.6 248.56 204.89 248.56 210.56 245.41 225.07 245.41" style="fill:none;stroke:#000;stroke-linecap:round;stroke-linejoin:round;opacity:0.30000000000000004"></polyline><polyline points="157.6 257.45 204.89 257.45 210.56 254.29 225.07 254.29" style="fill:none;stroke:#000;stroke-linecap:round;stroke-linejoin:round;opacity:0.30000000000000004"></polyline><polyline points="157.6 266.33 204.89 266.33 210.56 263.18 225.07 263.18" style="fill:none;stroke:#000;stroke-linecap:round;stroke-linejoin:round;opacity:0.30000000000000004"></polyline><polyline points="157.6 275.21 204.89 275.21 210.56 272.06 225.07 272.06" style="fill:none;stroke:#000;stroke-linecap:round;stroke-linejoin:round;opacity:0.30000000000000004"></polyline><polyline points="157.6 284.09 204.89 284.09 210.56 280.94 225.07 280.94" style="fill:none;stroke:#000;stroke-linecap:round;stroke-linejoin:round;opacity:0.30000000000000004"></polyline><polyline points="157.6 292.97 204.89 292.97 210.56 289.82 225.07 289.82" style="fill:none;stroke:#000;stroke-linecap:round;stroke-linejoin:round;opacity:0.30000000000000004"></polyline><polyline points="157.6 301.85 204.89 301.85 210.56 298.7 225.07 298.7" style="fill:none;stroke:#000;stroke-linecap:round;stroke-linejoin:round;opacity:0.30000000000000004"></polyline><polyline points="157.6 310.73 204.89 310.73 210.56 307.58 225.07 307.58" style="fill:none;stroke:#000;stroke-linecap:round;stroke-linejoin:round;opacity:0.30000000000000004"></polyline><polyline points="157.6 319.62 204.89 319.62 210.56 316.46 225.07 316.46" style="fill:none;stroke:#000;stroke-linecap:round;stroke-linejoin:round;opacity:0.30000000000000004"></polyline><polyline points="157.6 328.5 204.89 328.5 210.56 325.34 225.07 325.34" style="fill:none;stroke:#000;stroke-linecap:round;stroke-linejoin:round;opacity:0.30000000000000004"></polyline><polyline points="157.6 337.38 204.89 337.38 210.56 334.23 225.07 334.23" style="fill:none;stroke:#000;stroke-linecap:round;stroke-linejoin:round;opacity:0.30000000000000004"></polyline><polyline points="157.6 346.26 204.89 346.26 210.56 343.11 225.07 343.11" style="fill:none;stroke:#000;stroke-linecap:round;stroke-linejoin:round;opacity:0.30000000000000004"></polyline><polyline points="157.6 355.14 204.89 355.14 210.56 351.99 225.07 351.99" style="fill:none;stroke:#000;stroke-linecap:round;stroke-linejoin:round;opacity:0.30000000000000004"></polyline><polyline points="268.03 473.38 466.5 473.38 466.5 326.82 441.3 326.82 441.3 212.5 406.12 212.5 406.12 272.3 382.67 272.3 382.67 278.16 388.53 278.16 388.53 325.65 339.87 325.65 339.87 206.86 302.94 206.86 302.94 303.9 286.86 303.9 262.8 303.9 232.19 303.9 232.19 208.4 148.35 208.4 148.35 267.02 138.39 267.02 138.39 294.58 110.06 294.58 110.06 337.96 99.11 337.96 99.11 346.75 80.57 346.75 80.57 285.2 46.53 285.2 46.53 473.38 269.97 473.38" style="fill:none;stroke:#000;stroke-linecap:round;stroke-linejoin:round;opacity:0.30000000000000004"></polyline><line x1="393.99" y1="283.71" x2="417.32" y2="283.71" style="fill:none;stroke:#000;stroke-linecap:round;stroke-linejoin:round;opacity:0.30000000000000004"></line><line x1="408.49" y1="221.29" x2="419.84" y2="221.29" style="fill:none;stroke:#000;stroke-linecap:round;stroke-linejoin:round;opacity:0.30000000000000004"></line><line x1="408.49" y1="230.12" x2="419.84" y2="230.12" style="fill:none;stroke:#000;stroke-linecap:round;stroke-linejoin:round;opacity:0.30000000000000004"></line><line x1="408.49" y1="238.95" x2="419.84" y2="238.95" style="fill:none;stroke:#000;stroke-linecap:round;stroke-linejoin:round;opacity:0.30000000000000004"></line><line x1="408.49" y1="247.77" x2="419.84" y2="247.77" style="fill:none;stroke:#000;stroke-linecap:round;stroke-linejoin:round;opacity:0.30000000000000004"></line><line x1="408.49" y1="256.6" x2="419.84" y2="256.6" style="fill:none;stroke:#000;stroke-linecap:round;stroke-linejoin:round;opacity:0.30000000000000004"></line><line x1="408.49" y1="265.43" x2="419.84" y2="265.43" style="fill:none;stroke:#000;stroke-linecap:round;stroke-linejoin:round;opacity:0.30000000000000004"></line><line x1="393.99" y1="292.54" x2="417.32" y2="292.54" style="fill:none;stroke:#000;stroke-linecap:round;stroke-linejoin:round;opacity:0.30000000000000004"></line><line x1="393.99" y1="301.37" x2="417.32" y2="301.37" style="fill:none;stroke:#000;stroke-linecap:round;stroke-linejoin:round;opacity:0.30000000000000004"></line><line x1="393.99" y1="310.19" x2="417.32" y2="310.19" style="fill:none;stroke:#000;stroke-linecap:round;stroke-linejoin:round;opacity:0.30000000000000004"></line><line x1="393.99" y1="319.02" x2="417.32" y2="319.02" style="fill:none;stroke:#000;stroke-linecap:round;stroke-linejoin:round;opacity:0.30000000000000004"></line><line x1="393.99" y1="327.85" x2="417.32" y2="327.85" style="fill:none;stroke:#000;stroke-linecap:round;stroke-linejoin:round;opacity:0.30000000000000004"></line><line x1="426.14" y1="218.77" x2="426.14" y2="378.29" style="fill:none;stroke:#000;stroke-linecap:round;stroke-linejoin:round;opacity:0.30000000000000004"></line><line x1="431.19" y1="218.77" x2="431.19" y2="378.29" style="fill:none;stroke:#000;stroke-linecap:round;stroke-linejoin:round;opacity:0.30000000000000004"></line><line x1="436.23" y1="218.77" x2="436.23" y2="378.29" style="fill:none;stroke:#000;stroke-linecap:round;stroke-linejoin:round;opacity:0.30000000000000004"></line><rect x="309.5" y="213.73" width="8.83" height="8.83" style="fill:none;stroke:#000;stroke-linecap:round;stroke-linejoin:round;opacity:0.30000000000000004"></rect><rect x="323.37" y="213.73" width="8.83" height="8.83" style="fill:none;stroke:#000;stroke-linecap:round;stroke-linejoin:round;opacity:0.30000000000000004"></rect><rect x="309.5" y="230.12" width="8.83" height="8.83" style="fill:none;stroke:#000;stroke-linecap:round;stroke-linejoin:round;opacity:0.30000000000000004"></rect><rect x="323.37" y="230.12" width="8.83" height="8.83" style="fill:none;stroke:#000;stroke-linecap:round;stroke-linejoin:round;opacity:0.30000000000000004"></rect><rect x="309.5" y="246.51" width="8.83" height="8.83" style="fill:none;stroke:#000;stroke-linecap:round;stroke-linejoin:round;opacity:0.30000000000000004"></rect><rect x="323.37" y="246.51" width="8.83" height="8.83" style="fill:none;stroke:#000;stroke-linecap:round;stroke-linejoin:round;opacity:0.30000000000000004"></rect><rect x="309.5" y="262.9" width="8.83" height="8.83" style="fill:none;stroke:#000;stroke-linecap:round;stroke-linejoin:round;opacity:0.30000000000000004"></rect><rect x="323.37" y="262.9" width="8.83" height="8.83" style="fill:none;stroke:#000;stroke-linecap:round;stroke-linejoin:round;opacity:0.30000000000000004"></rect><rect x="309.5" y="279.3" width="8.83" height="8.83" style="fill:none;stroke:#000;stroke-linecap:round;stroke-linejoin:round;opacity:0.30000000000000004"></rect><rect x="323.37" y="279.3" width="8.83" height="8.83" style="fill:none;stroke:#000;stroke-linecap:round;stroke-linejoin:round;opacity:0.30000000000000004"></rect><rect x="309.5" y="295.69" width="8.83" height="8.83" style="fill:none;stroke:#000;stroke-linecap:round;stroke-linejoin:round;opacity:0.30000000000000004"></rect><rect x="323.37" y="295.69" width="8.83" height="8.83" style="fill:none;stroke:#000;stroke-linecap:round;stroke-linejoin:round;opacity:0.30000000000000004"></rect><rect x="309.5" y="312.08" width="8.83" height="8.83" style="fill:none;stroke:#000;stroke-linecap:round;stroke-linejoin:round;opacity:0.30000000000000004"></rect><rect x="323.37" y="312.08" width="8.83" height="8.83" style="fill:none;stroke:#000;stroke-linecap:round;stroke-linejoin:round;opacity:0.30000000000000004"></rect><rect x="309.5" y="328.48" width="8.83" height="8.83" style="fill:none;stroke:#000;stroke-linecap:round;stroke-linejoin:round;opacity:0.30000000000000004"></rect><rect x="323.37" y="328.48" width="8.83" height="8.83" style="fill:none;stroke:#000;stroke-linecap:round;stroke-linejoin:round;opacity:0.30000000000000004"></rect><rect x="309.5" y="344.87" width="8.83" height="8.83" style="fill:none;stroke:#000;stroke-linecap:round;stroke-linejoin:round;opacity:0.30000000000000004"></rect><rect x="323.37" y="344.87" width="8.83" height="8.83" style="fill:none;stroke:#000;stroke-linecap:round;stroke-linejoin:round;opacity:0.30000000000000004"></rect></g><g id="freepik--Trees--inject-5"><path d="M49.42,383.45s22.57,2.23,34,16.22c0,0,12.09-16.21,33.8-15.88a43.88,43.88,0,1,0-67.82-.31Z"></path><path d="M49.42,383.45s22.57,2.23,34,16.22c0,0,12.09-16.21,33.8-15.88a43.88,43.88,0,1,0-67.82-.31Z" style="fill:#fff;opacity:0.8200000000000001"></path><path d="M105.17,358.07s-13.5,3.2-21,14.05l-.42-15.78,0,.21s7.62-13.72,21.34-17.91c0,0-14.13,3.35-21.45,14.82l-1-21.25-.32,30.45c-7.18-10.9-20.26-14.12-20.26-14.12,11.55,3.66,18.62,14.57,20.23,17.29l-.1,15.7c-7.2-10.76-20.13-13.94-20.13-13.94,11.28,3.58,18.28,14.05,20.11,17.08l-.16,89h3.53l-.78-79.86c2.46-3.72,9.49-13,20.36-16.33,0,0-12.91,3.06-20.44,13.34l-.42-15.66C86.16,372.21,93.43,361.66,105.17,358.07Z" style="fill:#263238"></path><path d="M105.17,358.07s-13.5,3.2-21,14.05l-.42-15.78,0,.21s7.62-13.72,21.34-17.91c0,0-14.13,3.35-21.45,14.82l-1-21.25-.32,30.45c-7.18-10.9-20.26-14.12-20.26-14.12,11.55,3.66,18.62,14.57,20.23,17.29l-.1,15.7c-7.2-10.76-20.13-13.94-20.13-13.94,11.28,3.58,18.28,14.05,20.11,17.08l-.16,89h3.53l-.78-79.86c2.46-3.72,9.49-13,20.36-16.33,0,0-12.91,3.06-20.44,13.34l-.42-15.66C86.16,372.21,93.43,361.66,105.17,358.07Z" style="fill:#999"></path><path d="M662.66,414.6s14.78,1.46,22.27,10.63c0,0,7.91-10.62,22.13-10.4a28.73,28.73,0,1,0-44.41-.2Z"></path><path d="M662.66,414.6s14.78,1.46,22.27,10.63c0,0,7.91-10.62,22.13-10.4a28.73,28.73,0,1,0-44.41-.2Z" style="fill:#fff;opacity:0.8200000000000001"></path><path d="M699.16,398s-8.84,2.09-13.72,9.19l-.27-10.33,0,.14s5-9,14-11.73c0,0-9.25,2.2-14,9.7l-.68-13.91L684.23,401c-4.7-7.14-13.26-9.24-13.26-9.24,7.56,2.39,12.19,9.54,13.24,11.32l-.07,10.27c-4.71-7-13.17-9.12-13.17-9.12,7.38,2.34,12,9.2,13.16,11.18l-.1,58.29h2.31l-.51-52.29c1.61-2.44,6.21-8.52,13.33-10.69,0,0-8.45,2-13.38,8.73l-.28-10.25C686.71,407.24,691.47,400.33,699.16,398Z" style="fill:#263238"></path><path d="M699.16,398s-8.84,2.09-13.72,9.19l-.27-10.33,0,.14s5-9,14-11.73c0,0-9.25,2.2-14,9.7l-.68-13.91L684.23,401c-4.7-7.14-13.26-9.24-13.26-9.24,7.56,2.39,12.19,9.54,13.24,11.32l-.07,10.27c-4.71-7-13.17-9.12-13.17-9.12,7.38,2.34,12,9.2,13.16,11.18l-.1,58.29h2.31l-.51-52.29c1.61-2.44,6.21-8.52,13.33-10.69,0,0-8.45,2-13.38,8.73l-.28-10.25C686.71,407.24,691.47,400.33,699.16,398Z" style="fill:#999"></path><path d="M84.2,327.55s-1.45-3.28-2.91-4.37-1.82-5.11-.73-7.29-2.92-4.38-2.92-4.38a35.6,35.6,0,0,1,9.84-12C94.41,294,95,288.78,96,283.92s1-7.76,6.82-10.68,13.13-5.47,14.22-8.38l1.09-2.92s-1.46,8-4.74,9.84-8.74,5.84-8.74,8,.36,6.2.36,6.2.73-6.93,6.93-6.93,11.3,1.46,12.75-2.91a42.76,42.76,0,0,0,1.83-8.75l4.73-7.65s-3.28,7.65-2.18,12,5.1,8,7.65,1.46a21.76,21.76,0,0,0,.73-12.76s3.65,9.12,1.82,14.22-2.91,8-8.38,8.75-8,.36-12,3.64-5.47,6.2-4,6.93,4,0,4.38,1.46.67,1.55,1.42,4.6.76-1.32,5.87-1.32,9.84,5.83,13.85-2.19,2.55-13.49,8.38-14.58A53.46,53.46,0,0,1,156,280.9s-8.38,1.45-9.11,7.29,3.64,11.66-1.1,17.86-9.11,5.83-11.3,8.74-2.91,8.39-2.55,9.48,3.65,8,3.65,8-1.1-1.46,5.47-4l6.56-2.55s-4.38,3.64-4,7.29,2.55,5.1.73,10.57-4,6.92-7.29,8.38-5.47,2.55-5.47,4.38,2.19,2.55,3.28,4.74,4,5.83,1.46,6.56-8,3.64-9.12,5.83-1.82,4-1.82,4,1.1-12.4-3.28-16.4-10.57-2.92-10.57-2.92,8-5.1,4.74-10.94-7.56-1.24-7.56-1.24,1.91-5.47-.82-6.41-5.47,1.09-5.47,1.09a10.37,10.37,0,0,0-.37-11.3c-4-5.83-7.65-4.37-9.84-1.82s-8,15.31-8,15.31S87.12,331.93,84.2,327.55Z" style="fill:#EA8831"></path><path d="M111.54,358.17s10.15-5.93,12.88-7.76-1.71-5.42-1.71-5.42l9-10.08s-1.37-2.28-6.38-1.82-8.66.46-10-4.1,8.2-8.66,8.2-8.66-2.73.45-7.29-5.93,6.38-8.2,6.38-8.2-8.2,0-11.39,1.82-5,4.1-8.67,3.19,1.83-7.75,1.83-7.75-6.84,2.74-10.49,6.38-.91,4.56-1.82,11.4-7.86,6.31-7.86,6.31c2.92,4.38,0,15.31,0,15.31s5.84-12.76,8-15.31,5.83-4,9.84,1.82a10.37,10.37,0,0,1,.37,11.3s2.74-2,5.47-1.09.82,6.41.82,6.41,4.28-4.59,7.56,1.24S111.54,358.17,111.54,358.17Z" style="fill:#fff;opacity:0.49"></path></g><g id="freepik--Building--inject-5"><path d="M551.34,179.71c10.12-10.66,3.12-51.81-7-65.53s6.22-26.67,6.22-26.67-10.89,6.1-16.34,25.15-17.13,2.29-21-1.52S525.65,89,525.65,89s-21.8,10.67-28.8,25.14-12.46,13-17.91,9.91,5.45-13,5.45-13-14,5.33-26.47,19.81-6.22,22.1-11.67,29c-2.61,3.29-11.29,4.47-19.63,4.82V394.21c10.33-.35,22.08-1.24,28.19-3.42,12.37-4.42,17.13-22.1,17.13-22.1L443.13,371A124.31,124.31,0,0,0,468,346.59c11.68-15.24,1.56-34.29,5.45-41.91s23.36-6.09,31.14-11.43,14-19.81,14-19.81-13.24,9.14-17.91,3.05,12.46-16,12.46-16-8.57-1.53-15.57,2.28-15.57,17.53-25.69,29S454,296.3,454,296.3s17.13-9.91,28-27.43,6.22-22.1,17.12-28.2,31.14-6.85,37.37-14.47,7.79-23.63,7.79-23.63l-6.23,6.86c-6.23,6.86-18.69,4.57-29.58,2.29s-19.47,7.62-19.47,7.62.78-9.91,10.12-19.81S541.22,190.38,551.34,179.71Z" style="fill:#EA8831"></path><path d="M524.87,156.85s-17.9.77-28,5.34-10.12,17.52-22.58,17.52.78-18.28.78-18.28-15.57,7.62-21.8,12.19-5.45,13.71-6.23,22.86c-.69,8.2-17,12.1-20.4,12.83V336.16l.16,33.29a213.61,213.61,0,0,1,3.9-21.34c2.33-9.14,7.78-17.52,17.9-20.95S464.15,307,464.15,307s-6.62,6.09-21.71-3.52c-4.27-2.72-6.69-3.62-8-3.65C434,294.06,436,288.23,447,281.06c11.68-7.62,20.25-5.33,30.37-16S492.18,230,492.18,230s-3.9,2.28-9.34,16.76-18.3,9.91-18.3,9.91l6.62-8.39c6.61-8.38,2.33-15.24-2.34-18.28s-4.67-14.48,9.34-23.63,18.69-12.19,17.13-24.38S524.87,156.85,524.87,156.85Z" style="fill:#fff;opacity:0.49"></path><ellipse cx="459.87" cy="194.57" rx="6.62" ry="6.48" style="fill:#263238"></ellipse><path d="M447.8,230.39a3.5,3.5,0,1,1-3.5-3.43A3.47,3.47,0,0,1,447.8,230.39Z" style="fill:#263238"></path><ellipse cx="461.82" cy="233.05" rx="1.56" ry="1.52" style="fill:#263238"></ellipse><path d="M455.59,251.72a2.73,2.73,0,1,1-2.73-2.66A2.7,2.7,0,0,1,455.59,251.72Z" style="fill:#263238"></path><path d="M449.36,273.06a2.73,2.73,0,1,1-2.72-2.67A2.7,2.7,0,0,1,449.36,273.06Z" style="fill:#263238"></path><path d="M467.27,259.34a2.73,2.73,0,1,1-2.73-2.66A2.7,2.7,0,0,1,467.27,259.34Z" style="fill:#263238"></path><path d="M448.58,327.16a2.73,2.73,0,1,1-2.72-2.67A2.7,2.7,0,0,1,448.58,327.16Z" style="fill:#263238"></path><path d="M459.48,315a1.95,1.95,0,1,1-2-1.91A1.92,1.92,0,0,1,459.48,315Z" style="fill:#263238"></path><path d="M450.14,346.21a3.51,3.51,0,1,1-3.5-3.43A3.47,3.47,0,0,1,450.14,346.21Z" style="fill:#263238"></path><path d="M447,380.88a3.11,3.11,0,1,1-3.11-3.05A3.08,3.08,0,0,1,447,380.88Z" style="fill:#263238"></path><rect x="140.78" y="60.31" width="166.49" height="413.37" style="fill:#fff;stroke:#263238;stroke-linecap:round;stroke-linejoin:round"></rect><rect x="140.78" y="60.31" width="166.49" height="11.85" style="fill:#263238;stroke:#263238;stroke-linecap:round;stroke-linejoin:round"></rect><rect x="140.78" y="164.4" width="166.49" height="11.85" style="fill:#263238;stroke:#263238;stroke-linecap:round;stroke-linejoin:round"></rect><rect x="140.78" y="268.99" width="166.49" height="11.85" style="fill:#263238;stroke:#263238;stroke-linecap:round;stroke-linejoin:round"></rect><rect x="140.78" y="371.07" width="166.49" height="11.85" style="fill:#263238;stroke:#263238;stroke-linecap:round;stroke-linejoin:round"></rect><rect x="307.27" y="60.31" width="119.64" height="413.37" style="fill:#bdbdbd;stroke:#263238;stroke-linecap:round;stroke-linejoin:round"></rect><rect x="134.28" y="159.76" width="303.56" height="11.39" style="fill:#919191;stroke:#263238;stroke-linecap:round;stroke-linejoin:round"></rect><rect x="134.28" y="159.76" width="181.47" height="11.39" style="fill:#fff;stroke:#263238;stroke-linecap:round;stroke-linejoin:round"></rect><rect x="134.28" y="262.94" width="303.56" height="11.39" style="fill:#919191;stroke:#263238;stroke-linecap:round;stroke-linejoin:round"></rect><rect x="134.28" y="262.94" width="181.47" height="11.39" style="fill:#fff;stroke:#263238;stroke-linecap:round;stroke-linejoin:round"></rect><rect x="134.28" y="366.11" width="303.56" height="11.39" style="fill:#fff;stroke:#263238;stroke-linecap:round;stroke-linejoin:round"></rect><rect x="134.28" y="366.11" width="181.47" height="11.39" style="fill:#fff;stroke:#263238;stroke-linecap:round;stroke-linejoin:round"></rect><rect x="151.73" y="86.19" width="30.24" height="53.53" style="fill:#263238;stroke:#263238;stroke-linecap:round;stroke-linejoin:round"></rect><rect x="154.1" y="90.37" width="25.51" height="45.17" style="fill:#fff;stroke:#263238;stroke-linecap:round;stroke-linejoin:round"></rect><rect x="154.1" y="111.03" width="25.51" height="3.85" style="fill:#263238;stroke:#263238;stroke-linecap:round;stroke-linejoin:round"></rect><rect x="209.03" y="86.19" width="30.24" height="53.53" style="fill:#263238;stroke:#263238;stroke-linecap:round;stroke-linejoin:round"></rect><rect x="211.39" y="90.37" width="25.51" height="45.17" style="fill:#fff;stroke:#263238;stroke-linecap:round;stroke-linejoin:round"></rect><rect x="211.39" y="111.03" width="25.51" height="3.85" style="fill:#263238;stroke:#263238;stroke-linecap:round;stroke-linejoin:round"></rect><rect x="151.73" y="194.49" width="30.24" height="53.53" style="fill:#263238;stroke:#263238;stroke-linecap:round;stroke-linejoin:round"></rect><rect x="154.1" y="198.67" width="25.51" height="45.17" style="fill:#fff;stroke:#263238;stroke-linecap:round;stroke-linejoin:round"></rect><rect x="154.1" y="219.33" width="25.51" height="3.85" style="fill:#263238;stroke:#263238;stroke-linecap:round;stroke-linejoin:round"></rect><rect x="209.03" y="194.49" width="30.24" height="53.53" style="fill:#263238;stroke:#263238;stroke-linecap:round;stroke-linejoin:round"></rect><rect x="211.39" y="198.67" width="25.51" height="45.17" style="fill:#fff;stroke:#263238;stroke-linecap:round;stroke-linejoin:round"></rect><rect x="211.39" y="219.33" width="25.51" height="3.85" style="fill:#263238;stroke:#263238;stroke-linecap:round;stroke-linejoin:round"></rect><rect x="151.73" y="295.87" width="30.24" height="53.53" style="fill:#263238;stroke:#263238;stroke-linecap:round;stroke-linejoin:round"></rect><rect x="154.1" y="300.06" width="25.51" height="45.17" style="fill:#fff;stroke:#263238;stroke-linecap:round;stroke-linejoin:round"></rect><rect x="154.1" y="320.72" width="25.51" height="3.85" style="fill:#263238;stroke:#263238;stroke-linecap:round;stroke-linejoin:round"></rect><rect x="209.03" y="295.87" width="30.24" height="53.53" style="fill:#263238;stroke:#263238;stroke-linecap:round;stroke-linejoin:round"></rect><rect x="211.39" y="300.06" width="25.51" height="45.17" style="fill:#fff;stroke:#263238;stroke-linecap:round;stroke-linejoin:round"></rect><rect x="211.39" y="320.72" width="25.51" height="3.85" style="fill:#263238;stroke:#263238;stroke-linecap:round;stroke-linejoin:round"></rect><rect x="151.73" y="396.31" width="30.24" height="53.53" style="fill:#263238;stroke:#263238;stroke-linecap:round;stroke-linejoin:round"></rect><rect x="154.1" y="400.49" width="25.51" height="45.17" style="fill:#fff;stroke:#263238;stroke-linecap:round;stroke-linejoin:round"></rect><rect x="154.1" y="421.15" width="25.51" height="3.85" style="fill:#263238;stroke:#263238;stroke-linecap:round;stroke-linejoin:round"></rect><rect x="209.03" y="396.31" width="30.24" height="53.53" style="fill:#263238;stroke:#263238;stroke-linecap:round;stroke-linejoin:round"></rect><rect x="211.39" y="400.49" width="25.51" height="45.17" style="fill:#fff;stroke:#263238;stroke-linecap:round;stroke-linejoin:round"></rect><rect x="211.39" y="421.15" width="25.51" height="3.85" style="fill:#263238;stroke:#263238;stroke-linecap:round;stroke-linejoin:round"></rect><rect x="264.61" y="86.19" width="30.24" height="53.53" style="fill:#263238;stroke:#263238;stroke-linecap:round;stroke-linejoin:round"></rect><rect x="266.97" y="90.37" width="25.51" height="45.17" style="fill:#fff;stroke:#263238;stroke-linecap:round;stroke-linejoin:round"></rect><rect x="266.97" y="111.03" width="25.51" height="3.85" style="fill:#263238;stroke:#263238;stroke-linecap:round;stroke-linejoin:round"></rect><rect x="264.61" y="194.49" width="30.24" height="53.53" style="fill:#263238;stroke:#263238;stroke-linecap:round;stroke-linejoin:round"></rect><rect x="266.97" y="198.67" width="25.51" height="45.17" style="fill:#fff;stroke:#263238;stroke-linecap:round;stroke-linejoin:round"></rect><rect x="266.97" y="219.33" width="25.51" height="3.85" style="fill:#263238;stroke:#263238;stroke-linecap:round;stroke-linejoin:round"></rect><rect x="330.64" y="86.19" width="30.24" height="53.53" style="fill:#263238;stroke:#263238;stroke-linecap:round;stroke-linejoin:round"></rect><rect x="333" y="90.37" width="25.51" height="45.17" style="fill:#fff;stroke:#263238;stroke-linecap:round;stroke-linejoin:round"></rect><rect x="333" y="111.03" width="25.51" height="3.85" style="fill:#263238;stroke:#263238;stroke-linecap:round;stroke-linejoin:round"></rect><rect x="264.61" y="295.87" width="30.24" height="53.53" style="fill:#263238;stroke:#263238;stroke-linecap:round;stroke-linejoin:round"></rect><rect x="266.97" y="300.06" width="25.51" height="45.17" style="fill:#fff;stroke:#263238;stroke-linecap:round;stroke-linejoin:round"></rect><rect x="266.97" y="320.72" width="25.51" height="3.85" style="fill:#263238;stroke:#263238;stroke-linecap:round;stroke-linejoin:round"></rect><rect x="330.64" y="194.49" width="30.24" height="53.53" style="fill:#263238;stroke:#263238;stroke-linecap:round;stroke-linejoin:round"></rect><rect x="333" y="198.67" width="25.51" height="45.17" style="fill:#fff;stroke:#263238;stroke-linecap:round;stroke-linejoin:round"></rect><rect x="333" y="219.33" width="25.51" height="3.85" style="fill:#263238;stroke:#263238;stroke-linecap:round;stroke-linejoin:round"></rect><rect x="379.95" y="194.49" width="30.24" height="53.53" style="fill:#263238;stroke:#263238;stroke-linecap:round;stroke-linejoin:round"></rect><rect x="382.31" y="198.67" width="25.51" height="45.17" style="fill:#fff;stroke:#263238;stroke-linecap:round;stroke-linejoin:round"></rect><rect x="382.31" y="219.33" width="25.51" height="3.85" style="fill:#263238;stroke:#263238;stroke-linecap:round;stroke-linejoin:round"></rect><rect x="379.95" y="295.87" width="30.24" height="53.53" style="fill:#263238;stroke:#263238;stroke-linecap:round;stroke-linejoin:round"></rect><rect x="382.31" y="300.06" width="25.51" height="45.17" style="fill:#fff;stroke:#263238;stroke-linecap:round;stroke-linejoin:round"></rect><rect x="382.31" y="320.72" width="25.51" height="3.85" style="fill:#263238;stroke:#263238;stroke-linecap:round;stroke-linejoin:round"></rect><rect x="264.61" y="396.31" width="30.24" height="53.53" style="fill:#263238;stroke:#263238;stroke-linecap:round;stroke-linejoin:round"></rect><rect x="266.97" y="400.49" width="25.51" height="45.17" style="fill:#fff;stroke:#263238;stroke-linecap:round;stroke-linejoin:round"></rect><rect x="266.97" y="421.15" width="25.51" height="3.85" style="fill:#263238;stroke:#263238;stroke-linecap:round;stroke-linejoin:round"></rect><rect x="330.64" y="295.87" width="30.24" height="53.53" style="fill:#263238;stroke:#263238;stroke-linecap:round;stroke-linejoin:round"></rect><rect x="333" y="300.06" width="25.51" height="45.17" style="fill:#fff;stroke:#263238;stroke-linecap:round;stroke-linejoin:round"></rect><rect x="333" y="320.72" width="25.51" height="3.85" style="fill:#263238;stroke:#263238;stroke-linecap:round;stroke-linejoin:round"></rect><rect x="379.95" y="396.31" width="30.24" height="53.53" style="fill:#263238;stroke:#263238;stroke-linecap:round;stroke-linejoin:round"></rect><rect x="382.31" y="400.49" width="25.51" height="45.17" style="fill:#fff;stroke:#263238;stroke-linecap:round;stroke-linejoin:round"></rect><rect x="382.31" y="421.15" width="25.51" height="3.85" style="fill:#263238;stroke:#263238;stroke-linecap:round;stroke-linejoin:round"></rect><rect x="330.64" y="396.31" width="30.24" height="53.53" style="fill:#263238;stroke:#263238;stroke-linecap:round;stroke-linejoin:round"></rect><rect x="333" y="400.49" width="25.51" height="45.17" style="fill:#fff;stroke:#263238;stroke-linecap:round;stroke-linejoin:round"></rect><rect x="333" y="421.15" width="25.51" height="3.85" style="fill:#263238;stroke:#263238;stroke-linecap:round;stroke-linejoin:round"></rect><polygon points="375.91 67.3 382.79 78.19 399.99 92.52 397.69 102.27 387.37 117.74 391.39 126.91 398.84 144.11 402.85 144.11 409.73 145.83 421.19 144.68 426.9 148.76 426.9 60.31 420.07 60.31 373.62 61.57 375.91 67.3" style="fill:#c2c2c2;stroke:#263238;stroke-linecap:round;stroke-linejoin:round"></polygon><polygon points="408.58 145.54 417.18 144.68 417.67 145.03 421.19 144.68 422.89 145.9 422.89 60.31 420.07 60.31 373.62 61.57 375.91 67.3 382.79 78.19 399.99 92.52 397.69 102.27 387.37 117.74 391.39 126.91 398.84 144.11 402.85 144.11 408.58 145.54" style="fill:#263238;stroke:#263238;stroke-linecap:round;stroke-linejoin:round"></polygon><rect x="134.28" y="55.44" width="303.56" height="11.39" style="fill:#919191;stroke:#263238;stroke-linecap:round;stroke-linejoin:round"></rect><rect x="134.28" y="55.44" width="181.47" height="11.39" style="fill:#fff;stroke:#263238;stroke-linecap:round;stroke-linejoin:round"></rect></g><g id="freepik--character-2--inject-5"><path d="M417.4,408.45l-.63,5.24,1.63.81s1.08,3.25,1.35,3.25,2.89-.9,2.89-.9l3,2.62,2.8-4.34-2.53-1.26s1.36-5.78.82-7.05-1.09-1.8-4.7-2.16S418.13,405.83,417.4,408.45Z" style="fill:#fff;stroke:#263238;stroke-miterlimit:10"></path><path d="M422,404.66c-2.93-.3-3.66.66-4.22,2.43h2.87s-1.18,1.9-.55,2.08a13.1,13.1,0,0,1,1.45.54s-.36,2.08.09,2.26.54.09.72-.9,1-1.45,1.45-.36a4.38,4.38,0,0,1-.09,2.62l-.27.63,2.43-.09s1.36-5.78.82-7.05S425.62,405,422,404.66Z" style="fill:#263238;stroke:#263238;stroke-linecap:round;stroke-linejoin:round"></path><path d="M418.67,411.25c0,.4-.12.72-.27.72s-.27-.32-.27-.72.12-.72.27-.72S418.67,410.85,418.67,411.25Z" style="fill:#263238"></path><path d="M417.77,409.8s1.26-.54,1.62.28" style="fill:none;stroke:#263238;stroke-linecap:round;stroke-linejoin:round"></path><path d="M434.32,435s-15.16,14-14.11,14.85,6.53,18,6.53,18l2.74.53-2-17.38,11.27-7.27s10.21,13.06,11.58,13.17,18.75-7.27,18.75-7.27l-.42-3.16-15.27,2.42-4.32-14.64a2.47,2.47,0,0,0-1.37-2.63C445.91,430.42,434.32,435,434.32,435Z" style="fill:#263238;stroke:#263238;stroke-linecap:round;stroke-linejoin:round"></path><path d="M468.66,446.43s3.89-.52,4.21-.21.53,3.27.53,5.69-1.27,4.95-1.58,4.95-2.74-7.27-2.74-7.27Z" style="fill:#fff;stroke:#263238;stroke-miterlimit:10"></path><path d="M426.74,467.81s-7.9.74-7.8,1.16,6.32,2.74,8,2.95,3.37.74,3.58.11-1-3.69-1-3.69Z" style="fill:#fff;stroke:#263238;stroke-miterlimit:10"></path><path d="M446.12,429.47c-.42-.31-.11-13.58-.53-14.21s-14-2.95-15.17-2.95-2,2.1-2,2.1l-9.79,9.8-10.22-7.16-1.47-3.69s-1.06-.74-1.16-.21l-.21,1.05s-2.11.63-2,1.16a5.28,5.28,0,0,0,1.26,2c.32.21,2.11,1.58,2.11,1.58s12.11,10.32,12.85,10.32,6.84-3.26,6.84-3.26l8,10.32s3.89,1.79,7.05.63,6-4.74,6-5.37S446.54,429.79,446.12,429.47Zm-7.69-9.26h4.42l1.79,7Z" style="fill:#fff;stroke:#263238;stroke-miterlimit:10"></path><path d="M438.43,420.21h4.42l.12.47,2.87-.11a32.52,32.52,0,0,0-.25-5.31c-.42-.64-14-2.95-15.17-2.95s-2,2.1-2,2.1l-9.79,9.8-2.09-1.46-1.82,2.7a37.46,37.46,0,0,0,5.07,3.81c.73,0,6.84-3.26,6.84-3.26l8,10.32s3.89,1.79,7.05.63,6-4.74,6-5.37-1.16-1.79-1.58-2.11l-1.48-2.31Z" style="fill:#EA8831;stroke:#263238;stroke-miterlimit:10"></path></g><g id="freepik--Streetlight--inject-5"><polygon points="660.79 461.31 655.04 425.49 649.29 417.53 641.34 415.32 537.88 260.13 534.34 264.56 628.07 421.96 638.68 427.7 645.32 473.69 666.1 473.69 660.79 461.31" style="fill:#263238;stroke:#263238;stroke-linecap:round;stroke-linejoin:round"></polygon><polyline points="537.88 260.13 475.09 346.35 480.84 349 551.14 280.03" style="fill:none;stroke:#263238;stroke-linecap:round;stroke-linejoin:round;stroke-width:3px"></polyline><line x1="501.18" y1="310.54" x2="511.35" y2="318.94" style="fill:none;stroke:#263238;stroke-linecap:round;stroke-linejoin:round;stroke-width:3px"></line><path d="M478,357.05c1.17,1.57,3.25,2.27,5.78,2.16,3.47-.15,7.81-1.81,11.83-4.79,4.73-3.52,7.79-8,8.41-11.64a5.67,5.67,0,0,0-.84-4.48c-2.78-3.72-10.66-2.54-17.61,2.64S475.21,353.33,478,357.05Z" style="fill:#fff;stroke:#263238;stroke-linecap:round;stroke-linejoin:round"></path><path d="M483.76,359.21c3.47-.15,7.81-1.81,11.83-4.79,4.73-3.52,7.79-8,8.41-11.64-3.47.14-7.79,1.8-11.81,4.8C487.46,351.09,484.38,355.54,483.76,359.21Z" style="fill:#fff;stroke:#263238;stroke-linecap:round;stroke-linejoin:round"></path></g><g id="freepik--Car--inject-5"><path d="M499.26,448.35h4.4l.07.09a8.47,8.47,0,0,1,1.13-.09c5.38,0,9.73,5.6,9.73,12.52s-4.35,12.51-9.73,12.51a7.08,7.08,0,0,1-1.13-.09l-.07.09h-4.4c-5.38,0-9.73-5.6-9.73-12.51S493.88,448.35,499.26,448.35Z" style="fill:#263238;stroke:#263238;stroke-linecap:round;stroke-linejoin:round"></path><path d="M589.52,448.35h4.41l.06.09a8.62,8.62,0,0,1,1.14-.09c5.37,0,9.73,5.6,9.73,12.52s-4.36,12.51-9.73,12.51a7.2,7.2,0,0,1-1.14-.09l-.06.09h-4.41c-5.37,0-9.73-5.6-9.73-12.51S584.15,448.35,589.52,448.35Z" style="fill:#263238;stroke:#263238;stroke-linecap:round;stroke-linejoin:round"></path><polygon points="635.23 438.2 639.6 439.07 640.18 441.11 641.2 441.4 642.37 442.42 642.22 443.73 632.89 443.59 632.17 439.51 635.23 438.2" style="fill:#263238;stroke:#263238;stroke-linecap:round;stroke-linejoin:round"></polygon><path d="M635.23,438.2l2.62-11.95-8.6-11.8-5.39-5.25-9.33,2.19-12.38,6.55-3,2.21s30,19.5,30.39,19.65S635.23,438.2,635.23,438.2Z" style="fill:#b2b2b2;stroke:#263238;stroke-linecap:round;stroke-linejoin:round"></path><polygon points="633.62 420.71 626.92 416.19 624.15 411.53 618.61 417.8 619.2 422.31 611.33 422.17 604.92 419.55 599.15 420.15 606.96 414.59 615.7 410.37 623.86 409.2 630.56 416.05 633.62 420.71" style="fill:#b2b2b2;stroke:#263238;stroke-linecap:round;stroke-linejoin:round"></polygon><path d="M457.32,448.72h2.11l1.9-13.29a3.28,3.28,0,0,1,3.25-2.81h11.85l19.25-20.43a11,11,0,0,1,8-3.46h51a8.19,8.19,0,0,1,5.89,2.51L646,447.3l-.31.51.43,3.35.73,2.48-.43,6.27s-1.52,3.08-1.2,3.94H516.86l-33-.23L459.43,462v-.11h-2a.8.8,0,0,1-.8-.8V449.42A.7.7,0,0,1,457.32,448.72Z" style="fill:#b2b2b2;stroke:#263238;stroke-linecap:round;stroke-linejoin:round"></path><path d="M494.64,461.45v2.24l-10.76-.07L459.43,462v-.11h-2a.79.79,0,0,1-.71-.45Z" style="fill:#263238;stroke:#263238;stroke-linecap:round;stroke-linejoin:round"></path><path d="M483.94,462H496.3L542,408.73h12.7a8.19,8.19,0,0,1,5.89,2.51L646,447.3l-.31.51.43,3.35.73,2.48-.43,6.27s-1.52,3.08-1.2,3.94H516.86l-33-.23h0A.81.81,0,0,1,483.94,462Z" style="fill:#263238;stroke:#263238;stroke-linecap:round;stroke-linejoin:round"></path><path d="M627.76,448.35h4.41l2.89,4.24a15.3,15.3,0,0,1,0,16.55l-2.89,4.24h-4.41c-5.37,0-9.72-5.6-9.72-12.51S622.39,448.35,627.76,448.35Z" style="fill:#263238;stroke:#263238;stroke-linecap:round;stroke-linejoin:round"></path><ellipse cx="633.37" cy="460.87" rx="9.73" ry="12.52" style="fill:#636363;stroke:#263238;stroke-linecap:round;stroke-linejoin:round"></ellipse><ellipse cx="633.37" cy="460.87" rx="7.76" ry="9.99" style="fill:#fff;stroke:#263238;stroke-linecap:round;stroke-linejoin:round"></ellipse><path d="M631.73,460.87a1.69,1.69,0,1,0,1.64-2.11A1.93,1.93,0,0,0,631.73,460.87Z" style="fill:#fff;stroke:#263238;stroke-linecap:round;stroke-linejoin:round"></path><path d="M529.57,448.35H534l2.89,4.24a15.3,15.3,0,0,1,0,16.55L534,473.38h-4.41c-5.37,0-9.72-5.6-9.72-12.51S524.2,448.35,529.57,448.35Z" style="fill:#263238;stroke:#263238;stroke-linecap:round;stroke-linejoin:round"></path><ellipse cx="535.18" cy="460.87" rx="9.73" ry="12.52" style="fill:#636363;stroke:#263238;stroke-linecap:round;stroke-linejoin:round"></ellipse><ellipse cx="535.18" cy="460.87" rx="7.76" ry="9.99" style="fill:#fff;stroke:#263238;stroke-linecap:round;stroke-linejoin:round"></ellipse><path d="M533.54,460.87a1.69,1.69,0,1,0,1.64-2.11A1.93,1.93,0,0,0,533.54,460.87Z" style="fill:#fff;stroke:#263238;stroke-linecap:round;stroke-linejoin:round"></path><path d="M495.68,412.19c.15-.17.33-.32.5-.48h39.74v19.64h-58.3Z" style="fill:#263238;stroke:#263238;stroke-linecap:round;stroke-linejoin:round"></path><path d="M493.43,448.72l2.29-16.1h14.7l19.25-20.43a11,11,0,0,1,8-3.46h46.83a8.19,8.19,0,0,1,5.9,2.51l29.91,20,11.54,5,3.36,2,.43,2.91L637,443l7.73.3,2.18,2.62-1.16,1.89.43,3.35.73,2.48-.43,6.27a16.21,16.21,0,0,0-1.2,3.21v-2.57c0-8.07-5.87-14.61-13.11-14.61-6.45,0-10.46,5.23-11.47,12.33l-.79,5.58H546.94v-3.3c0-8.07-3.31-14.61-12.21-14.61h0c-7.93,0-10.77,5.23-12,12.33l-.93,5.35L493.43,462v-.11h-2.32V448.72Z" style="fill:#b2b2b2;stroke:#263238;stroke-linecap:round;stroke-linejoin:round"></path><path d="M590.17,414.18l25.68,17.06h-48v-19.3h17A7.48,7.48,0,0,1,590.17,414.18Z" style="fill:#fff;stroke:#263238;stroke-linecap:round;stroke-linejoin:round"></path><polygon points="599.52 431.07 597.01 429.68 595.62 425.65 594.37 421.89 592.28 420.91 589.5 420.36 587.69 415.9 584.84 411.94 584.76 416.32 581.84 421.89 580.87 423.84 579.89 426.34 584.9 429.68 584.35 431.35 599.52 431.07" style="fill:#263238;stroke:#263238;stroke-linecap:round;stroke-linejoin:round"></polygon><polyline points="581.84 421.89 578.92 420.5 578.64 417.01 572.51 416.88 571.12 412.42" style="fill:none;stroke:#263238;stroke-linecap:round;stroke-linejoin:round"></polyline><path d="M582.54,420.5s-1.68-1-1.81-1.4.41-1.25.27-1.67-.41-1.53-.41-1.53l-.56-1.67.42-1" style="fill:none;stroke:#263238;stroke-linecap:round;stroke-linejoin:round"></path><polyline points="579.89 426.34 577.25 424.67 574.74 424.95 573.63 424.81" style="fill:none;stroke:#263238;stroke-linecap:round;stroke-linejoin:round"></polyline><polyline points="594.09 423.42 595.62 421.61 597.15 422.72 599.66 423.28" style="fill:none;stroke:#263238;stroke-linecap:round;stroke-linejoin:round"></polyline><polygon points="567.85 431.24 567.85 417.38 578.78 431.24 567.85 431.24" style="fill:#263238;stroke:#263238;stroke-linecap:round;stroke-linejoin:round"></polygon><path d="M531.27,415.09l-10.92,11.16a3.08,3.08,0,0,0-.75,1.34h0a2.94,2.94,0,0,0,2.85,3.65h42.18v-19.3H538.74A10.45,10.45,0,0,0,531.27,415.09Z" style="fill:#263238;stroke:#263238;stroke-linecap:round;stroke-linejoin:round"></path><polygon points="541.5 411.94 545.74 411.94 560.97 431.24 556.72 431.24 541.5 411.94" style="fill:#fff;stroke:#263238;stroke-linecap:round;stroke-linejoin:round"></polygon><polygon points="564.63 413.31 564.63 428.72 551.39 411.94 563.55 411.94 564.63 413.31" style="fill:#fff;stroke:#263238;stroke-linecap:round;stroke-linejoin:round"></polygon><path d="M495.72,432.62H464.58a3.28,3.28,0,0,0-3.25,2.81l-1.9,13.29h34Z" style="fill:#b2b2b2;stroke:#263238;stroke-linecap:round;stroke-linejoin:round"></path><rect x="466.16" y="439.88" width="14.77" height="6.07" transform="translate(947.09 885.82) rotate(180)" style="fill:#fff;stroke:#263238;stroke-linecap:round;stroke-linejoin:round"></rect><line x1="457.81" y1="451.2" x2="521.1" y2="451.2" style="fill:#fff;stroke:#263238;stroke-linecap:round;stroke-linejoin:round;stroke-width:2px"></line><line x1="549.39" y1="451.2" x2="619.53" y2="451.2" style="fill:#fff;stroke:#263238;stroke-linecap:round;stroke-linejoin:round;stroke-width:2px"></line><line x1="642.81" y1="451.2" x2="645.28" y2="451.2" style="fill:#fff;stroke:#263238;stroke-linecap:round;stroke-linejoin:round;stroke-width:2px"></line><path d="M483.48,440h14a3.49,3.49,0,0,1,3.11,1.93l2.33,4.66a1.41,1.41,0,0,1-1.26,2H483.48Z" style="fill:#b2b2b2;stroke:#263238;stroke-linecap:round;stroke-linejoin:round"></path><polygon points="483.48 439.97 494.73 439.97 493.5 448.6 483.48 448.6 483.48 439.97" style="fill:#263238;stroke:#263238;stroke-linecap:round;stroke-linejoin:round"></polygon><polygon points="460.74 439.97 464.14 439.97 464.19 448.6 459.5 448.6 460.74 439.97" style="fill:#263238;stroke:#263238;stroke-linecap:round;stroke-linejoin:round"></polygon><rect x="611.72" y="427.22" width="8.96" height="7.58" rx="2" transform="translate(1232.39 862.01) rotate(180)" style="fill:#263238;stroke:#263238;stroke-linecap:round;stroke-linejoin:round"></rect><rect x="568.99" y="434.8" width="8.61" height="3.45" transform="translate(1146.6 873.04) rotate(180)" style="fill:#263238;stroke:#263238;stroke-linecap:round;stroke-linejoin:round"></rect><line x1="566.93" y1="433.42" x2="566.93" y2="459.6" style="fill:none;stroke:#263238;stroke-linecap:round;stroke-linejoin:round"></line><path d="M625.15,445.13s-6.31,3.56-7.11,15.74h-67" style="fill:none;stroke:#263238;stroke-linecap:round;stroke-linejoin:round"></path><path d="M519.38,450.3s3.3-8.61,14.34-8.61c7.7,0,11.38,4,13.22,7.23" style="fill:none;stroke:#263238;stroke-linecap:round;stroke-linejoin:round"></path></g><g id="freepik--Smoke--inject-5"><g style="opacity:0.24"><path d="M637,368.16c-12.25,0-22.18,8.79-22.18,19.65a17.91,17.91,0,0,0,3.34,10.37c-5.89,1.06-10.32,5.65-10.32,11.15,0,6.29,5.78,11.38,12.92,11.38s12.91-5.09,12.91-11.38a10,10,0,0,0-.23-2.13,24.55,24.55,0,0,0,3.56.26c12.26,0,22.19-8.8,22.19-19.65S649.21,368.16,637,368.16Z"></path><ellipse cx="634.42" cy="351.99" rx="15.85" ry="15.53"></ellipse><path d="M614.13,334.56c0-3.5-3.55-6.34-7.92-6.34s-7.93,2.84-7.93,6.34,3.55,6.34,7.93,6.34S614.13,338.06,614.13,334.56Z"></path><path d="M630.93,317.44c3,0,5.39-2.13,5.39-4.75s-2.41-4.76-5.39-4.76-5.39,2.13-5.39,4.76S628,317.44,630.93,317.44Z"></path><path d="M602,304.2c-.4-1.52-2.23-2.37-4.1-1.88s-3,2.11-2.65,3.63,2.22,2.37,4.09,1.89S602.37,305.73,602,304.2Z"></path></g><g style="opacity:0.24"><path d="M441.28,144.41c-12.25,0-22.19,8.79-22.19,19.65a17.91,17.91,0,0,0,3.35,10.37c-5.89,1.06-10.32,5.65-10.32,11.15,0,6.29,5.78,11.38,12.91,11.38S438,191.87,438,185.58a10.69,10.69,0,0,0-.23-2.13,24.55,24.55,0,0,0,3.56.26c12.25,0,22.19-8.8,22.19-19.65S453.53,144.41,441.28,144.41Z"></path><ellipse cx="438.74" cy="128.24" rx="15.85" ry="15.53"></ellipse><path d="M418.46,110.81c0-3.5-3.55-6.34-7.93-6.34s-7.92,2.84-7.92,6.34,3.55,6.34,7.92,6.34S418.46,114.31,418.46,110.81Z"></path><path d="M435.26,93.69c3,0,5.39-2.13,5.39-4.75s-2.42-4.76-5.39-4.76-5.39,2.13-5.39,4.76S432.28,93.69,435.26,93.69Z"></path><path d="M406.3,80.45c-.39-1.52-2.22-2.37-4.09-1.88s-3,2.11-2.66,3.63,2.23,2.37,4.09,1.89S406.7,82,406.3,80.45Z"></path></g><g style="opacity:0.24"><path d="M200.5,97.27c-14.91,0-27,10.71-27,23.92a21.8,21.8,0,0,0,4.07,12.62c-7.16,1.29-12.56,6.87-12.56,13.57,0,7.65,7,13.85,15.72,13.85s15.72-6.2,15.72-13.85a12.31,12.31,0,0,0-.29-2.59,31,31,0,0,0,4.34.31c14.91,0,27-10.71,27-23.91S215.41,97.27,200.5,97.27Z"></path><ellipse cx="197.41" cy="77.6" rx="19.29" ry="18.9"></ellipse><ellipse cx="163.09" cy="56.38" rx="9.64" ry="7.71"></ellipse><ellipse cx="193.17" cy="29.77" rx="6.56" ry="5.79"></ellipse><path d="M157.94,19.45c-.49-1.86-2.71-2.89-5-2.3s-3.72,2.57-3.24,4.43,2.71,2.88,5,2.29S158.42,21.3,157.94,19.45Z"></path></g><g style="opacity:0.24"><path d="M435.23,309.69c-14.91,0-27,10.71-27,23.92a21.8,21.8,0,0,0,4.07,12.62c-7.17,1.29-12.56,6.88-12.56,13.57,0,7.65,7,13.85,15.72,13.85s15.71-6.2,15.71-13.85a12.38,12.38,0,0,0-.28-2.59,29.46,29.46,0,0,0,4.34.31c14.91,0,27-10.7,27-23.91S450.14,309.69,435.23,309.69Z"></path><ellipse cx="432.14" cy="290.02" rx="19.29" ry="18.9"></ellipse><ellipse cx="397.81" cy="268.81" rx="9.64" ry="7.71"></ellipse><path d="M427.9,248c3.62,0,6.56-2.59,6.56-5.79s-2.94-5.78-6.56-5.78-6.56,2.59-6.56,5.78S424.28,248,427.9,248Z"></path><path d="M392.66,231.87c-.48-1.85-2.71-2.88-5-2.29s-3.71,2.56-3.23,4.42,2.71,2.88,5,2.3S393.14,233.73,392.66,231.87Z"></path></g></g><g id="freepik--character-1--inject-5"><path d="M239.43,269.82c-2.05-2.38-3.71-4.87-4-7.4-.82-6.81-7.08-13.08-16.35-14.17s-7.63,3-14.17.27-14.71-8.72-24-2.45-7.63,12.8-4.09,15,.82,6-2.45,5.73-13.35,3.54-15.53,9,2.72,18.53-2.73,21.25-20.43-4.36-33.24,8.72-2.72,21.25-2.18,27-6.81,2.46-6,11.17,10.35,18.26,23.43,15.54,15-6.54,18-.28,18.8,18.8,32.15,13.08,17.44-8.45,21-7.36,18.8-3.81,22.07-8.44-.54-11.45,2.18-13.35,9-1.37,8.18-10.08,3.54-17.71,8.44-20.71,9.54-12,6-22.34-4.36-5.45-9-11.72C245.29,275.72,242,272.87,239.43,269.82Z" style="fill:#263238;stroke:#263238;stroke-linecap:round;stroke-linejoin:round"></path><path d="M200,347.93s-10.32-.48-15.84,0S138,362.33,138,362.33,97.21,389.6,99.87,393.05s5.52,4.56,10.32,4.56,49-7.44,49-7.44,3.84,36.24,4.08,40.32-12.72,43.2-12.72,43.2h90.24l4.56-41.28a52.84,52.84,0,0,0,8.4-15.84c2.88-9.12,7.2-39.36,7.2-39.36s54.24-7.68,59-12.24-16.8-20.88-22.56-23.28-27.84-.48-30.48-.48-6-1.44-19.68.48-31,5.28-31,5.28Z" style="fill:#EA8831;stroke:#263238;stroke-miterlimit:10"></path><path d="M198,335s-.48,11.28-1.44,14.4,21.84,30.24,25,29.76,9.6-25.2,10.08-27.84-1-16.56-1-16.56-4.08,9.36-13.44,7.44S198,335,198,335Z" style="fill:#fff;stroke:#263238;stroke-linecap:round;stroke-linejoin:round"></path><polygon points="200.14 337.19 198.47 349.36 217.09 349.84 200.14 337.19" style="fill:#263238;stroke:#263238;stroke-linecap:round;stroke-linejoin:round"></polygon><polyline points="264.13 363.55 260.91 377.21 269.55 361.85" style="fill:none;stroke:#263238;stroke-linecap:round;stroke-linejoin:round"></polyline><line x1="265.95" y1="355.85" x2="265.07" y2="359.59" style="fill:none;stroke:#263238;stroke-linecap:round;stroke-linejoin:round"></line><polyline points="151.95 377.21 159.15 390.17 149.31 380.57" style="fill:none;stroke:#263238;stroke-linecap:round;stroke-linejoin:round"></polyline><line x1="188.48" y1="443.33" x2="218.43" y2="432.65" style="fill:none;stroke:#263238;stroke-linecap:round;stroke-linejoin:round"></line><line x1="184.11" y1="444.89" x2="186.12" y2="444.17" style="fill:none;stroke:#263238;stroke-linecap:round;stroke-linejoin:round"></line><line x1="226.43" y1="433.25" x2="215.79" y2="437.93" style="fill:none;stroke:#263238;stroke-linecap:round;stroke-linejoin:round"></line><line x1="231.63" y1="430.97" x2="228.98" y2="432.13" style="fill:none;stroke:#263238;stroke-linecap:round;stroke-linejoin:round"></line><path d="M228.22,278.63s-3.51,1-7-3.13-4.69-1.76-7.23,3.91-7.24,12.32-13.68,8.6-8.41,3.91-8.8,6.65-7.37,16.54-6.62,19.31,1.54,10.78,3.49,14.89,24,22.48,31.08,22.08,8.76-2.65,15.8-14.77,8.86-23,5.31-38.39S228.22,278.63,228.22,278.63Z" style="fill:#fff;stroke:#263238;stroke-linecap:round;stroke-linejoin:round"></path><path d="M216.69,288.79s.59,7.63,1.37,8.6,4.1,3.72,2.93,5.67-5.86,3.52-5.86,3.52" style="fill:none;stroke:#263238;stroke-linecap:round;stroke-linejoin:round"></path><path d="M223.68,316.15a5.15,5.15,0,0,0-3.69-2.52,15,15,0,0,0-8.18,1c-5.48,2.35-5.09,8.41-4.89,14.07s7.23,12.71,12.9,11.14,7.62-8.4,6.64-15.24A23.51,23.51,0,0,0,223.68,316.15Z" style="fill:#263238;stroke:#263238;stroke-linecap:round;stroke-linejoin:round"></path><path d="M223,332.57c-1.18,2.93-5.67,3.91-7.82,3.13s-2.93-4.1-4.89-5.08-1.76,2.54-1.76,2.54l0,.34c2.43,4.08,7.22,7.43,11.31,6.3,4.64-1.28,6.79-6.09,6.88-11.55a4,4,0,0,0-1.6-.37C223.53,327.88,224.12,329.64,223,332.57Z" style="fill:#fff;stroke:#263238;stroke-linecap:round;stroke-linejoin:round"></path><path d="M211.81,317.91c3.12-1.36,4.88-1.75,8-1.17a22.58,22.58,0,0,0,4.35.32c-.17-.33-.33-.64-.49-.91a5.15,5.15,0,0,0-3.69-2.52,15,15,0,0,0-8.18,1,7.34,7.34,0,0,0-4.28,4.75A22.69,22.69,0,0,0,211.81,317.91Z" style="fill:#fff;stroke:#263238;stroke-linecap:round;stroke-linejoin:round"></path><ellipse cx="203.21" cy="297.2" rx="1.76" ry="3.13" style="fill:#263238"></ellipse><ellipse cx="225.1" cy="293.09" rx="1.76" ry="3.13" style="fill:#263238"></ellipse><path d="M198.52,290.75s4.3-4.5,8.6-1.57" style="fill:none;stroke:#263238;stroke-linecap:round;stroke-linejoin:round"></path><path d="M220,285.67s3.91-4.89,8-.59" style="fill:none;stroke:#263238;stroke-linecap:round;stroke-linejoin:round"></path><path d="M170.45,324s-4.14-17.17-4.74-20.33.4-6.91,1.19-9.28A41,41,0,0,1,172,284.16c2.57-3.55,4.15-1.77,3.75-.39s-3.75,5.72-4.14,7.3-.2,9.87-.2,9.87l4.34-11.84s5.53-10.07,7.31-9.48,1.18,2.37.59,3.16-4.74,11.45-4.74,11.45l-.79,7.9s5.92-11.65,6.71-13S190,280.21,191,282s-1,5.13-1,5.13l-6.32,13.63-.59,4.34a49.3,49.3,0,0,0,6.12-5.92c1.77-2.37,4.54-6.32,5.72-6.32s1.18,1.38.4,2.76-7.51,11.06-7.7,11.65-2.77,6.71-2.77,6.71,0,12-1.18,16.19-6.12,9.87-6.12,9.87-49.95,47.77-52.51,50.54-8.3,5.92-22.51,5.92-6.71-18.56,1.38-25.47S126,355.43,128,354.64s37.51-23.3,39.48-25.27A14.6,14.6,0,0,0,170.45,324Z" style="fill:#fff;stroke:#263238;stroke-linecap:round;stroke-linejoin:round"></path><path d="M237.37,275.08s4.74,4.34,6.52,7.5,4.93,14.81,4.93,14.81Z" style="fill:none;stroke:#263238;stroke-linecap:round;stroke-linejoin:round"></path><path d="M249.61,331.94s-8.68-5.53-8.09-12.44c.35-4.13-3.16-18.75-3.16-18.75s-9.47-16.59-8.49-18.36,2-.4,3,.19,9.28,14.22,9.28,14.22S239,285.54,237,282.39s-6.12-9.09-3.36-9.68,9.08,12.44,10.27,14.81S250,300,250.4,305.29s2.37,16.38,2.37,16.38,57.84,13.62,62.78,18.36,16,14.61,13,19.94-11.06,9.67-25.66,2-35.14-19.34-39.49-21.71S249.61,331.94,249.61,331.94Z" style="fill:#fff;stroke:#263238;stroke-linecap:round;stroke-linejoin:round"></path></g><g id="freepik--Floor--inject-5"><line x1="719.54" y1="473.69" x2="36.02" y2="473.69" style="fill:none;stroke:#263238;stroke-linecap:round;stroke-linejoin:round"></line></g></svg>
