<svg xmlns="http://www.w3.org/2000/svg" viewBox="0 0 500 500"><g id="freepik--Floor--inject-117"><path id="freepik--floor--inject-117" d="M88,266.71c-89.47,51.65-89.47,135.4,0,187.06s234.53,51.66,324,0,89.47-135.41,0-187.06S177.47,215.05,88,266.71Z" style="fill:#fafafa"></path></g><g id="freepik--Pictures--inject-117"><g id="freepik--pictures--inject-117"><g id="freepik--Picture--inject-117"><g id="freepik--Frame--inject-117"><polygon points="478.87 172.06 477.14 173.09 441.66 152.61 443.39 151.58 478.87 172.06" style="fill:#fafafa"></polygon><polygon points="443.39 151.58 477.14 171.06 477.14 135.72 443.39 116.25 443.39 151.58" style="fill:#fff"></polygon><path d="M438.4,154.49l42,24.25v-44.9l-42-24.26Zm3.26-39.25,35.48,20.48v37.37l-35.48-20.48Z" style="fill:#f0f0f0"></path><polygon points="441.66 152.61 443.39 151.58 443.39 116.25 441.66 115.24 441.66 152.61" style="fill:#e0e0e0"></polygon><polygon points="438.4 109.58 440.15 108.58 482.15 132.83 480.4 133.84 438.4 109.58" style="fill:#fafafa"></polygon><polygon points="482.15 132.83 480.4 133.84 480.4 178.74 482.15 177.74 482.15 132.83" style="fill:#e0e0e0"></polygon></g><g id="freepik--Land--inject-117"><polygon points="444.7 150.52 475.82 168.49 475.82 159.5 468.04 141.54 463.19 146.03 464.94 153.56 454.19 130.59 444.7 141.54 444.7 150.52" style="fill:#f0f0f0"></polygon><path d="M463.49,132.87a5.08,5.08,0,0,1,2.3,4c0,1.47-1,2.07-2.3,1.33a5.08,5.08,0,0,1-2.3-4C461.19,132.73,462.22,132.13,463.49,132.87Z" style="fill:#f0f0f0"></path></g></g><g id="freepik--picture--inject-117"><g id="freepik--frame--inject-117"><polygon points="427.79 142.47 426.04 143.51 390.22 122.83 391.96 121.78 427.79 142.47" style="fill:#fafafa"></polygon><polygon points="391.96 121.78 426.04 141.46 426.04 49.69 391.96 30.03 391.96 121.78" style="fill:#fff"></polygon><path d="M386.92,124.73l42.42,24.48V47.79L386.92,23.3ZM390.22,29,426,49.69v93.82l-35.82-20.68Z" style="fill:#f0f0f0"></path><polygon points="390.22 122.83 391.96 121.78 391.96 30.03 390.22 29.01 390.22 122.83" style="fill:#e0e0e0"></polygon><polygon points="386.92 23.3 388.7 22.29 431.11 46.77 429.34 47.79 386.92 23.3" style="fill:#fafafa"></polygon><polygon points="431.11 46.77 429.34 47.79 429.34 149.21 431.11 148.2 431.11 46.77" style="fill:#e0e0e0"></polygon></g><g id="freepik--land--inject-117"><polygon points="394.52 119.74 423.49 136.47 423.49 52.77 394.52 36.05 394.52 119.74" style="fill:#f0f0f0"></polygon></g><g id="freepik--land--inject-117"><polygon points="394.52 119.74 423.49 136.47 423.49 52.77 394.52 36.05 394.52 119.74" style="fill:#f0f0f0"></polygon></g><path d="M423.49,108.38a26,26,0,0,1-4.14,0,51.68,51.68,0,0,1-14.11-3.07c-3.51-1.29-7-3-10.72-3.07v17.54l3.92,2.27a13.31,13.31,0,0,1,5.38-3c5.58-1.47,11.31,1.34,17,2a23,23,0,0,0,2.63.13Z" style="fill:#fafafa"></path><path d="M423.49,87.94C417,86,410.36,84.43,405.73,79.68c-3.73-3.84-5.48-9.15-6.71-14.35S397,54.75,394.6,50a.64.64,0,0,1-.08-.14V83c.36.54.73,1.09,1.11,1.61,4.26,5.77,10.53,10.58,17.69,10.95,3.36.18,6.84-.61,10.17-.6Z" style="fill:#fafafa"></path><path d="M423.49,68.67a19.76,19.76,0,0,1-6.42-18c.09-.49.2-1,.33-1.45l-11.15-6.43c.05.73.08,1.47.1,2.2.12,4.25,0,8.56.92,12.71A25,25,0,0,0,420,74.14a23.68,23.68,0,0,0,3.53,1.47Z" style="fill:#fafafa"></path></g><g id="freepik--picture--inject-117"><g id="freepik--frame--inject-117"><polygon points="478.87 115.47 477.14 116.5 441.66 96.02 443.39 94.99 478.87 115.47" style="fill:#fafafa"></polygon><polygon points="443.39 94.99 477.14 114.47 477.14 79.13 443.39 59.66 443.39 94.99" style="fill:#fff"></polygon><path d="M438.4,97.9l42,24.25V77.24L438.4,53Zm3.26-39.26,35.48,20.49V116.5L441.66,96Z" style="fill:#f0f0f0"></path><polygon points="441.66 96.02 443.39 94.99 443.39 59.66 441.66 58.64 441.66 96.02" style="fill:#e0e0e0"></polygon><polygon points="438.4 52.99 440.15 51.99 482.15 76.24 480.4 77.24 438.4 52.99" style="fill:#fafafa"></polygon><polygon points="482.15 76.24 480.4 77.24 480.4 122.15 482.15 121.15 482.15 76.24" style="fill:#e0e0e0"></polygon></g><g id="freepik--land--inject-117"><polygon points="444.7 93.93 475.82 111.89 475.82 102.91 468.04 84.95 463.19 89.44 464.94 96.97 454.19 73.99 444.7 84.95 444.7 93.93" style="fill:#f0f0f0"></polygon><path d="M463.49,76.27a5.1,5.1,0,0,1,2.3,4c0,1.47-1,2.06-2.3,1.33a5.09,5.09,0,0,1-2.3-4C461.19,76.14,462.22,75.54,463.49,76.27Z" style="fill:#f0f0f0"></path></g></g></g></g><g id="freepik--Window--inject-117"><g id="freepik--window--inject-117"><g id="freepik--window--inject-117"><g id="freepik--frame--inject-117"><polygon points="173.54 34.57 176.82 36.41 176.82 138.93 173.54 137.1 173.54 34.57" style="fill:#fafafa"></polygon><polygon points="173.54 137.1 173.53 38.31 41.78 114.38 41.8 213.16 173.54 137.1" style="fill:#fff"></polygon><path d="M180.8,141.94V28.75l-143,82.56V224.5Zm-139,75V114.38l135-78V138.93Z" style="fill:#f0f0f0"></path><polygon points="176.82 138.93 173.54 137.1 41.8 213.16 41.78 216.9 176.82 138.93" style="fill:#e0e0e0"></polygon><polygon points="139.15 58.17 142.33 56.33 142.33 158.84 139.15 157.06 139.15 58.17" style="fill:#fafafa"></polygon><polygon points="67.27 99.67 70.46 97.83 70.46 200.33 67.27 198.55 67.27 99.67" style="fill:#fafafa"></polygon><polygon points="37.8 224.5 34.63 222.65 34.63 109.47 37.8 111.31 37.8 224.5" style="fill:#e0e0e0"></polygon><polygon points="34.63 109.47 37.8 111.31 180.8 28.75 177.63 26.91 34.63 109.47" style="fill:#fafafa"></polygon><polygon points="41.77 160.39 41.77 164.07 176.82 86.09 173.65 84.24 41.77 160.39" style="fill:#e0e0e0"></polygon></g><polygon points="41.78 169.34 41.77 164.07 176.82 86.09 176.81 91.38 41.78 169.34" style="fill:#f0f0f0"></polygon><polygon points="70.46 205.64 74.89 203.1 74.89 89.92 70.46 92.46 70.46 205.64" style="fill:#f0f0f0"></polygon><polygon points="142.34 164.14 146.76 161.6 146.76 48.42 142.33 50.96 142.34 164.14" style="fill:#f0f0f0"></polygon><polygon points="70.46 147.51 67.27 145.67 67.27 101.13 70.46 99.29 70.46 147.51" style="fill:#fafafa"></polygon><polygon points="142.31 106.02 139.13 104.18 139.13 59.64 142.31 57.8 142.31 106.02" style="fill:#fafafa"></polygon></g></g></g><g id="freepik--Shadows--inject-117"><path id="freepik--Shadow--inject-117" d="M375.34,276.48a2.19,2.19,0,0,0-.39-.29L311,239.28a3.65,3.65,0,0,0-3.24,0l-45.84,26.44.06,0L92.77,363.44l-.07,0L48.11,389.13c-1.66.95-1.71,2.48.21,3.45l62.51,36.08a3.71,3.71,0,0,0,3.31,0l216.68-125L375,278.14a1.15,1.15,0,0,0,.68-1A.94.94,0,0,0,375.34,276.48Z" style="fill:#e0e0e0"></path><path d="M375.63,276.19a57,57,0,0,0-5.17-3.05l-12.17-7-31.54-18.2L315,241.13c-1.84-1-4.09-2.91-6.33-2.58a7.89,7.89,0,0,0-2.64,1.2l-4.47,2.59-14.49,8.36c-8.31,4.79-16.85,9.33-25,14.42l-.47.27c-.35.2-.12.58.14.73l.05,0-.13-.73-11.28,6.51L221.87,288.4,184,310.24l-39.23,22.64L112.1,351.74,93.93,362.22a11.15,11.15,0,0,0-1.34.78l-.11.06h0s.63-.22.28-.08c-.09,0-.23,0-.34,0a5.38,5.38,0,0,0-.66.38L78.42,371.1c-10.15,5.86-20.53,11.44-30.5,17.6-2.19,1.35-1.67,3.14.34,4.31l2.79,1.6,14.11,8.15,37,21.37c2.79,1.61,5.54,3.4,8.41,4.86,2.06,1,3.59.18,5.27-.79l15.34-8.85,28.19-16.27,36.41-21,39.71-22.91,38.17-22,31.77-18.34L326,307l7.94-4.59,34.77-20.06,5.39-3.11c1.13-.65,2.75-1.4,1.61-2.92-.33-.43-1.15-.1-.75.42.74,1-2.29,2.24-2.8,2.54l-6.73,3.88L346.59,294l-17,9.81-13.87,8-26.9,15.52L253.4,347.76l-39.16,22.59-38.09,22-32.61,18.82L121.28,424l-5.84,3.38c-1.53.88-2.63,1.72-4.61.83-3.07-1.39-6-3.46-8.92-5.15L84.4,413l-33.08-19.1c-.9-.52-1.85-1-2.72-1.57-2.33-1.51-.43-2.64,1-3.47l14.13-8.15L93,363.79c.17-.1-.42,0-.37,0s.33.06.47,0l.06,0c.14-.06.26-.16.4-.23.62-.33,1.22-.71,1.83-1.06l7.53-4.34,27.21-15.71,37-21.33L206,298.65l33.45-19.3,20.13-11.61,2.74-1.59c.35-.2.12-.58-.14-.72l-.06,0,.14.73,20.8-12c8.18-4.72,16.27-9.65,24.56-14.18,2.24-1.22,3.77,0,5.65,1.09l10.19,5.89,30.75,17.75c6.75,3.89,13.67,7.58,20.28,11.7l.6.4C375.53,277.12,376.15,276.57,375.63,276.19Z" style="fill:#e0e0e0"></path><ellipse id="freepik--shadow--inject-117" cx="188.58" cy="431.22" rx="64.59" ry="37.29" style="fill:#e0e0e0"></ellipse><path d="M188.58,469c-16.64,0-33.27-3.66-45.93-11-12.36-7.13-19.17-16.65-19.17-26.8s6.81-19.67,19.17-26.8h0c25.32-14.62,66.53-14.62,91.85,0,12.36,7.13,19.17,16.65,19.17,26.8s-6.81,19.67-19.17,26.8C221.84,465.33,205.21,469,188.58,469Zm-45.43-63.71h0c-12,7-18.67,16.16-18.67,25.94s6.63,19,18.67,25.94c25,14.46,65.8,14.46,90.85,0,12-7,18.67-16.17,18.67-25.94s-6.63-19-18.67-25.94C209,390.82,168.2,390.82,143.15,405.28Z" style="fill:#e0e0e0"></path><ellipse id="freepik--shadow--inject-117" cx="386.92" cy="415" rx="74.28" ry="42.89" style="fill:#e0e0e0"></ellipse><path d="M386.92,458.35c-19.11,0-38.22-4.2-52.77-12.6-14.19-8.19-22-19.11-22-30.75s7.82-22.57,22-30.76c29.1-16.8,76.45-16.8,105.55,0,14.19,8.19,22,19.11,22,30.76s-7.81,22.56-22,30.75C425.15,454.15,406,458.35,386.92,458.35Zm0-85.73c-18.93,0-37.86,4.16-52.27,12.48-13.87,8-21.51,18.63-21.51,29.9s7.64,21.88,21.51,29.89c28.83,16.64,75.72,16.64,104.55,0,13.87-8,21.5-18.63,21.5-29.89s-7.63-21.89-21.5-29.9C424.79,376.78,405.85,372.62,386.92,372.62Z" style="fill:#e0e0e0"></path><path id="freepik--shadow--inject-117" d="M89.64,412.73c10.9,6.36,10.9,16.68,0,23s-28.58,6.36-39.48,0-10.9-16.69,0-23S78.74,406.37,89.64,412.73Z" style="fill:#e0e0e0"></path><path d="M69.9,441c-7.24,0-14.48-1.6-20-4.82s-8.42-7.42-8.42-12,3-8.78,8.42-11.95c11-6.44,29-6.44,40,0,5.43,3.17,8.42,7.42,8.42,11.95s-3,8.79-8.42,12S77.14,441,69.9,441Zm0-32.57c-7.06,0-14.11,1.57-19.48,4.7-5.12,3-7.93,6.93-7.93,11.09s2.81,8.11,7.93,11.09c10.74,6.28,28.22,6.28,39,0,5.12-3,7.93-6.92,7.93-11.09s-2.81-8.1-7.93-11.09C84,410,77,408.46,69.9,408.46Z" style="fill:#e0e0e0"></path></g><g id="freepik--bar-counter--inject-117"><g id="freepik--Bar--inject-117"><g id="freepik--Counter--inject-117"><polygon points="334.46 266.64 334.46 289.27 112.42 417.42 112.42 394.79 334.46 266.64" style="fill:#263238"></polygon><g id="freepik--counter--inject-117"><g id="freepik--bar--inject-117"><g id="freepik--Table--inject-117"><polygon points="112.42 417.42 59.69 386.99 59.69 364.36 112.42 394.79 112.42 417.42"></polygon><polygon points="344.26 141.65 344.26 272.32 112.42 406.11 112.42 275.44 344.26 141.65" style="fill:#455a64"></polygon><path d="M336.24,155.55V267.68L120.44,392.21V280.08l215.8-124.53m2-3.47L118.44,278.92V395.68L338.24,268.84V152.08Z" style="fill:#37474f"></path><polygon points="112.42 406.11 49.9 370.01 49.9 253.87 112.42 275.44 112.42 406.11" style="fill:#37474f"></polygon></g></g></g></g><path d="M110.77,297.8,46.89,260.92a3.67,3.67,0,0,1-1.65-2.87V255.9A3.66,3.66,0,0,1,46.89,253L302,105.86a3.64,3.64,0,0,1,3.31,0l63.88,36.88a3.66,3.66,0,0,1,1.65,2.86v2.15a3.67,3.67,0,0,1-1.65,2.87L114.08,297.8A3.71,3.71,0,0,1,110.77,297.8Z" style="fill:#FF6200"></path><path d="M110.77,297.8,46.89,260.92a3.67,3.67,0,0,1-1.65-2.87V255.9A3.66,3.66,0,0,1,46.89,253L302,105.86a3.64,3.64,0,0,1,3.31,0l63.88,36.88a3.66,3.66,0,0,1,1.65,2.86v2.15a3.67,3.67,0,0,1-1.65,2.87L114.08,297.8A3.71,3.71,0,0,1,110.77,297.8Z" style="fill:#fff;opacity:0.7000000000000001"></path><path d="M112.42,238l-18-10.41a3.64,3.64,0,0,0-3.31,0L46.89,253.05a3.65,3.65,0,0,0-1.65,2.86v2.15a3.63,3.63,0,0,0,1.65,2.86l64,36.9a3.13,3.13,0,0,0,1.58.37Z" style="fill:#FF6200;opacity:0.5"></path><path d="M369.54,143a3.27,3.27,0,0,0-.39-.29L305.2,105.83a3.68,3.68,0,0,0-3.25,0L256.12,132.3l.06,0L92.77,226.65l-.07,0L48.11,252.34c-1.66.95-1.71,2.48.21,3.45l62.51,36.08a3.71,3.71,0,0,0,3.31,0L325,170.17l44.17-25.48a1.18,1.18,0,0,0,.69-1A1,1,0,0,0,369.54,143Z" style="fill:#FF6200"></path><g style="opacity:0.9"><path d="M369.54,143a3.27,3.27,0,0,0-.39-.29L305.2,105.83a3.68,3.68,0,0,0-3.25,0L256.12,132.3l.06,0L92.77,226.65l-.07,0L48.11,252.34c-1.66.95-1.71,2.48.21,3.45l62.51,36.08a3.71,3.71,0,0,0,3.31,0L325,170.17l44.17-25.48a1.18,1.18,0,0,0,.69-1A1,1,0,0,0,369.54,143Z" style="fill:#fff"></path></g></g></g><g id="freepik--Cocktail--inject-117"><g id="freepik--cocktail--inject-117"><path id="freepik--shadow--inject-117" d="M115.7,264.25c-4.78,2.65-12.51,2.65-17.29,0s-4.77-6.94,0-9.59,12.51-2.65,17.29,0S120.47,261.6,115.7,264.25Z" style="fill:#FF6200;opacity:0.30000000000000004"></path><g id="freepik--Glass--inject-117"><g id="freepik--glass--inject-117"><path d="M116.38,231l-.83,24.14h0a2.85,2.85,0,0,1-.26,1.05,5,5,0,0,1-2.23,2.21,13.69,13.69,0,0,1-12,0,5,5,0,0,1-2.23-2.21,2.72,2.72,0,0,1-.24-.92h0a.82.82,0,0,1,0-.27h0l-.82-24a3.73,3.73,0,0,1-.7-2l1,29.24v.3a4.64,4.64,0,0,0,2.63,3.44,14.11,14.11,0,0,0,12.75,0c1.72-1,2.6-2.29,2.64-3.59v-.09l1-29.3A3.85,3.85,0,0,1,116.38,231Z" style="fill:#FF6200"></path><path d="M116.38,231l-.83,24.14h0a2.85,2.85,0,0,1-.26,1.05,5,5,0,0,1-2.23,2.21,13.69,13.69,0,0,1-12,0,5,5,0,0,1-2.23-2.21,2.72,2.72,0,0,1-.24-.92h0a.82.82,0,0,1,0-.27h0l-.82-24a3.73,3.73,0,0,1-.7-2l1,29.24v.3a4.64,4.64,0,0,0,2.63,3.44,14.11,14.11,0,0,0,12.75,0c1.72-1,2.6-2.29,2.64-3.59v-.09l1-29.3A3.85,3.85,0,0,1,116.38,231Z" style="fill:#fff;opacity:0.8300000000000001"></path><path d="M114.14,232.93a15.63,15.63,0,0,1-14.16,0,6.68,6.68,0,0,1-2.23-2l.82,24h0v.27h0a2.72,2.72,0,0,0,.24.92,5,5,0,0,0,2.23,2.21,13.69,13.69,0,0,0,12,0,5,5,0,0,0,2.23-2.21,2.85,2.85,0,0,0,.26-1.05h0l.83-24.14A6.76,6.76,0,0,1,114.14,232.93Z" style="fill:#FF6200"></path><path d="M114.14,232.93a15.63,15.63,0,0,1-14.16,0,6.68,6.68,0,0,1-2.23-2l.82,24h0v.27h0a2.72,2.72,0,0,0,.24.92,5,5,0,0,0,2.23,2.21,13.69,13.69,0,0,0,12,0,5,5,0,0,0,2.23-2.21,2.85,2.85,0,0,0,.26-1.05h0l.83-24.14A6.76,6.76,0,0,1,114.14,232.93Z" style="fill:#fff;opacity:0.7000000000000001"></path><path d="M98.57,255.18c.07,1.16.9,2.3,2.48,3.19a13.69,13.69,0,0,0,12,0c1.58-.89,2.41-2,2.48-3.19l.71-20.61c.07-1.36-.82-2.74-2.69-3.77a14.9,14.9,0,0,0-13,0c-1.87,1-2.77,2.41-2.69,3.77Z" style="fill:#FF6200"></path><path d="M101.05,258.37a13.69,13.69,0,0,0,12,0c3.32-1.86,3.32-4.87,0-6.72a13.62,13.62,0,0,0-12,0C97.73,253.5,97.73,256.51,101.05,258.37Z" style="opacity:0.05"></path><path d="M98.57,255.18c.07,1.16.9,2.3,2.48,3.19a13.69,13.69,0,0,0,12,0c1.58-.89,2.41-2,2.48-3.19l.71-20.61c.07-1.36-.82-2.74-2.69-3.77a14.9,14.9,0,0,0-13,0c-1.87,1-2.77,2.41-2.69,3.77Z" style="fill:#fff;opacity:0.15"></path><path d="M100.56,238a14.9,14.9,0,0,0,13,0c3.59-2,3.59-5.22,0-7.21a14.9,14.9,0,0,0-13,0C97,232.79,97,236,100.56,238Z" style="fill:#fff;opacity:0.4"></path><path d="M113.56,238a15.11,15.11,0,0,1-11.46.69c5,.86,9.61-1.45,9.2-4.42a1.08,1.08,0,0,0,0-.19,12.23,12.23,0,0,0,2.87-1.16,9.62,9.62,0,0,0,1.15-.79C117,234,116.42,236.42,113.56,238Z" style="fill:#FF6200;opacity:0.2"></path><path d="M114.14,224.76a15.63,15.63,0,0,0-14.16,0c-2,1.16-3,2.7-2.93,4.22a3.73,3.73,0,0,0,.7,2,6.68,6.68,0,0,0,2.23,2,15.63,15.63,0,0,0,14.16,0,6.76,6.76,0,0,0,2.24-2,3.85,3.85,0,0,0,.69-2v0C117.11,227.43,116.14,225.91,114.14,224.76Zm-.45,7.76a15.22,15.22,0,0,1-13.27,0c-3.66-2-3.66-5.32,0-7.36a15.22,15.22,0,0,1,13.27,0C117.35,227.2,117.35,230.49,113.69,232.52Z" style="fill:#FF6200"></path><path d="M114.14,224.76a15.63,15.63,0,0,0-14.16,0c-2,1.16-3,2.7-2.93,4.22a3.73,3.73,0,0,0,.7,2,6.68,6.68,0,0,0,2.23,2,15.63,15.63,0,0,0,14.16,0,6.76,6.76,0,0,0,2.24-2,3.85,3.85,0,0,0,.69-2v0C117.11,227.43,116.14,225.91,114.14,224.76Zm-.45,7.76a15.22,15.22,0,0,1-13.27,0c-3.66-2-3.66-5.32,0-7.36a15.22,15.22,0,0,1,13.27,0C117.35,227.2,117.35,230.49,113.69,232.52Z" style="fill:#fff;opacity:0.88"></path><path d="M113.69,232.52a15.22,15.22,0,0,1-13.27,0c-3.66-2-3.66-5.32,0-7.36a15.22,15.22,0,0,1,13.27,0C117.35,227.2,117.35,230.49,113.69,232.52Z" style="fill:#FF6200"></path><path d="M113.69,232.52a15.22,15.22,0,0,1-13.27,0c-3.66-2-3.66-5.32,0-7.36a15.22,15.22,0,0,1,13.27,0C117.35,227.2,117.35,230.49,113.69,232.52Z" style="fill:#fff;opacity:0.7000000000000001"></path><path d="M99.24,231.72a7.83,7.83,0,0,0,1.18.8,15.22,15.22,0,0,0,13.27,0,7.83,7.83,0,0,0,1.18-.8,6.73,6.73,0,0,0-1.31-.92,14.9,14.9,0,0,0-13,0A6.82,6.82,0,0,0,99.24,231.72Z" style="fill:#FF6200"></path><path d="M99.24,231.72a7.83,7.83,0,0,0,1.18.8,15.22,15.22,0,0,0,13.27,0,7.83,7.83,0,0,0,1.18-.8,6.73,6.73,0,0,0-1.31-.92,14.9,14.9,0,0,0-13,0A6.82,6.82,0,0,0,99.24,231.72Z" style="fill:#fff;opacity:0.35000000000000003"></path><path d="M100.56,230.8a3.65,3.65,0,0,1,.34-.18h0l.56-.26a13.59,13.59,0,0,1,3.33-.89l1-.11.83,0h.46l.88,0a14.68,14.68,0,0,1,3,.45,10.9,10.9,0,0,1,2.63,1l.35.21.07,0,.27.18,0,0,.28.21v0a3.11,3.11,0,0,1,.28.23,7.83,7.83,0,0,1-1.18.8,11.54,11.54,0,0,1-2.6,1C109.94,231,104.81,229.53,100.56,230.8Z" style="opacity:0.03"></path><path d="M115.5,256.38l0,1.67v.12c-.11,2.47-3.82,4.46-8.39,4.46s-8.25-2-8.39-4.44V258l-.06-1.67c.45,2.32,4.07,4.14,8.46,4.14S115,258.7,115.5,256.38Z" style="fill:#FF6200;opacity:0.1"></path></g><g id="freepik--Ice--inject-117"><path d="M105.52,241l-1.77,2.89a.7.7,0,0,1-.57.34l-3.67-.33c-.19,0-.24-.2-.11-.4l1.77-2.89a.7.7,0,0,1,.57-.34l3.67.33C105.6,240.63,105.64,240.81,105.52,241Z" style="fill:#fff;opacity:0.5"></path><path d="M106.54,244.78l-1.77,2.89a.88.88,0,0,1-.26.25l-1-3.77a.81.81,0,0,0,.27-.25l1.77-2.89c.12-.19.08-.36-.08-.4a.5.5,0,0,1,.38.32l.87,3.19A1,1,0,0,1,106.54,244.78Z" style="fill:#fff;opacity:0.4"></path><path d="M104.51,247.92l-.15.07h-.16l-3.67-.33a.48.48,0,0,1-.41-.32l-.87-3.2a.94.94,0,0,1,.12-.6c-.09.18,0,.33.14.35l3.67.33a.45.45,0,0,0,.3-.09Z" style="fill:#fff;opacity:0.30000000000000004"></path><path d="M109.47,251.9l-3,1a.64.64,0,0,1-.61-.1l-2.42-2.42c-.13-.13,0-.28.16-.36l3-1a.64.64,0,0,1,.61.09l2.42,2.43C109.76,251.67,109.68,251.83,109.47,251.9Z" style="fill:#fff;opacity:0.5"></path><path d="M108.06,255.68l-3,1a.78.78,0,0,1-.34,0l1.41-3.78a.77.77,0,0,0,.34,0l3-1c.2-.07.28-.21.18-.33a.45.45,0,0,1,.09.45l-1.18,3.28A.92.92,0,0,1,108.06,255.68Z" style="fill:#fff;opacity:0.4"></path><path d="M104.73,256.71l-.14,0h0l-.07,0,0,0L102,254.17a.49.49,0,0,1-.11-.48l1.19-3.28a.85.85,0,0,1,.45-.36c-.18.08-.23.22-.11.34l2.42,2.42a.45.45,0,0,0,.27.12Z" style="fill:#fff;opacity:0.30000000000000004"></path><path d="M114.61,246.92l-3.16-.79a.62.62,0,0,1-.37-.46l-.66-3.06c0-.21,0-.35.21-.31l3.15.79a.65.65,0,0,1,.38.46l.66,3.06C114.86,246.82,114.77,247,114.61,246.92Z" style="fill:#fff;opacity:0.4"></path><path d="M112.37,250l-3.16-.79A.48.48,0,0,1,109,249l2.24-3a.45.45,0,0,0,.23.17l3.16.79c.15,0,.24-.09.21-.28a.87.87,0,0,1-.07.57l-2,2.6A.42.42,0,0,1,112.37,250Z" style="fill:#fff;opacity:0.30000000000000004"></path><path d="M109,249a.57.57,0,0,1-.08-.13l0,0,0-.08s0,0,0,0l-.66-3.06a.89.89,0,0,1,.06-.6l2-2.6a.44.44,0,0,1,.4-.16c-.14,0-.21.13-.17.32l.66,3.06a.61.61,0,0,0,.14.29Z" style="fill:#fff;opacity:0.5"></path></g><g id="freepik--orange--inject-117"><path d="M117.86,226.63a11.71,11.71,0,0,1-.85,1.57,4.5,4.5,0,0,0-.17-.6,5,5,0,0,0-1.21-1.75,7.75,7.75,0,0,0-1.15-.89l-.57.34v5.81h0l-.13.06-.32.14-.17.05-.16.06h0l-.16,0h0l-.46.09h0l-.16,0a3.62,3.62,0,0,1-1.14-.09,4.34,4.34,0,0,1-.47-.16l0,0-1.22-.53a3.12,3.12,0,0,1-.76-.47l-.12-.1-.09-.09-.1-.11-.09-.1,0,0c0-.07-.11-.14-.16-.22a.64.64,0,0,1-.1-.13l-.07-.12a1,1,0,0,1-.08-.14s0-.09-.08-.14,0-.09-.07-.14l-.06-.15-.06-.13-.06-.17-.06-.16a1.05,1.05,0,0,1-.05-.19,2.81,2.81,0,0,1-.08-.31,3.4,3.4,0,0,1-.07-.34l0-.17a1.23,1.23,0,0,0,0-.19c0-.06,0-.12,0-.18s0-.12,0-.19v-.19a1.15,1.15,0,0,1,0-.19,9.9,9.9,0,0,1,.88-4.11c1.59-3.64,4.8-5.75,7.17-4.71l1.26.55C118.81,219.2,119.45,223,117.86,226.63Z" style="fill:#FF6200"></path><path d="M113.91,230.35v.76h0l-.13.06-.32.14-.17.05-.16.06h0l-.16,0h0l-.46.09h0l-.16,0a3.62,3.62,0,0,1-1.14-.09,4.34,4.34,0,0,1-.47-.16l0,0-1.22-.53a3.12,3.12,0,0,1-.76-.47l-.12-.1-.09-.09-.1-.11-.09-.1,0,0c0-.07-.11-.14-.16-.22a.64.64,0,0,1-.1-.13l-.07-.12a1,1,0,0,1-.08-.14s0-.09-.08-.14,0-.09-.07-.14l-.06-.15-.06-.13-.06-.17-.06-.16a1.05,1.05,0,0,1-.05-.19,2.81,2.81,0,0,1-.08-.31,3.4,3.4,0,0,1-.07-.34l0-.17a1.23,1.23,0,0,0,0-.19c0-.06,0-.12,0-.18s0-.12,0-.19v-.19a1.15,1.15,0,0,1,0-.19l1.27.74.85.49,1.79,1,.31.18,1.63.94.3.18Z" style="opacity:0.1"></path><path d="M117.86,226.63a11.71,11.71,0,0,1-.85,1.57,4.5,4.5,0,0,0-.17-.6,5,5,0,0,0-1.21-1.75,7.75,7.75,0,0,0-1.15-.89l-.57.34v5.81h0l-.13.06-.32.14-.17.05-.16.06h0l-.16,0h0l-.46.09h0l-.16,0a3.62,3.62,0,0,1-1.14-.09,4.34,4.34,0,0,1-.47-.16l0,0c-1.39-.63-2.17-2.21-2.24-4.14a9.85,9.85,0,0,1,.87-4.3c1.59-3.64,4.8-5.75,7.17-4.71S119.45,223,117.86,226.63Z" style="fill:#fff;opacity:0.9500000000000001"></path><path d="M117,220.62c.4-.55.38-1.3,0-1.53l-.25-.12-.27-.11c-.45-.14-1,.36-1.14,1l-.68,3.85c0,.2.14.27.25.11Z" style="fill:#FF6200"></path><path id="freepik--mascara--inject-117" d="M117.64,223a1.7,1.7,0,0,0,.67-1.42c0-.16,0-.32-.08-.48a2.83,2.83,0,0,0-.12-.44c-.14-.41-.58-.31-.92.21l-2.25,3.43c-.11.16-.07.35,0,.27Z" style="fill:#FF6200"></path><path d="M116.89,225.9c.32.13.79-.33,1-1,0-.12.07-.25.1-.37s.06-.25.08-.37c.13-.61-.14-1-.55-.72l-2.2,1.31c-.12.07-.18.32-.09.36Z" style="fill:#FF6200"></path><path d="M116.84,227.6a5,5,0,0,0-1.21-1.75l1.18.52C117.1,226.49,117.11,227.08,116.84,227.6Z" style="fill:#FF6200"></path><path d="M113.91,227.45v3.19l-.11.06c-.39.19-.63-.16-.52-.71,0,0,0-.07,0-.1Z" style="fill:#FF6200"></path><path id="freepik--mascara--inject-117" d="M111,229.28c-.36.5-.37,1.19,0,1.42a2.24,2.24,0,0,0,.4.22,3.66,3.66,0,0,0,.43.15c.42.11.93-.37,1-1l1-4.09c0-.18-.13-.25-.24-.1Z" style="fill:#FF6200"></path><path d="M112.88,225.79l-2.95,1.12a1.29,1.29,0,0,0-.71,1.52,2,2,0,0,0,.12.34,2.92,2.92,0,0,0,.14.31c.25.52.89.49,1.3-.05L113,226.1C113.12,225.94,113,225.72,112.88,225.79Z" style="fill:#FF6200"></path><path id="freepik--mascara--inject-117" d="M110.47,223.59c-.43-.18-1,.21-1.15.81,0,.22-.1.43-.14.65s-.07.42-.09.63c-.06.61.35,1,.85.82l3.32-1.29c.15-.06.19-.31.06-.37Z" style="fill:#FF6200"></path><path d="M112.19,221.17c-.22-.52-.85-.55-1.26-.07-.08.1-.17.2-.24.3l-.24.31a1,1,0,0,0,.2,1.46l2.51,1.09c.14.06.29-.14.23-.29Z" style="fill:#FF6200"></path><path id="freepik--mascara--inject-117" d="M114.94,219.61c.12-.66-.27-1.15-.8-1a5.05,5.05,0,0,0-.55.18,4.34,4.34,0,0,0-.54.25,1.33,1.33,0,0,0-.61,1.55l1.4,3.52c.06.16.28.08.31-.12Z" style="fill:#FF6200"></path><g style="opacity:0.45"><path d="M117,220.62c.4-.55.38-1.3,0-1.53l-.25-.12-.27-.11c-.45-.14-1,.36-1.14,1l-.68,3.85c0,.2.14.27.25.11Z" style="fill:#fff"></path><path id="freepik--mascara--inject-117" d="M117.64,223a1.7,1.7,0,0,0,.67-1.42c0-.16,0-.32-.08-.48a2.83,2.83,0,0,0-.12-.44c-.14-.41-.58-.31-.92.21l-2.25,3.43c-.11.16-.07.35,0,.27Z" style="fill:#fff"></path><path d="M116.89,225.9c.32.13.79-.33,1-1,0-.12.07-.25.1-.37s.06-.25.08-.37c.13-.61-.14-1-.55-.72l-2.2,1.31c-.12.07-.18.32-.09.36Z" style="fill:#fff"></path><path d="M116.84,227.6a5,5,0,0,0-1.21-1.75l1.18.52C117.1,226.49,117.11,227.08,116.84,227.6Z" style="fill:#fff"></path><path d="M113.91,227.45v3.19l-.11.06c-.39.19-.63-.16-.52-.71,0,0,0-.07,0-.1Z" style="fill:#fff"></path><path id="freepik--mascara--inject-117" d="M111,229.28c-.36.5-.37,1.19,0,1.42a2.24,2.24,0,0,0,.4.22,3.66,3.66,0,0,0,.43.15c.42.11.93-.37,1-1l1-4.09c0-.18-.13-.25-.24-.1Z" style="fill:#fff"></path><path d="M112.88,225.79l-2.95,1.12a1.29,1.29,0,0,0-.71,1.52,2,2,0,0,0,.12.34,2.92,2.92,0,0,0,.14.31c.25.52.89.49,1.3-.05L113,226.1C113.12,225.94,113,225.72,112.88,225.79Z" style="fill:#fff"></path><path id="freepik--mascara--inject-117" d="M110.47,223.59c-.43-.18-1,.21-1.15.81,0,.22-.1.43-.14.65s-.07.42-.09.63c-.06.61.35,1,.85.82l3.32-1.29c.15-.06.19-.31.06-.37Z" style="fill:#fff"></path><path d="M112.19,221.17c-.22-.52-.85-.55-1.26-.07-.08.1-.17.2-.24.3l-.24.31a1,1,0,0,0,.2,1.46l2.51,1.09c.14.06.29-.14.23-.29Z" style="fill:#fff"></path><path id="freepik--mascara--inject-117" d="M114.94,219.61c.12-.66-.27-1.15-.8-1a5.05,5.05,0,0,0-.55.18,4.34,4.34,0,0,0-.54.25,1.33,1.33,0,0,0-.61,1.55l1.4,3.52c.06.16.28.08.31-.12Z" style="fill:#fff"></path></g><path d="M111.15,231.5a3.62,3.62,0,0,0,1.14.09l.16,0h0l.46-.09h0l.16,0h0l.16-.06.17-.05.32-.14.13-.06h0V225.3l-3.19,6A3.66,3.66,0,0,0,111.15,231.5Z" style="opacity:0.07"></path></g><g id="freepik--Umbrella--inject-117"><path d="M85.05,220.49a15.86,15.86,0,0,1,6-.57,51.1,51.1,0,0,1,8-2.77l-1.22-3.23L96,209.13C91.3,212,87.83,214.77,85.05,220.49Z" style="fill:#FF6200"></path><path d="M85.05,220.49a15.86,15.86,0,0,1,6-.57,51.1,51.1,0,0,1,8-2.77l-1.22-3.23L96,209.13C91.3,212,87.83,214.77,85.05,220.49Z" style="opacity:0.15"></path><path d="M85.05,220.49a15.86,15.86,0,0,1,6-.57c-.09-5,1.85-8.64,4.58-10.56A35.76,35.76,0,0,0,85.05,220.49Z" style="fill:#e0e0e0"></path><path d="M97.83,213.92l.37,1a17.73,17.73,0,0,0-7.06,3.39,16.57,16.57,0,0,0-6.09,2.2S89,215.77,97.83,213.92Z" style="opacity:0.15"></path><path d="M111.77,210.38a15.83,15.83,0,0,0-4.91,3.57,51,51,0,0,0-7.81,3.2l-1.22-3.23L96,209.13C101.47,208.19,105.9,207.93,111.77,210.38Z" style="fill:#FF6200"></path><path d="M111.77,210.38a15.83,15.83,0,0,0-4.91,3.57,51,51,0,0,0-7.81,3.2l-1.22-3.23L96,209.13C101.47,208.19,105.9,207.93,111.77,210.38Z" style="fill:#e0e0e0"></path><path d="M111.77,210.38a15.83,15.83,0,0,0-4.91,3.57c-3.24-3.81-7.1-5.25-10.42-4.88A35.72,35.72,0,0,1,111.77,210.38Z" style="fill:#FF6200"></path><path d="M111.77,210.38a15.83,15.83,0,0,0-4.91,3.57c-3.24-3.81-7.1-5.25-10.42-4.88A35.72,35.72,0,0,1,111.77,210.38Z" style="opacity:0.15"></path><path d="M97.83,213.92l.37,1a17.88,17.88,0,0,1,7.55-2.14,16.48,16.48,0,0,1,6-2.38S105.67,209.46,97.83,213.92Z" style="opacity:0.15"></path><path d="M96,209.38l12.21,36.26a.17.17,0,0,0,.13.09.49.49,0,0,0,.41-.14.15.15,0,0,0,0-.15L96.54,209.18Z" style="fill:#455a64"></path><path d="M96.22,209.36l0,0,.06,0,.05,0c.07-.05,0-.07,0-.12l-.13-.34c-.1-.29-.25-.67-.41-1-.07-.19-.16-.38-.24-.55s-.07-.17-.11-.25l-.11-.22c0-.07-.07-.13-.1-.19a.91.91,0,0,0-.07-.14l-.07-.13s0,.05,0,.14l0,.16c0,.06,0,.13,0,.21s0,.15.06.24,0,.17.06.27.1.38.15.58c.11.39.23.77.33,1.06l.12.35s0,.09.08.08h.18Z" style="fill:#455a64"></path><path d="M85.05,220.49a17,17,0,0,1,5.7-2.88,16.58,16.58,0,0,1,7.34-3L96,209.13A24.65,24.65,0,0,0,85.05,220.49Z" style="fill:#FF6200"></path><path d="M90.75,217.61a16.58,16.58,0,0,1,7.34-3L96,209.13c-1.67,1.07-3,3.22-3.88,5.06A25.12,25.12,0,0,0,90.75,217.61Z" style="fill:#fafafa"></path><path d="M111.75,210.38a17.16,17.16,0,0,0-6.17,1.62,16.53,16.53,0,0,0-7.49,2.6L96,209.13A24.59,24.59,0,0,1,111.75,210.38Z" style="fill:#fafafa"></path><path d="M105.58,212a16.53,16.53,0,0,0-7.49,2.6L96,209.13c2-.31,4.37.44,6.27,1.22A24.82,24.82,0,0,1,105.58,212Z" style="fill:#FF6200"></path></g><path d="M108.76,245.44l-3.68-10.93-.68-.09,3.78,11.22a.17.17,0,0,0,.13.09.49.49,0,0,0,.41-.14A.15.15,0,0,0,108.76,245.44Z" style="fill:#fff;opacity:0.30000000000000004"></path><path d="M105.08,234.51l-.21-.61-.68-.1.21.62Z" style="fill:#fff;opacity:0.5"></path></g></g></g><g id="freepik--Plant--inject-117"><g id="freepik--plant--inject-117"><g id="freepik--Pot--inject-117"><path d="M53.74,424.51C45.1,415.6,40,393.18,48.45,386.1h42.9c8.42,7.07,3.35,29.48-5.29,38.4-.07.09-.16.17-.23.25l-.3.29c-.24.24-.5.48-.78.71l-.21.16c-.21.17-.42.34-.65.5a12.46,12.46,0,0,1-1.12.72c-7.11,4.15-18.63,4.15-25.74,0h0a11.86,11.86,0,0,1-1.12-.73c-.22-.15-.41-.3-.61-.46l-.25-.2c-.27-.22-.52-.45-.76-.68l-.34-.34Z" style="fill:#37474f"></path><path d="M87.62,383.25c9.79,5.72,9.79,15,0,20.7S62,409.66,52.18,404s-9.79-15,0-20.7S77.83,377.54,87.62,383.25Z" style="fill:#455a64"></path><path d="M82.91,386c7.19,4.2,7.19,11,0,15.2s-18.84,4.19-26,0-7.19-11,0-15.2S75.73,381.8,82.91,386Z" style="fill:#263238"></path><path d="M56.89,393.21c7.18-4.19,18.84-4.19,26,0a12.09,12.09,0,0,1,4.31,4,12,12,0,0,1-4.31,4c-7.18,4.19-18.84,4.19-26,0a12,12,0,0,1-4.31-4A12.09,12.09,0,0,1,56.89,393.21Z" style="fill:#fafafa"></path></g><path d="M66.86,357.16c-3.29,3.56-12.42,4.54-16.2-5.09-3.55-9-7.38-17.58-8.47-20.89a3.41,3.41,0,0,1,2.18-4.41s.26-4.95,8.66-1.59,14.34,8.46,18,16.7S72.49,356.05,66.86,357.16Z" style="fill:#FF6200"></path><path d="M66.86,357.16c-3.29,3.56-12.42,4.54-16.2-5.09-3.55-9-7.38-17.58-8.47-20.89a3.41,3.41,0,0,1,2.18-4.41s.26-4.95,8.66-1.59,14.34,8.46,18,16.7S72.49,356.05,66.86,357.16Z" style="fill:#fff;opacity:0.45"></path><path d="M70.5,369.88a45,45,0,0,0-.73-5A69.47,69.47,0,0,0,67,355.18a71.16,71.16,0,0,0-9.74-18,61.9,61.9,0,0,0-7.65-8.68c-.09-.08-.15.11-.1.17a76,76,0,0,1,12,16.57A77.1,77.1,0,0,1,68.42,364c.41,1.83.8,3.66,1.14,5.51s.54,3.77.85,5.64c0,.19.32.3.34.05A35.57,35.57,0,0,0,70.5,369.88Z" style="fill:#FF6200"></path><path d="M70.5,369.88a45,45,0,0,0-.73-5A69.47,69.47,0,0,0,67,355.18a71.16,71.16,0,0,0-9.74-18,61.9,61.9,0,0,0-7.65-8.68c-.09-.08-.15.11-.1.17a76,76,0,0,1,12,16.57A77.1,77.1,0,0,1,68.42,364c.41,1.83.8,3.66,1.14,5.51s.54,3.77.85,5.64c0,.19.32.3.34.05A35.57,35.57,0,0,0,70.5,369.88Z" style="opacity:0.30000000000000004"></path><path d="M73.31,354.66c-7.55,2.34-13.16-3.56-11.22-12.8s11.65-19.49,15.31-16.73c2.29-2.29,7.34-1.47,9.71,6S87.32,357.93,73.31,354.66Z" style="fill:#FF6200"></path><path d="M73.31,354.66c-7.55,2.34-13.16-3.56-11.22-12.8s11.65-19.49,15.31-16.73c2.29-2.29,7.34-1.47,9.71,6S87.32,357.93,73.31,354.66Z" style="fill:#fff;opacity:0.25"></path><path d="M77.73,330.75a101.47,101.47,0,0,0-5,16.6,161.59,161.59,0,0,0-2.92,17.38,272.79,272.79,0,0,0-1.51,34.06v.85a1,1,0,0,0,1,1h0a1,1,0,0,0,1-1c0-5.23,0-10.47.12-15.69a236.59,236.59,0,0,1,3-34c.54-3.13,1.14-6.25,1.87-9.35s1.71-6.46,2.56-9.69C78,330.74,77.81,330.57,77.73,330.75Z" style="fill:#FF6200"></path><path d="M77.73,330.75a101.47,101.47,0,0,0-5,16.6,161.59,161.59,0,0,0-2.92,17.38,272.79,272.79,0,0,0-1.51,34.06v.85a1,1,0,0,0,1,1h0a1,1,0,0,0,1-1c0-5.23,0-10.47.12-15.69a236.59,236.59,0,0,1,3-34c.54-3.13,1.14-6.25,1.87-9.35s1.71-6.46,2.56-9.69C78,330.74,77.81,330.57,77.73,330.75Z" style="opacity:0.30000000000000004"></path><path d="M59.33,368.65c-2.6,4.25-10.1,5.23-16.25-.46s-13.46-29.83-6.16-29.49c.91-3.55,21.71.95,27,16.62C67.81,366.7,59.33,368.65,59.33,368.65Z" style="fill:#FF6200"></path><path d="M59.33,368.65c-2.6,4.25-10.1,5.23-16.25-.46s-13.46-29.83-6.16-29.49c.91-3.55,21.71.95,27,16.62C67.81,366.7,59.33,368.65,59.33,368.65Z" style="fill:#fff;opacity:0.25"></path><path d="M67.18,379.29A37.62,37.62,0,0,0,65.44,375q-2-4.32-4.46-8.42A95.54,95.54,0,0,0,49.32,351a86.3,86.3,0,0,0-7.68-7.62c-.08-.06-.11.12-.06.17,2.18,2.22,4.37,4.41,6.4,6.78s4,5,5.88,7.69a118.9,118.9,0,0,1,9.42,16.05c.77,1.59,1.46,3.22,2.24,4.79s1.76,3.23,2.5,4.9c.11.25.45.28.36-.05C68,382.27,67.65,380.77,67.18,379.29Z" style="fill:#FF6200"></path><path d="M67.18,379.29A37.62,37.62,0,0,0,65.44,375q-2-4.32-4.46-8.42A95.54,95.54,0,0,0,49.32,351a86.3,86.3,0,0,0-7.68-7.62c-.08-.06-.11.12-.06.17,2.18,2.22,4.37,4.41,6.4,6.78s4,5,5.88,7.69a118.9,118.9,0,0,1,9.42,16.05c.77,1.59,1.46,3.22,2.24,4.79s1.76,3.23,2.5,4.9c.11.25.45.28.36-.05C68,382.27,67.65,380.77,67.18,379.29Z" style="opacity:0.30000000000000004"></path><path d="M76.13,390.65c-4.94,4.15-.3,10.12,6.92,13.45a26.62,26.62,0,0,0,19.32.59c3.73-1.51,4.53-2.35,4.53-2.35s-1.3-6-3.09-9.4a19.14,19.14,0,0,0-18.09-10.06C76.1,383.37,75,387.26,76.13,390.65Z" style="fill:#FF6200"></path><path d="M76.13,390.65c-4.94,4.15-.3,10.12,6.92,13.45a26.62,26.62,0,0,0,19.32.59c3.73-1.51,4.53-2.35,4.53-2.35s-1.3-6-3.09-9.4a19.14,19.14,0,0,0-18.09-10.06C76.1,383.37,75,387.26,76.13,390.65Z" style="fill:#fff;opacity:0.45"></path><path d="M95.11,395.51a48.39,48.39,0,0,0-11.32-5.21c-3.93-1.08-8.84-1.49-12.28,1.1-1.34,1-3.19,3.27-2.3,5,.09.17.57.52.7.2a16.73,16.73,0,0,1,1.27-3.06,6.48,6.48,0,0,1,2.68-2.15,14.77,14.77,0,0,1,8.55-.78c4.51.78,8.64,2.94,12.68,5C95.14,395.64,95.14,395.53,95.11,395.51Z" style="fill:#FF6200"></path><path d="M95.11,395.51a48.39,48.39,0,0,0-11.32-5.21c-3.93-1.08-8.84-1.49-12.28,1.1-1.34,1-3.19,3.27-2.3,5,.09.17.57.52.7.2a16.73,16.73,0,0,1,1.27-3.06,6.48,6.48,0,0,1,2.68-2.15,14.77,14.77,0,0,1,8.55-.78c4.51.78,8.64,2.94,12.68,5C95.14,395.64,95.14,395.53,95.11,395.51Z" style="opacity:0.30000000000000004"></path><path d="M54.24,366.53c.08-2.39-4.22-7.33-14.79-6.57s-17.57,6.53-18.79,8.82-1.63,4.54.34,4.74,8.58-.31,13.18.91,14.28,5.48,19.88,2.72S57.58,368.3,54.24,366.53Z" style="fill:#FF6200"></path><path d="M54.24,366.53c.08-2.39-4.22-7.33-14.79-6.57s-17.57,6.53-18.79,8.82-1.63,4.54.34,4.74,8.58-.31,13.18.91,14.28,5.48,19.88,2.72S57.58,368.3,54.24,366.53Z" style="fill:#fff;opacity:0.45"></path><path d="M63.54,373.18c-6-8.27-17.73-9.05-26.95-7.39a37.23,37.23,0,0,0-8.79,2.75s0,.12,0,.1a48.59,48.59,0,0,1,15-2.78,31.6,31.6,0,0,1,14.66,2.88,19.1,19.1,0,0,1,5.88,4.65C63.53,373.59,63.67,373.35,63.54,373.18Z" style="fill:#FF6200"></path><path d="M63.54,373.18c-6-8.27-17.73-9.05-26.95-7.39a37.23,37.23,0,0,0-8.79,2.75s0,.12,0,.1a48.59,48.59,0,0,1,15-2.78,31.6,31.6,0,0,1,14.66,2.88,19.1,19.1,0,0,1,5.88,4.65C63.53,373.59,63.67,373.35,63.54,373.18Z" style="opacity:0.30000000000000004"></path><path d="M79.52,366.7c-.15,4.28,5.88,6.77,11.71,3.06s12-7.31,17.36-8.7,8-5.81,6.26-7.95-4.42-7.52-18.63-5.76S77,355.51,75,360,77.39,367.93,79.52,366.7Z" style="fill:#FF6200"></path><path d="M79.52,366.7c-.15,4.28,5.88,6.77,11.71,3.06s12-7.31,17.36-8.7,8-5.81,6.26-7.95-4.42-7.52-18.63-5.76S77,355.51,75,360,77.39,367.93,79.52,366.7Z" style="fill:#fff;opacity:0.45"></path><path d="M102.66,353.09a15.6,15.6,0,0,0-6.1.64,31.11,31.11,0,0,0-5.21,1.87A28.91,28.91,0,0,0,82.46,362a24.33,24.33,0,0,0-2,2.42,10.4,10.4,0,0,0-1.52,2.48c-.09.29.32.74.57.46.7-.81,1.23-1.81,1.89-2.66a27.18,27.18,0,0,1,2.29-2.62,28.46,28.46,0,0,1,5.47-4.31,33.73,33.73,0,0,1,6.07-3,36.86,36.86,0,0,1,3.54-1.06,12.4,12.4,0,0,1,3.87-.54C102.69,353.26,102.73,353.11,102.66,353.09Z" style="fill:#FF6200"></path><path d="M102.66,353.09a15.6,15.6,0,0,0-6.1.64,31.11,31.11,0,0,0-5.21,1.87A28.91,28.91,0,0,0,82.46,362a24.33,24.33,0,0,0-2,2.42,10.4,10.4,0,0,0-1.52,2.48c-.09.29.32.74.57.46.7-.81,1.23-1.81,1.89-2.66a27.18,27.18,0,0,1,2.29-2.62,28.46,28.46,0,0,1,5.47-4.31,33.73,33.73,0,0,1,6.07-3,36.86,36.86,0,0,1,3.54-1.06,12.4,12.4,0,0,1,3.87-.54C102.69,353.26,102.73,353.11,102.66,353.09Z" style="opacity:0.30000000000000004"></path><path d="M72.33,371c-2-2-7.4-1.53-10,4.36s2.81,12.33,3.41,14.14c2.47-1.43,4.39-.58,8.74-1.43a10.86,10.86,0,0,0,8.34-10.82C82.57,371.87,80.29,368.31,72.33,371Z" style="fill:#FF6200"></path><path d="M72.33,371c-2-2-7.4-1.53-10,4.36s2.81,12.33,3.41,14.14c2.47-1.43,4.39-.58,8.74-1.43a10.86,10.86,0,0,0,8.34-10.82C82.57,371.87,80.29,368.31,72.33,371Z" style="fill:#fff;opacity:0.45"></path><path d="M72.25,370.42a8.21,8.21,0,0,0-2.64,2.73,15.2,15.2,0,0,0-1.71,3.3,14.12,14.12,0,0,0-.75,7.5c0,.09.1,0,.09-.05a15.42,15.42,0,0,1,1.26-7.41,15.06,15.06,0,0,1,1.8-3,15.72,15.72,0,0,1,1.2-1.39A7.68,7.68,0,0,0,72.64,371C72.78,370.76,72.56,370.27,72.25,370.42Z" style="fill:#FF6200"></path><path d="M72.25,370.42a8.21,8.21,0,0,0-2.64,2.73,15.2,15.2,0,0,0-1.71,3.3,14.12,14.12,0,0,0-.75,7.5c0,.09.1,0,.09-.05a15.42,15.42,0,0,1,1.26-7.41,15.06,15.06,0,0,1,1.8-3,15.72,15.72,0,0,1,1.2-1.39A7.68,7.68,0,0,0,72.64,371C72.78,370.76,72.56,370.27,72.25,370.42Z" style="opacity:0.30000000000000004"></path><path d="M63.15,383.28c-1-3.75-5.74-5.86-12-6.33a16.28,16.28,0,0,0-15.48,7.94c-3.26,5.57-4.61,10-2.63,10.72S43.42,397.5,48.81,398s12.14-.49,16.54-4.59S68.31,384.15,63.15,383.28Z" style="fill:#FF6200"></path><path d="M63.15,383.28c-1-3.75-5.74-5.86-12-6.33a16.28,16.28,0,0,0-15.48,7.94c-3.26,5.57-4.61,10-2.63,10.72S43.42,397.5,48.81,398s12.14-.49,16.54-4.59S68.31,384.15,63.15,383.28Z" style="fill:#fff;opacity:0.25"></path><path d="M63.39,382.79a16.2,16.2,0,0,0-6.72-.32,30.15,30.15,0,0,0-6.35,1.46A40.22,40.22,0,0,0,44,386.76c-1,.57-2.09,1.18-3.1,1.83a23.38,23.38,0,0,0-2.79,1.92s0,.16,0,.13c1-.45,2-1.1,3-1.65s2.11-1.17,3.19-1.72a45.46,45.46,0,0,1,6.23-2.64,30.45,30.45,0,0,1,6.6-1.41,40.16,40.16,0,0,1,6.3.17C63.89,383.41,63.65,382.87,63.39,382.79Z" style="fill:#FF6200"></path><path d="M63.39,382.79a16.2,16.2,0,0,0-6.72-.32,30.15,30.15,0,0,0-6.35,1.46A40.22,40.22,0,0,0,44,386.76c-1,.57-2.09,1.18-3.1,1.83a23.38,23.38,0,0,0-2.79,1.92s0,.16,0,.13c1-.45,2-1.1,3-1.65s2.11-1.17,3.19-1.72a45.46,45.46,0,0,1,6.23-2.64,30.45,30.45,0,0,1,6.6-1.41,40.16,40.16,0,0,1,6.3.17C63.89,383.41,63.65,382.87,63.39,382.79Z" style="opacity:0.30000000000000004"></path><path d="M76.89,376.42c-4.83-3.84-3.22-13,13.69-13.54s29,3.92,28.43,9.36c2.72,2.72,1.35,10.34-12.34,12.72S73.41,386.15,76.89,376.42Z" style="fill:#FF6200"></path><path d="M76.89,376.42c-4.83-3.84-3.22-13,13.69-13.54s29,3.92,28.43,9.36c2.72,2.72,1.35,10.34-12.34,12.72S73.41,386.15,76.89,376.42Z" style="fill:#fff;opacity:0.25"></path><path d="M111.06,372.3a72.67,72.67,0,0,0-15.1-.88A58.42,58.42,0,0,0,82,373a21.07,21.07,0,0,0-3.4,1.26c-.5.25-1,.51-1.48.8s-.81.43-1,.88a.46.46,0,0,0,.5.54,17.73,17.73,0,0,0,3-1.47A23.27,23.27,0,0,1,82.58,374a36.5,36.5,0,0,1,5.87-1.16,103.09,103.09,0,0,1,14.27-.78c2.77,0,5.54.24,8.31.46C111.12,372.5,111.15,372.31,111.06,372.3Z" style="fill:#FF6200"></path><path d="M111.06,372.3a72.67,72.67,0,0,0-15.1-.88A58.42,58.42,0,0,0,82,373a21.07,21.07,0,0,0-3.4,1.26c-.5.25-1,.51-1.48.8s-.81.43-1,.88a.46.46,0,0,0,.5.54,17.73,17.73,0,0,0,3-1.47A23.27,23.27,0,0,1,82.58,374a36.5,36.5,0,0,1,5.87-1.16,103.09,103.09,0,0,1,14.27-.78c2.77,0,5.54.24,8.31.46C111.12,372.5,111.15,372.31,111.06,372.3Z" style="opacity:0.30000000000000004"></path></g></g><g id="freepik--character-2--inject-117"><g id="freepik--Character--inject-117"><g id="freepik--Bottom--inject-117"><path d="M376.09,377.7l2-17.95-21.8.14s.48,9.73.61,15.25c.18,7.24-5.93,11.54-5.93,11.54s12.28,4.16,17.56,2.35,8.08-8.24,8-9.64S376.09,377.7,376.09,377.7Z" style="fill:#c8856a"></path><path d="M325.52,405.74c-.33,0-.89,3.33.89,4.78,2,1.67,8.1,4.47,16.17,3.65s12.47-3,15.74-5.45,7.84-5.82,11.5-6.5c3.39-.63,7.09-2,8.19-2.91s1-5.2,1-5.2Z" style="fill:#263238"></path><path d="M376.09,377.66a1.28,1.28,0,0,1,1.2,1c.23,1.18.44,4.6.94,6.53.7,2.69,1.1,8.19.63,10.36s-6,3.6-9.58,4.77a45.8,45.8,0,0,0-11.53,6.42c-3.83,2.79-11.85,5.63-17.1,5.51-6.21-.14-13.17-2.1-14.73-4.77-1.93-3.29-3.31-7.11,6-10.86,1.76-.71,7.94-3.93,10.05-5.1,5.7-3.16,9.72-6.08,12.42-11.8a2.43,2.43,0,0,1,3.14-1.85c1.53.22,7.64,1.09,9,1.73,1.23.56,3,1.21,2.92,2.66a4.42,4.42,0,0,1-.37,1.47c-.12.3-.21.69.07.87s.62,0,.87-.21a22.11,22.11,0,0,0,2.52-2.69,9,9,0,0,1,1.49-1.33,16.41,16.41,0,0,0,1.59-.91C376.18,379,376.05,378.34,376.09,377.66Z" style="fill:#455a64"></path><path d="M357.75,406.76c1.63-1.19,3.35-2.33,5.08-3.35h0s-10.93,5.85-15.26,3c-2.79-1.81-1.42-3.93-1.34-4.61s-9.8-5.69-12.53-6h0c-.77.37-1.41.67-1.82.84-9.27,3.75-7.89,7.57-6,10.86,1.56,2.67,6.59,4.81,14.62,4.94C345.79,412.53,353.92,409.55,357.75,406.76Z" style="fill:#37474f"></path><path d="M347,399.84c-5.76,2-3.33,3-1.73,3.26s11.32-4.76,17.28-8.92c6.2-4.34,10.15-9.13,12.46-10.72.86-.6,1.78-1.33,2.61-2-.13-1.15-.24-2.21-.35-2.76a1.28,1.28,0,0,0-1.2-1c0,.68.09,1.32-.48,1.82a16.41,16.41,0,0,1-1.59.91,9,9,0,0,0-1.49,1.33,22.11,22.11,0,0,1-2.52,2.69C364.91,390.14,352.78,397.84,347,399.84Z" style="fill:#37474f"></path><path d="M345.71,402.34a.69.69,0,0,0,.36-.11.49.49,0,0,0,.09-.73c-1.59-1.84-9.18-6.27-13.4-5.92a.52.52,0,1,0,.1,1c3.95-.32,11.15,4.07,12.41,5.53A.61.61,0,0,0,345.71,402.34Z" style="fill:#263238"></path><path d="M350.75,399.6a.53.53,0,0,0,.36-.11.48.48,0,0,0,.09-.73c-1.58-1.83-9.17-6.26-13.4-5.91a.53.53,0,0,0-.51.56.55.55,0,0,0,.62.47c3.94-.31,11.15,4.07,12.4,5.53A.61.61,0,0,0,350.75,399.6Z" style="fill:#263238"></path><path d="M355.79,397a.57.57,0,0,0,.36-.11.49.49,0,0,0,.1-.73c-1.59-1.84-9.18-6.27-13.4-5.91a.53.53,0,0,0-.52.56.55.55,0,0,0,.62.47c3.94-.32,11.15,4.07,12.41,5.52A.57.57,0,0,0,355.79,397Z" style="fill:#263238"></path><path d="M360.47,394.05a.52.52,0,0,0,.36-.11.49.49,0,0,0,.1-.73c-1.59-1.84-9.2-6.26-13.4-5.91a.53.53,0,0,0-.52.56.55.55,0,0,0,.62.47c3.94-.31,11.15,4.07,12.41,5.53A.59.59,0,0,0,360.47,394.05Z" style="fill:#263238"></path><path d="M365.06,391.08a.55.55,0,0,0,.35-.1.49.49,0,0,0,.11-.73c-2.18-2.61-10.14-6.33-14.37-6a.53.53,0,0,0-.51.56.56.56,0,0,0,.62.47c3.8-.31,11.43,3.27,13.36,5.58A.57.57,0,0,0,365.06,391.08Z" style="fill:#263238"></path><path d="M417,391l-3.83-16.6,20.83-2,.15,15.88s1.92,5.77.55,7.78-15.23,3.63-16.44,2.2S417,391,417,391Z" style="fill:#c8856a"></path><path d="M417.31,426.76c.42,5.1,1.4,8.43,3.56,11.27s6.16,3.48,10.19,2.28,9.17-4,10.27-8.47.81-7.53-.18-12.22Z" style="fill:#263238"></path><path d="M434.1,388.26c1.66,0,1,6.92,2,13.75,1.15,7.31,3.76,10.17,4.77,16.15,1.15,6.85.78,10-2,14.38s-12.68,9.29-17.69,3.68c-4.08-4.57-4.33-10-4.07-16.92.27-7.18.53-12.24.11-17.63-.41-5.16-1.78-9.8-.34-10.49.12.76.24,1.72.37,2.45.1.57.31,3.36,1.24,3.32a9.17,9.17,0,0,0,0-2,2.18,2.18,0,0,1,.43-1.7,7.74,7.74,0,0,1,2.72-1.22c1.64-.41,4.55-.88,6.21-1.14.83-.12,1.66-.22,2.5-.28a7.43,7.43,0,0,1,2.11.09,1.3,1.3,0,0,1,.91.64,1.85,1.85,0,0,1,.1.78,5.2,5.2,0,0,0,.23,1.41c.07.19.23.43.47.36a.44.44,0,0,0,.27-.44c0-.83-.14-1.43-.2-2.4,0-.45-.12-1-.14-1.5S434.14,388.7,434.1,388.26Z" style="fill:#455a64"></path><path d="M440.51,416.22c.18,1,1.26,7.53-.82,8.88-2.24,1.47-3.56-3.63-3.56-3.63s-5.34-1-13,2.53c.41,1-.73,4.67-2.86,4.09s-3.07-8.1-3.08-8.2c-.22,6.66.13,11.89,4.09,16.33,5,5.61,14.93.73,17.69-3.68s3.13-7.53,2-14.38C440.8,417.48,440.66,416.84,440.51,416.22Z" style="fill:#37474f"></path><path d="M435.53,422c.07,2.5,2.93,1.43,3-2.11s-2.31-11.76-2.38-17.84c-.18-8.36-.39-13.77-2-13.75a2,2,0,0,0,0,.25l.27,3.49a14.26,14.26,0,0,1,.12,1.49c.11,5.11-.17,15,.42,19.63A69.93,69.93,0,0,1,435.53,422Z" style="fill:#37474f"></path><path d="M424,423.86a68,68,0,0,1-1.72-8.66c-.65-4.58-3.12-13.81-4.34-18.76a10.77,10.77,0,0,1-.62-2.81c-.12-.69-.24-1.56-.35-2.29l0-.15c-1,.52-.83,4.47-.36,6.54s1,4.28,1.61,7.24c1.52,5.84,1.38,14.52,2.37,17.88S424.58,426.27,424,423.86Z" style="fill:#37474f"></path><path d="M422.94,424.21a.57.57,0,0,0,.22-.07A23.31,23.31,0,0,1,436,422a.66.66,0,0,0,.74-.43.49.49,0,0,0-.44-.62,24.25,24.25,0,0,0-13.7,2.3.52.52,0,0,0-.25.74A.6.6,0,0,0,422.94,424.21Z" style="fill:#263238"></path><path d="M421.47,418.89a.53.53,0,0,0,.2-.07A28.78,28.78,0,0,1,436,416.43a.68.68,0,0,0,.73-.46.5.5,0,0,0-.47-.6,29.62,29.62,0,0,0-15.16,2.54.53.53,0,0,0-.28.73A.62.62,0,0,0,421.47,418.89Z" style="fill:#263238"></path><path d="M435.53,411.3a.65.65,0,0,0,.52-.4.49.49,0,0,0-.39-.65c-7.5-1.59-14.83,2.25-15.14,2.42a.52.52,0,0,0-.25.74.66.66,0,0,0,.84.15c.07,0,7.19-3.76,14.16-2.27A.77.77,0,0,0,435.53,411.3Z" style="fill:#263238"></path><path d="M435,406.46a.65.65,0,0,0,.52-.38.49.49,0,0,0-.39-.66,22.49,22.49,0,0,0-15.44,2.4.51.51,0,0,0-.19.75.65.65,0,0,0,.85.11,21.36,21.36,0,0,1,14.38-2.22A.61.61,0,0,0,435,406.46Z" style="fill:#263238"></path><path d="M434.44,401a.68.68,0,0,0,.52-.39.48.48,0,0,0-.38-.65c-7.73-1.88-15.23,2.37-15.55,2.55a.52.52,0,0,0-.21.75.65.65,0,0,0,.84.13c.08-.05,7.33-4.15,14.51-2.4A.82.82,0,0,0,434.44,401Z" style="fill:#263238"></path><path d="M418.52,205.59c4,41.71,8.42,98.55,8.42,98.55.35,3.17,4.23,9.48,6,25.1,1.9,16.47,2,45.38,2,45.38s-12.51,6-21.87,3c0,0-11.46-41.55-16.58-60.92-4.84-18.32-9.62-41.61-9.62-41.61l-2.18,29s.23,10.81,0,19.15c-.24,9.69-7.26,43.58-7.26,43.58s-12,6.18-21.78-1.08c0,0-3.82-53.25-4.3-64.9-.94-22.85-2.09-65.77-2.56-95.3Z" style="fill:#37474f"></path><path d="M386.92,275.13l-6-35s-11.31-1.45-17.19-6.56c0,0,3.86,6.83,14.55,9.34l6,32.38.54,28.9Z" style="fill:#263238"></path><path d="M435.41,377.9c-2.62,3-13.46,5.56-22.16,2.29l-1.65-6.45c6.57,2.32,18.35,1.13,24-2.65Z" style="fill:#455a64"></path><path d="M377.86,367.9c-2.93,2.68-14,4.06-22.31-.14l-.53-6.59c6.3,3,17.73,3.12,23.74,0Z" style="fill:#455a64"></path></g><g id="freepik--Top--inject-117"><path d="M364.52,125.45c-5,1.25-10.33,3.39-14.25,7.24-5.18,5.08-7.53,9.63-12.44,24.46-3.63,11-7.65,27-4,31.49s14.23,4.25,14.23,4.25l5.16-11.47Z" style="fill:#f0f0f0"></path><path d="M354.85,171.86a30.12,30.12,0,0,0-16.21,6s3.06-7.14,16.54-9.4Z" style="fill:#e0e0e0"></path><g id="freepik--Chest--inject-117"><path d="M384,225.88c-2.76,0-5.61-.13-8.47-.35-23.47-1.8-26.79-10.06-26.82-10.14,0-.31.47-33.89,1.17-50.59.93-22.35,3.36-33,8.4-36.73,3.27-2.43,18-4.91,18.16-4.93l22.84.5L401,124a112.71,112.71,0,0,1,12.83,3.09c5.75,1.94,5.52,2.26,5.52,2.26C420,130.69,428,153,424,170.15c-.17.76-.42,1.75-.71,2.93-1.35,5.4-3.59,14.42-4.08,21.7-.79,11.69-.28,12.45.8,23.14C418.82,218.72,407,226,384,225.88Z" style="fill:#fafafa"></path><path d="M376.4,123.36l22.81.5,1.72.35a109.78,109.78,0,0,1,12.81,3.08,58,58,0,0,1,5.59,2s8.34,24,4.49,40.76c-.18.76-.42,1.75-.72,2.93-1.34,5.4-3.59,14.43-4.08,21.74-.78,11.66-.28,12.43.79,23-1.69,1.07-13.41,8-35.84,7.85-2.75,0-5.59-.13-8.46-.35-22.18-1.71-26.23-9.18-26.58-9.93,0-2.09.47-34.27,1.15-50.57.92-22.28,3.33-32.88,8.31-36.57,3.14-2.33,17.12-4.72,18-4.88m0-.44s-14.91,2.48-18.27,5c-5.19,3.85-7.56,14.71-8.48,36.91-.71,16.89-1.15,50.66-1.15,50.66s3.07,8.45,27,10.29c3,.23,5.81.34,8.49.35,24.67.12,36.32-8.07,36.32-8.07-1-10.35-1.61-11.27-.81-23.24.59-8.86,3.83-20.41,4.79-24.59,4.19-18.18-4.81-41.26-4.81-41.26s-.52-.25-5.57-2.07a132.17,132.17,0,0,0-14.63-3.45l-22.89-.5Z" style="fill:#e0e0e0"></path></g><g id="freepik--chest--inject-117"><g id="freepik--Head--inject-117"><path d="M398,115c.85-5.1,5.9-10.44,8.16-14.89,2.19-4.3,3.49-7.63,3.22-11.65-.16-2.39-1.67-5.62-3.45-6.29,2-8.87-4.66-13-8.19-13.79a39.43,39.43,0,0,1-4.9-1.34c-1.92-.8-2.36-2.34-3.92-3.65-2.68-2.26-7.17-2.29-8.86,1.15-1.79-2.29-4.2-2.22-7-1.51a4.75,4.75,0,0,0-3.61,5.39c-3.73-2.07-7.13.57-7.47,2.76-.24,1.61.11,3-.94,4.42-1.19,1.64-3.43,1.62-4.12.3-.38,2.3.53,4,3,3.9a5.22,5.22,0,0,0-.63,4.38,4.75,4.75,0,0,0,4.31,3.26A8.24,8.24,0,0,0,364.79,91a8.05,8.05,0,0,0,2.94,2.62c3.76,1.78,7.93,2.35,12,3.17l4.81,1c.28.06,1.73.14,1.91.39Z" style="fill:#263238"></path><path d="M405.06,108.45A4.82,4.82,0,0,1,399,108l-.13,15.75s-14.1,10.68-20.74,16.49c-2.3-2.84-3.72-12.41-1.55-14.32l-.32-6a24,24,0,0,1-4.71-.11,10.59,10.59,0,0,1-8.55-8,45.91,45.91,0,0,1-.61-17.33,14.81,14.81,0,0,0,.2-4.2c-.4-3.72.26-5.88,1.21-9,4.38-3.56,15-4.7,24.48,1-1.08,5.65,1.14,10.12,5.25,12.25-.19,1.52-.36,5.38,2.14,5.29,1.81-.06,1.92-2.32,3.76-4.32s6.17-2.56,7.86.38C409.65,100,409,106.09,405.06,108.45Z" style="fill:#c8856a"></path><path d="M376.26,119.93c6.34-.77,12.5-1.35,15.79-6a39.66,39.66,0,0,0,3.79-7.53s-.63,5.62-2.68,9.43c-1.59,2.94-6.84,5.27-16.78,6.16Z" style="fill:#af6152"></path><path d="M384.18,95.11c.17-1-.84.35-2.46.08s-1.91-1.84-2.08-.82.95,2,1.88,2.14S384,96.24,384.18,95.11Z" style="fill:#263238"></path><path d="M369.44,93.29c-.17-1-.69.59-2.31.85S364.73,93,364.9,94s1.53,1.58,2.46,1.43S369.62,94.42,369.44,93.29Z" style="fill:#263238"></path><path d="M381.09,89.26l3.76,2.19a2.29,2.29,0,0,0-.82-3.06A2.13,2.13,0,0,0,381.09,89.26Z" style="fill:#263238"></path><path d="M364.53,90.53l4.23-1.18a2.1,2.1,0,0,0-2.63-1.56A2.29,2.29,0,0,0,364.53,90.53Z" style="fill:#263238"></path><path d="M367.52,101.33l6.22,2.73,1.86-12.18C373.29,91.07,370.35,96.67,367.52,101.33Z" style="fill:#af6152"></path><path d="M380.66,106.89l-7.46,1.62a3.75,3.75,0,0,0,4.46,3A4,4,0,0,0,380.66,106.89Z" style="fill:#af6152"></path><path d="M379.76,108.11a4,4,0,0,1,.92,0,3.93,3.93,0,0,1-3,3.43,3.59,3.59,0,0,1-1.22,0A3.49,3.49,0,0,1,379.76,108.11Z" style="fill:#ffa8a7"></path></g></g><path d="M379.6,142.36c5.09-2.9,17.75-14.45,19.27-20.44l2,2.21s-3,12.82-20.72,21.64Z" style="fill:#37474f"></path><path d="M375.07,141.53c-1.22-2-1.59-13.31.77-18.29h-3.08c-2.74,8.28-1.45,18,.72,22Z" style="fill:#37474f"></path><path d="M374.5,149.14s-6.34,39.58-6.64,43.46,5.65,13.49,6.47,14,6.47-8.61,6.6-11.7-3.16-45.72-3.16-45.72Z" style="fill:#37474f"></path><path d="M375.07,141.53a8.53,8.53,0,0,1,4.53.83c.73,1.62.82,4,.06,5.1s-2.2,2.69-3.75,2.48-2.68-2.3-2.71-4.2C373.17,143.68,375.07,141.53,375.07,141.53Z" style="fill:#455a64"></path><path d="M378.13,140.25c3-2.89,3.57-7.32,5.74-8.72s13.46-5.57,15-10.64l0-2.59,7,6.78s-.72,4.29-6.05,9.54a36.15,36.15,0,0,1-12.18,7.59S386,137.3,385,136.92,381.51,139.41,378.13,140.25Z" style="fill:#f0f0f0"></path><path d="M378.13,140.25c-1.25-2.7-.44-8.12-1.08-9.43a8.89,8.89,0,0,1-.47-5l-.32-5.91a9.26,9.26,0,0,0-3.73,3.58c-2.91,4.87-4.21,12.32-3.12,15.23,1.67-2.87,5-7,5.52-6.19S375.71,138.78,378.13,140.25Z" style="fill:#f0f0f0"></path><path d="M367.18,175.26c-2.16-4.55-5.09-10.36-6.44-13.62s-1.63-3.78-4-5.53a72.67,72.67,0,0,0-7-4.58c-1.24-.69-1.63.8-.82,2.73.72,1.7,4.54,4.11,4.54,4.11s-3.46-.38-5-.44c-1.11,0-2.65.64-4.45,1.32s-2,1.26-1.58,1.83,1.18,1.11,3,1,3.47-.38,3.47-.38l3.88.57.41.55s-2.64.21-4.77.62a10.31,10.31,0,0,0-4.21,1.8c-1.66,1-2.67,1.42-2.76,1.83s.06,1.63,2.2,1.53a10.7,10.7,0,0,0,4.17-1.24l4.58-.37,2,1.88s-2.58,0-4.08.16a18.58,18.58,0,0,0-4.86,1.37c-.62.34.18,1.72,1.35,2.12s4.29-.59,5.93-.21a35.12,35.12,0,0,1,4.55,1.67Z" style="fill:#c8856a"></path><path d="M367.18,175.26c-.17-.37-.77-1.6-.95-2a88.11,88.11,0,0,1-9.18-1,19.73,19.73,0,0,0-5.66-.08h0a3.46,3.46,0,0,1,.58,0c1.64.38,5.26,1.75,5.26,1.75Z" style="fill:#af6152"></path><path d="M361,166.42a18.61,18.61,0,0,1-1.74-2.31c-.53-.81-1-1.67-1.47-2.46a6.22,6.22,0,0,0-1.82-2.09,8.94,8.94,0,0,0-2.56-1.19,6.54,6.54,0,0,1,2.75.91,6.12,6.12,0,0,1,2,2.13c.49.84.93,1.69,1.38,2.53S360.5,165.59,361,166.42Z" style="fill:#af6152"></path><path d="M361.39,169.4a15.84,15.84,0,0,1-2.17-1.64c-.67-.6-1.3-1.25-2-1.87s-1.25-1.31-1.89-1.92a3.58,3.58,0,0,0-2.3-1.16,3.26,3.26,0,0,1,2.53.9c.71.59,1.3,1.26,2,1.86C358.84,166.87,360.06,168.17,361.39,169.4Z" style="fill:#af6152"></path><path d="M358.91,171.12c-.8-.39-1.46-1-2.2-1.37a5.86,5.86,0,0,0-1.12-.56,7.88,7.88,0,0,0-1.25-.33,3.19,3.19,0,0,1,1.34,0,4.33,4.33,0,0,1,1.26.51A8.47,8.47,0,0,1,358.91,171.12Z" style="fill:#af6152"></path><path d="M405.16,183.81c-2.22-.46-5.67-1.14-10.46-1.94-4.13-.69-21.5-5.08-25.66-5.57l-14.33,9.25c3.66,2.48,13.63,7,18.81,9.11,7.39,3,15.92,6.49,23.55,9.23C397.21,197.14,401.06,187.68,405.16,183.81Z" style="fill:#c8856a"></path><path d="M369,176.3l-14.33,9.25c3.66,2.48,13.63,7,18.81,9.11l4.83,2c6.92-2.27,15.68-6.63,23.88-9.2l.19-.16a18.09,18.09,0,0,1,2.74-3.46c-2.22-.46-5.67-1.14-10.46-1.94C390.57,181.18,373.2,176.79,369,176.3Z" style="fill:#af6152"></path><path d="M433,146.72c-.77-8.39-4.59-13.68-13.53-17.78-7.86,2.73-10.62,15.34-10.43,29.42l1.36,25.69a26.4,26.4,0,0,1-5.23-.24c-4.1,3.87-8.77,13.67-8.92,20.43a111.77,111.77,0,0,0,19.42,3.5c8.48.5,15.9.58,17-7.25,1.77-12.93,1.49-20.2,1.33-31.5C433.76,154.25,433.56,152.84,433,146.72Z" style="fill:#f0f0f0"></path><path d="M402.23,187.43a30.56,30.56,0,0,1,5.83-.72c5.54-.43,12.66,1.72,14.14,5.21,0,0-1.69-6-11.81-7.87a44.27,44.27,0,0,1-5.6.13A21.79,21.79,0,0,0,402.23,187.43Z" style="fill:#e0e0e0"></path><path d="M393.15,187.37c-5.85,1.29-28,6.78-48.13,5.42-1.31-2.49-1.08-7.16-.34-11.3a17.29,17.29,0,0,1,4.7-9.06,13,13,0,0,1,2.59-.21c15.79,2.72,26.75,1.66,43.08,3.73,6.69.85,15.21,5.83,15.21,5.83l.13,2.27S399,186.08,393.15,187.37Z" style="fill:#c8856a"></path></g></g></g><g id="freepik--character-1--inject-117"><g id="freepik--character--inject-117"><g id="freepik--Chair--inject-117"><path d="M185.69,334.64V453.7a1.51,1.51,0,0,0,.83,1.36,3.38,3.38,0,0,0,3.15,0,1.53,1.53,0,0,0,.84-1.36V334.64Z" style="fill:#37474f"></path><path d="M188.1,426.53c-9.41,0-18.82-2.07-26-6.2s-11-9.63-11-15.54,3.92-11.43,11-15.54c14.33-8.27,37.63-8.27,51.95,0,7.12,4.11,11,9.63,11,15.54s-3.92,11.43-11,15.54h0C206.91,424.46,197.5,426.53,188.1,426.53Zm0-41.64c-9.07,0-18.14,2-25,6-6.52,3.76-10.1,8.7-10.1,13.92s3.58,10.16,10.1,13.92c13.8,8,36.27,8,50.08,0h0c6.51-3.76,10.1-8.71,10.1-13.92s-3.59-10.16-10.1-13.92C206.24,386.88,197.17,384.89,188.1,384.89Z" style="fill:#37474f"></path><path d="M213.21,327.89h-4.87l12.93,111.9a1.61,1.61,0,0,0,.83,1.24,3.38,3.38,0,0,0,3.15,0,1.46,1.46,0,0,0,.83-1.45Z" style="fill:#37474f"></path><path d="M163.31,327.89,150.44,439.58a1.43,1.43,0,0,0,.82,1.45,3.22,3.22,0,0,0,1.58.39,3.18,3.18,0,0,0,1.57-.39,1.59,1.59,0,0,0,.83-1.24l12.93-111.9Z" style="fill:#37474f"></path><path d="M163,301.6c13.66-7.89,35.81-7.89,49.47,0,6.83,3.94,10.24,9.11,10.23,14.28v6.34c0,5.17-3.4,10.34-10.23,14.28-13.66,7.89-35.81,7.89-49.47,0-6.83-3.94-10.24-9.11-10.24-14.28v-6.34C152.74,310.71,156.15,305.54,163,301.6Z" style="fill:#263238"></path><path d="M163,298.51c13.66-7.88,35.81-7.88,49.47,0,6.83,3.95,10.24,9.12,10.23,14.28v6.35c0,5.17-3.4,10.34-10.23,14.28-13.66,7.89-35.81,7.89-49.47,0-6.83-3.94-10.24-9.11-10.24-14.28v-6.35C152.74,307.63,156.15,302.46,163,298.51Z" style="fill:#FF6200"></path><path d="M163,298.51c13.66-7.88,35.81-7.88,49.47,0,6.83,3.95,10.24,9.12,10.23,14.28v6.35c0,5.17-3.4,10.34-10.23,14.28-13.66,7.89-35.81,7.89-49.47,0-6.83-3.94-10.24-9.11-10.24-14.28v-6.35C152.74,307.63,156.15,302.46,163,298.51Z" style="opacity:0.5"></path><path d="M212.45,327.07c13.66-7.88,13.66-20.67,0-28.56s-35.81-7.88-49.47,0-13.66,20.68,0,28.56S198.79,335,212.45,327.07Z" style="fill:#FF6200"></path><path d="M212.45,327.07c13.66-7.88,13.66-20.67,0-28.56s-35.81-7.88-49.47,0-13.66,20.68,0,28.56S198.79,335,212.45,327.07Z" style="opacity:0.30000000000000004"></path></g><g id="freepik--character--inject-117"><g id="freepik--bottom--inject-117"><path d="M231.36,367.73s-7.28,15-8,21.07c-.75,6.31-2.41,8.32-1.78,15.27.14,1.52.73,4.58.85,5.81a1.8,1.8,0,0,1-1.77,2.14c-2.79.4-7-5.06-8.83-10.82A164.36,164.36,0,0,1,207.67,381a8.69,8.69,0,0,1,1.15-4.38,13.94,13.94,0,0,1,1.41-2.22c1.09-2.7,1.86-7.91,2.86-11.49Z" style="fill:#ffbda7"></path><path d="M201.92,386.47a6.45,6.45,0,0,0-.87,2c-.15,1.26,2.44,5.6,3.46,7.19a10.16,10.16,0,0,1,1.6,7.33c-.43,4,1.11,8.05,3.51,11.55a27.83,27.83,0,0,0,13.24,9.93c6.54,2.49,9.11-.71,9.11-.71s2.27-3.08,1.11-4.48S201.92,386.47,201.92,386.47Z" style="fill:#263238"></path><path d="M210.23,374.44c-.2,0-.56-.1-1.12.5-.21.22-1.62,3.15-2.73,4.66s-4,4.33-4.46,6.87c1.23,5,5.65,8.78,6,13.5s.13,10.14,6.94,16.32,14.15,7.24,16.9,5.9,2.69-4.2-.66-9.85c-3.55-6-5.4-18.62-5.4-18.62a43.4,43.4,0,0,1-.35-5.34,36.18,36.18,0,0,1,.83-5.21,3.82,3.82,0,0,0-.18-2.39,4,4,0,0,0-1.89-1.49,17.1,17.1,0,0,0-3.6-1.49,5.84,5.84,0,0,0-3.83.22c-.86.39-1.58,1.05-2.47,1.36a3.42,3.42,0,0,1-3.49-.86,2.91,2.91,0,0,1-.74-3.3A5.92,5.92,0,0,1,210.23,374.44Z" style="fill:#455a64"></path><path d="M211,411.44s3.14-5.48,10.76-5,10,4.57,11,6.92c1.2,2.81,2.33,7.82-.91,9-3.5,1.31-7.4.59-13.39-2.91S211,411.44,211,411.44Z" style="fill:#fafafa"></path><path d="M213.86,388.57a.82.82,0,0,0,.7,0c1.21-.52,7.53-1.43,10.94,2.17.49-.34.44-1-.1-2-4.07-3-10-2.14-11.51-1.51a.72.72,0,0,0-.36,1A.77.77,0,0,0,213.86,388.57Z" style="fill:#fafafa"></path><path d="M226,395.27a2.37,2.37,0,0,0-.31-2.12c-4-2.54-9.59-1.76-11-1.15a.73.73,0,0,0-.36,1,.79.79,0,0,0,.34.36.76.76,0,0,0,.69,0C216.54,392.88,222.53,392,226,395.27Z" style="fill:#fafafa"></path><path d="M228.45,405.77a4.4,4.4,0,0,0-.8-2.82c-4.07-2.82-9.9-2-11.35-1.39a.72.72,0,0,0-.36,1,.8.8,0,0,0,.33.35.78.78,0,0,0,.7,0C218.25,402.4,225.21,401.43,228.45,405.77Z" style="fill:#fafafa"></path><path d="M215.47,398.13a.76.76,0,0,0,.69,0c1.21-.52,7.39-1.4,10.83,2.06a2.69,2.69,0,0,0-.49-2.3c-4.05-2.54-9.6-1.76-11-1.15a.74.74,0,0,0-.36,1A.88.88,0,0,0,215.47,398.13Z" style="fill:#fafafa"></path><path d="M235.44,387.87s2.38,18.44,5.15,27.12c2.49,7.78,4,10.93,8.46,16.81,1,1.28,3.21,3.69,4,4.73a1.9,1.9,0,0,1-.39,2.91c-2.27,1.92-11.4,1.82-16.24-2.33s-9-12.58-11.81-15.85a47.64,47.64,0,0,1-3-3.79c-.91-1.27-.56-2.41-.56-3.76,0-.66.21-2.44.21-2.44-.49-3.24-2.06-8.38-2.86-11.56Z" style="fill:#ffbda7"></path><path d="M218.54,425.5a7,7,0,0,0,.08,2.33c.43,1.27,4.86,4.26,6.56,5.31a10.75,10.75,0,0,1,4.83,6.29c1.42,4.05,4.69,7.19,8.57,9.45a29.4,29.4,0,0,0,17.13,3.52c7.37-.58,8.38-4.79,8.38-4.79s.79-4-.95-4.79S218.54,425.5,218.54,425.5Z" style="fill:#263238"></path><path d="M221.06,410.26c-.2.07-.58.15-.85,1-.1.31-.13,3.74-.51,5.68s-1.82,5.93-1.16,8.58c3.45,4.27,9.36,5.85,11.87,10.18s4.69,9.63,14,12.46,16.79.54,18.81-2,.68-5.22-5.07-9.11c-6.1-4.13-13.56-15.35-13.56-15.36a44.1,44.1,0,0,1-2.75-4.94,38.25,38.25,0,0,1-1.55-5.35,4,4,0,0,0-1.26-2.21,4.25,4.25,0,0,0-2.47-.57,18.29,18.29,0,0,0-4.12.2,6.17,6.17,0,0,0-3.56,1.94,28,28,0,0,1-1.75,2.41,3.61,3.61,0,0,1-3.72.76,3.11,3.11,0,0,1-2.2-2.82S221.06,410.26,221.06,410.26Z" style="fill:#455a64"></path><path d="M238.48,445.27s.54-6.66,8.05-9.6,11.63-.15,13.66,1.64c2.42,2.14,5.75,6.43,3.2,9-2.75,2.83-6.8,3.9-14.11,3.26S238.48,445.27,238.48,445.27Z" style="fill:#fafafa"></path><path d="M230.9,422.12a.85.85,0,0,0,.69-.28c.92-1,6.55-4.76,11.43-2.86.32-.55-.05-1.19-1-1.91-5.23-1-10.57,2.48-11.68,3.75a.77.77,0,0,0,.1,1.11A.8.8,0,0,0,230.9,422.12Z" style="fill:#fafafa"></path><path d="M245.52,423.05a2.5,2.5,0,0,0-1.24-1.89c-5-.6-10,2.65-11,3.86a.78.78,0,0,0,.11,1.12.86.86,0,0,0,.48.18.82.82,0,0,0,.68-.27C235.41,425,240.75,421.52,245.52,423.05Z" style="fill:#fafafa"></path><path d="M252.6,432a4.54,4.54,0,0,0-2-2.33c-5.16-.87-10.37,2.54-11.47,3.79a.77.77,0,0,0,.1,1.11.83.83,0,0,0,.48.19.86.86,0,0,0,.69-.28C241.33,433.36,247.55,429.29,252.6,432Z" style="fill:#fafafa"></path><path d="M236.75,430.53a.84.84,0,0,0,.68-.27c.92-1,6.43-4.67,11.28-2.92a2.85,2.85,0,0,0-1.51-2c-5-.61-10,2.65-11,3.86a.76.76,0,0,0,.1,1.11A.8.8,0,0,0,236.75,430.53Z" style="fill:#fafafa"></path><path d="M201.25,269.87c7.95,6.66,33.35,26.07,44.45,37.75,3.21,3.38,6,9.81,3.26,18.49-4.46,14.06-18.33,43.69-18.33,43.69-10.53.38-18.59-6.18-18.59-6.18l-23.8-49.71Z" style="fill:#37474f"></path><path d="M232.91,364.53c-10.08-9.59-41-66.12-41-66.12l1.46-.21c8.36-4.71,12.16-13.61,12.16-13.61.05,7.38-3.3,11.4-5.74,14.34,2.56,2.52,14.86,14.44,25,23.55,2.53,2.28,5.09,5.06,5.7,9.93C231.88,344.07,233.31,362.22,232.91,364.53Z" style="fill:#263238"></path><path d="M198.66,270.64h0l-49.9,6.23c-2.33,9.7-3.3,23.36-.65,29.29s8.23,14.8,15.41,19.07c16.11,9.59,33.29,18,36.81,19.92,2.65,1.47,3.07,2.91,2.83,11.21C203,363.92,204.9,370,211.25,386c6.22,15.74,7.48,19.13,7.48,19.13s11.23,1.62,19-4.41c0,0-6.89-52.77-8.43-62.34-.87-5.35-.71-8.12-6.88-14.33-5.29-5.32-29.11-25.88-29.11-25.88S204.15,285.48,198.66,270.64Z" style="fill:#37474f"></path></g><g id="freepik--top--inject-117"><path d="M259.31,201.54c-.23-.25-.48-.49-.73-.72-1.69-1.54-3.7-2.71-5.39-4.27a25.5,25.5,0,0,1-4.53-6,3.6,3.6,0,0,1-.54-2.39c0-.51,0-1,0-1.53s0-.79,0-1.19a11.69,11.69,0,0,0-.14-1.79c-.08-.54-.24-1.07-.31-1.62a24.52,24.52,0,0,0-.31-2.7,2,2,0,0,0-.82-1.23,1.53,1.53,0,0,1-.4-.26.78.78,0,0,1-.18-.32,9,9,0,0,0-1.05-2.24,3,3,0,0,0-1.5-1,.64.64,0,0,0-.43,0,.56.56,0,0,0-.21.65,8.56,8.56,0,0,1,.14,1,4.07,4.07,0,0,0,.2,1.11,1.57,1.57,0,0,0-.65-.13.78.78,0,0,0-.58.27,1.32,1.32,0,0,0-.17.9,23.26,23.26,0,0,1-.48,3.71,19.64,19.64,0,0,0-.13,5.45,65.71,65.71,0,0,1,1,7c.11,2.95.52,3.74,2,6.67.91,1.79,2.18,4.32,1.44,6.52-.54,1.6-1.27,3.33-6.27,8.13l-9.64,9.27a45.12,45.12,0,0,0-3.87,4.09l11.74,16.35,0,0c4-4,5.85-7.48,9.81-13.89s7.85-12.89,12-19.2c1.06-1.64,2.16-3.38,2.21-5.33A7.55,7.55,0,0,0,259.31,201.54Z" style="fill:#ffbda7"></path><path d="M245,187.25a2.15,2.15,0,0,1-.34-.83,3,3,0,0,1,.06-.67,5.21,5.21,0,0,0-.36-2.84,2.21,2.21,0,0,1-.22-.64,2.32,2.32,0,0,1,.07-.69,7.36,7.36,0,0,0-.19-2.51,3.48,3.48,0,0,0-.17-.61,1,1,0,0,0-.18-.31,6.64,6.64,0,0,1,.35,2.12,11.23,11.23,0,0,1-.3,2l0,.09.05.12a6.93,6.93,0,0,1,.35,1,9.35,9.35,0,0,1,.2,1,6.66,6.66,0,0,1-.08,2.09l0,.17.1.11a5.62,5.62,0,0,1,.48.64c.14.23.29.47.41.71s.24.5.33.77.16.54.24.82A4.22,4.22,0,0,0,245,187.25Zm1.24-8.78c0-.16-.12-.33-.14-.49a7.71,7.71,0,0,1-.09,1.66c0,.12,0,.23,0,.35s0,.25,0,.37a7.69,7.69,0,0,1,.24,1.85,5.37,5.37,0,0,1-.43,1.94l-.08.19.14.16a5.82,5.82,0,0,1,.63.91,9,9,0,0,1,.49,1c.14.36.27.73.38,1.11s.18.77.26,1.17a6.91,6.91,0,0,0-.63-3c-.15-.28-.3-.57-.47-.84s-.38-.5-.33-.74a.21.21,0,0,1,0-.11,3.54,3.54,0,0,0,.37-2.07c-.09-.67-.36-1.3-.4-2,0-.33,0-.66,0-1A4.89,4.89,0,0,0,246.24,178.47Z" style="fill:#ffbda7"></path><path d="M247.72,182.34a33.79,33.79,0,0,1,.21,7c0,.2-.07.39-.09.57s.28-.15.39-.46c0-.07,0-.15,0-.23a18.2,18.2,0,0,0-.31-6.94c-.37-1.38,0-3.36-1.35-4.25C247.89,179.12,247.43,180.9,247.72,182.34Z" style="fill:#f0997a"></path><path d="M246.54,185.41a9,9,0,0,1,.49,1c.14.36.27.73.38,1.11s.18.77.26,1.17a6.91,6.91,0,0,0-.63-3c-.15-.28-.3-.57-.47-.84s-.38-.5-.33-.74a.21.21,0,0,1,0-.11,3.54,3.54,0,0,0,.37-2.07c-.09-.67-.36-1.3-.4-2,0-.33,0-.66,0-1a4.89,4.89,0,0,0,0-.54c0-.16-.12-.33-.14-.49a7.71,7.71,0,0,1-.09,1.66c0,.12,0,.23,0,.35s0,.25,0,.37a7.69,7.69,0,0,1,.24,1.85,5.37,5.37,0,0,1-.43,1.94l-.08.19.14.16A5.82,5.82,0,0,1,246.54,185.41Z" style="fill:#f0997a"></path><path d="M244.76,187.49c.14.23.29.47.41.71s.24.5.33.77.16.54.24.82a4.22,4.22,0,0,0-.74-2.54,2.15,2.15,0,0,1-.34-.83,3,3,0,0,1,.06-.67,5.21,5.21,0,0,0-.36-2.84,2.56,2.56,0,0,1-.22-.64,2.32,2.32,0,0,1,.07-.69,7.36,7.36,0,0,0-.19-2.51,3.48,3.48,0,0,0-.17-.61,1,1,0,0,0-.18-.31,6.64,6.64,0,0,1,.35,2.12,11.23,11.23,0,0,1-.3,2l0,.09.05.12a6.93,6.93,0,0,1,.35,1,9.35,9.35,0,0,1,.2,1,6.66,6.66,0,0,1-.08,2.09l0,.17.1.11A5.62,5.62,0,0,1,244.76,187.49Z" style="fill:#f0997a"></path><path d="M246.9,200.75a14.25,14.25,0,0,1-.3-4.06,12.72,12.72,0,0,1,1.74-4.71,34.09,34.09,0,0,0,2.12-4.92c.33-.89,1.36-1.47,2-.62a5.9,5.9,0,0,1,.87,3.65c0,1.33-.26,2.64-.33,4a14.85,14.85,0,0,0,.6,5c.51,1.73,1.34,3.62.54,5.24a3.61,3.61,0,0,1-3.18,1.84c-1,0-2.79-.28-3.3-1.25S247.12,201.93,246.9,200.75Z" style="fill:#ffbda7"></path><path d="M246.6,196.69c.23-3.36,2.66-6.48,3.59-9.86.34-1,1.73-1.61,2.49-.73,1.49,1.93,1,4.37.77,6.54a15.45,15.45,0,0,0,.17,6.13,13,13,0,0,1-.72-6.19c.13-2,.54-4.41-.73-6a.67.67,0,0,0-1,0c-.9,1.11-1.16,3-1.95,4.25-1,1.94-2.26,3.69-2.64,5.86Z" style="fill:#f0997a"></path><path d="M256.73,201.07a11.7,11.7,0,0,1-2.81-3.06,6.25,6.25,0,0,1-.73-2,10.36,10.36,0,0,1-.19-2.07c0-.1-.12-.88-.15-.72a11.05,11.05,0,0,0,.14,4.15,6.28,6.28,0,0,0,1.7,2.89c1.75,1.89,4.91,3.56,4.51,6.58,0,0,.06.17.1.09C260.36,204.61,258.36,202.46,256.73,201.07Z" style="fill:#f0997a"></path><path d="M189.36,203.85c11.57.91,15.57,4.59,22,10.09,7.77,6.66,15.24,12.85,15.24,12.85l7-5.69A17,17,0,0,0,237.4,230a24,24,0,0,0,8.18,5.64S241.19,242,237,247.29s-7.12,7.89-15.77,2.65l-27.89-17Z" style="fill:#FF6200"></path><path d="M226.59,226.79c-3.6,2.9-5.65,8.19-5.83,12.37a12.72,12.72,0,0,1,3.83-14Z" style="opacity:0.2"></path><path d="M146.18,282.4c3.38-13.09,5.6-20.67,5.4-24.73,0,0-5.27-20.05-6.17-24.81-2.35-12.37-.57-18.4,1.84-19.92a90.14,90.14,0,0,1,9.06-3.79c8.44-3.14,20.8-4.42,28.85-4.92,3-.08,4,0,4,0a74,74,0,0,1,11.62,9c7,6.92,9.37,11.75,8.94,19.46a18.3,18.3,0,0,1-3.52,9.31c-.21,3.73-.19,14.26-.19,14.26.42,4.1.12,4,3,13.77C203.94,290,160.25,292.23,146.18,282.4Z" style="fill:#fafafa"></path><g id="freepik--head--inject-117"><path d="M193.58,170.47c5.24-3.29,4.21-12.16,1.5-15.67-4.7-6.1-13.45-9.93-25-8.34-7.27,1-15.23,4.58-16.72,12.08-6.84,3.33-4.58,12.79-2.84,16.79,3.67,8.39,9,15,9,19.42Z" style="fill:#263238"></path><path d="M153.35,158.54c-4.71,1.31-5.91,7.58-5.65,17.81s.33,23.46.33,23.46l5.41,1.09.54-6.68.52,6.67c9.86,1.62,21.48,2.24,38-1.07L190,165.47Z" style="fill:#263238"></path><path d="M187,157.2c1.91.83,5.12,4.09,5.83,10.64.12,2,1.16,4.31,1.79,8,2.38,13.85-1,17.4-4.43,19.68-2.07,1.36-3.27,1.73-6.84,2.3l-.12,6.54a44.4,44.4,0,0,1,5.9,15.33c-20.12-4.49-27.43-15-27.43-15l.71-13.74s-1.42,3.26-6.45,1.09c-4-1.72-6.2-7.83-4.22-11.18s6.06-2.8,8.06-.47,5,1.89,3.19-1.85c1.63-1.14,5.17-3.5,2.31-10.45a8.12,8.12,0,0,1,.93-7c2.49-3.11,8.18-3.57,12-.88C181.94,155.83,183.68,155.77,187,157.2Z" style="fill:#ffbda7"></path><polygon points="181.03 170.43 184.68 182.21 190.28 178.28 181.03 170.43" style="fill:#f0997a"></polygon><path d="M183.31,197.79c-4.49.52-14.4-.29-17.73-5.79,0,0,1.07,4.15,7.08,6.48A30.23,30.23,0,0,0,183.27,200Z" style="fill:#f0997a"></path><path d="M177.47,174.05a2,2,0,1,1-2.15-1.83A2,2,0,0,1,177.47,174.05Z" style="fill:#263238"></path><path d="M190.79,172.05a2,2,0,1,1-1.88-2.11A2,2,0,0,1,190.79,172.05Z" style="fill:#263238"></path><path d="M186.43,166.69a2.64,2.64,0,0,0,3.5-1.32l-4.83-2.19A2.65,2.65,0,0,0,186.43,166.69Z" style="fill:#263238"></path><path d="M173.89,169.14a2.66,2.66,0,0,0,.68-3.69l-4.37,3A2.65,2.65,0,0,0,173.89,169.14Z" style="fill:#263238"></path><path d="M178.82,186.29c.87.13,1.74.27,2.62.38a14.64,14.64,0,0,0,2.47.23c.35,0,.1-.56-.11-.62a18.82,18.82,0,0,0-2.58-.56l-2.43-.4a.41.41,0,0,0-.52.38A.68.68,0,0,0,178.82,186.29Z" style="fill:#b16668"></path><path d="M174.25,163.84a1.19,1.19,0,0,1,1-.15,2.06,2.06,0,0,1,.81.47,2.26,2.26,0,0,1,.57,1,2.87,2.87,0,0,1,.11.57,1.14,1.14,0,0,1,0,.37,1.58,1.58,0,0,1-.15.38c-.06.09-.14,0-.16-.07s-.1-.18-.13-.28a2.06,2.06,0,0,1,0-.26,1.8,1.8,0,0,0-.1-.4,1.84,1.84,0,0,0-.42-.73,1.61,1.61,0,0,0-.64-.38,1.38,1.38,0,0,0-.4-.1.94.94,0,0,1-.41,0A.25.25,0,0,1,174.25,163.84Z" style="fill:#f0997a"></path></g><path d="M161.75,204s1,2.28,3.16,7.7,3.82,9.79,5.1,21.68,1.31,67.9,3.64,81.28c-8.86.7-24.18-5.37-31.34-12,.42-5,1.68-11,3.9-23.26s3.68-18.48,2.5-24.88-14.17-23-5-41.29c0,0,3.84-1.8,9.59-4.41C159.77,205.94,161.75,204,161.75,204Z" style="fill:#FF6200"></path><path d="M161.75,204s1,2.28,3.16,7.7,3.82,9.79,5.1,21.68,1.31,67.9,3.64,81.28c-8.86.7-24.18-5.37-31.34-12,.42-5,1.68-11,3.9-23.26s3.68-18.48,2.5-24.88-14.17-23-5-41.29c0,0,3.84-1.8,9.59-4.41C159.77,205.94,161.75,204,161.75,204Z" style="fill:#fff;opacity:0.4"></path><path d="M183.23,202.87l0,1.46a141.43,141.43,0,0,1,12.33,14.51c5.55,7.66,6.95,15.45,7.43,25.76.24,5.44,2,18.36,3.78,30.38,2.13,1.78,5.15,3.61,7.91,5.67A101.85,101.85,0,0,0,211,269.22c-1.17-3.64-1.58-9.72-2.18-17.33a67.65,67.65,0,0,1-.16-9.91s4.39-6.44.66-17.44-19.94-20.69-19.94-20.69a28.25,28.25,0,0,0-3.07-.5C184.38,203.08,183.23,202.87,183.23,202.87Z" style="fill:#FF6200"></path><path d="M183.23,202.87l0,1.46a141.43,141.43,0,0,1,12.33,14.51c5.55,7.66,6.95,15.45,7.43,25.76.24,5.44,2,18.36,3.78,30.38,2.13,1.78,5.15,3.61,7.91,5.67A101.85,101.85,0,0,0,211,269.22c-1.17-3.64-1.58-9.72-2.18-17.33a67.65,67.65,0,0,1-.16-9.91s4.39-6.44.66-17.44-19.94-20.69-19.94-20.69a28.25,28.25,0,0,0-3.07-.5C184.38,203.08,183.23,202.87,183.23,202.87Z" style="fill:#fff;opacity:0.4"></path><path d="M207.37,220.07c1.59-1.43.1-4,1-5.71a1.51,1.51,0,0,1,2.63-.17c.81,1,.8,2.39,1.13,3.58a10.26,10.26,0,0,0,2.1,3.74c1.93,2.34,3.72,5.43,2.56,8.56.06-.16-1.35-1.44-1.47-1.57C212.66,225.69,210,222.87,207.37,220.07Z" style="fill:#f0997a"></path><path d="M214.69,225.61c-1.65-1.83-4.35-3.15-6-4.41-2.45-1.86-2.22-2.33-2.46-4.15s-1.29-2.94-1.8-3.94a3.2,3.2,0,0,1,.22-.69c.06-.23.11-.47.15-.71.09-.49.15-1,.23-1.47s.12-.77.17-1.16a12.89,12.89,0,0,0,.08-1.75c0-.54-.1-1.07-.11-1.61a21.44,21.44,0,0,0,0-2.66,1.89,1.89,0,0,0-.64-1.29,1.74,1.74,0,0,1-.36-.3,1,1,0,0,1-.14-.33,8.6,8.6,0,0,0-.74-2.3,3,3,0,0,0-1.33-1.17.62.62,0,0,0-.42-.06c-.23.08-.3.37-.28.61a6.28,6.28,0,0,1,0,1,3.9,3.9,0,0,0,.07,1.1,1.52,1.52,0,0,0-.62-.21.78.78,0,0,0-.6.19,1.37,1.37,0,0,0-.27.85,21.79,21.79,0,0,1-.92,3.55,19.18,19.18,0,0,0-.79,5.26,65.78,65.78,0,0,1,.16,6.92c-.26,2.87,0,3.69,1.13,6.72.67,1.85,1.59,4.45.61,6.5-.72,1.49-1.64,3.08-7.07,7.12L182.52,245a45.1,45.1,0,0,0-4.25,3.49l9.4,17.3,0,0c4.34-3.37,6.58-6.55,11.2-12.29,5.39-6.67,8.61-10.65,10.42-12.81s5.48-5.47,6.85-8.36S216.33,227.43,214.69,225.61Z" style="fill:#ffbda7"></path><path d="M204.25,215.63a5.12,5.12,0,0,0,1,2.25,7.37,7.37,0,0,0,1.45,1.5A6.09,6.09,0,0,0,208,221c1.24,1,2.87,1.94,4.38,3a7.23,7.23,0,0,1,1.53,3.84,7.92,7.92,0,0,1-.21,2.11,19.85,19.85,0,0,1-1,2.2,6,6,0,0,0,1.28-1.94,5.77,5.77,0,0,0,.44-2.32,5.63,5.63,0,0,0-1.85-3.72c2.78,2,5.06,4.49,3.53,8.17,1.77-2.91-.16-6.07-2.48-8-2.13-1.95-5.3-2.95-6.8-5.48a11.94,11.94,0,0,1-.39-2.13,11.16,11.16,0,0,0-1.76-3.66,1.11,1.11,0,0,1,.07-.22,17.83,17.83,0,0,0,.54-6.77c-.19-1.38.44-3.26-.79-4.29,1.11,1.16.45,2.83.56,4.27a18,18,0,0,1-.79,6.77.94.94,0,0,0,0,.48c.63,1.15,1.46,2.05,1.66,3.37a16.25,16.25,0,0,0,.42,2.23l-.2-.26c-.24-.33-.49-.64-.72-1A18.3,18.3,0,0,1,204.25,215.63Zm-2.36-5.16a2,2,0,0,1-.23-.84,2.9,2.9,0,0,1,.14-.65,5.12,5.12,0,0,0,0-2.8,2.44,2.44,0,0,1-.14-.65,2.53,2.53,0,0,1,.15-.66,6.94,6.94,0,0,0,.12-2.45,3,3,0,0,0-.08-.61,1.22,1.22,0,0,0-.14-.33,6.44,6.44,0,0,1,.08,2.1,9.59,9.59,0,0,1-.54,1.9l0,.09,0,.12a6,6,0,0,1,.22,1,6.9,6.9,0,0,1,.06,1,6,6,0,0,1-.33,2l-.05.16.08.12a5.47,5.47,0,0,1,.38.68,4.93,4.93,0,0,1,.31.75,5,5,0,0,1,.23.78,7.39,7.39,0,0,1,.14.82A4.12,4.12,0,0,0,201.89,210.47Zm2.27-8.36c0-.17-.07-.34-.07-.5a7.29,7.29,0,0,1-.3,1.6c0,.11,0,.22,0,.34a2.16,2.16,0,0,0,0,.36,7.39,7.39,0,0,1,0,1.82,5.12,5.12,0,0,1-.65,1.84l-.1.17.11.17a5.1,5.1,0,0,1,.5,1,7.91,7.91,0,0,1,.36,1.07c.09.37.17.74.23,1.12s.08.77.11,1.17a6.7,6.7,0,0,0-.25-3c-.1-.3-.22-.59-.35-.88s-.31-.53-.24-.76l.06-.1a3.44,3.44,0,0,0,.61-2c0-.66-.19-1.31-.14-2,0-.32.1-.64.14-1A4.67,4.67,0,0,0,204.16,202.11Z" style="fill:#ffbda7"></path><path d="M204.25,215.63a5.12,5.12,0,0,0,1,2.25,7.37,7.37,0,0,0,1.45,1.5A6.09,6.09,0,0,0,208,221c1.24,1,2.87,1.94,4.38,3a7.23,7.23,0,0,1,1.53,3.84,7.92,7.92,0,0,1-.21,2.11,19.85,19.85,0,0,1-1,2.2,6,6,0,0,0,1.28-1.94,5.77,5.77,0,0,0,.44-2.32,5.63,5.63,0,0,0-1.85-3.72c2.78,2,5.06,4.49,3.53,8.17,1.77-2.91-.16-6.07-2.48-8-2.13-1.95-5.3-2.95-6.8-5.48a11.94,11.94,0,0,1-.39-2.13,11.16,11.16,0,0,0-1.76-3.66,1.11,1.11,0,0,1,.07-.22,17.83,17.83,0,0,0,.54-6.77c-.19-1.38.44-3.26-.79-4.29,1.11,1.16.45,2.83.56,4.27a18,18,0,0,1-.79,6.77.94.94,0,0,0,0,.48c.63,1.15,1.46,2.05,1.66,3.37a16.25,16.25,0,0,0,.42,2.23l-.2-.26c-.24-.33-.49-.64-.72-1A18.3,18.3,0,0,1,204.25,215.63Zm-2.36-5.16a2,2,0,0,1-.23-.84,2.9,2.9,0,0,1,.14-.65,5.12,5.12,0,0,0,0-2.8,2.44,2.44,0,0,1-.14-.65,2.53,2.53,0,0,1,.15-.66,6.94,6.94,0,0,0,.12-2.45,3,3,0,0,0-.08-.61,1.22,1.22,0,0,0-.14-.33,6.44,6.44,0,0,1,.08,2.1,9.59,9.59,0,0,1-.54,1.9l0,.09,0,.12a6,6,0,0,1,.22,1,6.9,6.9,0,0,1,.06,1,6,6,0,0,1-.33,2l-.05.16.08.12a5.47,5.47,0,0,1,.38.68,4.93,4.93,0,0,1,.31.75,5,5,0,0,1,.23.78,7.39,7.39,0,0,1,.14.82A4.12,4.12,0,0,0,201.89,210.47Zm2.27-8.36c0-.17-.07-.34-.07-.5a7.29,7.29,0,0,1-.3,1.6c0,.11,0,.22,0,.34a2.16,2.16,0,0,0,0,.36,7.39,7.39,0,0,1,0,1.82,5.12,5.12,0,0,1-.65,1.84l-.1.17.11.17a5.1,5.1,0,0,1,.5,1,7.91,7.91,0,0,1,.36,1.07c.09.37.17.74.23,1.12s.08.77.11,1.17a6.7,6.7,0,0,0-.25-3c-.1-.3-.22-.59-.35-.88s-.31-.53-.24-.76l.06-.1a3.44,3.44,0,0,0,.61-2c0-.66-.19-1.31-.14-2,0-.32.1-.64.14-1A4.67,4.67,0,0,0,204.16,202.11Z" style="fill:#f0997a"></path><path d="M143.78,213.25c-7.71,4-12.39,14.05-3.14,26.17a173.3,173.3,0,0,0,28.24,29.45c6.64,5.13,10.8,4.7,15.44.82a104.54,104.54,0,0,0,10.8-10.9c-6.27-3.59-10.34-8.42-11.83-14.68l-4.79,3.52S166.88,234.88,160.83,227C154.08,218.1,148.78,214.48,143.78,213.25Z" style="fill:#FF6200"></path><path d="M178.5,247.63c-6.55,5-7.07,9.7-6.91,13-1.55-6,0-10.46,5-15.08Z" style="opacity:0.2"></path></g></g></g></g><g id="freepik--speech-bubble-2--inject-117"><g id="freepik--speech-bubble--inject-117"><path d="M241.66,135.88c-4.23-3.21-12.15-5.43-18.89-5-7.75.46-17,3.72-20.91,10.89a12.39,12.39,0,0,0,.27,13.05,19.79,19.79,0,0,0,8.38,7.17,6.39,6.39,0,0,1-4.24,5.07,12,12,0,0,0,10.42-3c9.82,2.18,23.39.69,29.7-8.52C251.15,148.59,248.59,141.15,241.66,135.88Z" style="fill:#455a64"></path><path d="M236.61,147.87a2.29,2.29,0,1,1-2.28-2.28A2.29,2.29,0,0,1,236.61,147.87Z" style="fill:#fafafa"></path><path d="M226.94,147.87a2.28,2.28,0,1,1-2.28-2.28A2.28,2.28,0,0,1,226.94,147.87Z" style="fill:#fafafa"></path><path d="M217.27,147.87a2.28,2.28,0,1,1-2.28-2.28A2.28,2.28,0,0,1,217.27,147.87Z" style="fill:#fafafa"></path></g></g><g id="freepik--speech-bubble-1--inject-117"><g id="freepik--speech-bubble--inject-117"><g id="freepik--speech-bubble--inject-117"><path d="M345.92,107.86c11.5-29.59-14.24-65.29-64.8-68.24-20.94-1.23-45.52,5.66-58.66,15.65-21.54,16.37-29.48,39.46-14.71,61,21.28,31.05,73.63,35,103.06,22.24,14.16-6.14,24.14-14.14,30.33-22.93,4.33,2.28,13.19,1,16.18-4.18C354.26,112.19,348.17,112.09,345.92,107.86Z" style="fill:#fff"></path><path d="M274.18,145.86c-25.24,0-52.61-8.42-66.9-29.27-14-20.48-8.35-44.15,14.84-61.77,13.6-10.34,38.44-17,59-15.77,27.15,1.59,49.29,12.72,60.73,30.54,7.78,12.12,9.43,25.69,4.65,38.22,2.15,3.65,7.63,3.81,10.64,3a.56.56,0,0,1,.59.2.58.58,0,0,1,0,.63c-3.15,5.46-12,6.62-16.49,4.61C334.67,125.55,324.49,133.2,311,139,301,143.37,287.91,145.86,274.18,145.86Zm2-105.82c-19.28,0-41,6.29-53.41,15.68C200.14,72.94,194.55,96,208.21,116c21.74,31.71,74.28,34.21,102.37,22,13.45-5.83,23.58-13.48,30.09-22.74a.57.57,0,0,1,.73-.17c3.58,1.89,11.21,1.2,14.65-2.87-3.51.48-8.56-.21-10.63-4.09a.55.55,0,0,1,0-.47c4.76-12.26,3.18-25.56-4.46-37.45-11.24-17.51-33.05-28.45-59.84-30C279.49,40.09,277.86,40,276.21,40Z" style="fill:#e0e0e0"></path></g><g id="freepik--Letters--inject-117"><path d="M237.27,70.64a7.5,7.5,0,0,1,.65-2.88,11.29,11.29,0,0,1,1.77-3,11.11,11.11,0,0,1,2.56-2.29,5.37,5.37,0,0,1,3-.94,4.89,4.89,0,0,1,1.68.31,8.25,8.25,0,0,1,1.6.8,8.15,8.15,0,0,1,1.4,1.13,5.38,5.38,0,0,1,1,1.32,3.19,3.19,0,0,1,.37,1.34,1.5,1.5,0,0,1-.42,1.13L240.27,69.3c-.14,0-.25.16-.35.41a4.1,4.1,0,0,0-.25.93c-.07.37-.13.79-.18,1.23s-.09.89-.12,1.3-.05.8-.05,1.13v.76a2.85,2.85,0,0,0,.67,2,4.31,4.31,0,0,0,1.73,1.15,9.59,9.59,0,0,0,2.38.52c.88.08,1.76.13,2.62.13s1.69,0,2.46-.09,1.4-.09,1.9-.09a.69.69,0,0,1-.15.39,3.39,3.39,0,0,1-.35.42c-.14.13-.27.24-.4.34a2.21,2.21,0,0,0-.25.2l-1.23.23c-.55.11-1.13.2-1.75.29s-1.19.16-1.73.21-.9.09-1.1.09a6.54,6.54,0,0,1-2.7,0,4.59,4.59,0,0,1-1.95-1,5.55,5.55,0,0,1-1.3-1.8,9.53,9.53,0,0,1-.75-2.28,13.58,13.58,0,0,1-.28-2.51A17.22,17.22,0,0,1,237.27,70.64Zm7.25-7.41a2.6,2.6,0,0,0-1.17.41,6.38,6.38,0,0,0-1.36,1A7.43,7.43,0,0,0,240.94,66a1.58,1.58,0,0,0-.27,1.23,12.24,12.24,0,0,0,2.7,0,15.05,15.05,0,0,0,2.55-.54,8.12,8.12,0,0,0,1.91-.87q.75-.5.72-1c0-.35-.33-.66-1-.93A11.34,11.34,0,0,0,244.52,63.23Z" style="fill:#263238"></path><path d="M236.51,79.52c-.57.07-2.42.34-3,.42a69.16,69.16,0,0,1-8.84.57l-1.88-31.4h-1.88a27.59,27.59,0,0,1,.17,3.22c0,1.39,0,2.93,0,4.63s0,3.51,0,5.42,0,3.82.08,5.7.16,3.69.29,5.42a33.47,33.47,0,0,0,.65,4.6,10.39,10.39,0,0,0,1.14,3.17A2,2,0,0,0,225,82.44h.89a3.09,3.09,0,0,0,.45,0l.24,0c.8-.07,1.74-.17,2.83-.3l3.41-.4c.79-.08,2.86-.38,3.65-.47Z" style="fill:#263238"></path><path d="M258.51,65.09a4.27,4.27,0,0,0-1.23-.1c-.51,0-1.06,0-1.65.08l-1.67.15a12.62,12.62,0,0,1-1.35.09q-.26,0-.33-.63c-.05-.42-.13-1-.23-1.71l7.06-.43c.1-1,.17-1.73.2-2.17a11,11,0,0,0,0-1.1c0-.31,0-.65,0-1s0-1,0-1.84a8.74,8.74,0,0,1,2-.11,1.45,1.45,0,0,1,.92.32,1,1,0,0,1,.23.76c0,.33-.07.75-.15,1.24a16.9,16.9,0,0,0-.2,1.77,12.58,12.58,0,0,0,.07,2.34l6-.17v2.12l-1.25,0-1.83.09-1.8.09a5.14,5.14,0,0,0-1.23.17c-.26,1-.55,2.15-.85,3.34a21.85,21.85,0,0,0-.6,3.51,12.62,12.62,0,0,0,.1,3.22,4.4,4.4,0,0,0,1.25,2.47,5.59,5.59,0,0,0,2.85,1.35,13.32,13.32,0,0,0,4.91-.24,1.73,1.73,0,0,1-.58,1.06,3.64,3.64,0,0,1-1.1.65,6.23,6.23,0,0,1-1.32.34,7.47,7.47,0,0,1-1.25.11,8.59,8.59,0,0,1-4.06-.8,5.46,5.46,0,0,1-2.25-2.1,7.64,7.64,0,0,1-.95-3,22.49,22.49,0,0,1-.13-3.4c.06-1.15.15-2.29.28-3.42A27.15,27.15,0,0,0,258.51,65.09Z" style="fill:#263238"></path><path d="M283.22,61a3.8,3.8,0,0,1,1.3.26,1.69,1.69,0,0,1,1,1,5.78,5.78,0,0,1,1.23-2.38,4.29,4.29,0,0,1,1.9-1.26,5.66,5.66,0,0,1,2.25-.24,6.4,6.4,0,0,1,2.21.63,6.64,6.64,0,0,1,1.8,1.35,4.49,4.49,0,0,1,1.07,1.9,10.18,10.18,0,0,1,1.48-2.49,10.06,10.06,0,0,1,2.05-1.93,7.12,7.12,0,0,1,2.35-1.08,4.4,4.4,0,0,1,2.31,0,3.85,3.85,0,0,1,1.9,1.39,6.85,6.85,0,0,1,1.17,3.05c.07.38.15.93.25,1.67s.21,1.57.33,2.49.25,1.9.4,2.93.28,2,.4,2.92.22,1.75.32,2.49.19,1.28.25,1.63a8.3,8.3,0,0,1-.05.95,2.58,2.58,0,0,1-.22.89.86.86,0,0,1-.55.47c-.25.08-.63-.05-1.13-.37a14.88,14.88,0,0,0-.15-1.68c-.1-.78-.2-1.69-.3-2.71s-.22-2.11-.37-3.25-.3-2.22-.45-3.23-.28-1.91-.38-2.68a10.94,10.94,0,0,0-.3-1.65,7.38,7.38,0,0,0-1.58-2.77,2.12,2.12,0,0,0-1.65-.7,2.51,2.51,0,0,0-1.57.91,8.5,8.5,0,0,0-1.35,2.08,25.85,25.85,0,0,0-1.13,2.8,20.5,20.5,0,0,0-.8,3,24.17,24.17,0,0,0-.35,2.86,7,7,0,0,0,.17,2.21l-1.95.35a33.84,33.84,0,0,0-.32-6.83,13,13,0,0,0-1.3-4.09,3.33,3.33,0,0,0-1.88-1.71,2.51,2.51,0,0,0-2.08.37,5.82,5.82,0,0,0-1.87,2.16,12.19,12.19,0,0,0-1.28,3.66,21.49,21.49,0,0,0-.33,4.83,22.31,22.31,0,0,0,1.06,5.76h-1.91c-.16-1.09-.3-2.07-.42-2.92s-.24-1.82-.38-2.9-.26-2.18-.4-3.29-.26-2.18-.4-3.21-.25-1.9-.35-2.62V61Z" style="fill:#FF6200"></path><path d="M311.7,67.7a7.5,7.5,0,0,1,.65-2.88,11.57,11.57,0,0,1,4.33-5.25,5.36,5.36,0,0,1,3-.93,4.67,4.67,0,0,1,1.68.31,8.5,8.5,0,0,1,3,1.92,5.24,5.24,0,0,1,1,1.33,3.19,3.19,0,0,1,.37,1.34,1.46,1.46,0,0,1-.42,1.12L314.7,66.35c-.13,0-.25.17-.35.42a4.1,4.1,0,0,0-.25.93q-.11.55-.18,1.23c-.05.45-.09.88-.12,1.3s-.05.8-.05,1.13v.76a2.87,2.87,0,0,0,.67,2,4.19,4.19,0,0,0,1.73,1.14,9.16,9.16,0,0,0,2.38.53c.88.08,1.76.13,2.63.13s1.68,0,2.45-.09,1.4-.09,1.9-.09a.69.69,0,0,1-.15.39,2.71,2.71,0,0,1-.35.41c-.14.13-.27.25-.4.35l-.25.19-1.23.24c-.55.1-1.13.2-1.75.28s-1.19.16-1.73.22-.9.09-1.1.09a6.36,6.36,0,0,1-2.7,0,4.38,4.38,0,0,1-2-1A5.77,5.77,0,0,1,312.6,75a9.53,9.53,0,0,1-.75-2.28,13.68,13.68,0,0,1-.28-2.51A17.15,17.15,0,0,1,311.7,67.7ZM319,60.29a2.6,2.6,0,0,0-1.17.41,6.09,6.09,0,0,0-1.35,1,6.87,6.87,0,0,0-1.05,1.34,1.58,1.58,0,0,0-.28,1.24,12.26,12.26,0,0,0,2.7,0,13,13,0,0,0,2.55-.54,7.58,7.58,0,0,0,1.91-.86q.75-.49.72-1c0-.35-.33-.66-1-.93A10.61,10.61,0,0,0,319,60.29Z" style="fill:#FF6200"></path><path d="M215.27,99.37a7.69,7.69,0,0,1,.65-2.88,11.6,11.6,0,0,1,1.78-2.95,11.27,11.27,0,0,1,2.55-2.29,5.39,5.39,0,0,1,3-.93,4.88,4.88,0,0,1,1.68.3,8.25,8.25,0,0,1,1.6.8,8.55,8.55,0,0,1,1.4,1.13,5.09,5.09,0,0,1,1,1.32,3.21,3.21,0,0,1,.38,1.34,1.5,1.5,0,0,1-.43,1.13L218.28,98c-.14,0-.25.16-.35.41a4.1,4.1,0,0,0-.25.93q-.1.57-.18,1.23c-.05.45-.09.89-.12,1.3s-.06.8-.06,1.13v.76a2.84,2.84,0,0,0,.68,2,4.21,4.21,0,0,0,1.73,1.15,9.61,9.61,0,0,0,2.37.52c.89.08,1.76.13,2.63.13s1.69,0,2.45-.09,1.4-.09,1.91-.09a.71.71,0,0,1-.16.39,2.3,2.3,0,0,1-.35.42,3.14,3.14,0,0,1-.4.34l-.25.2-1.22.24c-.55.1-1.14.19-1.75.28s-1.2.16-1.73.21-.9.09-1.1.09a6.53,6.53,0,0,1-2.7,0,4.48,4.48,0,0,1-2-1,5.73,5.73,0,0,1-1.31-1.8,10.61,10.61,0,0,1-.75-2.27,13.79,13.79,0,0,1-.27-2.52A17.24,17.24,0,0,1,215.27,99.37ZM222.53,92a2.67,2.67,0,0,0-1.18.41,6.76,6.76,0,0,0-2.4,2.39,1.58,1.58,0,0,0-.27,1.23,12.26,12.26,0,0,0,2.7,0,15.05,15.05,0,0,0,2.55-.54,7.85,7.85,0,0,0,1.9-.87c.5-.33.74-.67.73-1s-.34-.66-.95-.93A11.43,11.43,0,0,0,222.53,92Z" style="fill:#263238"></path><path d="M231.34,89.62l.95-.86,7.7,7.49,4.81-8.32,1.95,1.22-4.9,9.18v.2c0,.1,0,.16.05.19.43.52,1,1.25,1.87,2.19l2.53,2.92c.87,1,1.66,2,2.38,3a10.57,10.57,0,0,1,1.37,2.21l-1.9.82-7.21-8.58a4.18,4.18,0,0,0-1.27,1.41q-.67,1.06-1.35,2.34c-.45.85-.86,1.67-1.23,2.45s-.67,1.37-.9,1.77l-2-.47,3.95-9.49Z" style="fill:#263238"></path><path d="M253.2,98.33a.76.76,0,0,1-.54.09,3.2,3.2,0,0,1-.66-.15,1.79,1.79,0,0,1-.52-.31.59.59,0,0,1-.23-.45,4.09,4.09,0,0,1,1.05-2.71,9.66,9.66,0,0,1,2.61-2.12,14.59,14.59,0,0,1,3.3-1.39,11.86,11.86,0,0,1,3.2-.5,12.51,12.51,0,0,1,4.18.67,9.75,9.75,0,0,1,3.2,1.85A8.14,8.14,0,0,1,270.85,96a7.9,7.9,0,0,1,.72,3.34,7.08,7.08,0,0,1-1.18,4.12,11.15,11.15,0,0,1-3.2,3.18,15.17,15.17,0,0,1-4.4,2,13.81,13.81,0,0,1-4.78.5,25.56,25.56,0,0,1-.05,3.57c-.1,1.35-.23,2.81-.4,4.4s-.38,3.27-.63,5.05-.51,3.6-.77,5.48c0,0-.1,0-.3,0a3.52,3.52,0,0,1-.63-.06l-.65-.13c-.22-.05-.34-.05-.37,0q.34-3.6.55-7.28t.15-7.39q-.06-3.7-.45-7.34A56.54,56.54,0,0,0,253.2,98.33Zm7.61-5.11a16.18,16.18,0,0,0-2.05.24,8.12,8.12,0,0,0-1.95.58,3.49,3.49,0,0,0-1.35,1,2,2,0,0,0-.35,1.6q.09.43.27,1.26l.4,1.86c.15.7.3,1.42.45,2.17s.3,1.47.45,2.17.29,1.32.4,1.88.21,1,.28,1.28c.4-.06,1-.12,1.7-.18a18,18,0,0,0,2.35-.34,21.41,21.41,0,0,0,2.58-.72,9.57,9.57,0,0,0,2.48-1.28,8.56,8.56,0,0,0,2-2,7.19,7.19,0,0,0,1.18-3.06,5.79,5.79,0,0,0-.7-2.9,6,6,0,0,0-1.9-2,8.2,8.2,0,0,0-2.83-1.17A15.22,15.22,0,0,0,260.81,93.22Z" style="fill:#263238"></path><path d="M275.47,75.89a4.6,4.6,0,0,1,1.23.32,1.76,1.76,0,0,1,.83.85c0,.55,0,1.31.07,2.27s.1,2.09.15,3.36.11,2.64.18,4.12.13,3,.2,4.46.12,3,.17,4.46.1,2.85.15,4.12.09,2.39.13,3.38.06,1.73.1,2.25a2.44,2.44,0,0,1,0,.3c0,.15,0,.32,0,.52s0,.4-.05.59a3.51,3.51,0,0,0,0,.41,2.87,2.87,0,0,0,0,.63,2.83,2.83,0,0,1-.1.71,1.9,1.9,0,0,1-.33.63,1,1,0,0,1-.72.32l-.86-.91a12.15,12.15,0,0,1-.12-1.62c-.05-1-.12-2.43-.2-4.12s-.16-3.59-.23-5.71-.14-4.27-.22-6.44-.16-4.24-.23-6.24-.11-3.71-.15-5.15q0-.18,0-.69c0-.35,0-.7,0-1.07s0-.7.05-1S275.47,76,275.47,75.89Z" style="fill:#263238"></path><path d="M281.48,105.82a4.09,4.09,0,0,1,1.58-3.59,6.93,6.93,0,0,1,4.12-1.13c.67,0,1.3,0,1.88.05a11.34,11.34,0,0,1,1.68.21,7.75,7.75,0,0,1,3.2,1.52c0-.09,0-.27,0-.54s0-.57,0-.89V100c0-.52-.05-1.2-.05-2a14.78,14.78,0,0,0-.23-2.53,7.43,7.43,0,0,0-.9-2.47,4.24,4.24,0,0,0-2.17-1.78,6,6,0,0,0-2,.31c-.6.2-1.2.41-1.8.65s-1.2.44-1.8.62a6.43,6.43,0,0,1-1.95.28,2.31,2.31,0,0,1,.78-1.79,5.28,5.28,0,0,1,1.87-1.11,10.38,10.38,0,0,1,2.3-.52c.81-.08,1.51-.13,2.11-.13s1.15.19,1.67.31a3.53,3.53,0,0,1,1.45.69,4.88,4.88,0,0,1,1.25,1.58,11.81,11.81,0,0,1,1,3,48.2,48.2,0,0,1,.75,4.83c.21,1.95.39,4.34.52,7.17a1,1,0,0,1-.42,1,4.43,4.43,0,0,1-1.43.7,17.51,17.51,0,0,1-2,.47,21.64,21.64,0,0,1-2.27.28c-.77.06-1.5.1-2.21.13s-1.28,0-1.75,0a6.78,6.78,0,0,1-1.82-.26,6.39,6.39,0,0,1-1.7-.76,4.29,4.29,0,0,1-1.26-1.21A2.88,2.88,0,0,1,281.48,105.82Zm6.5-3a9.08,9.08,0,0,0-3.5,1.45c-.67.57-1,1.11-.87,1.63a2.14,2.14,0,0,0,1.17,1.41,6.55,6.55,0,0,0,2.55.82,9,9,0,0,0,3.26-.22,8.88,8.88,0,0,0,3.35-1.62,8.3,8.3,0,0,0-1.2-1.93,4.36,4.36,0,0,0-1.3-1,4.62,4.62,0,0,0-1.55-.43A18.42,18.42,0,0,0,288,102.79Z" style="fill:#263238"></path><path d="M298.29,85a5.58,5.58,0,0,1,0-.67,1.77,1.77,0,0,1,.23-.68,1.71,1.71,0,0,1,.45-.52,1.07,1.07,0,0,1,.67-.21c.4,0,.8,0,1.2,0a6.25,6.25,0,0,1,1.16.2,2.27,2.27,0,0,1,.9.47,1.23,1.23,0,0,1,.35.93,2.42,2.42,0,0,1-.9,1.85,3.25,3.25,0,0,1-2.21.8,1.64,1.64,0,0,1-1.45-.67A2.7,2.7,0,0,1,298.29,85Zm2.9.21c-.1,0-.15.08-.15.22s0,.22.15.22.2-.07.2-.22S301.33,85.2,301.19,85.2Zm0,7.54a10.16,10.16,0,0,0,1,0,.76.76,0,0,1,.73.43c.1,1.3.21,2.62.35,4s.26,2.69.4,4.05.22,2.72.27,4.09.06,2.71,0,4c0,.17-.05.28-.15.32a.91.91,0,0,1-.43.05l-.65-.05a3.45,3.45,0,0,0-.82.07Z" style="fill:#263238"></path><path d="M306.8,109.33q-.1-.69-.18-2c-.05-.88-.1-1.88-.15-3s-.09-2.27-.12-3.49-.07-2.36-.1-3.46-.08-2.09-.13-3a14,14,0,0,0-.22-2,1.69,1.69,0,0,0,0-.22c0-.12,0-.25-.05-.39s0-.27,0-.37v-.24a1.47,1.47,0,0,1,1.27-.34,1.55,1.55,0,0,1,.88.75,4.34,4.34,0,0,1,.5,1.45c.1.58.18,1.16.23,1.74s.07,1.1.07,1.58v1q.11-.73.3-1.74a11.89,11.89,0,0,1,.6-2,14.85,14.85,0,0,1,1-2.06,7.33,7.33,0,0,1,1.42-1.8A6.35,6.35,0,0,1,314,88.54a5.75,5.75,0,0,1,2.48-.35,7,7,0,0,1,3.63,1,6.74,6.74,0,0,1,2.25,2.56,13,13,0,0,1,1.2,3.68,35.09,35.09,0,0,1,.5,4.42c.08,1.56.11,3.14.07,4.74s-.05,3.14-.05,4.62a4.44,4.44,0,0,0-.9.28,1.59,1.59,0,0,1-.75.17q-.3,0-.42-.39a3.39,3.39,0,0,1,.07-1.45c0-.52.09-1.32.18-2.4s.11-2.29.1-3.62a39.61,39.61,0,0,0-.28-4.12,16.13,16.13,0,0,0-.92-3.87A7.17,7.17,0,0,0,319.21,91,4.71,4.71,0,0,0,316,89.88a7,7,0,0,0-3.43,2.78,17.27,17.27,0,0,0-2.2,4.76,34.31,34.31,0,0,0-1.2,5.91,61.18,61.18,0,0,0-.43,6.22,1.07,1.07,0,0,0-.37,0l-.6,0-.61-.07A.82.82,0,0,1,306.8,109.33Z" style="fill:#263238"></path><path d="M276.25,133.33c-.19-.31-.54-.85-1-1.63s-1.1-1.68-1.79-2.68-1.43-2.07-2.2-3.18l-2.2-3.18c-.69-1-1.3-1.89-1.84-2.64s-.91-1.27-1.13-1.55c-.07-.06-.31,0-.73,0a4.37,4.37,0,0,0-1.69.94l12,17.67a17.17,17.17,0,0,1-.07,4.35c-.21,1.48-.47,3-.78,4.43s-.6,3-.89,4.44a22.44,22.44,0,0,0-.44,4.31l2.18.13,5.22-35.91-2.42-1Zm20.1-14.52a8.52,8.52,0,0,0-2.27-2.39,5,5,0,0,0-2.88-.92,6,6,0,0,0-2.71.61,7.33,7.33,0,0,0-2.12,1.59,10,10,0,0,0-1.58,2.24,18.72,18.72,0,0,0-1.08,2.55,15.63,15.63,0,0,0-.63,2.58,15,15,0,0,0-.2,2.24A9.07,9.07,0,0,0,284,132.2a5.81,5.81,0,0,0,2.85,2.45,6.44,6.44,0,0,0,3.68.23,9.89,9.89,0,0,0,3.67-1.63,9.57,9.57,0,0,0,2.83-3.18,9,9,0,0,0,1.11-4.48,11,11,0,0,0-.38-3.52A11.7,11.7,0,0,0,296.35,118.81Zm-1,10.27a9.3,9.3,0,0,1-2.15,2.68,7.33,7.33,0,0,1-2.71,1.49,4.29,4.29,0,0,1-2.68,0,4.17,4.17,0,0,1-2.1-1.82,8.34,8.34,0,0,1-1-3.94,11.59,11.59,0,0,1,.17-1.78,13.86,13.86,0,0,1,.53-2.11,17.33,17.33,0,0,1,.9-2.18,8.7,8.7,0,0,1,1.28-1.94,6.09,6.09,0,0,1,1.67-1.36,4.19,4.19,0,0,1,2.08-.5,3.73,3.73,0,0,1,2.15.64A5.43,5.43,0,0,1,295,120a9.57,9.57,0,0,1,1,2.53,9.27,9.27,0,0,1,.26,2.93A8,8,0,0,1,295.33,129.08ZM317.25,121a19.68,19.68,0,0,0,.32-5.06l-2.4.24a26,26,0,0,1-.12,3.4,14.52,14.52,0,0,1-.8,3.77,16.48,16.48,0,0,1-1.69,3.51,10,10,0,0,1-2.25,2.58,3.85,3.85,0,0,1-2.46.92,3.11,3.11,0,0,1-2.35-1.44,13.59,13.59,0,0,1-1.93-4.5,41.79,41.79,0,0,1-1.14-8.27.85.85,0,0,0-.62-.13,5.92,5.92,0,0,0-.9.17,2.75,2.75,0,0,0-.77.34c-.21.14-.32.28-.32.42a47.8,47.8,0,0,0,1.07,7.4,21.79,21.79,0,0,0,1.71,4.92,8.1,8.1,0,0,0,2.15,2.78,4.61,4.61,0,0,0,2.4,1,5.06,5.06,0,0,0,2.49-.46A9.75,9.75,0,0,0,312,131a13.68,13.68,0,0,0,2.1-2.35,11,11,0,0,0,1.65-2.8A18.71,18.71,0,0,0,317.25,121Z" style="fill:#e0e0e0"></path><path d="M276.25,133.33c-.19-.31-.54-.85-1-1.63s-1.1-1.68-1.79-2.68-1.43-2.07-2.2-3.18l-2.2-3.18c-.69-1-1.3-1.89-1.84-2.64s-.91-1.27-1.13-1.55c-.07-.06-.31,0-.73,0a4.37,4.37,0,0,0-1.69.94l12,17.67a17.17,17.17,0,0,1-.07,4.35c-.21,1.48-.47,3-.78,4.43s-.6,3-.89,4.44a22.44,22.44,0,0,0-.44,4.31l2.18.13,5.22-35.91-2.42-1Zm20.1-14.52a8.52,8.52,0,0,0-2.27-2.39,5,5,0,0,0-2.88-.92,6,6,0,0,0-2.71.61,7.33,7.33,0,0,0-2.12,1.59,10,10,0,0,0-1.58,2.24,18.72,18.72,0,0,0-1.08,2.55,15.63,15.63,0,0,0-.63,2.58,15,15,0,0,0-.2,2.24A9.07,9.07,0,0,0,284,132.2a5.81,5.81,0,0,0,2.85,2.45,6.44,6.44,0,0,0,3.68.23,9.89,9.89,0,0,0,3.67-1.63,9.57,9.57,0,0,0,2.83-3.18,9,9,0,0,0,1.11-4.48,11,11,0,0,0-.38-3.52A11.7,11.7,0,0,0,296.35,118.81Zm-1,10.27a9.3,9.3,0,0,1-2.15,2.68,7.33,7.33,0,0,1-2.71,1.49,4.29,4.29,0,0,1-2.68,0,4.17,4.17,0,0,1-2.1-1.82,8.34,8.34,0,0,1-1-3.94,11.59,11.59,0,0,1,.17-1.78,13.86,13.86,0,0,1,.53-2.11,17.33,17.33,0,0,1,.9-2.18,8.7,8.7,0,0,1,1.28-1.94,6.09,6.09,0,0,1,1.67-1.36,4.19,4.19,0,0,1,2.08-.5,3.73,3.73,0,0,1,2.15.64A5.43,5.43,0,0,1,295,120a9.57,9.57,0,0,1,1,2.53,9.27,9.27,0,0,1,.26,2.93A8,8,0,0,1,295.33,129.08ZM317.25,121a19.68,19.68,0,0,0,.32-5.06l-2.4.24a26,26,0,0,1-.12,3.4,14.52,14.52,0,0,1-.8,3.77,16.48,16.48,0,0,1-1.69,3.51,10,10,0,0,1-2.25,2.58,3.85,3.85,0,0,1-2.46.92,3.11,3.11,0,0,1-2.35-1.44,13.59,13.59,0,0,1-1.93-4.5,41.79,41.79,0,0,1-1.14-8.27.85.85,0,0,0-.62-.13,5.92,5.92,0,0,0-.9.17,2.75,2.75,0,0,0-.77.34c-.21.14-.32.28-.32.42a47.8,47.8,0,0,0,1.07,7.4,21.79,21.79,0,0,0,1.71,4.92,8.1,8.1,0,0,0,2.15,2.78,4.61,4.61,0,0,0,2.4,1,5.06,5.06,0,0,0,2.49-.46A9.75,9.75,0,0,0,312,131a13.68,13.68,0,0,0,2.1-2.35,11,11,0,0,0,1.65-2.8A18.71,18.71,0,0,0,317.25,121Z" style="opacity:0.2"></path></g></g></g></svg>
